<?xml version="1.0" encoding="UTF-8"?>
<!DOCTYPE svg PUBLIC "-//W3C//DTD SVG 1.1//EN" "http://www.w3.org/Graphics/SVG/1.1/DTD/svg11.dtd">
<!-- Creator: CorelDRAW -->
<svg xmlns="http://www.w3.org/2000/svg" xml:space="preserve" width="800px" height="96px" version="1.1" style="shape-rendering:geometricPrecision; text-rendering:geometricPrecision; image-rendering:optimizeQuality; fill-rule:evenodd; clip-rule:evenodd"
viewBox="0 0 121.006 14.521"
 xmlns:xlink="http://www.w3.org/1999/xlink"
 xmlns:xodm="http://www.corel.com/coreldraw/odm/2003">
 <defs>
  <style type="text/css">
   <![CDATA[
    .fil0 {fill:none}
    .fil1 {fill:black}
    .fil3 {fill:#101010}
    .fil4 {fill:black;fill-rule:nonzero}
    .fil2 {fill:black;fill-rule:nonzero}
   ]]>
  </style>
 </defs>
 <g id="Layer_x0020_1">
  <metadata id="CorelCorpID_0Corel-Layer"/>
  <g id="_2647282415824">
   <rect class="fil0" width="121.006" height="14.521"/>
   <g>
    <path class="fil1" d="M24.376 3.075l0 -1.296 0.937 0 0 0.153 -0.765 0 0 0.397 0.716 0 0 0.152 -0.716 0 0 0.441 0.795 0 0 0.153 -0.967 0zm1.137 -0.37l0.143 -0.012c0.007,0.057 0.023,0.105 0.047,0.142 0.025,0.037 0.064,0.066 0.116,0.089 0.052,0.023 0.111,0.034 0.177,0.034 0.058,0 0.109,-0.009 0.153,-0.026 0.045,-0.017 0.078,-0.041 0.1,-0.071 0.021,-0.03 0.032,-0.063 0.032,-0.098 0,-0.036 -0.01,-0.068 -0.031,-0.095 -0.021,-0.027 -0.056,-0.049 -0.104,-0.067 -0.031,-0.012 -0.099,-0.031 -0.204,-0.057 -0.106,-0.025 -0.18,-0.049 -0.222,-0.071 -0.055,-0.029 -0.096,-0.065 -0.123,-0.108 -0.027,-0.042 -0.04,-0.09 -0.04,-0.143 0,-0.058 0.016,-0.112 0.049,-0.162 0.033,-0.051 0.081,-0.089 0.144,-0.115 0.064,-0.026 0.134,-0.04 0.211,-0.04 0.085,0 0.161,0.014 0.226,0.042 0.065,0.027 0.115,0.067 0.15,0.121 0.035,0.053 0.054,0.113 0.057,0.181l-0.146 0.011c-0.008,-0.073 -0.035,-0.128 -0.08,-0.165 -0.045,-0.037 -0.112,-0.055 -0.2,-0.055 -0.093,0 -0.159,0.017 -0.202,0.05 -0.042,0.034 -0.063,0.075 -0.063,0.122 0,0.041 0.015,0.076 0.045,0.102 0.029,0.027 0.105,0.054 0.229,0.082 0.124,0.028 0.209,0.052 0.255,0.073 0.067,0.031 0.116,0.07 0.148,0.118 0.032,0.047 0.048,0.102 0.048,0.163 0,0.061 -0.018,0.119 -0.053,0.173 -0.035,0.054 -0.085,0.096 -0.151,0.127 -0.065,0.03 -0.139,0.045 -0.221,0.045 -0.104,0 -0.192,-0.015 -0.262,-0.046 -0.07,-0.03 -0.125,-0.076 -0.165,-0.137 -0.04,-0.061 -0.062,-0.13 -0.063,-0.207zm1.943 -0.033l0.153 0.038c-0.032,0.125 -0.09,0.22 -0.173,0.286 -0.083,0.066 -0.184,0.099 -0.304,0.099 -0.124,0 -0.224,-0.026 -0.302,-0.076 -0.078,-0.051 -0.137,-0.124 -0.177,-0.219 -0.041,-0.096 -0.061,-0.199 -0.061,-0.309 0,-0.119 0.023,-0.224 0.068,-0.313 0.046,-0.089 0.111,-0.157 0.196,-0.203 0.084,-0.047 0.177,-0.07 0.279,-0.07 0.115,0 0.211,0.03 0.29,0.088 0.078,0.059 0.133,0.141 0.164,0.247l-0.15 0.036c-0.027,-0.084 -0.065,-0.145 -0.116,-0.183 -0.051,-0.038 -0.114,-0.057 -0.192,-0.057 -0.088,0 -0.161,0.021 -0.221,0.063 -0.059,0.043 -0.101,0.099 -0.125,0.171 -0.024,0.071 -0.036,0.145 -0.036,0.221 0,0.098 0.014,0.183 0.042,0.256 0.029,0.073 0.073,0.127 0.134,0.163 0.06,0.036 0.125,0.054 0.195,0.054 0.085,0 0.157,-0.024 0.216,-0.073 0.059,-0.05 0.099,-0.123 0.12,-0.219zm1.095 -0.747l0.152 0 0 0.664c0,0.116 -0.013,0.208 -0.039,0.276 -0.027,0.068 -0.074,0.123 -0.142,0.166 -0.068,0.042 -0.158,0.064 -0.269,0.064 -0.107,0 -0.196,-0.019 -0.264,-0.056 -0.068,-0.037 -0.117,-0.091 -0.147,-0.161 -0.029,-0.071 -0.044,-0.167 -0.044,-0.289l0 -0.664 0.153 0 0 0.664c0,0.1 0.009,0.173 0.027,0.22 0.019,0.048 0.051,0.084 0.096,0.11 0.045,0.026 0.101,0.038 0.166,0.038 0.112,0 0.192,-0.025 0.239,-0.076 0.048,-0.05 0.072,-0.148 0.072,-0.292l0 -0.664zm0.408 1.15l0 -1.15 0.832 0 0 0.136 -0.679 0 0 0.352 0.636 0 0 0.135 -0.636 0 0 0.391 0.706 0 0 0.136 -0.859 0zm1.062 0l0 -1.15 0.153 0 0 1.014 0.566 0 0 0.136 -0.719 0zm0.774 0l0.442 -1.15 0.164 0 0.47 1.15 -0.173 0 -0.134 -0.348 -0.481 0 -0.126 0.348 -0.162 0zm0.332 -0.472l0.39 0 -0.121 -0.319c-0.036,-0.096 -0.063,-0.176 -0.081,-0.238 -0.015,0.074 -0.035,0.147 -0.062,0.22l-0.126 0.337zm-5.83 2.04l0.172 0.043c-0.036,0.141 -0.101,0.248 -0.194,0.322 -0.094,0.074 -0.208,0.111 -0.343,0.111 -0.14,0 -0.253,-0.028 -0.341,-0.085 -0.087,-0.057 -0.154,-0.139 -0.199,-0.247 -0.046,-0.108 -0.069,-0.224 -0.069,-0.348 0,-0.134 0.026,-0.252 0.078,-0.353 0.051,-0.1 0.124,-0.176 0.22,-0.229 0.095,-0.052 0.199,-0.078 0.314,-0.078 0.13,0 0.238,0.033 0.327,0.099 0.088,0.066 0.15,0.159 0.184,0.279l-0.168 0.039c-0.03,-0.094 -0.074,-0.162 -0.131,-0.206 -0.057,-0.043 -0.129,-0.064 -0.216,-0.064 -0.099,0 -0.182,0.024 -0.249,0.071 -0.067,0.048 -0.114,0.112 -0.141,0.193 -0.027,0.08 -0.041,0.163 -0.041,0.248 0,0.111 0.016,0.207 0.048,0.289 0.032,0.082 0.082,0.144 0.15,0.184 0.068,0.041 0.141,0.061 0.22,0.061 0.096,0 0.177,-0.027 0.244,-0.083 0.067,-0.055 0.112,-0.137 0.135,-0.246zm0.321 -0.106c0,-0.191 0.051,-0.341 0.153,-0.448 0.103,-0.108 0.235,-0.162 0.398,-0.162 0.106,0 0.201,0.025 0.287,0.076 0.085,0.05 0.15,0.121 0.195,0.212 0.044,0.09 0.067,0.193 0.067,0.308 0,0.117 -0.024,0.222 -0.071,0.313 -0.047,0.092 -0.114,0.162 -0.2,0.21 -0.086,0.047 -0.179,0.071 -0.279,0.071 -0.109,0 -0.205,-0.027 -0.29,-0.079 -0.086,-0.052 -0.15,-0.124 -0.194,-0.214 -0.044,-0.09 -0.066,-0.186 -0.066,-0.287zm0.157 0.002c0,0.139 0.037,0.248 0.111,0.328 0.075,0.079 0.169,0.119 0.281,0.119 0.115,0 0.209,-0.04 0.283,-0.12 0.074,-0.081 0.111,-0.195 0.111,-0.343 0,-0.094 -0.016,-0.175 -0.048,-0.245 -0.031,-0.07 -0.078,-0.124 -0.139,-0.163 -0.06,-0.038 -0.129,-0.057 -0.205,-0.057 -0.107,0 -0.2,0.036 -0.278,0.111 -0.077,0.074 -0.116,0.197 -0.116,0.37zm1.132 0.558l0 -1.15 0.153 0 0 1.014 0.566 0 0 0.136 -0.719 0zm0.854 -0.56c0,-0.191 0.051,-0.341 0.154,-0.448 0.102,-0.108 0.234,-0.162 0.397,-0.162 0.106,0 0.202,0.025 0.287,0.076 0.085,0.05 0.15,0.121 0.195,0.212 0.044,0.09 0.067,0.193 0.067,0.308 0,0.117 -0.024,0.222 -0.071,0.313 -0.047,0.092 -0.114,0.162 -0.2,0.21 -0.086,0.047 -0.179,0.071 -0.279,0.071 -0.109,0 -0.205,-0.027 -0.29,-0.079 -0.086,-0.052 -0.15,-0.124 -0.194,-0.214 -0.044,-0.09 -0.066,-0.186 -0.066,-0.287zm0.157 0.002c0,0.139 0.037,0.248 0.112,0.328 0.074,0.079 0.168,0.119 0.28,0.119 0.115,0 0.209,-0.04 0.283,-0.12 0.074,-0.081 0.111,-0.195 0.111,-0.343 0,-0.094 -0.016,-0.175 -0.048,-0.245 -0.031,-0.07 -0.078,-0.124 -0.138,-0.163 -0.061,-0.038 -0.13,-0.057 -0.206,-0.057 -0.107,0 -0.2,0.036 -0.278,0.111 -0.077,0.074 -0.116,0.197 -0.116,0.37zm1.134 0.558l0 -1.15 0.229 0 0.272 0.814c0.025,0.076 0.044,0.133 0.055,0.17 0.013,-0.041 0.034,-0.103 0.062,-0.184l0.275 -0.8 0.204 0 0 1.15 -0.146 0 0 -0.963 -0.334 0.963 -0.138 0 -0.332 -0.979 0 0.979 -0.147 0zm1.337 0l0 -1.15 0.431 0c0.088,0 0.159,0.012 0.212,0.035 0.053,0.023 0.094,0.059 0.124,0.107 0.03,0.049 0.046,0.099 0.046,0.152 0,0.049 -0.014,0.096 -0.041,0.139 -0.026,0.043 -0.067,0.078 -0.12,0.105 0.069,0.02 0.123,0.055 0.16,0.104 0.038,0.05 0.056,0.108 0.056,0.175 0,0.053 -0.011,0.104 -0.034,0.15 -0.023,0.046 -0.051,0.082 -0.084,0.107 -0.034,0.025 -0.076,0.044 -0.126,0.057 -0.051,0.012 -0.112,0.019 -0.186,0.019l-0.438 0zm0.152 -0.667l0.249 0c0.067,0 0.115,-0.004 0.145,-0.013 0.038,-0.012 0.068,-0.031 0.087,-0.057 0.02,-0.027 0.03,-0.061 0.03,-0.101 0,-0.038 -0.009,-0.072 -0.028,-0.1 -0.018,-0.03 -0.044,-0.05 -0.078,-0.06 -0.034,-0.011 -0.093,-0.016 -0.175,-0.016l-0.23 0 0 0.347zm0 0.531l0.286 0c0.049,0 0.084,-0.002 0.104,-0.005 0.035,-0.007 0.064,-0.017 0.088,-0.032 0.023,-0.014 0.043,-0.036 0.058,-0.064 0.015,-0.028 0.023,-0.06 0.023,-0.096 0,-0.043 -0.011,-0.081 -0.033,-0.112 -0.022,-0.032 -0.053,-0.054 -0.092,-0.067 -0.039,-0.013 -0.095,-0.019 -0.168,-0.019l-0.266 0 0 0.395zm0.952 0.136l0 -1.15 0.152 0 0 1.15 -0.152 0zm0.294 0l0.441 -1.15 0.164 0 0.471 1.15 -0.174 0 -0.134 -0.348 -0.481 0 -0.126 0.348 -0.161 0zm0.331 -0.472l0.391 0 -0.121 -0.319c-0.036,-0.096 -0.063,-0.176 -0.081,-0.238 -0.015,0.074 -0.035,0.147 -0.062,0.219l-0.127 0.338zm0.865 0.472l0 -1.15 0.156 0 0.604 0.903 0 -0.903 0.146 0 0 1.15 -0.156 0 -0.604 -0.904 0 0.904 -0.146 0zm1.035 0l0.442 -1.15 0.164 0 0.471 1.15 -0.174 0 -0.134 -0.348 -0.481 0 -0.126 0.348 -0.162 0zm0.332 -0.472l0.39 0 -0.12 -0.319c-0.036,-0.096 -0.064,-0.176 -0.081,-0.238 -0.015,0.074 -0.036,0.147 -0.063,0.219l-0.126 0.338zm-9.993 2.494l0 -1.15 0.396 0c0.09,0 0.158,0.006 0.205,0.016 0.066,0.016 0.122,0.043 0.169,0.083 0.06,0.051 0.106,0.116 0.136,0.196 0.03,0.08 0.045,0.171 0.045,0.274 0,0.087 -0.01,0.164 -0.031,0.232 -0.02,0.067 -0.046,0.123 -0.078,0.167 -0.032,0.045 -0.067,0.079 -0.105,0.105 -0.038,0.025 -0.084,0.044 -0.137,0.057 -0.054,0.013 -0.116,0.02 -0.185,0.02l-0.415 0zm0.152 -0.136l0.246 0c0.075,0 0.135,-0.007 0.178,-0.021 0.043,-0.014 0.078,-0.034 0.103,-0.06 0.036,-0.036 0.065,-0.084 0.085,-0.145 0.02,-0.061 0.03,-0.135 0.03,-0.222 0,-0.12 -0.02,-0.212 -0.059,-0.277 -0.04,-0.065 -0.088,-0.108 -0.144,-0.13 -0.041,-0.016 -0.107,-0.023 -0.197,-0.023l-0.242 0 0 0.878zm1.012 0.136l0 -1.15 0.831 0 0 0.136 -0.679 0 0 0.352 0.636 0 0 0.135 -0.636 0 0 0.391 0.706 0 0 0.136 -0.858 0zm1.616 0l0 -1.296 0.171 0 0 1.296 -0.171 0zm0.456 0l0 -1.15 0.156 0 0.604 0.903 0 -0.903 0.146 0 0 1.15 -0.156 0 -0.604 -0.904 0 0.904 -0.146 0zm1.7 -0.451l0 -0.135 0.487 -0.001 0 0.427c-0.075,0.059 -0.152,0.104 -0.231,0.134 -0.08,0.031 -0.162,0.046 -0.245,0.046 -0.113,0 -0.216,-0.025 -0.308,-0.073 -0.092,-0.048 -0.162,-0.118 -0.209,-0.21 -0.047,-0.091 -0.071,-0.194 -0.071,-0.307 0,-0.112 0.024,-0.216 0.071,-0.313 0.046,-0.097 0.114,-0.169 0.202,-0.216 0.087,-0.047 0.189,-0.071 0.303,-0.071 0.083,0 0.158,0.014 0.226,0.041 0.067,0.027 0.119,0.064 0.157,0.112 0.039,0.048 0.068,0.111 0.088,0.189l-0.138 0.037c-0.017,-0.058 -0.038,-0.104 -0.064,-0.138 -0.026,-0.033 -0.062,-0.06 -0.11,-0.08 -0.047,-0.02 -0.1,-0.031 -0.158,-0.031 -0.07,0 -0.13,0.011 -0.181,0.032 -0.05,0.021 -0.091,0.049 -0.123,0.084 -0.031,0.034 -0.055,0.072 -0.072,0.114 -0.029,0.071 -0.044,0.148 -0.044,0.231 0,0.103 0.018,0.188 0.053,0.257 0.035,0.069 0.087,0.121 0.154,0.154 0.068,0.034 0.139,0.05 0.215,0.05 0.066,0 0.13,-0.012 0.193,-0.038 0.063,-0.025 0.11,-0.052 0.143,-0.081l0 -0.214 -0.338 0zm0.715 0.451l0 -1.15 0.831 0 0 0.136 -0.679 0 0 0.352 0.636 0 0 0.135 -0.636 0 0 0.391 0.706 0 0 0.136 -0.858 0zm1.066 0l0 -1.15 0.156 0 0.604 0.903 0 -0.903 0.146 0 0 1.15 -0.156 0 -0.604 -0.904 0 0.904 -0.146 0zm1.188 0l0 -1.15 0.152 0 0 1.15 -0.152 0zm0.424 0l0 -1.15 0.831 0 0 0.136 -0.679 0 0 0.352 0.636 0 0 0.135 -0.636 0 0 0.391 0.706 0 0 0.136 -0.858 0zm1.07 0l0 -1.15 0.51 0c0.103,0 0.181,0.01 0.234,0.031 0.053,0.021 0.096,0.057 0.128,0.109 0.032,0.053 0.048,0.111 0.048,0.174 0,0.081 -0.027,0.15 -0.08,0.206 -0.053,0.056 -0.134,0.091 -0.244,0.107 0.04,0.019 0.07,0.038 0.091,0.057 0.045,0.041 0.087,0.092 0.127,0.153l0.2 0.313 -0.192 0 -0.152 -0.239c-0.044,-0.069 -0.081,-0.122 -0.11,-0.159 -0.028,-0.036 -0.054,-0.062 -0.077,-0.077 -0.023,-0.014 -0.046,-0.024 -0.069,-0.03 -0.018,-0.004 -0.046,-0.006 -0.085,-0.006l-0.177 0 0 0.511 -0.152 0zm0.152 -0.642l0.328 0c0.069,0 0.124,-0.008 0.163,-0.022 0.039,-0.015 0.069,-0.038 0.089,-0.069 0.02,-0.032 0.031,-0.066 0.031,-0.103 0,-0.055 -0.02,-0.099 -0.06,-0.134 -0.039,-0.035 -0.101,-0.053 -0.187,-0.053l-0.364 0 0 0.381zm1.032 0.642l0 -1.15 0.152 0 0 1.15 -0.152 0zm-0.039 -1.221l0.104 -0.219 0.185 0 -0.172 0.219 -0.117 0zm0.333 1.221l0.442 -1.15 0.164 0 0.47 1.15 -0.173 0 -0.134 -0.348 -0.481 0 -0.126 0.348 -0.162 0zm0.332 -0.472l0.39 0 -0.12 -0.319c-0.037,-0.096 -0.064,-0.176 -0.082,-0.238 -0.014,0.074 -0.035,0.147 -0.062,0.219l-0.126 0.338zm-11.281 2.126l0.155 -0.021c0.004,0.099 0.023,0.167 0.056,0.203 0.033,0.037 0.078,0.055 0.137,0.055 0.043,0 0.08,-0.01 0.111,-0.03 0.031,-0.019 0.053,-0.046 0.064,-0.08 0.012,-0.034 0.018,-0.088 0.018,-0.162l0 -0.893 0.172 0 0 0.883c0,0.109 -0.013,0.193 -0.04,0.252 -0.026,0.059 -0.068,0.105 -0.124,0.136 -0.057,0.031 -0.124,0.047 -0.201,0.047 -0.113,0 -0.2,-0.033 -0.261,-0.098 -0.06,-0.066 -0.089,-0.163 -0.087,-0.292zm1.732 -0.782l0.152 0 0 0.664c0,0.116 -0.013,0.208 -0.039,0.276 -0.027,0.068 -0.074,0.123 -0.142,0.165 -0.068,0.043 -0.158,0.064 -0.269,0.064 -0.107,0 -0.196,-0.018 -0.264,-0.055 -0.068,-0.037 -0.117,-0.091 -0.147,-0.161 -0.029,-0.071 -0.044,-0.167 -0.044,-0.289l0 -0.664 0.153 0 0 0.664c0,0.099 0.009,0.173 0.027,0.22 0.019,0.048 0.051,0.084 0.096,0.11 0.045,0.026 0.101,0.038 0.166,0.038 0.112,0 0.192,-0.025 0.239,-0.076 0.048,-0.051 0.072,-0.148 0.072,-0.292l0 -0.664zm0.399 1.15l0 -1.15 0.152 0 0 1.014 0.566 0 0 0.136 -0.718 0zm0.926 0l0 -1.15 0.152 0 0 1.15 -0.152 0zm0.374 -0.56c0,-0.191 0.051,-0.341 0.153,-0.448 0.103,-0.108 0.235,-0.162 0.398,-0.162 0.106,0 0.201,0.025 0.287,0.076 0.085,0.05 0.15,0.121 0.194,0.212 0.045,0.09 0.067,0.193 0.067,0.308 0,0.117 -0.023,0.222 -0.07,0.313 -0.047,0.092 -0.114,0.162 -0.2,0.209 -0.086,0.048 -0.179,0.071 -0.279,0.071 -0.109,0 -0.205,-0.026 -0.291,-0.078 -0.085,-0.052 -0.15,-0.124 -0.193,-0.214 -0.044,-0.09 -0.066,-0.186 -0.066,-0.287zm0.157 0.002c0,0.139 0.037,0.248 0.111,0.328 0.075,0.079 0.168,0.119 0.281,0.119 0.115,0 0.209,-0.04 0.283,-0.12 0.074,-0.081 0.111,-0.195 0.111,-0.343 0,-0.094 -0.016,-0.176 -0.048,-0.245 -0.031,-0.07 -0.078,-0.124 -0.139,-0.163 -0.061,-0.038 -0.129,-0.058 -0.205,-0.058 -0.108,0 -0.2,0.037 -0.278,0.112 -0.078,0.074 -0.116,0.197 -0.116,0.37zm2.264 0.05l0 -0.152 0.548 -0.001 0 0.481c-0.084,0.067 -0.171,0.117 -0.26,0.151 -0.09,0.034 -0.182,0.051 -0.276,0.051 -0.127,0 -0.243,-0.027 -0.347,-0.082 -0.104,-0.054 -0.182,-0.133 -0.236,-0.236 -0.053,-0.103 -0.079,-0.218 -0.079,-0.346 0,-0.126 0.026,-0.243 0.079,-0.353 0.053,-0.109 0.129,-0.19 0.228,-0.243 0.098,-0.053 0.212,-0.08 0.342,-0.08 0.093,0 0.178,0.015 0.254,0.046 0.075,0.03 0.135,0.072 0.178,0.127 0.043,0.054 0.075,0.124 0.098,0.212l-0.155 0.042c-0.019,-0.066 -0.044,-0.118 -0.072,-0.156 -0.029,-0.037 -0.07,-0.067 -0.124,-0.09 -0.054,-0.023 -0.113,-0.034 -0.178,-0.034 -0.079,0 -0.147,0.012 -0.204,0.036 -0.057,0.024 -0.103,0.055 -0.138,0.094 -0.035,0.039 -0.062,0.081 -0.082,0.128 -0.033,0.08 -0.049,0.167 -0.049,0.261 0,0.115 0.019,0.212 0.059,0.29 0.04,0.077 0.098,0.135 0.174,0.173 0.076,0.037 0.157,0.056 0.242,0.056 0.074,0 0.147,-0.014 0.217,-0.043 0.071,-0.028 0.125,-0.058 0.161,-0.091l0 -0.241 -0.38 0zm0.659 0.508l0.442 -1.15 0.164 0 0.47 1.15 -0.173 0 -0.134 -0.348 -0.481 0 -0.126 0.348 -0.162 0zm0.332 -0.472l0.39 0 -0.12 -0.319c-0.037,-0.096 -0.064,-0.176 -0.082,-0.238 -0.015,0.074 -0.035,0.147 -0.062,0.219l-0.126 0.338zm0.868 0.472l0 -1.15 0.51 0c0.103,0 0.181,0.01 0.234,0.031 0.053,0.021 0.096,0.057 0.128,0.109 0.032,0.053 0.047,0.11 0.047,0.174 0,0.081 -0.026,0.15 -0.079,0.206 -0.053,0.056 -0.134,0.091 -0.244,0.107 0.04,0.019 0.07,0.038 0.091,0.057 0.045,0.041 0.087,0.092 0.127,0.153l0.2 0.313 -0.192 0 -0.152 -0.239c-0.044,-0.069 -0.081,-0.122 -0.11,-0.159 -0.029,-0.036 -0.054,-0.062 -0.077,-0.077 -0.023,-0.014 -0.046,-0.024 -0.069,-0.03 -0.018,-0.004 -0.046,-0.006 -0.085,-0.006l-0.177 0 0 0.511 -0.152 0zm0.152 -0.642l0.328 0c0.069,0 0.124,-0.008 0.163,-0.022 0.039,-0.015 0.069,-0.038 0.089,-0.069 0.02,-0.032 0.031,-0.066 0.031,-0.103 0,-0.055 -0.02,-0.099 -0.06,-0.134 -0.039,-0.036 -0.101,-0.053 -0.187,-0.053l-0.364 0 0 0.381zm0.88 0.642l0.441 -1.15 0.164 0 0.471 1.15 -0.174 0 -0.134 -0.348 -0.48 0 -0.127 0.348 -0.161 0zm0.331 -0.472l0.391 0 -0.121 -0.319c-0.036,-0.096 -0.063,-0.176 -0.081,-0.238 -0.015,0.074 -0.035,0.147 -0.062,0.219l-0.127 0.338zm1.076 0.472l-0.446 -1.15 0.165 0 0.299 0.835c0.024,0.067 0.044,0.13 0.06,0.188 0.018,-0.062 0.039,-0.125 0.062,-0.188l0.311 -0.835 0.155 0 -0.45 1.15 -0.156 0zm0.769 0l0 -1.15 0.152 0 0 1.15 -0.152 0zm0.713 0l0 -1.014 -0.379 0 0 -0.136 0.912 0 0 0.136 -0.381 0 0 1.014 -0.152 0zm0.613 -0.56c0,-0.191 0.052,-0.341 0.154,-0.448 0.103,-0.108 0.235,-0.162 0.397,-0.162 0.106,0 0.202,0.025 0.287,0.076 0.085,0.05 0.15,0.121 0.195,0.212 0.045,0.09 0.067,0.193 0.067,0.308 0,0.117 -0.023,0.222 -0.07,0.313 -0.047,0.092 -0.114,0.162 -0.2,0.209 -0.087,0.048 -0.18,0.071 -0.28,0.071 -0.108,0 -0.205,-0.026 -0.29,-0.078 -0.085,-0.052 -0.15,-0.124 -0.194,-0.214 -0.044,-0.09 -0.066,-0.186 -0.066,-0.287zm0.157 0.002c0,0.139 0.038,0.248 0.112,0.328 0.075,0.079 0.168,0.119 0.281,0.119 0.114,0 0.208,-0.04 0.282,-0.12 0.074,-0.081 0.111,-0.195 0.111,-0.343 0,-0.094 -0.016,-0.176 -0.047,-0.245 -0.032,-0.07 -0.078,-0.124 -0.139,-0.163 -0.061,-0.038 -0.129,-0.058 -0.205,-0.058 -0.108,0 -0.201,0.037 -0.278,0.112 -0.078,0.074 -0.117,0.197 -0.117,0.37z"/>
    <g>
     <g>
      <g>
       <path class="fil2" d="M18.247 9.656c-0.018,0.019 -0.049,0.019 -0.067,0 -0.019,-0.018 -0.019,-0.048 0,-0.067l0.067 0.067zm4.545 -4.567l-4.545 4.567 -0.067 -0.067 4.545 -4.567 0.067 0.067zm-0.067 -0.067c0.018,-0.019 0.048,-0.019 0.067,0 0.018,0.018 0.019,0.048 0,0.067l-0.067 -0.067z"/>
      </g>
      <g>
       <path class="fil2" d="M21.292 9.632c-0.005,0.025 -0.031,0.042 -0.056,0.037 -0.026,-0.005 -0.043,-0.03 -0.037,-0.056l0.093 0.019zm1.511 -7.622l-1.511 7.622 -0.093 -0.019 1.511 -7.621 0.093 0.018zm-0.093 -0.018c0.005,-0.026 0.03,-0.043 0.056,-0.038 0.025,0.005 0.042,0.031 0.037,0.056l-0.093 -0.018z"/>
      </g>
      <g>
       <path class="fil2" d="M19.788 9.618c-0.011,0.024 -0.04,0.033 -0.063,0.022 -0.024,-0.012 -0.033,-0.04 -0.022,-0.064l0.085 0.042zm3.013 -6.087l-3.013 6.087 -0.085 -0.042 3.013 -6.087 0.085 0.042zm-0.085 -0.042c0.011,-0.024 0.04,-0.033 0.063,-0.022 0.024,0.012 0.033,0.041 0.022,0.064l-0.085 -0.042z"/>
      </g>
      <g>
       <path class="fil2" d="M16.705 9.665c-0.023,0.012 -0.052,0.002 -0.064,-0.021 -0.012,-0.023 -0.002,-0.052 0.021,-0.064l0.043 0.085zm6.075 -3.055l-6.075 3.055 -0.043 -0.085 6.075 -3.055 0.043 0.085zm-0.043 -0.085c0.023,-0.012 0.052,-0.002 0.064,0.021 0.011,0.023 0.002,0.052 -0.021,0.064l-0.043 -0.085z"/>
      </g>
      <g>
       <path class="fil2" d="M15.178 9.657c-0.026,0.005 -0.051,-0.011 -0.056,-0.037 -0.005,-0.026 0.012,-0.051 0.037,-0.056l0.019 0.093zm7.59 -1.511l-7.59 1.511 -0.019 -0.093 7.59 -1.511 0.019 0.093zm-0.019 -0.093c0.026,-0.005 0.051,0.012 0.056,0.037 0.005,0.026 -0.012,0.051 -0.037,0.056l-0.019 -0.093z"/>
      </g>
     </g>
     <g>
      <path class="fil2" d="M18.213 9.67c-0.026,0 -0.047,-0.021 -0.047,-0.047 0,-0.027 0.021,-0.048 0.047,-0.048l0 0.095zm0.751 0l-0.751 0 0 -0.095 0.751 0 0.039 0.075 -0.039 0.02zm0 -0.095c0.026,0 0.047,0.021 0.047,0.048 0,0.026 -0.021,0.047 -0.047,0.047l0 -0.095zm3.833 -5.252l-3.794 5.327 -0.078 -0.055 3.795 -5.328 0.086 0.028 -0.009 0.028zm-0.077 -0.056c0.015,-0.021 0.045,-0.026 0.066,-0.011 0.021,0.015 0.026,0.045 0.011,0.067l-0.077 -0.056zm0.086 -0.757l0 0.785 -0.095 0 0 -0.785 0.095 0zm-0.095 0c0,-0.026 0.021,-0.048 0.047,-0.048 0.027,0 0.048,0.022 0.048,0.048l-0.095 0z"/>
     </g>
     <g>
      <path class="fil2" d="M22.711 8.1c0,-0.026 0.021,-0.048 0.047,-0.048 0.027,0 0.048,0.022 0.048,0.048l-0.095 0zm0 0.762l0 -0.762 0.095 0 0 0.762 -0.043 0.047 -0.052 -0.047zm0.095 0c0,0.026 -0.021,0.048 -0.048,0.048 -0.026,0 -0.047,-0.022 -0.047,-0.048l0.095 0zm-7.642 0.713l7.59 -0.76 0.009 0.094 -7.59 0.761 -0.005 0 -0.004 -0.095zm0.009 0.095c-0.026,0.002 -0.049,-0.017 -0.052,-0.043 -0.002,-0.026 0.017,-0.049 0.043,-0.052l0.009 0.095zm0.774 0l-0.779 0 0 -0.095 0.779 0 0.015 0.093 -0.015 0.002zm0 -0.095c0.026,0 0.047,0.021 0.047,0.048 0,0.026 -0.021,0.047 -0.047,0.047l0 -0.095zm6.827 -2.201l-6.812 2.294 -0.03 -0.09 6.811 -2.294 0.063 0.045 -0.032 0.045zm-0.031 -0.09c0.025,-0.008 0.052,0.005 0.06,0.03 0.009,0.025 -0.005,0.052 -0.029,0.06l-0.031 -0.09zm0.063 -0.717l0 0.762 -0.095 0 0 -0.762 0.095 0zm-0.095 0c0,-0.026 0.021,-0.047 0.047,-0.047 0.027,0 0.048,0.021 0.048,0.047l-0.095 0z"/>
     </g>
     <g>
      <path class="fil2" d="M22.711 5.055c0,-0.026 0.021,-0.047 0.047,-0.047 0.027,0 0.048,0.021 0.048,0.047l-0.095 0zm0 0.749l0 -0.749 0.095 0 0 0.749 -0.02 0.039 -0.075 -0.039zm0.095 0c0,0.027 -0.021,0.048 -0.048,0.048 -0.026,0 -0.047,-0.021 -0.047,-0.048l0.095 0zm-5.395 3.78l5.32 -3.818 0.055 0.077 -5.319 3.818 -0.028 0.009 -0.028 -0.086zm0.056 0.077c-0.022,0.015 -0.051,0.01 -0.067,-0.011 -0.015,-0.021 -0.01,-0.051 0.011,-0.066l0.056 0.077zm-0.783 -0.086l0.755 0 0 0.095 -0.755 0 0 -0.095zm0 0.095c-0.027,0 -0.048,-0.021 -0.048,-0.047 0,-0.027 0.021,-0.048 0.048,-0.048l0 0.095z"/>
     </g>
     <g>
      <path class="fil2" d="M23.225 8.87c0,0.026 -0.019,0.048 -0.043,0.048 -0.023,0 -0.042,-0.022 -0.042,-0.048l0.085 0zm0 -7.66l0 7.66 -0.085 0 0 -7.66 0.085 0zm-0.085 0c0,-0.026 0.019,-0.047 0.042,-0.047 0.024,0 0.043,0.021 0.043,0.047l-0.085 0z"/>
     </g>
     <g>
      <path class="fil2" d="M23.599 9.927c0.027,0 0.048,0.02 0.048,0.044 0,0.025 -0.021,0.045 -0.048,0.045l0 -0.089zm-9.217 0l9.217 0 0 0.089 -9.217 0 0 -0.089zm0 0.089c-0.026,0 -0.047,-0.02 -0.047,-0.045 0,-0.024 0.021,-0.044 0.047,-0.044l0 0.089z"/>
     </g>
     <g>
      <path class="fil2" d="M21.245 9.67c-0.026,0 -0.047,-0.021 -0.047,-0.047 0,-0.027 0.021,-0.048 0.047,-0.048l0 0.095zm0.765 0l-0.765 0 0 -0.095 0.765 0 0.047 0.052 -0.047 0.043zm0 -0.095c0.026,0 0.048,0.021 0.048,0.048 0,0.026 -0.022,0.047 -0.048,0.047l0 -0.095zm0.796 -7.581l-0.749 7.633 -0.094 -0.009 0.748 -7.633 0.095 0.004 0 0.005zm-0.095 -0.009c0.003,-0.026 0.026,-0.045 0.052,-0.043 0.026,0.003 0.045,0.026 0.043,0.052l-0.095 -0.009zm0 0.791l0 -0.787 0.095 0 0 0.787 -0.002 0.015 -0.093 -0.015zm0.095 0c0,0.027 -0.021,0.048 -0.048,0.048 -0.026,0 -0.047,-0.021 -0.047,-0.048l0.095 0zm-2.349 6.832l2.256 -6.846 0.091 0.029 -2.257 6.846 -0.045 0.033 -0.045 -0.062zm0.09 0.029c-0.008,0.025 -0.035,0.039 -0.06,0.031 -0.025,-0.008 -0.038,-0.035 -0.03,-0.06l0.09 0.029zm-0.803 -0.062l0.758 0 0 0.095 -0.758 0 0 -0.095zm0 0.095c-0.026,0 -0.048,-0.021 -0.048,-0.047 0,-0.027 0.022,-0.048 0.048,-0.048l0 0.095z"/>
     </g>
    </g>
    <path class="fil2" d="M21.527 12.181l0.147 0 0 0.642c0,0.111 -0.013,0.2 -0.038,0.266 -0.025,0.065 -0.071,0.119 -0.136,0.16 -0.066,0.041 -0.152,0.062 -0.26,0.062 -0.103,0 -0.188,-0.018 -0.254,-0.054 -0.067,-0.036 -0.114,-0.088 -0.142,-0.156 -0.028,-0.068 -0.042,-0.161 -0.042,-0.278l0 -0.642 0.147 0 0 0.641c0,0.097 0.009,0.168 0.027,0.214 0.018,0.045 0.048,0.081 0.092,0.106 0.044,0.024 0.097,0.037 0.16,0.037 0.107,0 0.184,-0.025 0.23,-0.074 0.046,-0.049 0.069,-0.143 0.069,-0.283l0 -0.641zm0.391 1.111l0 -1.111 0.151 0 0.583 0.872 0 -0.872 0.141 0 0 1.111 -0.151 0 -0.583 -0.872 0 0.872 -0.141 0zm1.147 0l0 -1.111 0.148 0 0 1.111 -0.148 0zm0.723 0l-0.429 -1.111 0.159 0 0.289 0.807c0.023,0.065 0.042,0.126 0.058,0.182 0.017,-0.061 0.037,-0.121 0.06,-0.182l0.299 -0.807 0.15 0 -0.433 1.111 -0.153 0zm0.722 0l0 -1.111 0.802 0 0 0.13 -0.655 0 0 0.342 0.613 0 0 0.13 -0.613 0 0 0.379 0.682 0 0 0.13 -0.829 0zm1.035 0l0 -1.111 0.493 0c0.099,0 0.174,0.01 0.225,0.03 0.052,0.02 0.093,0.055 0.124,0.105 0.03,0.051 0.046,0.107 0.046,0.168 0,0.079 -0.026,0.145 -0.077,0.199 -0.051,0.054 -0.129,0.088 -0.236,0.103 0.039,0.019 0.069,0.037 0.089,0.055 0.043,0.04 0.083,0.089 0.121,0.148l0.193 0.303 -0.184 0 -0.147 -0.231c-0.043,-0.067 -0.078,-0.118 -0.106,-0.154 -0.028,-0.035 -0.053,-0.06 -0.075,-0.074 -0.021,-0.014 -0.044,-0.024 -0.067,-0.029 -0.016,-0.004 -0.043,-0.006 -0.081,-0.006l-0.171 0 0 0.494 -0.147 0zm0.147 -0.621l0.316 0c0.067,0 0.12,-0.007 0.157,-0.021 0.038,-0.013 0.067,-0.036 0.086,-0.066 0.02,-0.031 0.03,-0.064 0.03,-0.1 0,-0.053 -0.019,-0.096 -0.057,-0.13 -0.038,-0.034 -0.098,-0.051 -0.18,-0.051l-0.352 0 0 0.368zm0.923 0.264l0.138 -0.012c0.006,0.055 0.021,0.101 0.046,0.137 0.024,0.036 0.061,0.065 0.111,0.087 0.051,0.022 0.108,0.033 0.171,0.033 0.056,0 0.105,-0.008 0.148,-0.025 0.043,-0.017 0.075,-0.04 0.096,-0.069 0.021,-0.029 0.031,-0.061 0.031,-0.095 0,-0.035 -0.01,-0.065 -0.03,-0.091 -0.02,-0.026 -0.053,-0.048 -0.1,-0.066 -0.03,-0.011 -0.096,-0.029 -0.198,-0.054 -0.102,-0.024 -0.173,-0.047 -0.214,-0.069 -0.053,-0.028 -0.093,-0.063 -0.118,-0.104 -0.026,-0.041 -0.039,-0.087 -0.039,-0.138 0,-0.056 0.016,-0.109 0.047,-0.158 0.032,-0.049 0.079,-0.086 0.14,-0.111 0.061,-0.025 0.129,-0.038 0.204,-0.038 0.082,0 0.155,0.013 0.217,0.04 0.063,0.026 0.112,0.065 0.146,0.117 0.033,0.052 0.052,0.11 0.054,0.175l-0.141 0.011c-0.008,-0.07 -0.033,-0.123 -0.077,-0.159 -0.044,-0.036 -0.108,-0.054 -0.194,-0.054 -0.089,0 -0.154,0.017 -0.194,0.049 -0.041,0.033 -0.061,0.072 -0.061,0.118 0,0.04 0.014,0.073 0.043,0.099 0.028,0.026 0.102,0.052 0.222,0.079 0.119,0.027 0.201,0.051 0.246,0.071 0.064,0.03 0.112,0.067 0.143,0.113 0.03,0.046 0.046,0.098 0.046,0.157 0,0.06 -0.017,0.115 -0.051,0.167 -0.034,0.053 -0.082,0.093 -0.146,0.122 -0.063,0.029 -0.134,0.044 -0.213,0.044 -0.101,0 -0.185,-0.015 -0.253,-0.044 -0.068,-0.03 -0.121,-0.074 -0.159,-0.133 -0.039,-0.058 -0.059,-0.125 -0.061,-0.199zm1.108 0.357l0 -1.111 0.147 0 0 1.111 -0.147 0zm0.406 0l0 -1.111 0.383 0c0.086,0 0.152,0.005 0.198,0.015 0.064,0.015 0.118,0.042 0.163,0.08 0.059,0.05 0.102,0.113 0.131,0.19 0.029,0.077 0.044,0.165 0.044,0.264 0,0.085 -0.01,0.159 -0.029,0.225 -0.02,0.065 -0.045,0.119 -0.076,0.162 -0.031,0.042 -0.065,0.076 -0.102,0.1 -0.036,0.025 -0.08,0.043 -0.132,0.056 -0.052,0.013 -0.112,0.019 -0.179,0.019l-0.401 0zm0.148 -0.13l0.237 0c0.073,0 0.13,-0.007 0.172,-0.021 0.041,-0.014 0.075,-0.033 0.099,-0.057 0.035,-0.036 0.062,-0.083 0.082,-0.142 0.019,-0.058 0.029,-0.13 0.029,-0.214 0,-0.116 -0.019,-0.206 -0.057,-0.268 -0.038,-0.063 -0.085,-0.105 -0.139,-0.126 -0.04,-0.015 -0.103,-0.023 -0.19,-0.023l-0.233 0 0 0.851zm0.851 0.13l0.426 -1.111 0.162 0 0.453 1.111 -0.168 0 -0.128 -0.337 -0.468 0 -0.121 0.337 -0.156 0zm0.32 -0.456l0.379 0 -0.116 -0.308c-0.035,-0.094 -0.062,-0.171 -0.08,-0.232 -0.015,0.072 -0.036,0.143 -0.061,0.213l-0.122 0.327zm0.837 0.456l0 -1.111 0.383 0c0.086,0 0.152,0.005 0.198,0.015 0.064,0.015 0.118,0.042 0.163,0.08 0.059,0.05 0.102,0.113 0.131,0.19 0.029,0.077 0.044,0.165 0.044,0.264 0,0.085 -0.01,0.159 -0.029,0.225 -0.02,0.065 -0.046,0.119 -0.076,0.162 -0.031,0.042 -0.065,0.076 -0.102,0.1 -0.036,0.025 -0.08,0.043 -0.132,0.056 -0.052,0.013 -0.112,0.019 -0.179,0.019l-0.401 0zm0.148 -0.13l0.237 0c0.073,0 0.13,-0.007 0.172,-0.021 0.042,-0.014 0.075,-0.033 0.099,-0.057 0.035,-0.036 0.062,-0.083 0.082,-0.142 0.019,-0.058 0.029,-0.13 0.029,-0.214 0,-0.116 -0.019,-0.206 -0.057,-0.268 -0.038,-0.063 -0.085,-0.105 -0.139,-0.126 -0.04,-0.015 -0.103,-0.023 -0.19,-0.023l-0.233 0 0 0.851z"/>
    <rect class="fil3" x="14.32" y="10.738" width="23.365" height="0.454"/>
   </g>
   <g>
    <g>
     <path class="fil3" d="M87.553 4.492c-0.826,-0.149 -1.947,0.097 -2.287,0.632 -0.588,0.926 1.057,1.467 1.358,0.731 -0.087,-0.198 -0.4,-0.541 0.115,-1.01 0.217,-0.21 0.749,-0.273 0.91,0.218 0.243,0.738 -0.186,1.105 -0.835,1.287 -0.638,0.284 -1.913,0.366 -1.953,1.465 -0.055,1.514 1.697,1.398 1.995,1.119 0.259,-0.085 0.764,-0.552 0.836,-0.715l0.01 0.89 1.997 -0.006 -0.002 -0.221c-0.007,-0.006 -0.02,-0.023 -0.025,-0.015 -0.001,0.001 -0.293,-0.076 -0.354,-0.347 -0.061,-0.271 0.042,-2.562 -0.045,-2.913 -0.204,-0.822 -1.031,-0.979 -1.059,-1.004 -0.117,-0.102 -0.05,0.009 -0.076,-0.183 0.444,0.101 0.673,0.098 0.905,-0.197 0.313,-0.399 0.034,-0.755 -0.017,-0.879 0.191,-0.306 0.666,-0.239 0.793,0.1 0.087,0.232 0.047,0.916 0.047,1.207 0.002,0.837 0.006,1.674 0.005,2.511 0,0.818 0.173,1.407 0.787,1.666 0.513,0.216 1.269,0.236 1.676,-0.178 0.024,-0.024 0.057,-0.063 0.084,-0.087 0.08,-0.068 0.024,-0.033 0.12,-0.08 -0.003,0.562 -0.04,0.391 0.126,0.61 0.344,-0.122 0.252,-0.4 1.721,-0.396l0.014 -0.227c-0.301,-0.125 -0.369,-0.238 -0.37,-0.688l0.008 -3.126c-0.079,-0.042 -0.127,-0.074 -0.197,-0.117l-0.328 0.197c-0.555,0.269 -0.959,0.137 -1.334,0.214l-0.004 0.206c0.454,0.207 0.36,0.301 0.361,1.181 0,0.513 0.025,1.014 -0.07,1.514 -0.07,0.375 -0.314,0.924 -0.679,0.881 -0.439,-0.051 -0.422,-0.736 -0.421,-1.157 0.001,-1.043 0.003,-2.087 0.003,-3.13 0,-0.725 -0.129,-1.198 -0.859,-1.518 -0.176,-0.077 -0.442,-0.114 -0.602,-0.203 -0.371,0.029 -0.582,-0.05 -0.999,0.055 -0.278,0.071 -0.556,0.182 -0.73,0.336 -0.848,0.752 -0.049,1.136 -0.035,1.453l-0.59 -0.076zm0.155 1.638l-0.474 0.413c-0.175,0.132 -0.334,0.272 -0.474,0.453 -0.787,1.016 -0.071,2.325 0.876,0.912 0.145,-0.216 0.064,-1.398 0.072,-1.778z"/>
     <path class="fil3" d="M82.976 8.102l0.003 0.905 -0.005 0.426 0.079 0.058 0.255 0.112c0.626,0.383 1.177,0.744 1.763,1.133 0.516,0.343 1.253,0.771 1.958,0.947 0.659,0.198 1.565,0.159 2.167,-0.258l0.123 -0.069c0.206,-0.223 0.514,-0.55 0.315,-1.057 -0.129,-0.327 -0.442,-0.581 -0.92,-0.555 -0.051,0.084 -0.01,0.082 -0.07,0.233 -0.083,0.207 -0.314,0.404 -0.537,0.499 -0.448,0.192 -0.732,0.088 -1.198,0.083 -0.207,-0.063 -0.423,-0.092 -0.645,-0.156 -0.208,-0.06 -0.393,-0.12 -0.591,-0.198 -0.352,-0.14 -0.787,-0.358 -1.124,-0.456l0.001 -5.27c0,-1.132 -0.108,-1.134 0.38,-1.341l0.003 -0.285 -2.348 0 0.006 0.284c0.191,0.09 0.324,0.063 0.368,0.319l0.01 1.986c0,0.876 0.032,1.793 0.007,2.66z"/>
     <path class="fil3" d="M97.311 7.172c-0.109,0.274 -0.21,0.312 -0.206,0.714 0.002,0.291 0.083,0.549 0.213,0.751 0.238,0.368 0.842,0.551 1.469,0.427 0.71,-0.161 0.975,-0.71 1.165,-0.836l-0.001 0.879 1.998 0.001 -0.001 -0.226c-0.125,-0.095 -0.339,-0.071 -0.385,-0.424l-0.005 -2.328c0.001,-0.583 -0.081,-0.855 -0.406,-1.155 -0.249,-0.23 -0.648,-0.41 -1.09,-0.46 -2.774,-0.312 -3.068,1.168 -2.287,1.567 0.375,0.19 0.959,0.152 1.102,-0.227 0,-0.042 -0.301,-0.307 -0.09,-0.763 0.214,-0.463 0.956,-0.587 1.119,-0.003 0.278,0.992 -0.496,1.148 -1.353,1.421 -1.077,0.342 -0.91,0.458 -1.242,0.662zm2.639 0.541l0 -1.575 -0.948 0.822c-0.125,0.148 -0.286,0.576 -0.317,0.787 -0.068,0.454 0.112,0.961 0.607,0.739 0.189,-0.085 0.658,-0.536 0.658,-0.773z"/>
     <path class="fil3" d="M96.538 4.65l-0.177 0.394c-0.03,-0.313 0.02,-0.193 -0.182,-0.351 -0.114,0.057 -0.168,0.123 -0.328,0.183 -0.482,0.179 -0.844,0.182 -1.352,0.195l-0.007 0.234c0.324,0.138 0.359,0.061 0.36,0.722l0.004 2.133c0.003,0.524 0.025,0.51 -0.357,0.722l-0.006 0.224 2.216 0.001c-0.008,-0.432 -0.046,-0.117 -0.251,-0.367 -0.189,-0.23 -0.097,-1.415 -0.065,-1.715 0.091,-0.859 0.212,-1.25 0.467,-1.995 0.125,-0.098 0.231,-0.606 0.812,-0.845 0.231,-0.096 0.234,-0.074 0.45,0.003 0.319,0.114 0.655,-0.014 0.806,-0.193 0.274,-0.323 0.13,-0.498 0.089,-0.827 -0.073,-0.055 -0.095,-0.08 -0.172,-0.15 -0.493,-0.452 -1.182,0.052 -1.55,0.443 -0.276,0.294 -0.582,0.906 -0.757,1.189z"/>
    </g>
    <g>
     <path class="fil4" d="M96.914 10.065l0 -0.728 0.097 0 0 0.643 0.358 0 0 0.085 -0.455 0zm0.904 -0.066c-0.034,0.028 -0.065,0.048 -0.096,0.06 -0.031,0.011 -0.064,0.017 -0.099,0.017 -0.058,0 -0.103,-0.014 -0.134,-0.042 -0.031,-0.028 -0.047,-0.065 -0.047,-0.108 0,-0.026 0.006,-0.05 0.018,-0.071 0.012,-0.022 0.027,-0.039 0.046,-0.051 0.019,-0.013 0.041,-0.023 0.065,-0.03 0.017,-0.004 0.044,-0.009 0.079,-0.013 0.073,-0.009 0.126,-0.019 0.16,-0.031 0,-0.012 0.001,-0.02 0.001,-0.023 0,-0.036 -0.009,-0.062 -0.026,-0.077 -0.023,-0.02 -0.057,-0.03 -0.102,-0.03 -0.042,0 -0.073,0.007 -0.093,0.022 -0.021,0.015 -0.035,0.041 -0.045,0.079l-0.087 -0.013c0.008,-0.037 0.021,-0.067 0.039,-0.09 0.018,-0.024 0.045,-0.041 0.079,-0.054 0.035,-0.012 0.075,-0.018 0.12,-0.018 0.045,0 0.082,0.005 0.111,0.016 0.028,0.01 0.049,0.024 0.062,0.04 0.013,0.016 0.022,0.036 0.028,0.061 0.003,0.015 0.004,0.042 0.004,0.082l0 0.119c0,0.083 0.002,0.135 0.006,0.157 0.003,0.022 0.011,0.044 0.022,0.064l-0.094 0c-0.009,-0.019 -0.015,-0.041 -0.017,-0.066zm-0.007 -0.199c-0.033,0.014 -0.082,0.025 -0.147,0.034 -0.037,0.005 -0.063,0.011 -0.078,0.018 -0.015,0.006 -0.027,0.016 -0.036,0.029 -0.008,0.012 -0.012,0.026 -0.012,0.042 0,0.024 0.009,0.043 0.027,0.059 0.018,0.016 0.045,0.024 0.08,0.024 0.034,0 0.065,-0.008 0.092,-0.023 0.026,-0.015 0.046,-0.035 0.059,-0.061 0.009,-0.02 0.014,-0.05 0.014,-0.089l0.001 -0.033zm0.31 0.265l-0.083 0 0 -0.728 0.089 0 0 0.259c0.038,-0.047 0.086,-0.07 0.145,-0.07 0.032,0 0.063,0.006 0.092,0.019 0.029,0.013 0.053,0.032 0.072,0.055 0.018,0.024 0.033,0.053 0.044,0.086 0.01,0.033 0.015,0.069 0.015,0.107 0,0.09 -0.022,0.16 -0.067,0.209 -0.044,0.049 -0.098,0.074 -0.16,0.074 -0.063,0 -0.111,-0.026 -0.147,-0.078l0 0.067zm-0.001 -0.268c0,0.063 0.009,0.109 0.026,0.137 0.028,0.046 0.066,0.069 0.114,0.069 0.039,0 0.073,-0.017 0.101,-0.051 0.029,-0.034 0.043,-0.085 0.043,-0.152 0,-0.068 -0.014,-0.119 -0.041,-0.152 -0.027,-0.033 -0.06,-0.049 -0.099,-0.049 -0.039,0 -0.073,0.017 -0.101,0.051 -0.029,0.034 -0.043,0.083 -0.043,0.147zm0.451 0.004c0,-0.098 0.027,-0.17 0.082,-0.217 0.045,-0.039 0.1,-0.058 0.166,-0.058 0.072,0 0.131,0.023 0.177,0.071 0.046,0.047 0.069,0.113 0.069,0.196 0,0.068 -0.01,0.121 -0.03,0.16 -0.02,0.039 -0.05,0.069 -0.089,0.091 -0.039,0.021 -0.081,0.032 -0.127,0.032 -0.074,0 -0.134,-0.023 -0.18,-0.071 -0.045,-0.047 -0.068,-0.115 -0.068,-0.204zm0.092 0c0,0.068 0.014,0.118 0.044,0.151 0.03,0.034 0.067,0.051 0.112,0.051 0.044,0 0.081,-0.017 0.111,-0.051 0.029,-0.033 0.044,-0.085 0.044,-0.154 0,-0.065 -0.015,-0.114 -0.045,-0.148 -0.029,-0.033 -0.066,-0.05 -0.11,-0.05 -0.045,0 -0.082,0.017 -0.112,0.05 -0.03,0.033 -0.044,0.084 -0.044,0.151zm0.506 0.264l0 -0.528 0.081 0 0 0.081c0.02,-0.038 0.039,-0.062 0.057,-0.074 0.017,-0.012 0.036,-0.018 0.057,-0.018 0.03,0 0.061,0.009 0.092,0.028l-0.032 0.083c-0.021,-0.013 -0.043,-0.019 -0.065,-0.019 -0.019,0 -0.037,0.006 -0.052,0.018 -0.015,0.012 -0.027,0.028 -0.033,0.049 -0.01,0.031 -0.015,0.066 -0.015,0.104l0 0.276 -0.09 0zm0.685 -0.066c-0.033,0.028 -0.065,0.048 -0.096,0.06 -0.031,0.011 -0.063,0.017 -0.099,0.017 -0.058,0 -0.102,-0.014 -0.133,-0.042 -0.032,-0.028 -0.047,-0.065 -0.047,-0.108 0,-0.026 0.006,-0.05 0.017,-0.071 0.012,-0.022 0.028,-0.039 0.047,-0.051 0.019,-0.013 0.04,-0.023 0.064,-0.03 0.018,-0.004 0.044,-0.009 0.08,-0.013 0.072,-0.009 0.125,-0.019 0.159,-0.031 0.001,-0.012 0.001,-0.02 0.001,-0.023 0,-0.036 -0.009,-0.062 -0.025,-0.077 -0.023,-0.02 -0.057,-0.03 -0.103,-0.03 -0.042,0 -0.073,0.007 -0.093,0.022 -0.02,0.015 -0.035,0.041 -0.045,0.079l-0.087 -0.013c0.008,-0.037 0.021,-0.067 0.039,-0.09 0.019,-0.024 0.045,-0.041 0.08,-0.054 0.034,-0.012 0.074,-0.018 0.12,-0.018 0.045,0 0.082,0.005 0.11,0.016 0.028,0.01 0.049,0.024 0.062,0.04 0.013,0.016 0.023,0.036 0.028,0.061 0.003,0.015 0.005,0.042 0.005,0.082l0 0.119c0,0.083 0.001,0.135 0.005,0.157 0.004,0.022 0.011,0.044 0.022,0.064l-0.094 0c-0.009,-0.019 -0.014,-0.041 -0.017,-0.066zm-0.007 -0.199c-0.032,0.014 -0.081,0.025 -0.146,0.034 -0.037,0.005 -0.064,0.011 -0.079,0.018 -0.015,0.006 -0.027,0.016 -0.035,0.029 -0.008,0.012 -0.013,0.026 -0.013,0.042 0,0.024 0.009,0.043 0.028,0.059 0.018,0.016 0.044,0.024 0.079,0.024 0.034,0 0.065,-0.008 0.092,-0.023 0.027,-0.015 0.047,-0.035 0.059,-0.061 0.01,-0.02 0.014,-0.05 0.014,-0.089l0.001 -0.033zm0.422 0.185l0.013 0.079c-0.025,0.005 -0.048,0.008 -0.068,0.008 -0.032,0 -0.057,-0.005 -0.075,-0.015 -0.018,-0.011 -0.03,-0.024 -0.038,-0.041 -0.007,-0.017 -0.011,-0.052 -0.011,-0.106l0 -0.304 -0.066 0 0 -0.069 0.066 0 0 -0.131 0.09 -0.053 0 0.184 0.089 0 0 0.069 -0.089 0 0 0.309c0,0.026 0.001,0.042 0.005,0.05 0.003,0.007 0.008,0.013 0.015,0.017 0.007,0.004 0.017,0.007 0.03,0.007 0.01,0 0.023,-0.001 0.039,-0.004zm0.055 -0.184c0,-0.098 0.027,-0.17 0.082,-0.217 0.045,-0.039 0.1,-0.058 0.166,-0.058 0.072,0 0.131,0.023 0.178,0.071 0.046,0.047 0.069,0.113 0.069,0.196 0,0.068 -0.011,0.121 -0.031,0.16 -0.02,0.039 -0.05,0.069 -0.089,0.091 -0.039,0.021 -0.081,0.032 -0.127,0.032 -0.074,0 -0.134,-0.023 -0.179,-0.071 -0.046,-0.047 -0.069,-0.115 -0.069,-0.204zm0.092 0c0,0.068 0.014,0.118 0.044,0.151 0.03,0.034 0.067,0.051 0.112,0.051 0.044,0 0.081,-0.017 0.111,-0.051 0.029,-0.033 0.044,-0.085 0.044,-0.154 0,-0.065 -0.015,-0.114 -0.045,-0.148 -0.029,-0.033 -0.066,-0.05 -0.11,-0.05 -0.045,0 -0.082,0.017 -0.112,0.05 -0.03,0.033 -0.044,0.084 -0.044,0.151zm0.507 0.264l0 -0.528 0.08 0 0 0.081c0.02,-0.038 0.039,-0.062 0.057,-0.074 0.017,-0.012 0.037,-0.018 0.057,-0.018 0.031,0 0.061,0.009 0.092,0.028l-0.031 0.083c-0.022,-0.013 -0.044,-0.019 -0.066,-0.019 -0.019,0 -0.036,0.006 -0.052,0.018 -0.015,0.012 -0.026,0.028 -0.033,0.049 -0.01,0.031 -0.015,0.066 -0.015,0.104l0 0.276 -0.089 0zm0.339 -0.627l0 -0.101 0.09 0 0 0.101 -0.09 0zm0 0.627l0 -0.528 0.09 0 0 0.528 -0.09 0zm0.193 -0.264c0,-0.098 0.027,-0.17 0.081,-0.217 0.046,-0.039 0.101,-0.058 0.167,-0.058 0.072,0 0.131,0.023 0.177,0.071 0.046,0.047 0.069,0.113 0.069,0.196 0,0.068 -0.01,0.121 -0.03,0.16 -0.02,0.039 -0.05,0.069 -0.089,0.091 -0.039,0.021 -0.082,0.032 -0.127,0.032 -0.074,0 -0.134,-0.023 -0.18,-0.071 -0.045,-0.047 -0.068,-0.115 -0.068,-0.204zm0.091 0c0,0.068 0.015,0.118 0.045,0.151 0.029,0.034 0.066,0.051 0.112,0.051 0.044,0 0.081,-0.017 0.111,-0.051 0.029,-0.033 0.044,-0.085 0.044,-0.154 0,-0.065 -0.015,-0.114 -0.045,-0.148 -0.03,-0.033 -0.066,-0.05 -0.11,-0.05 -0.046,0 -0.083,0.017 -0.112,0.05 -0.03,0.033 -0.045,0.084 -0.045,0.151z"/>
     <path class="fil4" d="M97.342 11.721c-0.033,0.028 -0.065,0.048 -0.096,0.059 -0.03,0.012 -0.063,0.018 -0.099,0.018 -0.058,0 -0.102,-0.014 -0.133,-0.042 -0.032,-0.029 -0.047,-0.065 -0.047,-0.109 0,-0.025 0.006,-0.049 0.017,-0.07 0.012,-0.022 0.028,-0.039 0.047,-0.052 0.019,-0.012 0.04,-0.022 0.064,-0.029 0.018,-0.004 0.044,-0.009 0.08,-0.013 0.072,-0.009 0.125,-0.019 0.16,-0.031 0,-0.012 0,-0.02 0,-0.023 0,-0.036 -0.008,-0.062 -0.025,-0.077 -0.023,-0.02 -0.057,-0.03 -0.102,-0.03 -0.043,0 -0.074,0.007 -0.094,0.022 -0.02,0.015 -0.035,0.041 -0.044,0.079l-0.088 -0.013c0.008,-0.037 0.021,-0.067 0.039,-0.091 0.019,-0.023 0.045,-0.04 0.08,-0.053 0.034,-0.012 0.074,-0.018 0.12,-0.018 0.045,0 0.082,0.005 0.11,0.016 0.028,0.01 0.049,0.023 0.062,0.039 0.013,0.017 0.023,0.037 0.028,0.062 0.003,0.015 0.005,0.042 0.005,0.082l0 0.118c0,0.083 0.002,0.136 0.005,0.158 0.004,0.022 0.011,0.043 0.022,0.064l-0.093 0c-0.01,-0.019 -0.015,-0.041 -0.018,-0.066zm-0.007 -0.199c-0.033,0.014 -0.081,0.025 -0.147,0.034 -0.036,0.005 -0.063,0.011 -0.078,0.018 -0.015,0.006 -0.027,0.016 -0.035,0.029 -0.008,0.012 -0.013,0.026 -0.013,0.042 0,0.023 0.009,0.043 0.028,0.059 0.018,0.016 0.044,0.024 0.079,0.024 0.034,0 0.065,-0.008 0.092,-0.023 0.027,-0.015 0.046,-0.035 0.059,-0.061 0.01,-0.02 0.015,-0.05 0.015,-0.089l0 -0.033zm0.573 0.265l0 -0.079c-0.041,0.06 -0.097,0.09 -0.167,0.09 -0.031,0 -0.06,-0.006 -0.087,-0.018 -0.027,-0.012 -0.047,-0.027 -0.06,-0.045 -0.013,-0.018 -0.022,-0.04 -0.027,-0.066 -0.004,-0.018 -0.006,-0.046 -0.006,-0.084l0 -0.326 0.09 0 0 0.292c0,0.046 0.001,0.078 0.005,0.094 0.006,0.024 0.017,0.042 0.036,0.056 0.018,0.013 0.04,0.02 0.067,0.02 0.027,0 0.052,-0.007 0.075,-0.021 0.024,-0.014 0.041,-0.032 0.05,-0.056 0.01,-0.024 0.015,-0.058 0.015,-0.103l0 -0.282 0.089 0 0 0.528 -0.08 0zm0.562 0l0 -0.067c-0.034,0.052 -0.083,0.078 -0.148,0.078 -0.042,0 -0.08,-0.011 -0.116,-0.035 -0.035,-0.023 -0.062,-0.055 -0.082,-0.097 -0.019,-0.041 -0.029,-0.089 -0.029,-0.143 0,-0.052 0.009,-0.1 0.027,-0.143 0.017,-0.043 0.044,-0.075 0.079,-0.098 0.035,-0.023 0.074,-0.034 0.117,-0.034 0.032,0 0.06,0.006 0.085,0.02 0.025,0.013 0.045,0.031 0.061,0.052l0 -0.262 0.089 0 0 0.729 -0.083 0zm-0.283 -0.264c0,0.068 0.014,0.118 0.043,0.152 0.028,0.033 0.062,0.05 0.101,0.05 0.039,0 0.072,-0.016 0.1,-0.048 0.027,-0.032 0.041,-0.081 0.041,-0.146 0,-0.072 -0.014,-0.125 -0.042,-0.159 -0.028,-0.033 -0.062,-0.05 -0.103,-0.05 -0.04,0 -0.073,0.016 -0.1,0.048 -0.027,0.033 -0.04,0.084 -0.04,0.153zm0.508 -0.363l0 -0.102 0.089 0 0 0.102 -0.089 0zm0 0.627l0 -0.528 0.089 0 0 0.528 -0.089 0zm0.192 -0.264c0,-0.098 0.027,-0.17 0.082,-0.217 0.045,-0.039 0.101,-0.058 0.166,-0.058 0.072,0 0.132,0.023 0.178,0.071 0.046,0.047 0.069,0.113 0.069,0.196 0,0.068 -0.01,0.121 -0.031,0.16 -0.02,0.039 -0.05,0.069 -0.089,0.091 -0.039,0.021 -0.081,0.032 -0.127,0.032 -0.074,0 -0.134,-0.024 -0.179,-0.071 -0.046,-0.047 -0.069,-0.115 -0.069,-0.204zm0.092 0c0,0.067 0.015,0.118 0.044,0.151 0.03,0.034 0.067,0.051 0.112,0.051 0.044,0 0.081,-0.017 0.111,-0.051 0.029,-0.034 0.044,-0.085 0.044,-0.154 0,-0.065 -0.015,-0.114 -0.044,-0.148 -0.03,-0.033 -0.067,-0.05 -0.111,-0.05 -0.045,0 -0.082,0.016 -0.112,0.05 -0.029,0.033 -0.044,0.084 -0.044,0.151zm0.652 0.264l-0.199 -0.528 0.096 0 0.113 0.316c0.012,0.034 0.023,0.069 0.033,0.106 0.008,-0.028 0.019,-0.061 0.034,-0.1l0.117 -0.322 0.092 0 -0.2 0.528 -0.086 0zm0.364 -0.627l0 -0.102 0.09 0 0 0.102 -0.09 0zm0 0.627l0 -0.528 0.09 0 0 0.528 -0.09 0zm0.191 -0.158l0.088 -0.014c0.005,0.035 0.019,0.062 0.042,0.081 0.023,0.019 0.054,0.029 0.095,0.029 0.041,0 0.072,-0.009 0.092,-0.025 0.02,-0.017 0.03,-0.037 0.03,-0.059 0,-0.02 -0.009,-0.036 -0.027,-0.048 -0.013,-0.008 -0.043,-0.018 -0.092,-0.03 -0.065,-0.017 -0.11,-0.031 -0.136,-0.043 -0.025,-0.012 -0.044,-0.029 -0.057,-0.05 -0.013,-0.021 -0.02,-0.045 -0.02,-0.071 0,-0.023 0.006,-0.045 0.016,-0.065 0.011,-0.02 0.026,-0.037 0.044,-0.05 0.014,-0.01 0.033,-0.019 0.057,-0.026 0.024,-0.007 0.05,-0.01 0.077,-0.01 0.041,0 0.078,0.006 0.109,0.017 0.031,0.012 0.054,0.029 0.069,0.049 0.015,0.021 0.025,0.048 0.031,0.082l-0.088 0.012c-0.003,-0.027 -0.015,-0.049 -0.034,-0.064 -0.019,-0.016 -0.046,-0.023 -0.081,-0.023 -0.04,0 -0.07,0.007 -0.087,0.02 -0.018,0.014 -0.026,0.03 -0.026,0.048 0,0.011 0.003,0.022 0.01,0.031 0.008,0.01 0.019,0.018 0.035,0.024 0.009,0.003 0.035,0.011 0.079,0.023 0.063,0.017 0.107,0.031 0.132,0.041 0.025,0.011 0.045,0.027 0.059,0.047 0.014,0.02 0.021,0.046 0.021,0.076 0,0.03 -0.008,0.058 -0.026,0.084 -0.017,0.027 -0.042,0.047 -0.075,0.061 -0.033,0.015 -0.07,0.022 -0.111,0.022 -0.069,0 -0.121,-0.014 -0.157,-0.043 -0.036,-0.028 -0.059,-0.07 -0.069,-0.126zm0.889 0.158l0 -0.079c-0.041,0.06 -0.097,0.09 -0.167,0.09 -0.031,0 -0.06,-0.006 -0.087,-0.018 -0.027,-0.012 -0.047,-0.027 -0.06,-0.045 -0.013,-0.018 -0.022,-0.04 -0.027,-0.066 -0.004,-0.018 -0.006,-0.046 -0.006,-0.084l0 -0.326 0.09 0 0 0.292c0,0.046 0.001,0.078 0.005,0.094 0.006,0.024 0.017,0.042 0.036,0.056 0.018,0.013 0.04,0.02 0.067,0.02 0.027,0 0.052,-0.007 0.075,-0.021 0.024,-0.014 0.041,-0.032 0.05,-0.056 0.01,-0.024 0.015,-0.058 0.015,-0.103l0 -0.282 0.089 0 0 0.528 -0.08 0zm0.566 -0.066c-0.033,0.028 -0.065,0.048 -0.096,0.059 -0.031,0.012 -0.064,0.018 -0.099,0.018 -0.058,0 -0.103,-0.014 -0.134,-0.042 -0.031,-0.029 -0.047,-0.065 -0.047,-0.109 0,-0.025 0.006,-0.049 0.018,-0.07 0.012,-0.022 0.027,-0.039 0.046,-0.052 0.02,-0.012 0.041,-0.022 0.065,-0.029 0.017,-0.004 0.044,-0.009 0.079,-0.013 0.073,-0.009 0.126,-0.019 0.16,-0.031 0.001,-0.012 0.001,-0.02 0.001,-0.023 0,-0.036 -0.009,-0.062 -0.026,-0.077 -0.023,-0.02 -0.057,-0.03 -0.102,-0.03 -0.042,0 -0.073,0.007 -0.093,0.022 -0.02,0.015 -0.035,0.041 -0.045,0.079l-0.087 -0.013c0.008,-0.037 0.021,-0.067 0.039,-0.091 0.018,-0.023 0.045,-0.04 0.079,-0.053 0.035,-0.012 0.075,-0.018 0.12,-0.018 0.046,0 0.082,0.005 0.111,0.016 0.028,0.01 0.049,0.023 0.062,0.039 0.013,0.017 0.023,0.037 0.028,0.062 0.003,0.015 0.004,0.042 0.004,0.082l0 0.118c0,0.083 0.002,0.136 0.006,0.158 0.003,0.022 0.011,0.043 0.022,0.064l-0.094 0c-0.009,-0.019 -0.015,-0.041 -0.017,-0.066zm-0.007 -0.199c-0.033,0.014 -0.082,0.025 -0.147,0.034 -0.037,0.005 -0.063,0.011 -0.078,0.018 -0.015,0.006 -0.027,0.016 -0.035,0.029 -0.009,0.012 -0.013,0.026 -0.013,0.042 0,0.023 0.009,0.043 0.027,0.059 0.018,0.016 0.045,0.024 0.08,0.024 0.034,0 0.065,-0.008 0.092,-0.023 0.027,-0.015 0.046,-0.035 0.059,-0.061 0.009,-0.02 0.014,-0.05 0.014,-0.089l0.001 -0.033zm0.226 0.265l0 -0.729 0.089 0 0 0.729 -0.089 0z"/>
     <path class="fil4" d="M96.914 10.917l0 -0.079c-0.041,0.06 -0.097,0.09 -0.167,0.09 -0.031,0 -0.06,-0.006 -0.087,-0.018 -0.027,-0.012 -0.047,-0.027 -0.06,-0.045 -0.013,-0.018 -0.022,-0.04 -0.027,-0.066 -0.004,-0.018 -0.006,-0.046 -0.006,-0.084l0 -0.326 0.09 0 0 0.292c0,0.046 0.002,0.078 0.005,0.094 0.006,0.024 0.018,0.042 0.036,0.055 0.018,0.014 0.041,0.021 0.067,0.021 0.027,0 0.052,-0.007 0.076,-0.021 0.023,-0.014 0.04,-0.032 0.05,-0.056 0.009,-0.024 0.014,-0.058 0.014,-0.103l0 -0.282 0.09 0 0 0.528 -0.081 0zm0.221 0l0 -0.528 0.081 0 0 0.075c0.038,-0.058 0.094,-0.087 0.167,-0.087 0.032,0 0.061,0.006 0.088,0.018 0.026,0.011 0.047,0.026 0.06,0.044 0.013,0.019 0.022,0.041 0.028,0.066 0.003,0.017 0.004,0.046 0.004,0.087l0 0.325 -0.089 0 0 -0.321c0,-0.037 -0.003,-0.064 -0.01,-0.082 -0.007,-0.018 -0.02,-0.032 -0.037,-0.043 -0.018,-0.011 -0.039,-0.016 -0.063,-0.016 -0.038,0 -0.07,0.012 -0.098,0.036 -0.028,0.024 -0.041,0.07 -0.041,0.138l0 0.288 -0.09 0zm0.566 -0.627l0 -0.102 0.09 0 0 0.102 -0.09 0zm0 0.627l0 -0.528 0.09 0 0 0.528 -0.09 0zm0.37 0l-0.199 -0.528 0.096 0 0.113 0.316c0.012,0.034 0.023,0.069 0.034,0.106 0.008,-0.028 0.019,-0.061 0.033,-0.1l0.117 -0.322 0.092 0 -0.2 0.528 -0.086 0zm0.725 -0.171l0.092 0.012c-0.014,0.054 -0.041,0.096 -0.08,0.125 -0.04,0.03 -0.09,0.045 -0.151,0.045 -0.077,0 -0.138,-0.024 -0.183,-0.071 -0.045,-0.048 -0.068,-0.114 -0.068,-0.2 0,-0.088 0.023,-0.157 0.069,-0.206 0.045,-0.049 0.104,-0.074 0.177,-0.074 0.071,0 0.128,0.024 0.172,0.072 0.045,0.048 0.068,0.116 0.068,0.203 0,0.005 -0.001,0.013 -0.001,0.024l-0.393 0c0.003,0.057 0.019,0.102 0.049,0.132 0.029,0.031 0.066,0.047 0.11,0.047 0.033,0 0.061,-0.009 0.084,-0.026 0.023,-0.018 0.041,-0.045 0.055,-0.083zm-0.293 -0.144l0.294 0c-0.004,-0.044 -0.015,-0.077 -0.034,-0.1 -0.028,-0.034 -0.065,-0.051 -0.11,-0.051 -0.041,0 -0.076,0.013 -0.104,0.041 -0.028,0.027 -0.043,0.064 -0.046,0.11zm0.498 0.315l0 -0.528 0.08 0 0 0.081c0.02,-0.038 0.039,-0.063 0.057,-0.075 0.017,-0.012 0.036,-0.018 0.057,-0.018 0.03,0 0.061,0.01 0.092,0.029l-0.032 0.082c-0.021,-0.012 -0.043,-0.018 -0.065,-0.018 -0.019,0 -0.036,0.006 -0.052,0.018 -0.015,0.011 -0.026,0.028 -0.033,0.048 -0.01,0.032 -0.015,0.067 -0.015,0.105l0 0.276 -0.089 0zm0.304 -0.158l0.088 -0.014c0.005,0.035 0.019,0.062 0.042,0.081 0.023,0.019 0.054,0.029 0.095,0.029 0.041,0 0.072,-0.009 0.092,-0.026 0.02,-0.016 0.03,-0.036 0.03,-0.058 0,-0.021 -0.009,-0.037 -0.027,-0.048 -0.013,-0.008 -0.043,-0.018 -0.092,-0.03 -0.065,-0.017 -0.11,-0.031 -0.136,-0.043 -0.025,-0.012 -0.044,-0.029 -0.057,-0.05 -0.013,-0.022 -0.02,-0.045 -0.02,-0.071 0,-0.023 0.006,-0.045 0.016,-0.065 0.011,-0.02 0.026,-0.037 0.044,-0.05 0.014,-0.01 0.033,-0.019 0.057,-0.026 0.024,-0.007 0.05,-0.011 0.077,-0.011 0.041,0 0.078,0.006 0.109,0.018 0.031,0.012 0.054,0.029 0.069,0.049 0.015,0.02 0.025,0.048 0.031,0.082l-0.088 0.012c-0.003,-0.027 -0.015,-0.049 -0.034,-0.064 -0.019,-0.016 -0.046,-0.023 -0.081,-0.023 -0.04,0 -0.07,0.006 -0.087,0.02 -0.018,0.014 -0.027,0.03 -0.027,0.048 0,0.011 0.004,0.022 0.011,0.031 0.008,0.01 0.019,0.018 0.035,0.024 0.009,0.003 0.035,0.011 0.078,0.023 0.064,0.016 0.108,0.03 0.133,0.041 0.025,0.011 0.045,0.026 0.059,0.047 0.014,0.02 0.021,0.046 0.021,0.076 0,0.03 -0.008,0.058 -0.026,0.084 -0.017,0.027 -0.042,0.047 -0.075,0.061 -0.033,0.015 -0.07,0.022 -0.112,0.022 -0.068,0 -0.12,-0.014 -0.156,-0.043 -0.036,-0.028 -0.059,-0.07 -0.069,-0.126zm0.544 -0.469l0 -0.102 0.09 0 0 0.102 -0.09 0zm0 0.627l0 -0.528 0.09 0 0 0.528 -0.09 0zm0.42 -0.08l0.013 0.079c-0.025,0.005 -0.048,0.008 -0.068,0.008 -0.032,0 -0.057,-0.005 -0.075,-0.016 -0.018,-0.01 -0.03,-0.023 -0.038,-0.04 -0.007,-0.017 -0.011,-0.052 -0.011,-0.106l0 -0.304 -0.066 0 0 -0.069 0.066 0 0 -0.131 0.09 -0.054 0 0.185 0.089 0 0 0.069 -0.089 0 0 0.309c0,0.026 0.001,0.042 0.005,0.049 0.003,0.008 0.008,0.013 0.015,0.018 0.007,0.004 0.017,0.006 0.03,0.006 0.01,0 0.023,-0.001 0.039,-0.003zm0.434 0.014c-0.034,0.028 -0.066,0.048 -0.096,0.059 -0.031,0.012 -0.064,0.018 -0.099,0.018 -0.058,0 -0.103,-0.014 -0.134,-0.043 -0.031,-0.028 -0.047,-0.064 -0.047,-0.108 0,-0.025 0.006,-0.049 0.018,-0.07 0.012,-0.022 0.027,-0.039 0.046,-0.052 0.019,-0.013 0.041,-0.022 0.065,-0.029 0.017,-0.005 0.044,-0.009 0.079,-0.013 0.073,-0.009 0.126,-0.019 0.16,-0.031 0,-0.012 0.001,-0.02 0.001,-0.023 0,-0.037 -0.009,-0.062 -0.026,-0.077 -0.023,-0.02 -0.057,-0.03 -0.102,-0.03 -0.042,0 -0.073,0.007 -0.094,0.022 -0.02,0.015 -0.034,0.041 -0.044,0.078l-0.087 -0.012c0.007,-0.037 0.02,-0.068 0.039,-0.091 0.018,-0.023 0.045,-0.04 0.079,-0.053 0.035,-0.012 0.075,-0.019 0.12,-0.019 0.045,0 0.082,0.006 0.11,0.016 0.029,0.011 0.049,0.024 0.063,0.04 0.013,0.016 0.022,0.037 0.028,0.061 0.002,0.016 0.004,0.043 0.004,0.083l0 0.118c0,0.083 0.002,0.136 0.006,0.158 0.003,0.022 0.011,0.043 0.022,0.064l-0.094 0c-0.009,-0.019 -0.015,-0.041 -0.017,-0.066zm-0.007 -0.199c-0.033,0.013 -0.082,0.024 -0.147,0.034 -0.037,0.005 -0.063,0.011 -0.078,0.018 -0.016,0.006 -0.027,0.016 -0.036,0.028 -0.008,0.013 -0.012,0.027 -0.012,0.043 0,0.023 0.009,0.043 0.027,0.059 0.018,0.016 0.045,0.024 0.079,0.024 0.035,0 0.066,-0.008 0.092,-0.023 0.027,-0.015 0.047,-0.035 0.06,-0.061 0.009,-0.021 0.014,-0.05 0.014,-0.089l0.001 -0.033zm0.227 0.265l0 -0.528 0.08 0 0 0.081c0.02,-0.038 0.039,-0.063 0.057,-0.075 0.017,-0.012 0.037,-0.018 0.057,-0.018 0.031,0 0.061,0.01 0.092,0.029l-0.031 0.082c-0.022,-0.012 -0.044,-0.018 -0.066,-0.018 -0.019,0 -0.036,0.006 -0.052,0.018 -0.015,0.011 -0.026,0.028 -0.033,0.048 -0.01,0.032 -0.015,0.067 -0.015,0.105l0 0.276 -0.089 0zm0.339 -0.627l0 -0.102 0.09 0 0 0.102 -0.09 0zm0 0.627l0 -0.528 0.09 0 0 0.528 -0.09 0zm0.193 -0.264c0,-0.098 0.027,-0.17 0.081,-0.217 0.046,-0.039 0.101,-0.059 0.167,-0.059 0.072,0 0.131,0.024 0.177,0.072 0.046,0.047 0.069,0.113 0.069,0.196 0,0.068 -0.01,0.121 -0.03,0.16 -0.02,0.039 -0.05,0.069 -0.089,0.091 -0.039,0.021 -0.082,0.032 -0.127,0.032 -0.074,0 -0.134,-0.024 -0.18,-0.071 -0.045,-0.047 -0.068,-0.116 -0.068,-0.204zm0.091 0c0,0.067 0.015,0.118 0.045,0.151 0.029,0.034 0.066,0.051 0.112,0.051 0.044,0 0.081,-0.017 0.111,-0.051 0.029,-0.034 0.044,-0.085 0.044,-0.154 0,-0.065 -0.015,-0.115 -0.045,-0.148 -0.03,-0.034 -0.066,-0.05 -0.11,-0.05 -0.046,0 -0.083,0.016 -0.112,0.05 -0.03,0.033 -0.045,0.084 -0.045,0.151z"/>
    </g>
   </g>
   <g>
    <g>
     <path class="fil3" d="M55.854 10.936c-1.774,-0.008 -5.543,0.092 -4.96,-2.237 0.219,-0.874 0.948,-1.732 1.375,-2.278l0.754 -0.859c0.045,-0.045 0.067,-0.059 0.107,-0.105 0.195,-0.227 0.819,-0.842 0.877,-0.95l-0.072 -0.119c-0.021,-0.043 -0.037,-0.077 -0.062,-0.127 -0.135,-0.266 -0.288,-0.534 -0.398,-0.812 -0.181,-0.459 -0.287,-0.715 -0.402,-1.188 -0.046,-0.188 -0.119,-0.27 -0.192,-0.295l-0.102 0c-0.048,0.016 -0.089,0.051 -0.108,0.086 -0.051,0.086 -0.064,0.199 -0.095,0.308 -0.032,0.111 -0.061,0.196 -0.093,0.31 -0.158,0.549 -0.451,1.189 -0.703,1.694l-0.276 0.53c-0.276,0.514 -0.571,1.017 -0.894,1.502l-0.63 0.983c-0.1,0.186 -0.187,0.316 -0.274,0.532 -0.114,0.285 -0.178,0.601 -0.199,0.924l0 0.479c0.029,0.469 0.144,0.922 0.323,1.278 0.316,0.627 0.606,0.9 1.092,1.303l0.495 0.311c0.396,0.197 0.814,0.312 1.235,0.348l0.594 0c0.285,-0.025 0.568,-0.085 0.841,-0.18 0.474,-0.166 0.885,-0.451 1.243,-0.795l0.524 -0.643z"/>
     <path class="fil3" d="M56.138 10.418l0.116 -0.359c0.063,-0.216 0.103,-0.437 0.121,-0.659l0 -0.537c-0.044,-0.559 -0.222,-1.102 -0.508,-1.569 -0.132,-0.217 -0.62,-0.846 -0.818,-1.126l-0.574 -0.873c-0.035,-0.056 -0.057,-0.091 -0.091,-0.146 -0.028,-0.048 -0.075,-0.103 -0.093,-0.157 -0.174,0.13 -0.549,0.565 -0.697,0.716l-0.875 0.973c-0.415,0.529 -1.021,1.22 -1.289,2.009 -0.384,1.132 0.646,1.405 1.572,1.573 0.894,0.163 2.202,0.193 3.136,0.155z"/>
    </g>
    <g>
     <path class="fil4" d="M58.813 5.912c-0.082,0.044 -0.184,0.066 -0.307,0.066 -0.158,0 -0.285,-0.051 -0.38,-0.153 -0.096,-0.102 -0.143,-0.236 -0.143,-0.402 0,-0.178 0.054,-0.321 0.161,-0.431 0.107,-0.11 0.242,-0.165 0.407,-0.165 0.105,0 0.193,0.015 0.262,0.046l0 0.139c-0.079,-0.045 -0.167,-0.067 -0.263,-0.067 -0.128,0 -0.232,0.043 -0.311,0.128 -0.08,0.085 -0.12,0.2 -0.12,0.342 0,0.136 0.038,0.244 0.112,0.325 0.074,0.08 0.171,0.12 0.292,0.12 0.112,0 0.209,-0.025 0.29,-0.074l0 0.126zm0.849 -0.319l-0.561 0c0.002,0.089 0.026,0.157 0.071,0.205 0.046,0.048 0.108,0.072 0.188,0.072 0.09,0 0.172,-0.029 0.247,-0.088l0 0.119c-0.07,0.051 -0.163,0.077 -0.277,0.077 -0.113,0 -0.201,-0.037 -0.265,-0.109 -0.064,-0.072 -0.096,-0.173 -0.096,-0.304 0,-0.124 0.035,-0.225 0.105,-0.303 0.07,-0.078 0.157,-0.117 0.261,-0.117 0.104,0 0.184,0.034 0.241,0.101 0.057,0.068 0.086,0.161 0.086,0.28l0 0.067zm-0.131 -0.107c0,-0.074 -0.018,-0.131 -0.053,-0.172 -0.035,-0.041 -0.083,-0.061 -0.145,-0.061 -0.06,0 -0.111,0.021 -0.153,0.064 -0.042,0.043 -0.068,0.099 -0.078,0.169l0.429 0zm0.983 0.473l-0.127 0 0 -0.453c0,-0.169 -0.061,-0.253 -0.185,-0.253 -0.063,0 -0.116,0.023 -0.158,0.071 -0.041,0.048 -0.062,0.109 -0.062,0.182l0 0.453 -0.128 0 0 -0.795 0.128 0 0 0.132 0.003 0c0.06,-0.1 0.147,-0.151 0.261,-0.151 0.087,0 0.153,0.029 0.199,0.085 0.046,0.056 0.069,0.137 0.069,0.243l0 0.486zm0.609 -0.008c-0.03,0.017 -0.07,0.025 -0.119,0.025 -0.139,0 -0.208,-0.078 -0.208,-0.233l0 -0.47 -0.137 0 0 -0.109 0.137 0 0 -0.194 0.127 -0.041 0 0.235 0.2 0 0 0.109 -0.2 0 0 0.448c0,0.053 0.009,0.091 0.027,0.114 0.018,0.022 0.048,0.034 0.09,0.034 0.032,0 0.06,-0.009 0.083,-0.027l0 0.109zm0.585 -0.658c-0.023,-0.017 -0.055,-0.026 -0.097,-0.026 -0.054,0 -0.1,0.026 -0.136,0.077 -0.036,0.051 -0.055,0.121 -0.055,0.21l0 0.405 -0.127 0 0 -0.795 0.127 0 0 0.164 0.004 0c0.018,-0.056 0.045,-0.1 0.082,-0.131 0.038,-0.031 0.079,-0.047 0.125,-0.047 0.034,0 0.059,0.004 0.077,0.011l0 0.132zm0.47 0.685c-0.118,0 -0.211,-0.038 -0.282,-0.112 -0.069,-0.074 -0.105,-0.173 -0.105,-0.295 0,-0.134 0.037,-0.238 0.11,-0.313 0.073,-0.075 0.171,-0.113 0.296,-0.113 0.118,0 0.211,0.037 0.277,0.11 0.067,0.073 0.1,0.174 0.1,0.303 0,0.127 -0.036,0.229 -0.108,0.305 -0.071,0.076 -0.168,0.115 -0.288,0.115zm0.009 -0.725c-0.081,0 -0.146,0.027 -0.194,0.083 -0.047,0.056 -0.071,0.132 -0.071,0.23 0,0.094 0.024,0.169 0.072,0.223 0.048,0.054 0.113,0.081 0.193,0.081 0.083,0 0.146,-0.026 0.19,-0.08 0.044,-0.053 0.066,-0.129 0.066,-0.227 0,-0.099 -0.022,-0.176 -0.066,-0.23 -0.044,-0.054 -0.107,-0.08 -0.19,-0.08zm1.704 0.706l-0.127 0 0 -0.135 -0.003 0c-0.059,0.102 -0.15,0.154 -0.273,0.154 -0.1,0 -0.18,-0.036 -0.24,-0.107 -0.06,-0.071 -0.09,-0.168 -0.09,-0.291 0,-0.131 0.034,-0.237 0.1,-0.316 0.066,-0.079 0.154,-0.119 0.265,-0.119 0.109,0 0.188,0.043 0.238,0.129l0.003 0 0 -0.492 0.127 0 0 1.177zm-0.127 -0.359l0 -0.118c0,-0.064 -0.021,-0.118 -0.064,-0.163 -0.042,-0.044 -0.096,-0.066 -0.161,-0.066 -0.078,0 -0.139,0.028 -0.183,0.085 -0.045,0.057 -0.067,0.135 -0.067,0.236 0,0.092 0.021,0.164 0.064,0.217 0.043,0.053 0.1,0.079 0.172,0.079 0.071,0 0.128,-0.025 0.173,-0.076 0.044,-0.051 0.066,-0.116 0.066,-0.194zm1.024 -0.007l-0.561 0c0.002,0.089 0.026,0.157 0.071,0.205 0.046,0.048 0.108,0.072 0.188,0.072 0.09,0 0.172,-0.029 0.247,-0.088l0 0.119c-0.07,0.051 -0.162,0.077 -0.277,0.077 -0.113,0 -0.201,-0.037 -0.265,-0.109 -0.064,-0.072 -0.096,-0.173 -0.096,-0.304 0,-0.124 0.035,-0.225 0.105,-0.303 0.07,-0.078 0.157,-0.117 0.261,-0.117 0.104,0 0.184,0.034 0.241,0.101 0.057,0.068 0.086,0.161 0.086,0.28l0 0.067zm-0.131 -0.107c0,-0.074 -0.018,-0.131 -0.053,-0.172 -0.035,-0.041 -0.083,-0.061 -0.145,-0.061 -0.06,0 -0.111,0.021 -0.153,0.064 -0.042,0.043 -0.068,0.099 -0.078,0.169l0.429 0z"/>
     <path class="fil4" d="M59.036 8.314l-1.048 0 0 -1.976 1.004 0 0 0.209 -0.772 0 0 0.658 0.714 0 0 0.208 -0.714 0 0 0.692 0.816 0 0 0.209zm0.264 -0.05l0 -0.243c0.123,0.091 0.259,0.136 0.407,0.136 0.198,0 0.298,-0.066 0.298,-0.198 0,-0.038 -0.009,-0.07 -0.026,-0.096 -0.017,-0.026 -0.04,-0.049 -0.069,-0.069 -0.028,-0.021 -0.063,-0.039 -0.102,-0.055 -0.039,-0.016 -0.081,-0.033 -0.126,-0.05 -0.063,-0.025 -0.117,-0.05 -0.165,-0.076 -0.047,-0.025 -0.086,-0.053 -0.118,-0.085 -0.032,-0.032 -0.056,-0.068 -0.072,-0.108 -0.016,-0.041 -0.024,-0.088 -0.024,-0.142 0,-0.066 0.015,-0.125 0.045,-0.176 0.031,-0.051 0.072,-0.094 0.122,-0.128 0.051,-0.034 0.108,-0.061 0.173,-0.078 0.064,-0.017 0.132,-0.026 0.2,-0.026 0.123,0 0.232,0.021 0.328,0.063l0 0.229c-0.103,-0.068 -0.223,-0.102 -0.358,-0.102 -0.042,0 -0.08,0.005 -0.115,0.015 -0.033,0.009 -0.063,0.023 -0.087,0.04 -0.024,0.018 -0.043,0.039 -0.057,0.063 -0.013,0.024 -0.019,0.051 -0.019,0.081 0,0.036 0.006,0.067 0.019,0.092 0.014,0.025 0.033,0.047 0.059,0.066 0.026,0.019 0.057,0.037 0.094,0.052 0.037,0.016 0.079,0.033 0.126,0.051 0.062,0.024 0.118,0.049 0.168,0.074 0.049,0.025 0.091,0.054 0.127,0.086 0.034,0.031 0.061,0.068 0.08,0.109 0.019,0.042 0.028,0.091 0.028,0.148 0,0.07 -0.015,0.13 -0.046,0.182 -0.031,0.051 -0.072,0.094 -0.123,0.128 -0.052,0.034 -0.111,0.059 -0.178,0.076 -0.067,0.016 -0.137,0.024 -0.211,0.024 -0.145,0 -0.271,-0.027 -0.378,-0.083zm1.938 0.037c-0.053,0.029 -0.123,0.044 -0.21,0.044 -0.248,0 -0.371,-0.138 -0.371,-0.414l0 -0.835 -0.243 0 0 -0.193 0.243 0 0 -0.345 0.226 -0.073 0 0.418 0.355 0 0 0.193 -0.355 0 0 0.795c0,0.095 0.016,0.162 0.048,0.203 0.032,0.04 0.085,0.06 0.16,0.06 0.057,0 0.106,-0.015 0.147,-0.047l0 0.194zm1.443 0.013l-0.225 0 0 -0.223 -0.006 0c-0.094,0.171 -0.239,0.256 -0.436,0.256 -0.336,0 -0.504,-0.2 -0.504,-0.6l0 -0.844 0.224 0 0 0.808c0,0.298 0.115,0.446 0.342,0.446 0.11,0 0.201,-0.04 0.273,-0.122 0.071,-0.081 0.107,-0.187 0.107,-0.319l0 -0.813 0.225 0 0 1.411zm1.662 0l-0.227 0 0 -0.24 -0.005 0c-0.105,0.183 -0.267,0.273 -0.485,0.273 -0.177,0 -0.319,-0.063 -0.425,-0.189 -0.107,-0.126 -0.16,-0.299 -0.16,-0.516 0,-0.234 0.059,-0.421 0.177,-0.561 0.117,-0.141 0.274,-0.211 0.47,-0.211 0.194,0 0.335,0.076 0.423,0.229l0.005 0 0 -0.874 0.227 0 0 2.089zm-0.227 -0.638l0 -0.208c0,-0.114 -0.037,-0.21 -0.113,-0.289 -0.075,-0.079 -0.17,-0.119 -0.286,-0.119 -0.138,0 -0.247,0.05 -0.326,0.152 -0.079,0.101 -0.118,0.24 -0.118,0.419 0,0.163 0.038,0.29 0.114,0.385 0.075,0.094 0.177,0.141 0.305,0.141 0.126,0 0.228,-0.045 0.307,-0.136 0.078,-0.091 0.117,-0.206 0.117,-0.345zm0.8 -1.132c-0.04,0 -0.075,-0.013 -0.103,-0.041 -0.029,-0.027 -0.043,-0.062 -0.043,-0.104 0,-0.043 0.014,-0.078 0.043,-0.106 0.028,-0.028 0.063,-0.042 0.103,-0.042 0.041,0 0.076,0.014 0.105,0.042 0.029,0.028 0.044,0.063 0.044,0.106 0,0.04 -0.015,0.074 -0.044,0.103 -0.029,0.028 -0.064,0.042 -0.105,0.042zm0.11 1.77l-0.226 0 0 -1.411 0.226 0 0 1.411zm1.047 0.033c-0.208,0 -0.374,-0.066 -0.499,-0.197 -0.124,-0.132 -0.187,-0.307 -0.187,-0.525 0,-0.237 0.065,-0.422 0.194,-0.556 0.13,-0.133 0.305,-0.199 0.526,-0.199 0.21,0 0.374,0.064 0.492,0.194 0.119,0.13 0.177,0.309 0.177,0.539 0,0.225 -0.063,0.406 -0.19,0.541 -0.128,0.135 -0.299,0.203 -0.513,0.203zm0.017 -1.287c-0.145,0 -0.26,0.049 -0.344,0.148 -0.085,0.099 -0.128,0.235 -0.128,0.409 0,0.167 0.043,0.299 0.129,0.395 0.086,0.097 0.2,0.145 0.343,0.145 0.146,0 0.259,-0.047 0.337,-0.142 0.079,-0.094 0.118,-0.229 0.118,-0.404 0,-0.176 -0.039,-0.312 -0.118,-0.407 -0.078,-0.096 -0.191,-0.144 -0.337,-0.144zm0.962 1.204l0 -0.243c0.123,0.091 0.259,0.136 0.407,0.136 0.198,0 0.298,-0.066 0.298,-0.198 0,-0.038 -0.009,-0.07 -0.026,-0.096 -0.017,-0.026 -0.04,-0.049 -0.069,-0.069 -0.028,-0.021 -0.063,-0.039 -0.102,-0.055 -0.039,-0.016 -0.081,-0.033 -0.126,-0.05 -0.062,-0.025 -0.117,-0.05 -0.165,-0.076 -0.047,-0.025 -0.086,-0.053 -0.118,-0.085 -0.032,-0.032 -0.056,-0.068 -0.072,-0.108 -0.016,-0.041 -0.024,-0.088 -0.024,-0.142 0,-0.066 0.015,-0.125 0.045,-0.176 0.031,-0.051 0.072,-0.094 0.122,-0.128 0.051,-0.034 0.108,-0.061 0.173,-0.078 0.065,-0.017 0.132,-0.026 0.2,-0.026 0.123,0 0.232,0.021 0.328,0.063l0 0.229c-0.103,-0.068 -0.223,-0.102 -0.358,-0.102 -0.042,0 -0.08,0.005 -0.115,0.015 -0.033,0.009 -0.063,0.023 -0.087,0.04 -0.024,0.018 -0.043,0.039 -0.056,0.063 -0.014,0.024 -0.02,0.051 -0.02,0.081 0,0.036 0.006,0.067 0.02,0.092 0.013,0.025 0.032,0.047 0.058,0.066 0.026,0.019 0.057,0.037 0.094,0.052 0.037,0.016 0.079,0.033 0.126,0.051 0.062,0.024 0.118,0.049 0.168,0.074 0.049,0.025 0.091,0.054 0.127,0.086 0.034,0.031 0.061,0.068 0.08,0.109 0.019,0.042 0.028,0.091 0.028,0.148 0,0.07 -0.015,0.13 -0.046,0.182 -0.031,0.051 -0.072,0.094 -0.123,0.128 -0.052,0.034 -0.111,0.059 -0.178,0.076 -0.067,0.016 -0.137,0.024 -0.211,0.024 -0.145,0 -0.271,-0.027 -0.378,-0.083z"/>
     <path class="fil4" d="M59.474 10.654l-0.231 0 0 -0.901 -1.023 0 0 0.901 -0.232 0 0 -1.976 0.232 0 0 0.867 1.023 0 0 -0.867 0.231 0 0 1.976zm0.604 -1.769c-0.04,0 -0.075,-0.014 -0.103,-0.042 -0.029,-0.027 -0.043,-0.062 -0.043,-0.104 0,-0.043 0.014,-0.078 0.043,-0.106 0.028,-0.028 0.063,-0.042 0.103,-0.042 0.041,0 0.076,0.014 0.106,0.042 0.028,0.028 0.043,0.063 0.043,0.106 0,0.04 -0.015,0.074 -0.043,0.103 -0.03,0.028 -0.065,0.043 -0.106,0.043zm0.11 1.769l-0.226 0 0 -1.411 0.226 0 0 1.411zm1.663 0l-0.227 0 0 -0.24 -0.005 0c-0.105,0.183 -0.267,0.273 -0.486,0.273 -0.176,0 -0.319,-0.063 -0.424,-0.189 -0.107,-0.126 -0.16,-0.298 -0.16,-0.516 0,-0.234 0.059,-0.421 0.177,-0.561 0.117,-0.141 0.274,-0.211 0.47,-0.211 0.193,0 0.335,0.076 0.423,0.229l0.005 0 0 -0.874 0.227 0 0 2.089zm-0.227 -0.638l0 -0.208c0,-0.114 -0.037,-0.21 -0.113,-0.289 -0.075,-0.079 -0.171,-0.119 -0.286,-0.119 -0.138,0 -0.247,0.05 -0.326,0.152 -0.079,0.101 -0.118,0.241 -0.118,0.419 0,0.163 0.038,0.291 0.113,0.385 0.076,0.094 0.178,0.141 0.306,0.141 0.126,0 0.228,-0.045 0.307,-0.136 0.078,-0.091 0.117,-0.206 0.117,-0.345zm1.42 -0.544c-0.039,-0.03 -0.096,-0.045 -0.171,-0.045 -0.097,0 -0.177,0.045 -0.242,0.136 -0.064,0.091 -0.097,0.215 -0.097,0.372l0 0.719 -0.226 0 0 -1.411 0.226 0 0 0.291 0.006 0c0.032,-0.099 0.081,-0.177 0.147,-0.233 0.066,-0.055 0.14,-0.083 0.222,-0.083 0.059,0 0.104,0.007 0.135,0.019l0 0.235zm1.256 1.182l-0.226 0 0 -0.22 -0.006 0c-0.098,0.169 -0.243,0.253 -0.434,0.253 -0.141,0 -0.251,-0.037 -0.33,-0.111 -0.08,-0.074 -0.119,-0.173 -0.119,-0.297 0,-0.263 0.155,-0.417 0.465,-0.46l0.424 -0.059c0,-0.24 -0.097,-0.36 -0.291,-0.36 -0.17,0 -0.323,0.058 -0.46,0.174l0 -0.232c0.138,-0.088 0.298,-0.132 0.479,-0.132 0.332,0 0.498,0.176 0.498,0.527l0 0.917zm-0.226 -0.714l-0.341 0.047c-0.105,0.015 -0.184,0.041 -0.237,0.078 -0.053,0.038 -0.08,0.103 -0.08,0.198 0,0.069 0.025,0.125 0.074,0.169 0.049,0.044 0.114,0.065 0.196,0.065 0.112,0 0.205,-0.039 0.278,-0.117 0.073,-0.079 0.11,-0.179 0.11,-0.299l0 -0.141zm0.03 -1.416l-0.36 0.452 -0.175 0 0.307 -0.452 0.228 0zm1.763 2.13l-0.226 0 0 -0.223 -0.005 0c-0.094,0.171 -0.24,0.256 -0.436,0.256 -0.337,0 -0.505,-0.2 -0.505,-0.6l0 -0.844 0.225 0 0 0.808c0,0.298 0.114,0.446 0.342,0.446 0.11,0 0.201,-0.04 0.272,-0.122 0.071,-0.081 0.107,-0.187 0.107,-0.319l0 -0.813 0.226 0 0 1.411zm0.683 0l-0.227 0 0 -2.089 0.227 0 0 2.089zm0.573 -1.769c-0.04,0 -0.075,-0.014 -0.103,-0.042 -0.029,-0.027 -0.043,-0.062 -0.043,-0.104 0,-0.043 0.014,-0.078 0.043,-0.106 0.028,-0.028 0.063,-0.042 0.103,-0.042 0.041,0 0.076,0.014 0.105,0.042 0.029,0.028 0.044,0.063 0.044,0.106 0,0.04 -0.015,0.074 -0.044,0.103 -0.029,0.028 -0.064,0.043 -0.105,0.043zm0.11 1.769l-0.226 0 0 -1.411 0.226 0 0 1.411zm1.42 -0.064c-0.109,0.065 -0.237,0.097 -0.386,0.097 -0.202,0 -0.364,-0.065 -0.488,-0.196 -0.123,-0.131 -0.185,-0.3 -0.185,-0.509 0,-0.233 0.067,-0.42 0.2,-0.561 0.133,-0.14 0.311,-0.211 0.534,-0.211 0.124,0 0.233,0.023 0.327,0.069l0 0.231c-0.105,-0.073 -0.216,-0.11 -0.336,-0.11 -0.144,0 -0.263,0.052 -0.355,0.155 -0.092,0.103 -0.138,0.239 -0.138,0.407 0,0.166 0.043,0.296 0.13,0.392 0.087,0.095 0.203,0.143 0.349,0.143 0.124,0 0.239,-0.041 0.348,-0.122l0 0.215zm0.931 0.097c-0.208,0 -0.375,-0.066 -0.499,-0.197 -0.125,-0.132 -0.187,-0.307 -0.187,-0.525 0,-0.237 0.065,-0.422 0.194,-0.555 0.13,-0.134 0.305,-0.2 0.526,-0.2 0.21,0 0.374,0.065 0.492,0.194 0.118,0.13 0.177,0.309 0.177,0.539 0,0.225 -0.064,0.406 -0.19,0.541 -0.128,0.136 -0.299,0.203 -0.513,0.203zm0.017 -1.287c-0.145,0 -0.26,0.05 -0.345,0.148 -0.084,0.099 -0.127,0.235 -0.127,0.409 0,0.167 0.043,0.299 0.129,0.395 0.085,0.097 0.2,0.145 0.343,0.145 0.146,0 0.258,-0.047 0.337,-0.142 0.078,-0.094 0.118,-0.229 0.118,-0.403 0,-0.177 -0.04,-0.313 -0.118,-0.408 -0.079,-0.096 -0.191,-0.144 -0.337,-0.144zm0.962 1.204l0 -0.243c0.123,0.091 0.259,0.136 0.407,0.136 0.198,0 0.298,-0.066 0.298,-0.198 0,-0.038 -0.009,-0.07 -0.026,-0.096 -0.017,-0.026 -0.04,-0.049 -0.069,-0.069 -0.029,-0.021 -0.063,-0.039 -0.102,-0.055 -0.039,-0.016 -0.081,-0.033 -0.126,-0.05 -0.063,-0.025 -0.117,-0.05 -0.165,-0.076 -0.047,-0.024 -0.086,-0.053 -0.118,-0.085 -0.032,-0.032 -0.056,-0.067 -0.072,-0.108 -0.016,-0.04 -0.024,-0.088 -0.024,-0.142 0,-0.066 0.015,-0.125 0.045,-0.176 0.031,-0.051 0.071,-0.094 0.122,-0.128 0.05,-0.034 0.108,-0.061 0.173,-0.078 0.064,-0.017 0.131,-0.026 0.2,-0.026 0.122,0 0.232,0.021 0.328,0.063l0 0.229c-0.103,-0.068 -0.223,-0.102 -0.358,-0.102 -0.042,0 -0.08,0.005 -0.115,0.015 -0.034,0.009 -0.063,0.023 -0.087,0.04 -0.024,0.018 -0.043,0.039 -0.057,0.063 -0.013,0.024 -0.019,0.051 -0.019,0.081 0,0.036 0.006,0.067 0.019,0.092 0.014,0.025 0.033,0.047 0.059,0.066 0.026,0.02 0.057,0.037 0.094,0.052 0.036,0.016 0.078,0.033 0.125,0.051 0.062,0.024 0.119,0.049 0.168,0.074 0.05,0.026 0.092,0.054 0.127,0.086 0.035,0.031 0.062,0.068 0.081,0.109 0.019,0.042 0.028,0.091 0.028,0.148 0,0.07 -0.016,0.13 -0.046,0.182 -0.031,0.051 -0.072,0.094 -0.123,0.128 -0.052,0.034 -0.111,0.059 -0.178,0.076 -0.068,0.016 -0.138,0.024 -0.212,0.024 -0.144,0 -0.27,-0.027 -0.377,-0.083z"/>
    </g>
   </g>
  </g>
 </g>
</svg>
