<svg width="1855" height="1199" xmlns="http://www.w3.org/2000/svg" xmlns:xlink="http://www.w3.org/1999/xlink" xml:space="preserve" overflow="hidden"><defs><clipPath id="clip0"><rect x="626" y="128" width="1855" height="1199"/></clipPath></defs><g clip-path="url(#clip0)" transform="translate(-626 -128)"><path d="M1994.68 1068.56 915.759 897.677 967.216 572.788 2046.14 743.672Z" fill="#F2F2F2" fill-rule="evenodd"/><path d="M2034.41 901.73 823.393 545.631 881.943 346.516 2092.96 702.615Z" fill="#FFFFFF" fill-rule="evenodd"/><path d="M1990.72 1065.65 908.5 894.5" stroke="#767171" stroke-width="12.6042" stroke-miterlimit="8" fill="#F2F2F2" fill-rule="evenodd"/><path d="M2018.57 894.976 966.5 588.5" stroke="#767171" stroke-width="4.58333" stroke-miterlimit="8" fill="#F2F2F2" fill-rule="evenodd"/><path d="M0 0 1650 0.000360892" stroke="#767171" stroke-width="4.58333" stroke-miterlimit="8" fill="#F2F2F2" fill-rule="evenodd" transform="matrix(1 0 0 -1 626.5 1227.5)"/><path d="M1008.5 295.5 1959.6 295.5" stroke="#767171" stroke-width="3.4375" stroke-miterlimit="8" stroke-dasharray="27.5 10.3125 3.4375 10.3125 3.4375 10.3125" fill="#F2F2F2" fill-rule="evenodd"/><path d="M830.193 613.746 831.162 898.867 828.87 898.875 827.901 613.754ZM819.896 618.364 829 600 838.229 618.302ZM839.167 894.257 830.063 912.621 820.834 894.319Z" fill="#3B3838"/><path d="M2102.15 565.75 2102.15 868.25 2099.85 868.25 2099.85 565.75ZM2091.83 570.333 2101 552 2110.17 570.333ZM2110.17 863.667 2101 882 2091.83 863.667Z" fill="#3B3838"/><path d="M1954.05 549.086 1008.5 295.5" stroke="#767171" stroke-width="3.4375" stroke-miterlimit="8" stroke-dasharray="27.5 10.3125 3.4375 10.3125 3.4375 10.3125" fill="#F2F2F2" fill-rule="evenodd"/><path d="M833.146 932.75 833.146 1211.4 830.854 1211.4 830.854 932.75ZM822.833 937.333 832 919 841.167 937.333ZM841.167 1206.81 832 1225.15 822.834 1206.81Z" fill="#3B3838"/><path d="M2102.15 1077.75 2102.15 1215.25 2099.85 1215.25 2099.85 1077.75ZM2091.83 1082.33 2101 1064 2110.17 1082.33ZM2110.17 1210.67 2101 1229 2091.83 1210.67Z" fill="#3B3838"/><path d="M966.5 178C966.5 155.08 985.08 136.5 1008 136.5 1030.92 136.5 1049.5 155.08 1049.5 178 1049.5 200.92 1030.92 219.5 1008 219.5 985.08 219.5 966.5 200.92 966.5 178Z" stroke="#7F7F7F" stroke-width="4.58333" stroke-miterlimit="8" fill="none" fill-rule="evenodd"/><text fill="#262626" font-family="Segoe UI Light,Segoe UI Light_MSFontService,sans-serif" font-weight="300" font-size="55" transform="matrix(1 0 0 1 997.964 199)">1</text><path d="M1908.5 178C1908.5 155.08 1927.08 136.5 1950 136.5 1972.92 136.5 1991.5 155.08 1991.5 178 1991.5 200.92 1972.92 219.5 1950 219.5 1927.08 219.5 1908.5 200.92 1908.5 178Z" stroke="#7F7F7F" stroke-width="4.58333" stroke-miterlimit="8" fill="none" fill-rule="evenodd"/><text fill="#262626" font-family="Segoe UI Light,Segoe UI Light_MSFontService,sans-serif" font-weight="300" font-size="55" transform="matrix(1 0 0 1 1935.25 199)">2<tspan fill="#181717" font-family="Cambria Math,Cambria Math_MSFontService,sans-serif" font-weight="400" font-size="46" x="-634.797" y="1090">Nivel de referencia</tspan></text><text fill="#181717" font-family="Cambria Math,Cambria Math_MSFontService,sans-serif" font-weight="400" font-size="46" transform="matrix(0.965072 0.261984 -0.261984 0.965072 1185.31 425)">Línea de <tspan font-size="46" x="175.865" y="-0.0764313">energía. Pendiente, </tspan><tspan font-size="46" x="559.833" y="0.344589">S</tspan><tspan font-size="31" x="582.58" y="9.71234">f</tspan></text><text fill="#181717" font-family="Cambria Math,Cambria Math_MSFontService,sans-serif" font-weight="400" font-size="46" transform="matrix(0.96022 0.279244 -0.279244 0.96022 1154.46 630)">Superficie del fluido. Pendiente, S<tspan font-size="31" x="649.683" y="9.97665">W</tspan></text><text font-family="Cambria Math,Cambria Math_MSFontService,sans-serif" font-weight="400" font-size="50" transform="translate(774.512 1087)">z<tspan font-size="50" x="-0.493713" y="-315">y</tspan></text><path d="M741.343 402.847C739.618 402.847 738.242 403.786 737.217 405.666 736.192 407.546 735.679 410.049 735.679 413.174 735.679 419.18 737.168 422.182 740.147 422.182 743.32 422.182 745.599 419.082 746.983 412.881 746.543 409.219 745.896 406.631 745.042 405.117 744.187 403.603 742.954 402.847 741.343 402.847ZM741.148 400.918C743.198 400.918 744.806 401.406 745.969 402.383 747.133 403.359 748.138 404.995 748.984 407.29L749.351 407.29 751.06 401.333 755.064 401.333 755.064 402.529C753.892 404.336 752.329 407.681 750.376 412.563 750.718 415.851 751.117 418.325 751.572 419.985 752.028 421.645 752.761 422.475 753.77 422.475 754.437 422.475 755.226 422.101 756.138 421.352L757.09 422.793C755.348 424.306 753.607 425.063 751.865 425.063 749.375 425.063 747.878 422.785 747.373 418.227L747.105 418.227C744.875 422.785 742.14 425.063 738.901 425.063 736.476 425.063 734.588 424.062 733.237 422.06 731.887 420.058 731.211 417.202 731.211 413.491 731.211 409.666 732.18 406.614 734.116 404.336 736.053 402.057 738.397 400.918 741.148 400.918Z" fill-rule="evenodd"/><text fill="#000000" fill-opacity="0" font-family="Arial,Arial_MSFontService,sans-serif" font-size="24.1455" x="731.211" y="422.045">α</text><path d="M758.428 391.348 769.463 391.348 769.463 392.544C768.714 392.674 768.145 392.837 767.754 393.032 767.363 393.227 767.07 393.504 766.875 393.862 766.68 394.22 766.582 394.7 766.582 395.303 766.582 395.856 766.647 396.454 766.777 397.097 766.908 397.74 767.095 398.46 767.339 399.258L773.052 419.18 780.059 399.111C780.156 398.802 780.254 398.476 780.352 398.135 780.449 397.793 780.535 397.459 780.608 397.134 780.681 396.808 780.73 396.523 780.755 396.279 780.779 396.035 780.791 395.807 780.791 395.596 780.791 394.619 780.567 393.907 780.12 393.459 779.672 393.012 778.911 392.707 777.837 392.544L777.837 391.348 788.091 391.348 788.091 392.544C787.424 392.707 786.887 392.943 786.48 393.252 786.073 393.561 785.67 394.057 785.271 394.741 784.872 395.425 784.388 396.515 783.818 398.013L773.687 425.063 770.488 425.063 762.261 397.842C761.821 396.361 761.439 395.307 761.113 394.68 760.788 394.053 760.43 393.581 760.039 393.264 759.649 392.947 759.111 392.707 758.428 392.544Z" fill-rule="evenodd"/><text fill="#000000" fill-opacity="0" font-family="Arial,Arial_MSFontService,sans-serif" font-size="33.7158" x="758.428" y="420.849">V</text><path d="M801.012 382.806C802.264 382.806 803.333 382.947 804.219 383.23 805.104 383.513 805.824 383.896 806.378 384.378 806.932 384.859 807.332 385.438 807.579 386.112 807.826 386.786 807.949 387.515 807.949 388.298 807.949 388.768 807.916 389.204 807.85 389.608 807.784 390.011 807.669 390.409 807.507 390.8 807.344 391.192 807.13 391.586 806.865 391.984 806.6 392.381 806.269 392.803 805.872 393.248 805.571 393.634 805.179 394.079 804.697 394.585 804.216 395.091 803.689 395.633 803.117 396.211 802.544 396.789 801.945 397.391 801.319 398.018 800.693 398.644 800.084 399.264 799.494 399.879 798.904 400.493 798.362 401.089 797.868 401.667 797.374 402.245 796.971 402.775 796.658 403.257L803.342 403.257C803.909 403.257 804.36 403.236 804.697 403.194 805.035 403.152 805.315 403.058 805.537 402.914 805.76 402.769 805.95 402.549 806.107 402.254 806.263 401.959 806.444 401.553 806.649 401.035L808.329 401.035C808.268 401.89 808.211 402.751 808.157 403.618 808.103 404.486 808.046 405.347 807.985 406.202L792.683 406.202 792.683 405.262C792.972 404.612 793.31 403.971 793.695 403.338 794.08 402.706 794.514 402.065 794.996 401.414 795.477 400.764 796.026 400.092 796.64 399.4 797.254 398.707 797.935 397.988 798.681 397.241 799.813 396.109 800.735 395.142 801.445 394.341 802.156 393.54 802.716 392.827 803.126 392.2 803.535 391.574 803.815 390.996 803.966 390.466 804.116 389.936 804.192 389.37 804.192 388.768 804.192 388.154 804.104 387.587 803.93 387.07 803.755 386.552 803.505 386.112 803.18 385.751 802.855 385.389 802.442 385.106 801.942 384.902 801.442 384.697 800.867 384.594 800.217 384.594 799.097 384.594 798.157 384.899 797.399 385.507 796.64 386.115 796.05 386.997 795.628 388.154L793.261 388.154 793.261 384.631C794.803 383.992 796.221 383.529 797.516 383.239 798.811 382.95 799.976 382.806 801.012 382.806Z" fill-rule="evenodd"/><text fill="#000000" fill-opacity="0" font-family="Arial,Arial_MSFontService,sans-serif" font-size="23.396" x="792.683" y="403.277">2</text><path d="M780.671 496.953C779.841 497.571 779.219 498.227 778.803 498.918 778.388 499.61 778.181 500.395 778.181 501.274 778.181 502.739 778.763 503.817 779.927 504.509 781.09 505.201 782.868 505.547 785.261 505.547 786.726 505.547 787.983 505.351 789.033 504.961 790.083 504.57 790.884 504.009 791.438 503.276 791.991 502.544 792.268 501.689 792.268 500.713 792.268 500.257 792.211 499.813 792.097 499.382 791.983 498.951 791.767 498.564 791.45 498.222 791.133 497.881 790.681 497.608 790.095 497.405 789.509 497.201 788.744 497.099 787.8 497.099L784.162 497.099C782.844 497.099 781.68 497.051 780.671 496.953ZM784.822 474.663C783.275 474.663 782.095 475.176 781.281 476.201 780.468 477.226 780.061 478.707 780.061 480.644 780.061 482.679 780.476 484.249 781.306 485.356 782.136 486.463 783.332 487.016 784.895 487.016 785.725 487.016 786.433 486.858 787.019 486.54 787.605 486.223 788.081 485.788 788.447 485.234 788.813 484.681 789.082 484.042 789.253 483.318 789.424 482.593 789.509 481.832 789.509 481.035 789.509 479.603 789.306 478.406 788.899 477.446 788.492 476.486 787.938 475.782 787.239 475.334 786.539 474.887 785.733 474.663 784.822 474.663ZM784.87 472.807C786.042 472.807 787.206 472.946 788.362 473.222L797.004 473.222 797.004 475.688 792.488 475.517 792.268 475.786C792.772 476.29 793.171 476.978 793.464 477.849 793.757 478.72 793.904 479.66 793.904 480.669 793.904 483.322 793.086 485.368 791.45 486.809 789.814 488.249 787.491 488.97 784.48 488.97 783.129 488.97 781.965 488.799 780.989 488.457 779.752 489.401 779.133 490.329 779.133 491.24 779.133 491.842 779.251 492.298 779.487 492.607 779.723 492.916 780.114 493.136 780.659 493.266 781.204 493.397 782.03 493.462 783.137 493.462L788.996 493.462C790.722 493.462 792.129 493.73 793.22 494.267 794.31 494.804 795.088 495.525 795.552 496.428 796.015 497.331 796.247 498.385 796.247 499.59 796.247 501.12 795.808 502.483 794.929 503.679 794.05 504.875 792.781 505.807 791.12 506.474 789.46 507.142 787.523 507.475 785.31 507.475 783.666 507.475 782.164 507.378 780.805 507.182 779.446 506.987 778.283 506.658 777.314 506.194 776.346 505.73 775.597 505.119 775.068 504.363 774.539 503.606 774.275 502.658 774.275 501.518 774.275 500.493 774.616 499.561 775.3 498.723 775.984 497.885 776.952 497.148 778.205 496.513 777.44 496.204 776.838 495.748 776.399 495.146 775.959 494.544 775.74 493.836 775.74 493.022 775.74 492.095 776 491.244 776.521 490.471 777.042 489.698 777.961 488.815 779.28 487.822 778.108 487.138 777.217 486.211 776.606 485.039 775.996 483.867 775.691 482.532 775.691 481.035 775.691 479.635 775.923 478.419 776.386 477.385 776.85 476.352 777.493 475.497 778.315 474.822 779.137 474.146 780.11 473.642 781.233 473.308 782.356 472.974 783.568 472.807 784.87 472.807ZM758.775 462.846C761.802 462.846 764.089 463.51 765.635 464.836 767.181 466.163 767.954 468.087 767.954 470.61 767.954 471.473 767.869 472.266 767.698 472.991 767.527 473.715 767.259 474.431 766.892 475.139 766.526 475.847 766.034 476.608 765.415 477.422 764.797 478.235 764.113 479.061 763.365 479.9 762.616 480.738 761.322 482.134 759.483 484.087 756.39 487.358 754.12 490.215 752.671 492.656L761.875 492.656C762.673 492.656 763.316 492.607 763.804 492.51 764.292 492.412 764.683 492.249 764.976 492.021 765.269 491.793 765.501 491.496 765.672 491.13 765.843 490.764 766.058 490.198 766.319 489.433L768.394 489.433 767.979 496.562 747.886 496.562 747.886 495.39C748.586 493.681 749.53 491.932 750.718 490.141 751.906 488.351 753.591 486.243 755.772 483.818 757.66 481.735 759.019 480.156 759.849 479.082 760.76 477.91 761.44 476.897 761.887 476.042 762.335 475.188 762.656 474.382 762.852 473.625 763.047 472.868 763.145 472.108 763.145 471.343 763.145 470.122 762.949 469.044 762.559 468.108 762.168 467.172 761.57 466.435 760.764 465.898 759.959 465.361 758.946 465.093 757.725 465.093 754.681 465.093 752.63 466.785 751.573 470.171L748.618 470.171 748.618 465.483C750.588 464.555 752.431 463.884 754.148 463.469 755.865 463.054 757.407 462.846 758.775 462.846Z" fill-rule="evenodd"/><text fill="#000000" fill-opacity="0" font-family="Arial,Arial_MSFontService,sans-serif" font-size="44.6289" x="747.886" y="501.897">2g</text><path d="M728.672 446.837 813.672 446.837 813.672 449.837 728.672 449.837Z" fill-rule="evenodd"/><text font-family="Cambria Math,Cambria Math_MSFontService,sans-serif" font-weight="400" font-size="50" transform="translate(2128.73 1152)">z<tspan font-size="50" x="34.1228" y="0">+</tspan><tspan font-size="50" x="83.1416" y="0">dz</tspan><tspan font-size="50" x="0.660156" y="-167">y</tspan><tspan font-size="50" x="37.0747" y="-167">+</tspan><tspan font-size="50" x="86.0935" y="-167">dy</tspan></text><path d="M2128.22 689.302C2126.5 689.302 2125.12 690.242 2124.1 692.122 2123.07 694.002 2122.56 696.504 2122.56 699.629 2122.56 705.635 2124.05 708.638 2127.03 708.638 2130.2 708.638 2132.48 705.537 2133.86 699.336 2133.42 695.674 2132.78 693.086 2131.92 691.572 2131.07 690.059 2129.83 689.302 2128.22 689.302ZM2128.03 687.373C2130.08 687.373 2131.69 687.862 2132.85 688.838 2134.01 689.815 2135.02 691.45 2135.87 693.745L2136.23 693.745 2137.94 687.788 2141.94 687.788 2141.94 688.985C2140.77 690.791 2139.21 694.136 2137.26 699.019 2137.6 702.307 2138 704.78 2138.45 706.441 2138.91 708.101 2139.64 708.931 2140.65 708.931 2141.32 708.931 2142.11 708.557 2143.02 707.808L2143.97 709.248C2142.23 710.762 2140.49 711.519 2138.75 711.519 2136.26 711.519 2134.76 709.24 2134.25 704.683L2133.99 704.683C2131.76 709.24 2129.02 711.519 2125.78 711.519 2123.36 711.519 2121.47 710.518 2120.12 708.516 2118.77 706.514 2118.09 703.657 2118.09 699.946 2118.09 696.122 2119.06 693.07 2121 690.791 2122.93 688.513 2125.28 687.373 2128.03 687.373Z" fill-rule="evenodd"/><text fill="#000000" fill-opacity="0" font-family="Arial,Arial_MSFontService,sans-serif" font-size="24.1455" x="2118.09" y="708.501">α</text><path d="M2145.31 677.803 2156.34 677.803 2156.34 678.999C2155.59 679.129 2155.03 679.292 2154.63 679.487 2154.24 679.683 2153.95 679.959 2153.76 680.318 2153.56 680.676 2153.46 681.156 2153.46 681.758 2153.46 682.311 2153.53 682.91 2153.66 683.552 2153.79 684.195 2153.98 684.916 2154.22 685.713L2159.93 705.635 2166.94 685.567C2167.04 685.257 2167.13 684.932 2167.23 684.59 2167.33 684.248 2167.42 683.915 2167.49 683.589 2167.56 683.264 2167.61 682.979 2167.64 682.735 2167.66 682.49 2167.67 682.263 2167.67 682.051 2167.67 681.074 2167.45 680.362 2167 679.915 2166.55 679.467 2165.79 679.162 2164.72 678.999L2164.72 677.803 2174.97 677.803 2174.97 678.999C2174.3 679.162 2173.77 679.398 2173.36 679.707 2172.95 680.016 2172.55 680.513 2172.15 681.196 2171.75 681.88 2171.27 682.971 2170.7 684.468L2160.57 711.519 2157.37 711.519 2149.14 684.297C2148.7 682.816 2148.32 681.762 2147.99 681.135 2147.67 680.509 2147.31 680.037 2146.92 679.719 2146.53 679.402 2145.99 679.162 2145.31 678.999Z" fill-rule="evenodd"/><text fill="#000000" fill-opacity="0" font-family="Arial,Arial_MSFontService,sans-serif" font-size="33.7158" x="2145.31" y="707.304">V</text><path d="M2187.89 669.261C2189.15 669.261 2190.21 669.403 2191.1 669.686 2191.98 669.969 2192.7 670.351 2193.26 670.833 2193.81 671.315 2194.21 671.893 2194.46 672.567 2194.71 673.242 2194.83 673.971 2194.83 674.753 2194.83 675.223 2194.8 675.66 2194.73 676.063 2194.66 676.467 2194.55 676.864 2194.39 677.256 2194.22 677.647 2194.01 678.042 2193.75 678.439 2193.48 678.836 2193.15 679.258 2192.75 679.704 2192.45 680.089 2192.06 680.535 2191.58 681.041 2191.1 681.546 2190.57 682.088 2190 682.667 2189.43 683.245 2188.83 683.847 2188.2 684.473 2187.57 685.099 2186.97 685.72 2186.38 686.334 2185.78 686.948 2185.24 687.544 2184.75 688.123 2184.26 688.701 2183.85 689.231 2183.54 689.712L2190.22 689.712C2190.79 689.712 2191.24 689.691 2191.58 689.649 2191.92 689.607 2192.2 689.514 2192.42 689.369 2192.64 689.225 2192.83 689.005 2192.99 688.71 2193.14 688.415 2193.32 688.008 2193.53 687.49L2195.21 687.49C2195.15 688.345 2195.09 689.207 2195.04 690.074 2194.98 690.941 2194.93 691.802 2194.87 692.657L2179.56 692.657 2179.56 691.718C2179.85 691.067 2180.19 690.426 2180.58 689.794 2180.96 689.161 2181.39 688.52 2181.88 687.87 2182.36 687.219 2182.91 686.548 2183.52 685.855 2184.13 685.163 2184.82 684.443 2185.56 683.696 2186.69 682.564 2187.62 681.598 2188.33 680.797 2189.04 679.996 2189.6 679.282 2190.01 678.656 2190.42 678.03 2190.7 677.451 2190.85 676.921 2191 676.391 2191.07 675.825 2191.07 675.223 2191.07 674.609 2190.98 674.043 2190.81 673.525 2190.64 673.007 2190.39 672.567 2190.06 672.206 2189.74 671.845 2189.32 671.562 2188.82 671.357 2188.32 671.152 2187.75 671.05 2187.1 671.05 2185.98 671.05 2185.04 671.354 2184.28 671.962 2183.52 672.57 2182.93 673.453 2182.51 674.609L2180.14 674.609 2180.14 671.086C2181.68 670.448 2183.1 669.984 2184.4 669.695 2185.69 669.406 2186.86 669.261 2187.89 669.261Z" fill-rule="evenodd"/><text fill="#000000" fill-opacity="0" font-family="Arial,Arial_MSFontService,sans-serif" font-size="23.396" x="2179.56" y="689.733">2</text><path d="M2167.55 783.408C2166.72 784.027 2166.1 784.682 2165.68 785.374 2165.27 786.065 2165.06 786.851 2165.06 787.73 2165.06 789.194 2165.64 790.273 2166.81 790.964 2167.97 791.656 2169.75 792.002 2172.14 792.002 2173.61 792.002 2174.86 791.807 2175.91 791.416 2176.96 791.026 2177.76 790.464 2178.32 789.732 2178.87 788.999 2179.15 788.145 2179.15 787.168 2179.15 786.712 2179.09 786.269 2178.98 785.838 2178.86 785.406 2178.65 785.02 2178.33 784.678 2178.01 784.336 2177.56 784.063 2176.98 783.86 2176.39 783.657 2175.62 783.555 2174.68 783.555L2171.04 783.555C2169.72 783.555 2168.56 783.506 2167.55 783.408ZM2171.7 761.118C2170.16 761.118 2168.98 761.631 2168.16 762.656 2167.35 763.682 2166.94 765.163 2166.94 767.1 2166.94 769.134 2167.36 770.705 2168.19 771.812 2169.02 772.918 2170.21 773.472 2171.78 773.472 2172.61 773.472 2173.31 773.313 2173.9 772.996 2174.49 772.678 2174.96 772.243 2175.33 771.69 2175.69 771.136 2175.96 770.497 2176.13 769.773 2176.3 769.049 2176.39 768.288 2176.39 767.49 2176.39 766.058 2176.19 764.862 2175.78 763.901 2175.37 762.941 2174.82 762.237 2174.12 761.79 2173.42 761.342 2172.61 761.118 2171.7 761.118ZM2171.75 759.263C2172.92 759.263 2174.09 759.401 2175.24 759.678L2183.88 759.678 2183.88 762.144 2179.37 761.973 2179.15 762.241C2179.65 762.746 2180.05 763.434 2180.34 764.304 2180.64 765.175 2180.78 766.115 2180.78 767.124 2180.78 769.777 2179.97 771.824 2178.33 773.264 2176.69 774.705 2174.37 775.425 2171.36 775.425 2170.01 775.425 2168.85 775.254 2167.87 774.912 2166.63 775.856 2166.01 776.784 2166.01 777.695 2166.01 778.298 2166.13 778.753 2166.37 779.063 2166.6 779.372 2166.99 779.592 2167.54 779.722 2168.08 779.852 2168.91 779.917 2170.02 779.917L2175.88 779.917C2177.6 779.917 2179.01 780.186 2180.1 780.723 2181.19 781.26 2181.97 781.98 2182.43 782.883 2182.9 783.787 2183.13 784.841 2183.13 786.045 2183.13 787.575 2182.69 788.938 2181.81 790.134 2180.93 791.331 2179.66 792.263 2178 792.93 2176.34 793.597 2174.4 793.931 2172.19 793.931 2170.55 793.931 2169.05 793.833 2167.69 793.638 2166.33 793.443 2165.16 793.113 2164.19 792.649 2163.23 792.185 2162.48 791.575 2161.95 790.818 2161.42 790.061 2161.16 789.113 2161.16 787.974 2161.16 786.948 2161.5 786.017 2162.18 785.178 2162.86 784.34 2163.83 783.604 2165.09 782.969 2164.32 782.66 2163.72 782.204 2163.28 781.602 2162.84 780.999 2162.62 780.291 2162.62 779.478 2162.62 778.55 2162.88 777.7 2163.4 776.926 2163.92 776.153 2164.84 775.27 2166.16 774.277 2164.99 773.594 2164.1 772.666 2163.49 771.494 2162.88 770.322 2162.57 768.988 2162.57 767.49 2162.57 766.091 2162.8 764.874 2163.27 763.84 2163.73 762.807 2164.37 761.952 2165.2 761.277 2166.02 760.602 2166.99 760.097 2168.11 759.763 2169.24 759.43 2170.45 759.263 2171.75 759.263ZM2145.66 749.302C2148.68 749.302 2150.97 749.965 2152.52 751.292 2154.06 752.618 2154.83 754.543 2154.83 757.066 2154.83 757.928 2154.75 758.722 2154.58 759.446 2154.41 760.17 2154.14 760.886 2153.77 761.594 2153.41 762.302 2152.91 763.063 2152.3 763.877 2151.68 764.691 2150.99 765.517 2150.25 766.355 2149.5 767.193 2148.2 768.589 2146.36 770.542 2143.27 773.814 2141 776.67 2139.55 779.111L2148.76 779.111C2149.55 779.111 2150.2 779.063 2150.68 778.965 2151.17 778.867 2151.56 778.705 2151.86 778.477 2152.15 778.249 2152.38 777.952 2152.55 777.586 2152.72 777.219 2152.94 776.654 2153.2 775.889L2155.27 775.889 2154.86 783.018 2134.77 783.018 2134.77 781.846C2135.47 780.137 2136.41 778.387 2137.6 776.597 2138.79 774.806 2140.47 772.699 2142.65 770.274 2144.54 768.19 2145.9 766.611 2146.73 765.537 2147.64 764.365 2148.32 763.352 2148.77 762.498 2149.22 761.643 2149.54 760.838 2149.73 760.081 2149.93 759.324 2150.03 758.563 2150.03 757.798 2150.03 756.577 2149.83 755.499 2149.44 754.563 2149.05 753.627 2148.45 752.891 2147.65 752.354 2146.84 751.817 2145.83 751.548 2144.61 751.548 2141.56 751.548 2139.51 753.241 2138.45 756.626L2135.5 756.626 2135.5 751.939C2137.47 751.011 2139.31 750.339 2141.03 749.924 2142.75 749.509 2144.29 749.302 2145.66 749.302Z" fill-rule="evenodd"/><text fill="#000000" fill-opacity="0" font-family="Arial,Arial_MSFontService,sans-serif" font-size="44.6289" x="2134.77" y="788.352">2g</text><path d="M2116 733.293 2201 733.293 2201 736.293 2116 736.293Z" fill-rule="evenodd"/><path d="M2228.54 719.304 2232.01 719.304 2232.01 733.366 2245.31 733.366 2245.31 736.613 2232.01 736.613 2232.01 750.676 2228.54 750.676 2228.54 736.613 2215.23 736.613 2215.23 733.366 2228.54 733.366Z" fill-rule="evenodd"/><text fill="#000000" fill-opacity="0" font-family="Arial,Arial_MSFontService,sans-serif" font-size="31.3721" x="2215.23" y="746.754">+</text><path d="M2274.17 727.483C2272.08 727.483 2270.49 728.317 2269.4 729.985 2268.31 731.653 2267.77 734.05 2267.77 737.175 2267.77 740.3 2268.22 742.676 2269.11 744.304 2270.01 745.932 2271.37 746.745 2273.19 746.745 2273.9 746.745 2274.5 746.684 2274.97 746.562 2275.44 746.44 2275.91 746.245 2276.36 745.976 2276.82 745.708 2277.28 745.337 2277.75 744.865 2278.23 744.393 2278.57 743.962 2278.79 743.571 2279.01 743.181 2279.18 742.733 2279.29 742.229 2279.41 741.724 2279.46 741.073 2279.46 740.276L2279.46 734.807C2279.46 733.537 2279.41 732.52 2279.29 731.755 2279.18 730.99 2278.99 730.347 2278.72 729.826 2278.45 729.306 2278.09 728.866 2277.63 728.508 2277.18 728.15 2276.68 727.89 2276.13 727.727 2275.59 727.564 2274.93 727.483 2274.17 727.483ZM2282.22 714.348 2283.66 714.348 2283.66 742.619C2283.66 743.889 2283.69 744.796 2283.74 745.341 2283.78 745.887 2283.89 746.322 2284.05 746.648 2284.22 746.973 2284.47 747.238 2284.82 747.441 2285.17 747.645 2285.79 747.836 2286.67 748.015L2286.67 749.284 2280.9 749.529 2279.44 749.529 2279.73 745.525 2279.37 745.427C2278.34 746.517 2277.45 747.335 2276.69 747.881 2275.94 748.426 2275.13 748.861 2274.27 749.187 2273.42 749.512 2272.5 749.675 2271.53 749.675 2268.86 749.675 2266.8 748.662 2265.35 746.635 2263.9 744.609 2263.18 741.683 2263.18 737.859 2263.18 735.189 2263.65 732.923 2264.59 731.059 2265.54 729.196 2266.81 727.808 2268.42 726.897 2270.02 725.985 2271.82 725.529 2273.82 725.529 2274.9 725.529 2275.87 725.615 2276.75 725.786 2277.63 725.957 2278.54 726.237 2279.46 726.628L2279.46 722.746C2279.46 721.184 2279.45 720.093 2279.43 719.475 2279.4 718.856 2279.34 718.331 2279.23 717.9 2279.13 717.469 2278.98 717.131 2278.79 716.887 2278.6 716.643 2278.35 716.447 2278.03 716.301 2277.72 716.154 2277.14 716.008 2276.31 715.862L2276.31 714.592Z" fill-rule="evenodd"/><text fill="#000000" fill-opacity="0" font-family="Arial,Arial_MSFontService,sans-serif" font-size="35.3271" x="2263.18" y="745.259">d</text><path d="M2413.62 671.256C2420.31 676.985 2425.62 685.53 2429.55 696.89 2433.48 708.251 2435.44 720.93 2435.44 734.927 2435.44 748.713 2433.48 761.372 2429.55 772.904 2425.62 784.435 2420.31 793.049 2413.62 798.746L2412.47 796.939C2418.25 791.063 2422.7 782.559 2425.82 771.426 2428.95 760.294 2430.51 748.135 2430.51 734.952 2430.51 721.459 2428.94 709.244 2425.8 698.306 2422.66 687.369 2418.21 678.962 2412.47 673.087ZM2323.03 671.256 2324.17 673.087C2318.41 678.962 2313.96 687.369 2310.83 698.306 2307.7 709.244 2306.13 721.459 2306.13 734.952 2306.13 748.135 2307.69 760.294 2310.82 771.426 2313.94 782.559 2318.4 791.063 2324.17 796.939L2323.03 798.746C2316.34 793.049 2311.03 784.435 2307.1 772.904 2303.17 761.372 2301.2 748.713 2301.2 734.927 2301.2 720.93 2303.17 708.251 2307.1 696.89 2311.03 685.53 2316.34 676.985 2323.03 671.256Z" fill-rule="evenodd"/><path d="M2338.69 689.302C2336.96 689.302 2335.59 690.242 2334.56 692.122 2333.54 694.002 2333.03 696.504 2333.03 699.629 2333.03 705.635 2334.52 708.638 2337.49 708.638 2340.67 708.638 2342.95 705.537 2344.33 699.336 2343.89 695.674 2343.24 693.086 2342.39 691.572 2341.53 690.059 2340.3 689.302 2338.69 689.302ZM2338.49 687.373C2340.55 687.373 2342.15 687.862 2343.32 688.838 2344.48 689.815 2345.49 691.45 2346.33 693.745L2346.7 693.745 2348.41 687.788 2352.41 687.788 2352.41 688.985C2351.24 690.791 2349.68 694.136 2347.72 699.019 2348.07 702.307 2348.46 704.78 2348.92 706.441 2349.38 708.101 2350.11 708.931 2351.12 708.931 2351.78 708.931 2352.57 708.557 2353.49 707.808L2354.44 709.248C2352.7 710.762 2350.95 711.519 2349.21 711.519 2346.72 711.519 2345.23 709.24 2344.72 704.683L2344.45 704.683C2342.22 709.24 2339.49 711.519 2336.25 711.519 2333.82 711.519 2331.94 710.518 2330.58 708.516 2329.23 706.514 2328.56 703.657 2328.56 699.946 2328.56 696.122 2329.53 693.07 2331.46 690.791 2333.4 688.513 2335.74 687.373 2338.49 687.373Z" fill-rule="evenodd"/><text fill="#000000" fill-opacity="0" font-family="Arial,Arial_MSFontService,sans-serif" font-size="24.1455" x="2328.56" y="708.501">α</text><path d="M2355.78 677.803 2366.81 677.803 2366.81 678.999C2366.06 679.129 2365.49 679.292 2365.1 679.487 2364.71 679.683 2364.42 679.959 2364.22 680.318 2364.03 680.676 2363.93 681.156 2363.93 681.758 2363.93 682.311 2363.99 682.91 2364.12 683.552 2364.25 684.195 2364.44 684.916 2364.69 685.713L2370.4 705.635 2377.41 685.567C2377.5 685.257 2377.6 684.932 2377.7 684.59 2377.8 684.248 2377.88 683.915 2377.96 683.589 2378.03 683.264 2378.08 682.979 2378.1 682.735 2378.13 682.49 2378.14 682.263 2378.14 682.051 2378.14 681.074 2377.91 680.362 2377.47 679.915 2377.02 679.467 2376.26 679.162 2375.18 678.999L2375.18 677.803 2385.44 677.803 2385.44 678.999C2384.77 679.162 2384.23 679.398 2383.83 679.707 2383.42 680.016 2383.02 680.513 2382.62 681.196 2382.22 681.88 2381.74 682.971 2381.17 684.468L2371.03 711.519 2367.84 711.519 2359.61 684.297C2359.17 682.816 2358.79 681.762 2358.46 681.135 2358.14 680.509 2357.78 680.037 2357.39 679.719 2357 679.402 2356.46 679.162 2355.78 678.999Z" fill-rule="evenodd"/><text fill="#000000" fill-opacity="0" font-family="Arial,Arial_MSFontService,sans-serif" font-size="33.7158" x="2355.78" y="707.304">V</text><path d="M2398.36 669.261C2399.61 669.261 2400.68 669.403 2401.57 669.686 2402.45 669.969 2403.17 670.351 2403.72 670.833 2404.28 671.315 2404.68 671.893 2404.93 672.567 2405.17 673.242 2405.3 673.971 2405.3 674.753 2405.3 675.223 2405.26 675.66 2405.2 676.063 2405.13 676.467 2405.02 676.864 2404.85 677.256 2404.69 677.647 2404.48 678.042 2404.21 678.439 2403.95 678.836 2403.62 679.258 2403.22 679.704 2402.92 680.089 2402.53 680.535 2402.04 681.041 2401.56 681.546 2401.04 682.088 2400.46 682.667 2399.89 683.245 2399.29 683.847 2398.67 684.473 2398.04 685.099 2397.43 685.72 2396.84 686.334 2396.25 686.948 2395.71 687.544 2395.22 688.123 2394.72 688.701 2394.32 689.231 2394.01 689.712L2400.69 689.712C2401.26 689.712 2401.71 689.691 2402.04 689.649 2402.38 689.607 2402.66 689.514 2402.88 689.369 2403.11 689.225 2403.3 689.005 2403.45 688.71 2403.61 688.415 2403.79 688.008 2404 687.49L2405.68 687.49C2405.62 688.345 2405.56 689.207 2405.5 690.074 2405.45 690.941 2405.39 691.802 2405.33 692.657L2390.03 692.657 2390.03 691.718C2390.32 691.067 2390.66 690.426 2391.04 689.794 2391.43 689.161 2391.86 688.52 2392.34 687.87 2392.82 687.219 2393.37 686.548 2393.99 685.855 2394.6 685.163 2395.28 684.443 2396.03 683.696 2397.16 682.564 2398.08 681.598 2398.79 680.797 2399.5 679.996 2400.06 679.282 2400.47 678.656 2400.88 678.03 2401.16 677.451 2401.31 676.921 2401.46 676.391 2401.54 675.825 2401.54 675.223 2401.54 674.609 2401.45 674.043 2401.28 673.525 2401.1 673.007 2400.85 672.567 2400.53 672.206 2400.2 671.845 2399.79 671.562 2399.29 671.357 2398.79 671.152 2398.21 671.05 2397.56 671.05 2396.44 671.05 2395.5 671.354 2394.75 671.962 2393.99 672.57 2393.4 673.453 2392.98 674.609L2390.61 674.609 2390.61 671.086C2392.15 670.448 2393.57 669.984 2394.86 669.695 2396.16 669.406 2397.32 669.261 2398.36 669.261Z" fill-rule="evenodd"/><text fill="#000000" fill-opacity="0" font-family="Arial,Arial_MSFontService,sans-serif" font-size="23.396" x="2390.03" y="689.733">2</text><path d="M2378.02 783.408C2377.19 784.027 2376.57 784.682 2376.15 785.374 2375.74 786.065 2375.53 786.851 2375.53 787.73 2375.53 789.194 2376.11 790.273 2377.27 790.964 2378.44 791.656 2380.22 792.002 2382.61 792.002 2384.07 792.002 2385.33 791.807 2386.38 791.416 2387.43 791.026 2388.23 790.464 2388.79 789.732 2389.34 788.999 2389.62 788.145 2389.62 787.168 2389.62 786.712 2389.56 786.269 2389.44 785.838 2389.33 785.406 2389.11 785.02 2388.8 784.678 2388.48 784.336 2388.03 784.063 2387.44 783.86 2386.86 783.657 2386.09 783.555 2385.15 783.555L2381.51 783.555C2380.19 783.555 2379.03 783.506 2378.02 783.408ZM2382.17 761.118C2380.62 761.118 2379.44 761.631 2378.63 762.656 2377.82 763.682 2377.41 765.163 2377.41 767.1 2377.41 769.134 2377.82 770.705 2378.65 771.812 2379.48 772.918 2380.68 773.472 2382.24 773.472 2383.07 773.472 2383.78 773.313 2384.37 772.996 2384.95 772.678 2385.43 772.243 2385.79 771.69 2386.16 771.136 2386.43 770.497 2386.6 769.773 2386.77 769.049 2386.86 768.288 2386.86 767.49 2386.86 766.058 2386.65 764.862 2386.25 763.901 2385.84 762.941 2385.29 762.237 2384.59 761.79 2383.89 761.342 2383.08 761.118 2382.17 761.118ZM2382.22 759.263C2383.39 759.263 2384.55 759.401 2385.71 759.678L2394.35 759.678 2394.35 762.144 2389.83 761.973 2389.62 762.241C2390.12 762.746 2390.52 763.434 2390.81 764.304 2391.1 765.175 2391.25 766.115 2391.25 767.124 2391.25 769.777 2390.43 771.824 2388.8 773.264 2387.16 774.705 2384.84 775.425 2381.83 775.425 2380.48 775.425 2379.31 775.254 2378.34 774.912 2377.1 775.856 2376.48 776.784 2376.48 777.695 2376.48 778.298 2376.6 778.753 2376.83 779.063 2377.07 779.372 2377.46 779.592 2378.01 779.722 2378.55 779.852 2379.38 779.917 2380.48 779.917L2386.34 779.917C2388.07 779.917 2389.48 780.186 2390.57 780.723 2391.66 781.26 2392.44 781.98 2392.9 782.883 2393.36 783.787 2393.59 784.841 2393.59 786.045 2393.59 787.575 2393.16 788.938 2392.28 790.134 2391.4 791.331 2390.13 792.263 2388.47 792.93 2386.81 793.597 2384.87 793.931 2382.66 793.931 2381.01 793.931 2379.51 793.833 2378.15 793.638 2376.79 793.443 2375.63 793.113 2374.66 792.649 2373.69 792.185 2372.94 791.575 2372.42 790.818 2371.89 790.061 2371.62 789.113 2371.62 787.974 2371.62 786.948 2371.96 786.017 2372.65 785.178 2373.33 784.34 2374.3 783.604 2375.55 782.969 2374.79 782.66 2374.19 782.204 2373.75 781.602 2373.31 780.999 2373.09 780.291 2373.09 779.478 2373.09 778.55 2373.35 777.7 2373.87 776.926 2374.39 776.153 2375.31 775.27 2376.63 774.277 2375.46 773.594 2374.56 772.666 2373.95 771.494 2373.34 770.322 2373.04 768.988 2373.04 767.49 2373.04 766.091 2373.27 764.874 2373.73 763.84 2374.2 762.807 2374.84 761.952 2375.66 761.277 2376.48 760.602 2377.46 760.097 2378.58 759.763 2379.7 759.43 2380.92 759.263 2382.22 759.263ZM2356.12 749.302C2359.15 749.302 2361.44 749.965 2362.98 751.292 2364.53 752.618 2365.3 754.543 2365.3 757.066 2365.3 757.928 2365.22 758.722 2365.05 759.446 2364.87 760.17 2364.61 760.886 2364.24 761.594 2363.87 762.302 2363.38 763.063 2362.76 763.877 2362.14 764.691 2361.46 765.517 2360.71 766.355 2359.96 767.193 2358.67 768.589 2356.83 770.542 2353.74 773.814 2351.47 776.67 2350.02 779.111L2359.22 779.111C2360.02 779.111 2360.66 779.063 2361.15 778.965 2361.64 778.867 2362.03 778.705 2362.32 778.477 2362.62 778.249 2362.85 777.952 2363.02 777.586 2363.19 777.219 2363.41 776.654 2363.67 775.889L2365.74 775.889 2365.33 783.018 2345.23 783.018 2345.23 781.846C2345.93 780.137 2346.88 778.387 2348.07 776.597 2349.25 774.806 2350.94 772.699 2353.12 770.274 2355.01 768.19 2356.37 766.611 2357.2 765.537 2358.11 764.365 2358.79 763.352 2359.23 762.498 2359.68 761.643 2360 760.838 2360.2 760.081 2360.39 759.324 2360.49 758.563 2360.49 757.798 2360.49 756.577 2360.3 755.499 2359.91 754.563 2359.52 753.627 2358.92 752.891 2358.11 752.354 2357.31 751.817 2356.29 751.548 2355.07 751.548 2352.03 751.548 2349.98 753.241 2348.92 756.626L2345.97 756.626 2345.97 751.939C2347.94 751.011 2349.78 750.339 2351.5 749.924 2353.21 749.509 2354.75 749.302 2356.12 749.302Z" fill-rule="evenodd"/><text fill="#000000" fill-opacity="0" font-family="Arial,Arial_MSFontService,sans-serif" font-size="44.6289" x="2345.23" y="788.352">2g</text><path d="M2326 733.293 2411 733.293 2411 736.293 2326 736.293Z" fill-rule="evenodd"/><text font-family="Cambria Math,Cambria Math_MSFontService,sans-serif" font-weight="400" font-size="50" transform="translate(2145.36 481)">h<tspan font-size="37" x="28.0728" y="11">f</tspan><tspan font-size="50" x="57.3374" y="0">=</tspan><tspan font-size="50" x="109.152" y="0">S</tspan><tspan font-size="37" x="134.36" y="11">f</tspan><tspan font-size="50" x="149.623" y="0">dx</tspan><tspan font-size="50" x="202.331" y="0"> </tspan></text><text fill="#181717" font-family="Cambria Math,Cambria Math_MSFontService,sans-serif" font-weight="400" font-size="46" transform="matrix(0.988778 0.149392 -0.149392 0.988778 1177.66 917)">Fondo de canal. Pendiente, S<tspan font-size="31" x="554.624" y="10.2586">O</tspan></text><path d="M0 0 1160.9 0.000360892" stroke="#404040" stroke-width="3.4375" stroke-miterlimit="8" stroke-dasharray="13.75 10.3125" fill="#F2F2F2" fill-rule="evenodd" transform="matrix(-1 0 0 1 2124.4 1066.5)"/><path d="M0 0 288.578 0.000360892" stroke="#404040" stroke-width="3.4375" stroke-miterlimit="8" stroke-dasharray="13.75 10.3125" fill="#F2F2F2" fill-rule="evenodd" transform="matrix(-1 0 0 1 1014.08 919.5)"/><text font-family="Cambria Math,Cambria Math_MSFontService,sans-serif" font-weight="400" font-size="50" transform="translate(891.873 1004)">S<tspan font-size="37" x="25.2084" y="10">0</tspan><tspan font-size="50" x="48.4917" y="0">dx</tspan></text><path d="M1011.15 941.917 1011.15 1034.68 1008.85 1034.68 1008.85 941.917ZM996.25 946.5 1010 919 1023.75 946.5ZM1023.75 1030.1 1010 1057.6 996.25 1030.1Z" fill="#3B3838"/><path d="M22.9167-1.14582 917.583-1.14548 917.583 1.14619 22.9167 1.14584ZM27.5 9.16668 0 0 27.5-9.16666ZM913-9.16632 940.5 0.000360892 913 9.16702Z" fill="#3B3838" transform="matrix(-1 0 0 1 1952.5 1165)"/><path d="M1466.33 1131.01C1464.04 1131.01 1462.3 1131.93 1461.1 1133.77 1459.9 1135.6 1459.3 1138.24 1459.3 1141.67 1459.3 1145.11 1459.79 1147.73 1460.77 1149.52 1461.76 1151.31 1463.25 1152.2 1465.26 1152.2 1466.05 1152.2 1466.7 1152.13 1467.22 1152 1467.74 1151.87 1468.25 1151.65 1468.75 1151.36 1469.25 1151.06 1469.76 1150.65 1470.28 1150.13 1470.8 1149.61 1471.18 1149.14 1471.42 1148.71 1471.66 1148.28 1471.85 1147.79 1471.97 1147.23 1472.1 1146.68 1472.16 1145.96 1472.16 1145.08L1472.16 1139.07C1472.16 1137.67 1472.1 1136.55 1471.97 1135.71 1471.85 1134.87 1471.64 1134.16 1471.34 1133.59 1471.05 1133.02 1470.65 1132.53 1470.15 1132.14 1469.64 1131.75 1469.09 1131.46 1468.49 1131.28 1467.89 1131.1 1467.17 1131.01 1466.33 1131.01ZM1482.56 1129.32 1493.08 1129.32 1493.08 1130.64C1491.67 1130.85 1490.96 1131.41 1490.96 1132.3 1490.96 1132.71 1491.06 1133.13 1491.24 1133.54 1491.43 1133.95 1491.72 1134.41 1492.12 1134.91L1495.39 1139.5 1498.88 1135.07C1499.26 1134.58 1499.56 1134.11 1499.8 1133.66 1500.03 1133.2 1500.15 1132.73 1500.15 1132.25 1500.15 1131.84 1499.99 1131.5 1499.69 1131.23 1499.39 1130.96 1498.91 1130.76 1498.27 1130.64L1498.27 1129.32 1507.05 1129.32 1507.05 1130.64C1506.37 1130.83 1505.67 1131.22 1504.97 1131.79 1504.26 1132.36 1503.4 1133.29 1502.38 1134.56L1496.82 1141.38 1502.94 1149.62C1503.82 1150.81 1504.6 1151.71 1505.3 1152.34 1506 1152.96 1506.7 1153.41 1507.4 1153.68L1507.4 1154.99 1496.6 1154.99 1496.6 1153.68C1498.09 1153.5 1498.83 1152.94 1498.83 1152.01 1498.83 1151.64 1498.77 1151.28 1498.64 1150.94 1498.52 1150.6 1498.28 1150.21 1497.94 1149.76L1494.05 1144.33 1489.91 1149.7C1489.61 1150.1 1489.37 1150.46 1489.2 1150.79 1489.03 1151.12 1488.95 1151.49 1488.95 1151.91 1488.95 1152.39 1489.11 1152.79 1489.44 1153.1 1489.78 1153.41 1490.3 1153.61 1491.02 1153.68L1491.02 1154.99 1482.05 1154.99 1482.05 1153.68C1482.64 1153.46 1483.17 1153.2 1483.64 1152.87 1484.12 1152.55 1484.6 1152.13 1485.09 1151.62 1485.59 1151.11 1486.23 1150.37 1487.04 1149.38L1492.63 1142.45 1486.91 1134.61C1486.12 1133.54 1485.49 1132.76 1485.03 1132.27 1484.56 1131.79 1484.13 1131.42 1483.74 1131.17 1483.34 1130.92 1482.95 1130.74 1482.56 1130.64ZM1475.19 1116.56 1476.78 1116.56 1476.78 1147.66C1476.78 1149.06 1476.81 1150.06 1476.86 1150.66 1476.91 1151.26 1477.03 1151.74 1477.21 1152.09 1477.39 1152.45 1477.67 1152.74 1478.05 1152.97 1478.44 1153.19 1479.12 1153.4 1480.08 1153.6L1480.08 1154.99 1473.74 1155.26 1472.13 1155.26 1472.46 1150.86 1472.05 1150.75C1470.92 1151.95 1469.94 1152.85 1469.11 1153.45 1468.28 1154.05 1467.39 1154.53 1466.45 1154.89 1465.51 1155.25 1464.51 1155.42 1463.43 1155.42 1460.5 1155.42 1458.23 1154.31 1456.64 1152.08 1455.04 1149.85 1454.25 1146.63 1454.25 1142.43 1454.25 1139.49 1454.77 1137 1455.81 1134.95 1456.84 1132.9 1458.24 1131.37 1460.01 1130.37 1461.77 1129.37 1463.75 1128.86 1465.96 1128.86 1467.14 1128.86 1468.21 1128.96 1469.18 1129.15 1470.15 1129.33 1471.14 1129.64 1472.16 1130.07L1472.16 1125.8C1472.16 1124.08 1472.15 1122.88 1472.12 1122.2 1472.09 1121.52 1472.02 1120.95 1471.91 1120.47 1471.79 1120 1471.63 1119.63 1471.42 1119.36 1471.22 1119.09 1470.94 1118.87 1470.59 1118.71 1470.24 1118.55 1469.61 1118.39 1468.7 1118.23L1468.7 1116.83Z" fill-rule="evenodd"/><text fill="#000000" fill-opacity="0" font-family="Arial,Arial_MSFontService,sans-serif" font-size="38.8599" x="1454.25" y="1150.57">dx</text><path d="M1008.5 1226 1008.5 219.5" stroke="#767171" stroke-width="3.4375" stroke-miterlimit="8" stroke-dasharray="13.75 10.3125 3.4375 10.3125" fill="#F2F2F2" fill-rule="evenodd"/><path d="M1961.02 1225.63 1951.5 221.5" stroke="#767171" stroke-width="3.4375" stroke-miterlimit="8" stroke-dasharray="13.75 10.3125 3.4375 10.3125" fill="#F2F2F2" fill-rule="evenodd"/><path d="M0 0 288.578 0.000360892" stroke="#404040" stroke-width="3.4375" stroke-miterlimit="8" stroke-dasharray="13.75 10.3125" fill="#F2F2F2" fill-rule="evenodd" transform="matrix(-1 0 0 1 1006.08 599.5)"/><path d="M828.194 308.746 829.161 584.846 826.869 584.854 825.902 308.754ZM817.898 313.365 827 295 836.231 313.301ZM837.165 580.235 828.063 598.6 818.832 580.299Z" fill="#3B3838"/><path d="M0 0 288.578 0.000360892" stroke="#404040" stroke-width="3.4375" stroke-miterlimit="8" stroke-dasharray="13.75 10.3125" fill="#F2F2F2" fill-rule="evenodd" transform="matrix(-1 0 0 1 1007.08 294.5)"/><path d="M2102.15 892.75 2102.15 1046.75 2099.85 1046.75 2099.85 892.75ZM2091.83 897.333 2101 879 2110.17 897.333ZM2110.17 1042.17 2101 1060.5 2091.83 1042.17Z" fill="#3B3838"/><path d="M0 0 165 0.000360892" stroke="#404040" stroke-width="3.4375" stroke-miterlimit="8" stroke-dasharray="13.75 10.3125" fill="#F2F2F2" fill-rule="evenodd" transform="matrix(-1 0 0 1 2118.5 881.5)"/><path d="M0 0 165 0.000360892" stroke="#404040" stroke-width="3.4375" stroke-miterlimit="8" stroke-dasharray="13.75 10.3125" fill="#F2F2F2" fill-rule="evenodd" transform="matrix(-1 0 0 1 2118.5 551.5)"/><path d="M1953.56 377.959 1007.5 296.5" stroke="#767171" stroke-width="3.4375" stroke-miterlimit="8" stroke-dasharray="27.5 10.3125 3.4375 10.3125 3.4375 10.3125" fill="#F2F2F2" fill-rule="evenodd"/><path d="M2102.15 389.75 2102.15 533.556 2099.85 533.556 2099.85 389.75ZM2091.83 394.333 2101 376 2110.17 394.333ZM2110.17 528.973 2101 547.306 2091.83 528.973Z" fill="#3B3838"/><path d="M2102.15 307.75 2102.15 362.75 2099.85 362.75 2099.85 307.75ZM2091.83 312.333 2101 294 2110.17 312.333ZM2110.17 358.167 2101 376.5 2091.83 358.167Z" fill="#3B3838"/><path d="M0 0 165 0.000360892" stroke="#404040" stroke-width="3.4375" stroke-miterlimit="8" stroke-dasharray="13.75 10.3125" fill="#F2F2F2" fill-rule="evenodd" transform="matrix(-1 0 0 1 2111.5 296.5)"/><path d="M0 0 165 0.000360892" stroke="#404040" stroke-width="3.4375" stroke-miterlimit="8" stroke-dasharray="13.75 10.3125" fill="#F2F2F2" fill-rule="evenodd" transform="matrix(-1 0 0 1 2111.5 377.5)"/><path d="M1954.22 467.539 1010.5 294.5" stroke="#767171" stroke-width="3.4375" stroke-miterlimit="8" stroke-dasharray="27.5 10.3125 3.4375 10.3125 3.4375 10.3125" fill="#F2F2F2" fill-rule="evenodd"/><text font-family="Cambria Math,Cambria Math_MSFontService,sans-serif" font-weight="400" font-size="50" transform="translate(2130.33 350)">h<tspan font-size="37" x="28.073" y="11">a</tspan><tspan font-size="50" x="64.2126" y="0">=</tspan><tspan font-size="50" x="116.027" y="0">S</tspan><tspan font-size="37" x="141.236" y="11">a</tspan><tspan font-size="50" x="163.373" y="0">dx</tspan><tspan font-size="50" x="216.081" y="0"> </tspan></text><path d="M1992.15 480.75 1992.15 535.75 1989.85 535.75 1989.85 480.75ZM1981.83 485.334 1991 467 2000.17 485.333ZM2000.17 531.167 1991 549.5 1981.83 531.167Z" fill="#3B3838"/><path d="M0 0 66 0.000360892" stroke="#404040" stroke-width="3.4375" stroke-miterlimit="8" stroke-dasharray="13.75 10.3125" fill="#F2F2F2" fill-rule="evenodd" transform="matrix(-1 0 0 1 2019.5 467.5)"/><text font-family="Cambria Math,Cambria Math_MSFontService,sans-serif" font-weight="400" font-size="48" transform="translate(2002.48 523)">h<tspan font-size="35" x="26.3541" y="10">a</tspan></text><path d="M0 0 94.2593 117.225" stroke="#3B3838" stroke-width="1.375" stroke-miterlimit="8" fill="none" fill-rule="evenodd" transform="matrix(-1 0 0 1 1864.76 452.5)"/><text fill="#181717" font-family="Cambria Math,Cambria Math_MSFontService,sans-serif" font-weight="400" font-size="46" transform="matrix(1 0 0 1 1099.8 220)">Línea de aceleración. Pendiente, S<tspan font-size="31" x="658.854" y="10">a</tspan></text><path d="M1785.5 239.5 1846.74 369.355" stroke="#3B3838" stroke-width="1.375" stroke-miterlimit="8" fill="none" fill-rule="evenodd"/></g></svg>