<svg width="1851" height="1106" xmlns="http://www.w3.org/2000/svg" xmlns:xlink="http://www.w3.org/1999/xlink" xml:space="preserve" overflow="hidden"><defs><clipPath id="clip0"><rect x="636" y="214" width="1851" height="1106"/></clipPath></defs><g clip-path="url(#clip0)" transform="translate(-636 -214)"><path d="M2002.21 1059.59 925.869 890.424 977.326 581.005 2029.16 889.4C2020.75 946.703 2010.62 1002.29 2002.21 1059.59Z" fill="#F2F2F2" fill-rule="evenodd"/><path d="M2000.72 1058.65 918.5 887.5" stroke="#767171" stroke-width="12.6042" stroke-miterlimit="8" fill="#F2F2F2" fill-rule="evenodd"/><path d="M2028.57 887.976 976.5 581.5" stroke="#767171" stroke-width="4.58333" stroke-miterlimit="8" fill="#F2F2F2" fill-rule="evenodd"/><path d="M0 0 1650 0.000360892" stroke="#767171" stroke-width="4.58333" stroke-miterlimit="8" fill="#F2F2F2" fill-rule="evenodd" transform="matrix(1 0 0 -1 636.5 1220.5)"/><path d="M1018.5 382.5 1969.6 382.5" stroke="#767171" stroke-width="3.4375" stroke-miterlimit="8" stroke-dasharray="27.5 10.3125 3.4375 10.3125 3.4375 10.3125" fill="#F2F2F2" fill-rule="evenodd"/><path d="M840.193 606.746 841.162 891.868 838.87 891.875 837.901 606.754ZM829.896 611.364 839 593 848.229 611.302ZM849.167 887.257 840.063 905.621 830.834 887.319Z" fill="#3B3838"/><path d="M2112.15 602.75 2112.15 860.888 2109.85 860.888 2109.85 602.75ZM2101.83 607.333 2111 589 2120.17 607.333ZM2120.17 856.305 2111 874.638 2101.83 856.305Z" fill="#3B3838"/><path d="M1963.26 589.597 1016.5 380.5" stroke="#767171" stroke-width="3.4375" stroke-miterlimit="8" stroke-dasharray="27.5 10.3125 3.4375 10.3125 3.4375 10.3125" fill="#F2F2F2" fill-rule="evenodd"/><path d="M843.146 925.75 843.146 1204.4 840.854 1204.4 840.854 925.75ZM832.833 930.333 842 912 851.167 930.333ZM851.167 1199.81 842 1218.15 832.833 1199.81Z" fill="#3B3838"/><path d="M2112.15 1070.75 2112.15 1208.25 2109.85 1208.25 2109.85 1070.75ZM2101.83 1075.33 2111 1057 2120.17 1075.33ZM2120.17 1203.67 2111 1222 2101.83 1203.67Z" fill="#3B3838"/><path d="M977.5 265C977.5 242.08 995.856 223.5 1018.5 223.5 1041.14 223.5 1059.5 242.08 1059.5 265 1059.5 287.92 1041.14 306.5 1018.5 306.5 995.856 306.5 977.5 287.92 977.5 265Z" stroke="#7F7F7F" stroke-width="4.58333" stroke-miterlimit="8" fill="none" fill-rule="evenodd"/><text fill="#262626" font-family="Segoe UI Light,Segoe UI Light_MSFontService,sans-serif" font-weight="300" font-size="55" transform="matrix(1 0 0 1 1008.07 285)">1</text><path d="M1918.5 265C1918.5 242.08 1937.08 223.5 1960 223.5 1982.92 223.5 2001.5 242.08 2001.5 265 2001.5 287.92 1982.92 306.5 1960 306.5 1937.08 306.5 1918.5 287.92 1918.5 265Z" stroke="#7F7F7F" stroke-width="4.58333" stroke-miterlimit="8" fill="none" fill-rule="evenodd"/><text fill="#262626" font-family="Segoe UI Light,Segoe UI Light_MSFontService,sans-serif" font-weight="300" font-size="55" transform="matrix(1 0 0 1 1945.36 285)">2<tspan fill="#181717" font-family="Cambria Math,Cambria Math_MSFontService,sans-serif" font-weight="400" font-size="46" x="-634.797" y="997">Nivel de referencia</tspan></text><text fill="#181717" font-family="Cambria,Cambria_MSFontService,sans-serif" font-weight="400" font-size="46" transform="matrix(0.975199 0.221328 -0.221328 0.975199 1246.97 478)">Línea de energía. Pendiente, <tspan font-size="46" x="559.765" y="0.110931">S</tspan><tspan font-size="31" x="582.722" y="10.282">f</tspan></text><text fill="#181717" font-family="Cambria,Cambria_MSFontService,sans-serif" font-weight="400" font-size="46" transform="matrix(0.96022 0.279244 -0.279244 0.96022 1164.57 623)">Superficie del fluido. Pendiente, S<tspan font-size="31" x="649.683" y="9.97665">W</tspan></text><text font-family="Cambria Math,Cambria Math_MSFontService,sans-serif" font-weight="400" font-size="50" transform="translate(784.622 1080)">z<tspan font-size="50" x="-0.493713" y="-315">y</tspan></text><path d="M758.305 445.823C756.579 445.823 755.204 446.763 754.179 448.643 753.153 450.523 752.64 453.025 752.64 456.15 752.64 462.156 754.13 465.159 757.108 465.159 760.282 465.159 762.561 462.058 763.944 455.857 763.505 452.195 762.858 449.607 762.003 448.094 761.149 446.58 759.916 445.823 758.305 445.823ZM758.109 443.894C760.16 443.894 761.767 444.383 762.931 445.359 764.095 446.336 765.1 447.971 765.946 450.266L766.312 450.266 768.021 444.309 772.025 444.309 772.025 445.506C770.853 447.312 769.291 450.657 767.338 455.54 767.68 458.828 768.078 461.302 768.534 462.962 768.99 464.622 769.722 465.452 770.731 465.452 771.399 465.452 772.188 465.078 773.099 464.329L774.052 465.769C772.31 467.283 770.568 468.04 768.827 468.04 766.337 468.04 764.839 465.761 764.335 461.204L764.066 461.204C761.836 465.761 759.102 468.04 755.863 468.04 753.438 468.04 751.55 467.039 750.199 465.037 748.848 463.035 748.173 460.178 748.173 456.468 748.173 452.643 749.141 449.591 751.078 447.312 753.015 445.034 755.359 443.894 758.109 443.894Z" fill-rule="evenodd"/><text fill="#000000" fill-opacity="0" font-family="Arial,Arial_MSFontService,sans-serif" font-size="24.1455" x="748.173" y="465.022">α</text><path d="M775.389 434.324 786.425 434.324 786.425 435.52C785.676 435.651 785.106 435.813 784.716 436.009 784.325 436.204 784.032 436.481 783.837 436.839 783.641 437.197 783.544 437.677 783.544 438.279 783.544 438.832 783.609 439.431 783.739 440.074 783.869 440.716 784.056 441.437 784.301 442.234L790.013 462.156 797.02 442.088C797.118 441.778 797.216 441.453 797.313 441.111 797.411 440.769 797.496 440.436 797.57 440.11 797.643 439.785 797.692 439.5 797.716 439.256 797.741 439.012 797.753 438.784 797.753 438.572 797.753 437.595 797.529 436.883 797.081 436.436 796.634 435.988 795.873 435.683 794.799 435.52L794.799 434.324 805.053 434.324 805.053 435.52C804.385 435.683 803.848 435.919 803.441 436.228 803.034 436.538 802.631 437.034 802.233 437.718 801.834 438.401 801.35 439.492 800.78 440.989L790.648 468.04 787.45 468.04 779.222 440.818C778.783 439.337 778.401 438.283 778.075 437.657 777.75 437.03 777.391 436.558 777.001 436.241 776.61 435.923 776.073 435.683 775.389 435.52Z" fill-rule="evenodd"/><text fill="#000000" fill-opacity="0" font-family="Arial,Arial_MSFontService,sans-serif" font-size="33.7158" x="775.389" y="463.825">V</text><path d="M817.973 425.782C819.226 425.782 820.295 425.924 821.18 426.207 822.065 426.49 822.785 426.872 823.339 427.354 823.893 427.836 824.294 428.414 824.541 429.089 824.787 429.763 824.911 430.492 824.911 431.275 824.911 431.744 824.878 432.181 824.812 432.584 824.745 432.988 824.631 433.385 824.468 433.777 824.306 434.168 824.092 434.563 823.827 434.96 823.562 435.358 823.231 435.779 822.833 436.225 822.532 436.61 822.141 437.056 821.659 437.562 821.177 438.068 820.65 438.61 820.078 439.188 819.506 439.766 818.907 440.368 818.281 440.994 817.654 441.621 817.046 442.241 816.456 442.855 815.866 443.469 815.324 444.066 814.83 444.644 814.336 445.222 813.933 445.752 813.619 446.234L820.304 446.234C820.87 446.234 821.322 446.212 821.659 446.17 821.996 446.128 822.276 446.035 822.499 445.89 822.722 445.746 822.912 445.526 823.068 445.231 823.225 444.936 823.405 444.529 823.61 444.011L825.29 444.011C825.23 444.867 825.173 445.728 825.119 446.595 825.064 447.462 825.007 448.323 824.947 449.178L809.645 449.178 809.645 448.239C809.934 447.589 810.271 446.947 810.656 446.315 811.042 445.683 811.476 445.041 811.957 444.391 812.439 443.74 812.987 443.069 813.601 442.376 814.216 441.684 814.896 440.964 815.643 440.217 816.775 439.085 817.696 438.119 818.407 437.318 819.118 436.517 819.678 435.803 820.087 435.177 820.497 434.551 820.777 433.972 820.927 433.443 821.078 432.913 821.153 432.346 821.153 431.744 821.153 431.13 821.066 430.564 820.891 430.046 820.716 429.528 820.467 429.089 820.141 428.727 819.816 428.366 819.404 428.083 818.904 427.878 818.404 427.673 817.829 427.571 817.178 427.571 816.058 427.571 815.119 427.875 814.36 428.483 813.601 429.092 813.011 429.974 812.59 431.13L810.223 431.13 810.223 427.607C811.765 426.969 813.183 426.505 814.478 426.216 815.772 425.927 816.938 425.782 817.973 425.782Z" fill-rule="evenodd"/><text fill="#000000" fill-opacity="0" font-family="Arial,Arial_MSFontService,sans-serif" font-size="23.396" x="809.645" y="446.254">2</text><path d="M797.633 539.929C796.803 540.548 796.18 541.203 795.765 541.895 795.35 542.586 795.143 543.372 795.143 544.251 795.143 545.716 795.724 546.794 796.888 547.486 798.052 548.177 799.83 548.523 802.223 548.523 803.687 548.523 804.945 548.328 805.995 547.937 807.044 547.547 807.846 546.985 808.399 546.253 808.953 545.52 809.229 544.666 809.229 543.689 809.229 543.233 809.172 542.79 809.059 542.359 808.945 541.927 808.729 541.541 808.412 541.199 808.094 540.857 807.643 540.584 807.057 540.381 806.471 540.178 805.706 540.076 804.762 540.076L801.124 540.076C799.806 540.076 798.642 540.027 797.633 539.929ZM801.783 517.639C800.237 517.639 799.057 518.152 798.243 519.177 797.429 520.203 797.022 521.684 797.022 523.621 797.022 525.655 797.437 527.226 798.268 528.333 799.098 529.439 800.294 529.993 801.856 529.993 802.686 529.993 803.394 529.834 803.98 529.517 804.566 529.199 805.042 528.764 805.409 528.211 805.775 527.657 806.043 527.018 806.214 526.294 806.385 525.57 806.471 524.809 806.471 524.011 806.471 522.579 806.267 521.383 805.86 520.423 805.453 519.462 804.9 518.758 804.2 518.311 803.5 517.863 802.695 517.639 801.783 517.639ZM801.832 515.784C803.004 515.784 804.168 515.922 805.323 516.199L813.966 516.199 813.966 518.665 809.449 518.494 809.229 518.762C809.734 519.267 810.133 519.955 810.426 520.825 810.719 521.696 810.865 522.636 810.865 523.645 810.865 526.298 810.047 528.345 808.412 529.785 806.776 531.226 804.452 531.946 801.441 531.946 800.09 531.946 798.927 531.775 797.95 531.433 796.713 532.377 796.095 533.305 796.095 534.216 796.095 534.819 796.213 535.274 796.449 535.584 796.685 535.893 797.075 536.113 797.621 536.243 798.166 536.373 798.992 536.438 800.099 536.438L805.958 536.438C807.683 536.438 809.091 536.707 810.182 537.244 811.272 537.781 812.049 538.501 812.513 539.404 812.977 540.308 813.209 541.362 813.209 542.566 813.209 544.096 812.769 545.459 811.891 546.655 811.012 547.852 809.742 548.784 808.082 549.451 806.422 550.118 804.485 550.452 802.271 550.452 800.628 550.452 799.126 550.354 797.767 550.159 796.408 549.964 795.244 549.634 794.276 549.17 793.307 548.706 792.559 548.096 792.03 547.339 791.501 546.582 791.236 545.634 791.236 544.495 791.236 543.469 791.578 542.538 792.262 541.699 792.945 540.861 793.914 540.125 795.167 539.49 794.402 539.181 793.8 538.725 793.36 538.123 792.921 537.521 792.701 536.812 792.701 535.999 792.701 535.071 792.962 534.221 793.482 533.447 794.003 532.674 794.923 531.791 796.241 530.799 795.069 530.115 794.178 529.187 793.568 528.015 792.957 526.843 792.652 525.509 792.652 524.011 792.652 522.612 792.884 521.395 793.348 520.362 793.812 519.328 794.455 518.474 795.277 517.798 796.099 517.123 797.071 516.618 798.194 516.284 799.317 515.951 800.53 515.784 801.832 515.784ZM775.736 505.823C778.764 505.823 781.05 506.486 782.597 507.813 784.143 509.139 784.916 511.064 784.916 513.587 784.916 514.449 784.831 515.243 784.66 515.967 784.489 516.691 784.22 517.407 783.854 518.115 783.488 518.823 782.995 519.584 782.377 520.398 781.758 521.212 781.075 522.038 780.326 522.876 779.577 523.714 778.283 525.11 776.444 527.063 773.352 530.335 771.081 533.191 769.633 535.633L778.837 535.633C779.634 535.633 780.277 535.584 780.766 535.486 781.254 535.388 781.644 535.226 781.937 534.998 782.23 534.77 782.462 534.473 782.633 534.107 782.804 533.74 783.02 533.175 783.28 532.41L785.355 532.41 784.94 539.539 764.848 539.539 764.848 538.367C765.547 536.658 766.491 534.908 767.68 533.118 768.868 531.328 770.552 529.22 772.733 526.795 774.621 524.711 775.98 523.133 776.81 522.058 777.722 520.886 778.401 519.873 778.849 519.019 779.297 518.164 779.618 517.359 779.813 516.602 780.009 515.845 780.106 515.084 780.106 514.319 780.106 513.098 779.911 512.02 779.52 511.084 779.13 510.148 778.532 509.412 777.726 508.875 776.92 508.338 775.907 508.069 774.686 508.069 771.643 508.069 769.592 509.762 768.534 513.147L765.58 513.147 765.58 508.46C767.549 507.532 769.393 506.861 771.11 506.445 772.827 506.03 774.369 505.823 775.736 505.823Z" fill-rule="evenodd"/><text fill="#000000" fill-opacity="0" font-family="Arial,Arial_MSFontService,sans-serif" font-size="44.6289" x="764.848" y="544.873">2g</text><path d="M745.634 489.814 830.634 489.814 830.634 492.814 745.634 492.814Z" fill-rule="evenodd"/><text font-family="Cambria Math,Cambria Math_MSFontService,sans-serif" font-weight="400" font-size="50" transform="translate(2138.84 1145)">z<tspan font-size="50" x="34.123" y="0">+</tspan><tspan font-size="50" x="83.1416" y="0">dz</tspan><tspan font-size="50" x="0.660156" y="-167">y</tspan><tspan font-size="50" x="37.0747" y="-167">+</tspan><tspan font-size="50" x="86.0935" y="-167">dy</tspan></text><path d="M2133.5 691.542C2131.78 691.542 2130.4 692.482 2129.38 694.362 2128.35 696.242 2127.84 698.745 2127.84 701.87 2127.84 707.875 2129.33 710.878 2132.31 710.878 2135.48 710.878 2137.76 707.778 2139.14 701.577 2138.7 697.914 2138.06 695.327 2137.2 693.813 2136.35 692.299 2135.11 691.542 2133.5 691.542ZM2133.31 689.614C2135.36 689.614 2136.97 690.102 2138.13 691.078 2139.29 692.055 2140.3 693.691 2141.15 695.986L2141.51 695.986 2143.22 690.029 2147.22 690.029 2147.22 691.225C2146.05 693.032 2144.49 696.376 2142.54 701.259 2142.88 704.547 2143.28 707.021 2143.73 708.681 2144.19 710.341 2144.92 711.171 2145.93 711.171 2146.6 711.171 2147.39 710.797 2148.3 710.048L2149.25 711.489C2147.51 713.002 2145.77 713.759 2144.03 713.759 2141.54 713.759 2140.04 711.481 2139.53 706.923L2139.27 706.923C2137.04 711.481 2134.3 713.759 2131.06 713.759 2128.64 713.759 2126.75 712.758 2125.4 710.756 2124.05 708.754 2123.37 705.898 2123.37 702.187 2123.37 698.362 2124.34 695.31 2126.28 693.032 2128.21 690.753 2130.56 689.614 2133.31 689.614Z" fill-rule="evenodd"/><text fill="#000000" fill-opacity="0" font-family="Arial,Arial_MSFontService,sans-serif" font-size="24.1455" x="2123.37" y="710.741">α</text><path d="M2150.59 680.043 2161.62 680.043 2161.62 681.24C2160.87 681.37 2160.31 681.533 2159.91 681.728 2159.52 681.923 2159.23 682.2 2159.04 682.558 2158.84 682.916 2158.74 683.396 2158.74 683.998 2158.74 684.552 2158.81 685.15 2158.94 685.793 2159.07 686.436 2159.26 687.156 2159.5 687.953L2165.21 707.875 2172.22 687.807C2172.32 687.498 2172.41 687.172 2172.51 686.83 2172.61 686.489 2172.7 686.155 2172.77 685.829 2172.84 685.504 2172.89 685.219 2172.92 684.975 2172.94 684.731 2172.95 684.503 2172.95 684.291 2172.95 683.315 2172.73 682.603 2172.28 682.155 2171.83 681.708 2171.07 681.402 2170 681.24L2170 680.043 2180.25 680.043 2180.25 681.24C2179.58 681.402 2179.05 681.638 2178.64 681.948 2178.23 682.257 2177.83 682.753 2177.43 683.437 2177.03 684.12 2176.55 685.211 2175.98 686.708L2165.85 713.759 2162.65 713.759 2154.42 686.537C2153.98 685.056 2153.6 684.003 2153.27 683.376 2152.95 682.749 2152.59 682.277 2152.2 681.96 2151.81 681.642 2151.27 681.402 2150.59 681.24Z" fill-rule="evenodd"/><text fill="#000000" fill-opacity="0" font-family="Arial,Arial_MSFontService,sans-serif" font-size="33.7158" x="2150.59" y="709.545">V</text><path d="M2193.17 671.502C2194.43 671.502 2195.49 671.643 2196.38 671.926 2197.26 672.209 2197.98 672.592 2198.54 673.073 2199.09 673.555 2199.49 674.133 2199.74 674.808 2199.99 675.482 2200.11 676.211 2200.11 676.994 2200.11 677.464 2200.08 677.9 2200.01 678.304 2199.94 678.707 2199.83 679.105 2199.67 679.496 2199.5 679.888 2199.29 680.282 2199.03 680.679 2198.76 681.077 2198.43 681.498 2198.03 681.944 2197.73 682.33 2197.34 682.775 2196.86 683.281 2196.38 683.787 2195.85 684.329 2195.28 684.907 2194.71 685.485 2194.11 686.087 2193.48 686.714 2192.85 687.34 2192.24 687.96 2191.65 688.574 2191.06 689.189 2190.52 689.785 2190.03 690.363 2189.53 690.941 2189.13 691.471 2188.82 691.953L2195.5 691.953C2196.07 691.953 2196.52 691.932 2196.86 691.89 2197.2 691.847 2197.48 691.754 2197.7 691.61 2197.92 691.465 2198.11 691.245 2198.27 690.95 2198.42 690.655 2198.6 690.249 2198.81 689.731L2200.49 689.731C2200.43 690.586 2200.37 691.447 2200.32 692.314 2200.26 693.181 2200.21 694.043 2200.15 694.898L2184.84 694.898 2184.84 693.958C2185.13 693.308 2185.47 692.667 2185.86 692.034 2186.24 691.402 2186.67 690.76 2187.16 690.11 2187.64 689.46 2188.19 688.788 2188.8 688.096 2189.41 687.403 2190.09 686.684 2190.84 685.937 2191.97 684.805 2192.9 683.838 2193.61 683.037 2194.32 682.236 2194.88 681.523 2195.29 680.896 2195.7 680.27 2195.98 679.692 2196.13 679.162 2196.28 678.632 2196.35 678.066 2196.35 677.464 2196.35 676.849 2196.26 676.283 2196.09 675.765 2195.92 675.247 2195.67 674.808 2195.34 674.447 2195.02 674.085 2194.6 673.802 2194.1 673.597 2193.6 673.393 2193.03 673.29 2192.38 673.29 2191.26 673.29 2190.32 673.594 2189.56 674.203 2188.8 674.811 2188.21 675.693 2187.79 676.849L2185.42 676.849 2185.42 673.326C2186.96 672.688 2188.38 672.224 2189.68 671.935 2190.97 671.646 2192.14 671.502 2193.17 671.502Z" fill-rule="evenodd"/><text fill="#000000" fill-opacity="0" font-family="Arial,Arial_MSFontService,sans-serif" font-size="23.396" x="2184.84" y="691.973">2</text><path d="M2172.83 785.649C2172 786.267 2171.38 786.922 2170.96 787.614 2170.55 788.306 2170.34 789.091 2170.34 789.97 2170.34 791.435 2170.92 792.513 2172.09 793.205 2173.25 793.897 2175.03 794.242 2177.42 794.242 2178.89 794.242 2180.14 794.047 2181.19 793.657 2182.24 793.266 2183.04 792.704 2183.6 791.972 2184.15 791.24 2184.43 790.385 2184.43 789.409 2184.43 788.953 2184.37 788.509 2184.26 788.078 2184.14 787.647 2183.93 787.26 2183.61 786.918 2183.29 786.576 2182.84 786.304 2182.26 786.1 2181.67 785.897 2180.9 785.795 2179.96 785.795L2176.32 785.795C2175 785.795 2173.84 785.746 2172.83 785.649ZM2176.98 763.359C2175.44 763.359 2174.26 763.871 2173.44 764.897 2172.63 765.922 2172.22 767.403 2172.22 769.34 2172.22 771.375 2172.64 772.945 2173.47 774.052 2174.3 775.159 2175.49 775.712 2177.06 775.712 2177.89 775.712 2178.59 775.554 2179.18 775.236 2179.77 774.919 2180.24 774.483 2180.61 773.93 2180.97 773.377 2181.24 772.738 2181.41 772.013 2181.58 771.289 2181.67 770.528 2181.67 769.731 2181.67 768.298 2181.47 767.102 2181.06 766.142 2180.65 765.182 2180.1 764.478 2179.4 764.03 2178.7 763.583 2177.89 763.359 2176.98 763.359ZM2177.03 761.503C2178.2 761.503 2179.37 761.642 2180.52 761.918L2189.16 761.918 2189.16 764.384 2184.65 764.213 2184.43 764.482C2184.93 764.986 2185.33 765.674 2185.62 766.545 2185.92 767.416 2186.06 768.355 2186.06 769.365 2186.06 772.018 2185.25 774.064 2183.61 775.505 2181.97 776.945 2179.65 777.665 2176.64 777.665 2175.29 777.665 2174.13 777.494 2173.15 777.153 2171.91 778.097 2171.29 779.024 2171.29 779.936 2171.29 780.538 2171.41 780.994 2171.65 781.303 2171.88 781.612 2172.27 781.832 2172.82 781.962 2173.36 782.092 2174.19 782.158 2175.3 782.158L2181.16 782.158C2182.88 782.158 2184.29 782.426 2185.38 782.963 2186.47 783.5 2187.25 784.221 2187.71 785.124 2188.18 786.027 2188.41 787.081 2188.41 788.285 2188.41 789.815 2187.97 791.179 2187.09 792.375 2186.21 793.571 2184.94 794.503 2183.28 795.17 2181.62 795.838 2179.68 796.171 2177.47 796.171 2175.83 796.171 2174.33 796.074 2172.97 795.878 2171.61 795.683 2170.44 795.353 2169.47 794.889 2168.51 794.426 2167.76 793.815 2167.23 793.058 2166.7 792.302 2166.44 791.354 2166.44 790.214 2166.44 789.189 2166.78 788.257 2167.46 787.419 2168.14 786.581 2169.11 785.844 2170.37 785.209 2169.6 784.9 2169 784.444 2168.56 783.842 2168.12 783.24 2167.9 782.532 2167.9 781.718 2167.9 780.79 2168.16 779.94 2168.68 779.167 2169.2 778.394 2170.12 777.511 2171.44 776.518 2170.27 775.834 2169.38 774.907 2168.77 773.735 2168.16 772.563 2167.85 771.228 2167.85 769.731 2167.85 768.331 2168.08 767.114 2168.55 766.081 2169.01 765.047 2169.65 764.193 2170.48 763.517 2171.3 762.842 2172.27 762.337 2173.39 762.004 2174.52 761.67 2175.73 761.503 2177.03 761.503ZM2150.94 751.542C2153.96 751.542 2156.25 752.206 2157.8 753.532 2159.34 754.859 2160.11 756.783 2160.11 759.306 2160.11 760.169 2160.03 760.962 2159.86 761.686 2159.69 762.411 2159.42 763.127 2159.05 763.835 2158.69 764.543 2158.19 765.304 2157.58 766.117 2156.96 766.931 2156.27 767.757 2155.53 768.596 2154.78 769.434 2153.48 770.829 2151.64 772.783 2148.55 776.054 2146.28 778.91 2144.83 781.352L2154.04 781.352C2154.83 781.352 2155.48 781.303 2155.96 781.205 2156.45 781.108 2156.84 780.945 2157.14 780.717 2157.43 780.489 2157.66 780.192 2157.83 779.826 2158 779.46 2158.22 778.894 2158.48 778.129L2160.55 778.129 2160.14 785.258 2140.05 785.258 2140.05 784.086C2140.75 782.377 2141.69 780.628 2142.88 778.837 2144.07 777.047 2145.75 774.939 2147.93 772.514 2149.82 770.431 2151.18 768.852 2152.01 767.778 2152.92 766.606 2153.6 765.593 2154.05 764.738 2154.5 763.884 2154.82 763.078 2155.01 762.321 2155.21 761.564 2155.31 760.803 2155.31 760.038 2155.31 758.818 2155.11 757.739 2154.72 756.804 2154.33 755.868 2153.73 755.131 2152.93 754.594 2152.12 754.057 2151.11 753.788 2149.89 753.788 2146.84 753.788 2144.79 755.481 2143.73 758.867L2140.78 758.867 2140.78 754.179C2142.75 753.251 2144.59 752.58 2146.31 752.165 2148.03 751.75 2149.57 751.542 2150.94 751.542Z" fill-rule="evenodd"/><text fill="#000000" fill-opacity="0" font-family="Arial,Arial_MSFontService,sans-serif" font-size="44.6289" x="2140.05" y="790.593">2g</text><path d="M2121.28 735.533 2206.28 735.533 2206.28 738.533 2121.28 738.533Z" fill-rule="evenodd"/><path d="M2233.82 721.544 2237.29 721.544 2237.29 735.607 2250.59 735.607 2250.59 738.854 2237.29 738.854 2237.29 752.916 2233.82 752.916 2233.82 738.854 2220.51 738.854 2220.51 735.607 2233.82 735.607Z" fill-rule="evenodd"/><text fill="#000000" fill-opacity="0" font-family="Arial,Arial_MSFontService,sans-serif" font-size="31.3721" x="2220.51" y="748.995">+</text><path d="M2279.44 729.723C2277.36 729.723 2275.77 730.557 2274.68 732.225 2273.59 733.894 2273.05 736.29 2273.05 739.415 2273.05 742.54 2273.5 744.917 2274.39 746.544 2275.29 748.172 2276.65 748.986 2278.47 748.986 2279.18 748.986 2279.78 748.925 2280.25 748.803 2280.72 748.681 2281.19 748.485 2281.64 748.217 2282.1 747.948 2282.56 747.578 2283.03 747.106 2283.51 746.634 2283.85 746.203 2284.07 745.812 2284.29 745.421 2284.46 744.974 2284.57 744.469 2284.69 743.965 2284.74 743.314 2284.74 742.516L2284.74 737.047C2284.74 735.778 2284.69 734.76 2284.57 733.995 2284.46 733.231 2284.27 732.588 2284 732.067 2283.73 731.546 2283.37 731.107 2282.91 730.748 2282.46 730.39 2281.96 730.13 2281.41 729.967 2280.86 729.804 2280.21 729.723 2279.44 729.723ZM2287.5 716.588 2288.94 716.588 2288.94 744.86C2288.94 746.129 2288.97 747.037 2289.02 747.582 2289.06 748.127 2289.17 748.563 2289.33 748.888 2289.5 749.214 2289.75 749.478 2290.1 749.682 2290.45 749.885 2291.07 750.076 2291.94 750.255L2291.94 751.525 2286.18 751.769 2284.72 751.769 2285.01 747.765 2284.65 747.667C2283.62 748.758 2282.73 749.576 2281.97 750.121 2281.21 750.666 2280.41 751.102 2279.55 751.427 2278.7 751.753 2277.78 751.915 2276.81 751.915 2274.14 751.915 2272.08 750.902 2270.63 748.876 2269.18 746.849 2268.46 743.924 2268.46 740.099 2268.46 737.43 2268.93 735.163 2269.87 733.3 2270.82 731.436 2272.09 730.049 2273.7 729.137 2275.3 728.226 2277.1 727.77 2279.1 727.77 2280.18 727.77 2281.15 727.855 2282.03 728.026 2282.91 728.197 2283.81 728.478 2284.74 728.869L2284.74 724.987C2284.74 723.424 2284.73 722.334 2284.71 721.715 2284.68 721.097 2284.62 720.572 2284.51 720.141 2284.41 719.709 2284.26 719.371 2284.07 719.127 2283.88 718.883 2283.63 718.688 2283.31 718.541 2283 718.395 2282.42 718.248 2281.59 718.102L2281.59 716.832Z" fill-rule="evenodd"/><text fill="#000000" fill-opacity="0" font-family="Arial,Arial_MSFontService,sans-serif" font-size="35.3271" x="2268.46" y="747.5">d</text><path d="M2418.9 673.496C2425.58 679.225 2430.9 687.77 2434.83 699.131 2438.76 710.491 2440.72 723.17 2440.72 737.168 2440.72 750.954 2438.76 763.612 2434.83 775.144 2430.9 786.675 2425.58 795.29 2418.9 800.986L2417.75 799.18C2423.53 793.304 2427.98 784.8 2431.1 773.667 2434.23 762.534 2435.79 750.376 2435.79 737.192 2435.79 723.699 2434.22 711.484 2431.08 700.547 2427.94 689.609 2423.49 681.203 2417.75 675.327ZM2328.31 673.496 2329.45 675.327C2323.69 681.203 2319.24 689.609 2316.11 700.547 2312.98 711.484 2311.41 723.699 2311.41 737.192 2311.41 750.376 2312.97 762.534 2316.1 773.667 2319.22 784.8 2323.68 793.304 2329.45 799.18L2328.31 800.986C2321.62 795.29 2316.31 786.675 2312.38 775.144 2308.45 763.612 2306.48 750.954 2306.48 737.168 2306.48 723.17 2308.45 710.491 2312.38 699.131 2316.31 687.77 2321.62 679.225 2328.31 673.496Z" fill-rule="evenodd"/><path d="M2343.97 691.542C2342.24 691.542 2340.87 692.482 2339.84 694.362 2338.82 696.242 2338.31 698.745 2338.31 701.87 2338.31 707.875 2339.8 710.878 2342.77 710.878 2345.95 710.878 2348.23 707.778 2349.61 701.577 2349.17 697.914 2348.52 695.327 2347.67 693.813 2346.81 692.299 2345.58 691.542 2343.97 691.542ZM2343.77 689.614C2345.83 689.614 2347.43 690.102 2348.6 691.078 2349.76 692.055 2350.77 693.691 2351.61 695.986L2351.98 695.986 2353.69 690.029 2357.69 690.029 2357.69 691.225C2356.52 693.032 2354.96 696.376 2353 701.259 2353.35 704.547 2353.74 707.021 2354.2 708.681 2354.66 710.341 2355.39 711.171 2356.4 711.171 2357.06 711.171 2357.85 710.797 2358.77 710.048L2359.72 711.489C2357.98 713.002 2356.23 713.759 2354.49 713.759 2352 713.759 2350.51 711.481 2350 706.923L2349.73 706.923C2347.5 711.481 2344.77 713.759 2341.53 713.759 2339.1 713.759 2337.22 712.758 2335.86 710.756 2334.51 708.754 2333.84 705.898 2333.84 702.187 2333.84 698.362 2334.81 695.31 2336.74 693.032 2338.68 690.753 2341.02 689.614 2343.77 689.614Z" fill-rule="evenodd"/><text fill="#000000" fill-opacity="0" font-family="Arial,Arial_MSFontService,sans-serif" font-size="24.1455" x="2333.84" y="710.741">α</text><path d="M2361.06 680.043 2372.09 680.043 2372.09 681.24C2371.34 681.37 2370.77 681.533 2370.38 681.728 2369.99 681.923 2369.7 682.2 2369.5 682.558 2369.31 682.916 2369.21 683.396 2369.21 683.998 2369.21 684.552 2369.27 685.15 2369.4 685.793 2369.53 686.436 2369.72 687.156 2369.97 687.953L2375.68 707.875 2382.69 687.807C2382.78 687.498 2382.88 687.172 2382.98 686.83 2383.08 686.489 2383.16 686.155 2383.24 685.829 2383.31 685.504 2383.36 685.219 2383.38 684.975 2383.41 684.731 2383.42 684.503 2383.42 684.291 2383.42 683.315 2383.19 682.603 2382.75 682.155 2382.3 681.708 2381.54 681.402 2380.46 681.24L2380.46 680.043 2390.72 680.043 2390.72 681.24C2390.05 681.402 2389.51 681.638 2389.11 681.948 2388.7 682.257 2388.3 682.753 2387.9 683.437 2387.5 684.12 2387.02 685.211 2386.45 686.708L2376.31 713.759 2373.12 713.759 2364.89 686.537C2364.45 685.056 2364.07 684.003 2363.74 683.376 2363.42 682.749 2363.06 682.277 2362.67 681.96 2362.28 681.642 2361.74 681.402 2361.06 681.24Z" fill-rule="evenodd"/><text fill="#000000" fill-opacity="0" font-family="Arial,Arial_MSFontService,sans-serif" font-size="33.7158" x="2361.06" y="709.545">V</text><path d="M2403.64 671.502C2404.89 671.502 2405.96 671.643 2406.85 671.926 2407.73 672.209 2408.45 672.592 2409 673.073 2409.56 673.555 2409.96 674.133 2410.21 674.808 2410.45 675.482 2410.58 676.211 2410.58 676.994 2410.58 677.464 2410.54 677.9 2410.48 678.304 2410.41 678.707 2410.3 679.105 2410.13 679.496 2409.97 679.888 2409.76 680.282 2409.49 680.679 2409.23 681.077 2408.9 681.498 2408.5 681.944 2408.2 682.33 2407.81 682.775 2407.32 683.281 2406.84 683.787 2406.32 684.329 2405.74 684.907 2405.17 685.485 2404.57 686.087 2403.95 686.714 2403.32 687.34 2402.71 687.96 2402.12 688.574 2401.53 689.189 2400.99 689.785 2400.5 690.363 2400 690.941 2399.6 691.471 2399.28 691.953L2405.97 691.953C2406.54 691.953 2406.99 691.932 2407.32 691.89 2407.66 691.847 2407.94 691.754 2408.16 691.61 2408.39 691.465 2408.58 691.245 2408.73 690.95 2408.89 690.655 2409.07 690.249 2409.28 689.731L2410.96 689.731C2410.9 690.586 2410.84 691.447 2410.78 692.314 2410.73 693.181 2410.67 694.043 2410.61 694.898L2395.31 694.898 2395.31 693.958C2395.6 693.308 2395.94 692.667 2396.32 692.034 2396.71 691.402 2397.14 690.76 2397.62 690.11 2398.1 689.46 2398.65 688.788 2399.27 688.096 2399.88 687.403 2400.56 686.684 2401.31 685.937 2402.44 684.805 2403.36 683.838 2404.07 683.037 2404.78 682.236 2405.34 681.523 2405.75 680.896 2406.16 680.27 2406.44 679.692 2406.59 679.162 2406.74 678.632 2406.82 678.066 2406.82 677.464 2406.82 676.849 2406.73 676.283 2406.56 675.765 2406.38 675.247 2406.13 674.808 2405.81 674.447 2405.48 674.085 2405.07 673.802 2404.57 673.597 2404.07 673.393 2403.49 673.29 2402.84 673.29 2401.72 673.29 2400.78 673.594 2400.03 674.203 2399.27 674.811 2398.68 675.693 2398.26 676.849L2395.89 676.849 2395.89 673.326C2397.43 672.688 2398.85 672.224 2400.14 671.935 2401.44 671.646 2402.6 671.502 2403.64 671.502Z" fill-rule="evenodd"/><text fill="#000000" fill-opacity="0" font-family="Arial,Arial_MSFontService,sans-serif" font-size="23.396" x="2395.31" y="691.973">2</text><path d="M2383.3 785.649C2382.47 786.267 2381.85 786.922 2381.43 787.614 2381.02 788.306 2380.81 789.091 2380.81 789.97 2380.81 791.435 2381.39 792.513 2382.55 793.205 2383.72 793.897 2385.5 794.242 2387.89 794.242 2389.35 794.242 2390.61 794.047 2391.66 793.657 2392.71 793.266 2393.51 792.704 2394.06 791.972 2394.62 791.24 2394.9 790.385 2394.9 789.409 2394.9 788.953 2394.84 788.509 2394.72 788.078 2394.61 787.647 2394.39 787.26 2394.08 786.918 2393.76 786.576 2393.31 786.304 2392.72 786.1 2392.14 785.897 2391.37 785.795 2390.43 785.795L2386.79 785.795C2385.47 785.795 2384.31 785.746 2383.3 785.649ZM2387.45 763.359C2385.9 763.359 2384.72 763.871 2383.91 764.897 2383.09 765.922 2382.69 767.403 2382.69 769.34 2382.69 771.375 2383.1 772.945 2383.93 774.052 2384.76 775.159 2385.96 775.712 2387.52 775.712 2388.35 775.712 2389.06 775.554 2389.65 775.236 2390.23 774.919 2390.71 774.483 2391.07 773.93 2391.44 773.377 2391.71 772.738 2391.88 772.013 2392.05 771.289 2392.14 770.528 2392.14 769.731 2392.14 768.298 2391.93 767.102 2391.53 766.142 2391.12 765.182 2390.57 764.478 2389.87 764.03 2389.17 763.583 2388.36 763.359 2387.45 763.359ZM2387.5 761.503C2388.67 761.503 2389.83 761.642 2390.99 761.918L2399.63 761.918 2399.63 764.384 2395.11 764.213 2394.9 764.482C2395.4 764.986 2395.8 765.674 2396.09 766.545 2396.38 767.416 2396.53 768.355 2396.53 769.365 2396.53 772.018 2395.71 774.064 2394.08 775.505 2392.44 776.945 2390.12 777.665 2387.11 777.665 2385.76 777.665 2384.59 777.494 2383.62 777.153 2382.38 778.097 2381.76 779.024 2381.76 779.936 2381.76 780.538 2381.88 780.994 2382.11 781.303 2382.35 781.612 2382.74 781.832 2383.29 781.962 2383.83 782.092 2384.66 782.158 2385.76 782.158L2391.62 782.158C2393.35 782.158 2394.76 782.426 2395.85 782.963 2396.94 783.5 2397.71 784.221 2398.18 785.124 2398.64 786.027 2398.87 787.081 2398.87 788.285 2398.87 789.815 2398.44 791.179 2397.56 792.375 2396.68 793.571 2395.41 794.503 2393.75 795.17 2392.09 795.838 2390.15 796.171 2387.94 796.171 2386.29 796.171 2384.79 796.074 2383.43 795.878 2382.07 795.683 2380.91 795.353 2379.94 794.889 2378.97 794.426 2378.22 793.815 2377.7 793.058 2377.17 792.302 2376.9 791.354 2376.9 790.214 2376.9 789.189 2377.24 788.257 2377.93 787.419 2378.61 786.581 2379.58 785.844 2380.83 785.209 2380.07 784.9 2379.47 784.444 2379.03 783.842 2378.59 783.24 2378.37 782.532 2378.37 781.718 2378.37 780.79 2378.63 779.94 2379.15 779.167 2379.67 778.394 2380.59 777.511 2381.91 776.518 2380.73 775.834 2379.84 774.907 2379.23 773.735 2378.62 772.563 2378.32 771.228 2378.32 769.731 2378.32 768.331 2378.55 767.114 2379.01 766.081 2379.48 765.047 2380.12 764.193 2380.94 763.517 2381.76 762.842 2382.74 762.337 2383.86 762.004 2384.98 761.67 2386.2 761.503 2387.5 761.503ZM2361.4 751.542C2364.43 751.542 2366.72 752.206 2368.26 753.532 2369.81 754.859 2370.58 756.783 2370.58 759.306 2370.58 760.169 2370.5 760.962 2370.33 761.686 2370.15 762.411 2369.89 763.127 2369.52 763.835 2369.15 764.543 2368.66 765.304 2368.04 766.117 2367.42 766.931 2366.74 767.757 2365.99 768.596 2365.24 769.434 2363.95 770.829 2362.11 772.783 2359.02 776.054 2356.75 778.91 2355.3 781.352L2364.5 781.352C2365.3 781.352 2365.94 781.303 2366.43 781.205 2366.92 781.108 2367.31 780.945 2367.6 780.717 2367.9 780.489 2368.13 780.192 2368.3 779.826 2368.47 779.46 2368.69 778.894 2368.95 778.129L2371.02 778.129 2370.61 785.258 2350.51 785.258 2350.51 784.086C2351.21 782.377 2352.16 780.628 2353.35 778.837 2354.53 777.047 2356.22 774.939 2358.4 772.514 2360.29 770.431 2361.65 768.852 2362.48 767.778 2363.39 766.606 2364.07 765.593 2364.51 764.738 2364.96 763.884 2365.28 763.078 2365.48 762.321 2365.67 761.564 2365.77 760.803 2365.77 760.038 2365.77 758.818 2365.58 757.739 2365.19 756.804 2364.8 755.868 2364.2 755.131 2363.39 754.594 2362.59 754.057 2361.57 753.788 2360.35 753.788 2357.31 753.788 2355.26 755.481 2354.2 758.867L2351.25 758.867 2351.25 754.179C2353.22 753.251 2355.06 752.58 2356.78 752.165 2358.49 751.75 2360.03 751.542 2361.4 751.542Z" fill-rule="evenodd"/><text fill="#000000" fill-opacity="0" font-family="Arial,Arial_MSFontService,sans-serif" font-size="44.6289" x="2350.51" y="790.593">2g</text><path d="M2331.28 735.533 2416.28 735.533 2416.28 738.533 2331.28 738.533Z" fill-rule="evenodd"/><text font-family="Cambria Math,Cambria Math_MSFontService,sans-serif" font-weight="400" font-size="50" transform="translate(2145.42 541)">h<tspan font-size="37" x="28.0728" y="10">f</tspan><tspan font-size="50" x="57.3374" y="0">=</tspan><tspan font-size="50" x="109.152" y="0">S</tspan><tspan font-size="37" x="134.36" y="10">f</tspan><tspan font-size="50" x="149.623" y="0"> </tspan><tspan font-size="50" x="160.508" y="0">dx</tspan><tspan font-size="50" x="213.217" y="0"> </tspan></text><text fill="#181717" font-family="Cambria,Cambria_MSFontService,sans-serif" font-weight="400" font-size="46" transform="matrix(0.988778 0.149392 -0.149392 0.988778 1187.77 910)">Fondo de canal. Pendiente, S<tspan font-size="31" x="554.624" y="10.2586">O</tspan></text><path d="M0 0 1160.9 0.000360892" stroke="#404040" stroke-width="3.4375" stroke-miterlimit="8" stroke-dasharray="13.75 10.3125" fill="#F2F2F2" fill-rule="evenodd" transform="matrix(-1 0 0 1 2134.4 1058.5)"/><path d="M0 0 288.578 0.000360892" stroke="#404040" stroke-width="3.4375" stroke-miterlimit="8" stroke-dasharray="13.75 10.3125" fill="#F2F2F2" fill-rule="evenodd" transform="matrix(-1 0 0 1 1025.08 912.5)"/><text font-family="Cambria Math,Cambria Math_MSFontService,sans-serif" font-weight="400" font-size="50" transform="translate(901.982 997)">S<tspan font-size="37" x="25.2084" y="10">0</tspan><tspan font-size="50" x="48.4917" y="0">dx</tspan></text><path d="M1021.15 934.917 1021.15 1027.68 1018.85 1027.68 1018.85 934.917ZM1006.25 939.5 1020 912 1033.75 939.5ZM1033.75 1023.1 1020 1050.6 1006.25 1023.1Z" fill="#3B3838"/><path d="M22.9167-1.14582 917.583-1.14548 917.583 1.14619 22.9167 1.14584ZM27.5 9.16668 0 0 27.5-9.16666ZM913-9.16632 940.5 0.000360892 913 9.16702Z" fill="#3B3838" transform="matrix(-1 0 0 1 1963.5 1157)"/><path d="M1476.44 1123.76C1474.15 1123.76 1472.4 1124.68 1471.21 1126.51 1470.01 1128.35 1469.41 1130.98 1469.41 1134.42 1469.41 1137.86 1469.9 1140.47 1470.88 1142.26 1471.87 1144.05 1473.36 1144.95 1475.37 1144.95 1476.16 1144.95 1476.81 1144.88 1477.33 1144.75 1477.85 1144.61 1478.36 1144.4 1478.86 1144.1 1479.36 1143.81 1479.87 1143.4 1480.39 1142.88 1480.91 1142.36 1481.29 1141.89 1481.53 1141.46 1481.77 1141.03 1481.96 1140.54 1482.08 1139.98 1482.21 1139.43 1482.27 1138.71 1482.27 1137.83L1482.27 1131.82C1482.27 1130.42 1482.21 1129.3 1482.08 1128.46 1481.96 1127.62 1481.75 1126.91 1481.45 1126.34 1481.16 1125.77 1480.76 1125.28 1480.26 1124.89 1479.75 1124.49 1479.2 1124.21 1478.6 1124.03 1478 1123.85 1477.28 1123.76 1476.44 1123.76ZM1492.67 1122.07 1503.19 1122.07 1503.19 1123.38C1501.78 1123.6 1501.07 1124.15 1501.07 1125.05 1501.07 1125.46 1501.17 1125.87 1501.35 1126.28 1501.54 1126.7 1501.83 1127.15 1502.23 1127.65L1505.5 1132.25 1508.99 1127.82C1509.37 1127.33 1509.67 1126.86 1509.91 1126.41 1510.14 1125.95 1510.26 1125.48 1510.26 1125 1510.26 1124.58 1510.1 1124.24 1509.8 1123.97 1509.49 1123.71 1509.02 1123.51 1508.38 1123.38L1508.38 1122.07 1517.16 1122.07 1517.16 1123.38C1516.48 1123.58 1515.78 1123.97 1515.08 1124.54 1514.37 1125.11 1513.51 1126.03 1512.48 1127.31L1506.93 1134.13 1513.05 1142.37C1513.93 1143.55 1514.71 1144.46 1515.41 1145.08 1516.11 1145.71 1516.81 1146.16 1517.51 1146.43L1517.51 1147.74 1506.71 1147.74 1506.71 1146.43C1508.2 1146.25 1508.94 1145.69 1508.94 1144.76 1508.94 1144.39 1508.88 1144.03 1508.75 1143.69 1508.63 1143.35 1508.39 1142.95 1508.05 1142.51L1504.16 1137.08 1500.02 1142.45C1499.72 1142.85 1499.48 1143.21 1499.31 1143.54 1499.14 1143.87 1499.06 1144.24 1499.06 1144.65 1499.06 1145.14 1499.22 1145.54 1499.55 1145.85 1499.88 1146.16 1500.41 1146.35 1501.12 1146.43L1501.12 1147.74 1492.16 1147.74 1492.16 1146.43C1492.75 1146.21 1493.28 1145.94 1493.75 1145.62 1494.23 1145.3 1494.71 1144.88 1495.2 1144.37 1495.7 1143.86 1496.34 1143.11 1497.15 1142.13L1502.74 1135.2 1497.02 1127.36C1496.23 1126.28 1495.6 1125.51 1495.14 1125.02 1494.67 1124.54 1494.24 1124.17 1493.85 1123.92 1493.45 1123.67 1493.06 1123.49 1492.67 1123.38ZM1485.3 1109.31 1486.89 1109.31 1486.89 1140.41C1486.89 1141.81 1486.92 1142.81 1486.97 1143.4 1487.02 1144 1487.14 1144.48 1487.32 1144.84 1487.5 1145.2 1487.78 1145.49 1488.16 1145.71 1488.55 1145.94 1489.23 1146.15 1490.19 1146.35L1490.19 1147.74 1483.85 1148.01 1482.24 1148.01 1482.57 1143.61 1482.16 1143.5C1481.03 1144.7 1480.05 1145.6 1479.22 1146.2 1478.39 1146.8 1477.5 1147.28 1476.56 1147.63 1475.62 1147.99 1474.62 1148.17 1473.54 1148.17 1470.61 1148.17 1468.34 1147.06 1466.75 1144.83 1465.15 1142.6 1464.36 1139.38 1464.36 1135.17 1464.36 1132.24 1464.88 1129.74 1465.91 1127.69 1466.95 1125.64 1468.35 1124.12 1470.12 1123.12 1471.88 1122.11 1473.86 1121.61 1476.07 1121.61 1477.25 1121.61 1478.32 1121.71 1479.29 1121.89 1480.26 1122.08 1481.25 1122.39 1482.27 1122.82L1482.27 1118.55C1482.27 1116.83 1482.26 1115.63 1482.23 1114.95 1482.2 1114.27 1482.13 1113.69 1482.01 1113.22 1481.9 1112.74 1481.74 1112.37 1481.53 1112.1 1481.33 1111.84 1481.05 1111.62 1480.7 1111.46 1480.35 1111.3 1479.72 1111.14 1478.81 1110.98L1478.81 1109.58Z" fill-rule="evenodd"/><text fill="#000000" fill-opacity="0" font-family="Arial,Arial_MSFontService,sans-serif" font-size="38.8599" x="1464.36" y="1143.31">dx</text><path d="M1018.5 1218.38 1018.5 306.5" stroke="#767171" stroke-width="3.4375" stroke-miterlimit="8" stroke-dasharray="13.75 10.3125 3.4375 10.3125" fill="#F2F2F2" fill-rule="evenodd"/><path d="M1959.5 1220.88 1959.5 306.5" stroke="#767171" stroke-width="3.4375" stroke-miterlimit="8" stroke-dasharray="13.75 10.3125 3.4375 10.3125" fill="#F2F2F2" fill-rule="evenodd"/><path d="M0 0 288.578 0.000360892" stroke="#404040" stroke-width="3.4375" stroke-miterlimit="8" stroke-dasharray="13.75 10.3125" fill="#F2F2F2" fill-rule="evenodd" transform="matrix(-1 0 0 1 1017.08 591.5)"/><path d="M1.1945 13.746 1.84601 197.798-0.445646 197.806-1.09715 13.7541ZM-9.10171 18.3657 0 0 9.23151 18.3008ZM9.85057 193.187 0.748852 211.552-8.48265 193.251Z" fill="#3B3838" transform="matrix(-1 0 0 1 838.749 380)"/><path d="M0 0 288.578 0.000360892" stroke="#404040" stroke-width="3.4375" stroke-miterlimit="8" stroke-dasharray="13.75 10.3125" fill="#F2F2F2" fill-rule="evenodd" transform="matrix(-1 0 0 1 1017.08 381.5)"/><path d="M2112.15 885.75 2112.15 1039.75 2109.85 1039.75 2109.85 885.75ZM2101.83 890.333 2111 872 2120.17 890.333ZM2120.17 1035.17 2111 1053.5 2101.83 1035.17Z" fill="#3B3838"/><path d="M0 0 165 0.000360892" stroke="#404040" stroke-width="3.4375" stroke-miterlimit="8" stroke-dasharray="13.75 10.3125" fill="#F2F2F2" fill-rule="evenodd" transform="matrix(-1 0 0 1 2128.5 873.5)"/><path d="M0 0 165 0.000360892" stroke="#404040" stroke-width="3.4375" stroke-miterlimit="8" stroke-dasharray="13.75 10.3125" fill="#F2F2F2" fill-rule="evenodd" transform="matrix(-1 0 0 1 2126.5 592.5)"/><path d="M1963.56 464.959 1017.5 383.5" stroke="#767171" stroke-width="3.4375" stroke-miterlimit="8" stroke-dasharray="27.5 10.3125 3.4375 10.3125 3.4375 10.3125" fill="#F2F2F2" fill-rule="evenodd"/><path d="M2112.15 476.75 2112.15 574.65 2109.85 574.65 2109.85 476.75ZM2101.83 481.333 2111 463 2120.17 481.333ZM2120.17 570.067 2111 588.4 2101.83 570.067Z" fill="#3B3838"/><path d="M2113.15 394.75 2113.15 449.75 2110.85 449.75 2110.85 394.75ZM2102.83 399.333 2112 381 2121.17 399.333ZM2121.17 445.167 2112 463.5 2102.83 445.167Z" fill="#3B3838"/><path d="M0 0 165 0.000360892" stroke="#404040" stroke-width="3.4375" stroke-miterlimit="8" stroke-dasharray="13.75 10.3125" fill="#F2F2F2" fill-rule="evenodd" transform="matrix(-1 0 0 1 2121.5 383.5)"/><path d="M0 0 165 0.000360892" stroke="#404040" stroke-width="3.4375" stroke-miterlimit="8" stroke-dasharray="13.75 10.3125" fill="#F2F2F2" fill-rule="evenodd" transform="matrix(-1 0 0 1 2121.5 464.5)"/><text font-family="Cambria Math,Cambria Math_MSFontService,sans-serif" font-weight="400" font-size="50" transform="translate(2140.74 435)">h<tspan font-size="37" x="28.073" y="11">a</tspan><tspan font-size="50" x="64.2126" y="0">=</tspan><tspan font-size="50" x="116.027" y="0">S</tspan><tspan font-size="37" x="141.236" y="11">a</tspan><tspan font-size="50" x="163.373" y="0">dx</tspan><tspan font-size="50" x="216.081" y="0"> </tspan></text><text fill="#181717" font-family="Cambria,Cambria_MSFontService,sans-serif" font-weight="400" font-size="46" transform="matrix(1 0 0 1 1109.91 307)">Línea de aceleración. Pendiente, S<tspan font-size="31" x="658.854" y="10">a</tspan></text><path d="M1795.5 326.5 1856.74 456.355" stroke="#3B3838" stroke-width="1.375" stroke-miterlimit="8" fill="none" fill-rule="evenodd"/><path d="M1619.08 794.107 1522.5 767.5" stroke="#767171" stroke-width="4.58333" stroke-miterlimit="8" fill="#F2F2F2" fill-rule="evenodd"/><path d="M1580.24 796.113 1546.5 787.5" stroke="#767171" stroke-width="4.58333" stroke-miterlimit="8" fill="#F2F2F2" fill-rule="evenodd"/></g></svg>