<svg width="1853" height="1200" xmlns="http://www.w3.org/2000/svg" xmlns:xlink="http://www.w3.org/1999/xlink" xml:space="preserve" overflow="hidden"><defs><clipPath id="clip0"><rect x="636" y="120" width="1853" height="1200"/></clipPath></defs><g clip-path="url(#clip0)" transform="translate(-636 -120)"><path d="M2004.79 1061.31 925.868 890.424 977.326 565.536 2056.25 736.42Z" fill="#F2F2F2" fill-rule="evenodd"/><path d="M2044.52 894.478 833.503 538.378 892.052 339.264 2103.07 695.363Z" fill="#FFFFFF" fill-rule="evenodd"/><path d="M2000.72 1058.65 918.5 887.5" stroke="#767171" stroke-width="12.6042" stroke-miterlimit="8" fill="#F2F2F2" fill-rule="evenodd"/><path d="M2028.57 887.976 976.5 581.5" stroke="#767171" stroke-width="4.58333" stroke-miterlimit="8" fill="#F2F2F2" fill-rule="evenodd"/><path d="M0 0 1650 0.000360892" stroke="#767171" stroke-width="4.58333" stroke-miterlimit="8" fill="#F2F2F2" fill-rule="evenodd" transform="matrix(1 0 0 -1 636.5 1220.5)"/><path d="M1018.5 288.5 1969.6 288.5" stroke="#767171" stroke-width="3.4375" stroke-miterlimit="8" stroke-dasharray="27.5 10.3125 3.4375 10.3125 3.4375 10.3125" fill="#F2F2F2" fill-rule="evenodd"/><path d="M840.193 606.746 841.162 891.868 838.87 891.875 837.901 606.754ZM829.896 611.364 839 593 848.229 611.302ZM849.167 887.257 840.063 905.621 830.834 887.319Z" fill="#3B3838"/><path d="M2112.15 515.75 2112.15 861.128 2109.85 861.128 2109.85 515.75ZM2101.83 520.333 2111 502 2120.17 520.333ZM2120.17 856.544 2111 874.878 2101.83 856.544Z" fill="#3B3838"/><path d="M1962.07 497.965 1018.5 288.5" stroke="#767171" stroke-width="3.4375" stroke-miterlimit="8" stroke-dasharray="27.5 10.3125 3.4375 10.3125 3.4375 10.3125" fill="#F2F2F2" fill-rule="evenodd"/><path d="M843.146 925.75 843.146 1204.4 840.854 1204.4 840.854 925.75ZM832.833 930.333 842 912 851.167 930.333ZM851.167 1199.81 842 1218.15 832.833 1199.81Z" fill="#3B3838"/><path d="M2112.15 1070.75 2112.15 1208.25 2109.85 1208.25 2109.85 1070.75ZM2101.83 1075.33 2111 1057 2120.17 1075.33ZM2120.17 1203.67 2111 1222 2101.83 1203.67Z" fill="#3B3838"/><path d="M977.5 171C977.5 148.08 995.856 129.5 1018.5 129.5 1041.14 129.5 1059.5 148.08 1059.5 171 1059.5 193.92 1041.14 212.5 1018.5 212.5 995.856 212.5 977.5 193.92 977.5 171Z" stroke="#7F7F7F" stroke-width="4.58333" stroke-miterlimit="8" fill="none" fill-rule="evenodd"/><text fill="#262626" font-family="Segoe UI Light,Segoe UI Light_MSFontService,sans-serif" font-weight="300" font-size="55" transform="matrix(1 0 0 1 1008.07 191)">1</text><path d="M1918.5 171C1918.5 148.08 1937.08 129.5 1960 129.5 1982.92 129.5 2001.5 148.08 2001.5 171 2001.5 193.92 1982.92 212.5 1960 212.5 1937.08 212.5 1918.5 193.92 1918.5 171Z" stroke="#7F7F7F" stroke-width="4.58333" stroke-miterlimit="8" fill="none" fill-rule="evenodd"/><text fill="#262626" font-family="Segoe UI Light,Segoe UI Light_MSFontService,sans-serif" font-weight="300" font-size="55" transform="matrix(1 0 0 1 1945.36 191)">2<tspan fill="#181717" font-family="Cambria Math,Cambria Math_MSFontService,sans-serif" font-weight="400" font-size="46" x="-634.797" y="1091">Nivel de referencia</tspan></text><text fill="#181717" font-family="Cambria Math,Cambria Math_MSFontService,sans-serif" font-weight="400" font-size="46" transform="matrix(0.975199 0.221328 -0.221328 0.975199 1237.7 379)">Línea de <tspan font-size="46" x="175.901" y="0.0697975">energía. Pendiente, </tspan><tspan font-size="46" x="559.765" y="0.110931">S</tspan><tspan font-size="31" x="582.722" y="10.2821">f</tspan></text><text fill="#181717" font-family="Cambria Math,Cambria Math_MSFontService,sans-serif" font-weight="400" font-size="46" transform="matrix(0.96022 0.279244 -0.279244 0.96022 1164.57 623)">Superficie del fluido. Pendiente, S<tspan font-size="31" x="649.683" y="9.97665">W</tspan></text><text font-family="Cambria Math,Cambria Math_MSFontService,sans-serif" font-weight="400" font-size="50" transform="translate(784.622 1080)">z<tspan font-size="50" x="-0.493713" y="-315">y</tspan></text><path d="M751.453 395.594C749.727 395.594 748.352 396.534 747.327 398.414 746.301 400.294 745.789 402.796 745.789 405.921 745.789 411.927 747.278 414.93 750.256 414.93 753.43 414.93 755.709 411.829 757.092 405.628 756.653 401.966 756.006 399.378 755.151 397.865 754.297 396.351 753.064 395.594 751.453 395.594ZM751.257 393.665C753.308 393.665 754.915 394.154 756.079 395.13 757.243 396.107 758.248 397.742 759.094 400.037L759.46 400.037 761.169 394.08 765.173 394.08 765.173 395.277C764.001 397.083 762.439 400.428 760.486 405.311 760.828 408.599 761.226 411.073 761.682 412.733 762.138 414.393 762.87 415.223 763.879 415.223 764.547 415.223 765.336 414.849 766.247 414.1L767.2 415.54C765.458 417.054 763.717 417.811 761.975 417.811 759.485 417.811 757.987 415.532 757.483 410.975L757.214 410.975C754.984 415.532 752.25 417.811 749.011 417.811 746.586 417.811 744.698 416.81 743.347 414.808 741.996 412.806 741.321 409.949 741.321 406.239 741.321 402.414 742.289 399.362 744.226 397.083 746.163 394.805 748.507 393.665 751.257 393.665Z" fill-rule="evenodd"/><text fill="#000000" fill-opacity="0" font-family="Arial,Arial_MSFontService,sans-serif" font-size="24.1455" x="741.321" y="414.793">α</text><path d="M768.538 384.095 779.573 384.095 779.573 385.291C778.824 385.422 778.254 385.584 777.864 385.78 777.473 385.975 777.18 386.252 776.985 386.61 776.789 386.968 776.692 387.448 776.692 388.05 776.692 388.603 776.757 389.202 776.887 389.845 777.017 390.487 777.205 391.208 777.449 392.005L783.162 411.927 790.168 391.859C790.266 391.549 790.364 391.224 790.461 390.882 790.559 390.54 790.644 390.207 790.718 389.881 790.791 389.556 790.84 389.271 790.864 389.027 790.889 388.783 790.901 388.555 790.901 388.343 790.901 387.366 790.677 386.654 790.229 386.207 789.782 385.759 789.021 385.454 787.947 385.291L787.947 384.095 798.201 384.095 798.201 385.291C797.533 385.454 796.996 385.69 796.589 385.999 796.182 386.309 795.78 386.805 795.381 387.489 794.982 388.172 794.498 389.263 793.928 390.76L783.796 417.811 780.598 417.811 772.371 390.589C771.931 389.108 771.549 388.054 771.223 387.428 770.898 386.801 770.539 386.329 770.149 386.012 769.758 385.694 769.221 385.454 768.538 385.291Z" fill-rule="evenodd"/><text fill="#000000" fill-opacity="0" font-family="Arial,Arial_MSFontService,sans-serif" font-size="33.7158" x="768.538" y="413.596">V</text><path d="M811.122 375.553C812.374 375.553 813.443 375.695 814.328 375.978 815.214 376.261 815.933 376.643 816.487 377.125 817.041 377.607 817.442 378.185 817.689 378.86 817.936 379.534 818.059 380.263 818.059 381.046 818.059 381.515 818.026 381.952 817.96 382.355 817.893 382.759 817.779 383.156 817.616 383.548 817.454 383.939 817.24 384.334 816.975 384.731 816.71 385.129 816.379 385.55 815.981 385.996 815.68 386.381 815.289 386.827 814.807 387.333 814.325 387.839 813.798 388.381 813.226 388.959 812.654 389.537 812.055 390.139 811.429 390.765 810.802 391.392 810.194 392.012 809.604 392.626 809.014 393.24 808.472 393.837 807.978 394.415 807.484 394.993 807.081 395.523 806.768 396.005L813.452 396.005C814.018 396.005 814.47 395.983 814.807 395.941 815.144 395.899 815.424 395.806 815.647 395.661 815.87 395.517 816.06 395.297 816.216 395.002 816.373 394.707 816.553 394.3 816.758 393.782L818.438 393.782C818.378 394.638 818.321 395.499 818.267 396.366 818.213 397.233 818.155 398.094 818.095 398.949L802.793 398.949 802.793 398.01C803.082 397.36 803.419 396.718 803.805 396.086 804.19 395.454 804.624 394.812 805.105 394.162 805.587 393.511 806.135 392.84 806.749 392.147 807.364 391.455 808.044 390.735 808.791 389.988 809.923 388.856 810.844 387.89 811.555 387.089 812.266 386.288 812.826 385.574 813.235 384.948 813.645 384.322 813.925 383.743 814.075 383.214 814.226 382.684 814.301 382.117 814.301 381.515 814.301 380.901 814.214 380.335 814.039 379.817 813.865 379.299 813.615 378.86 813.289 378.498 812.964 378.137 812.552 377.854 812.052 377.649 811.552 377.444 810.977 377.342 810.327 377.342 809.206 377.342 808.267 377.646 807.508 378.254 806.749 378.863 806.159 379.745 805.738 380.901L803.371 380.901 803.371 377.378C804.913 376.74 806.331 376.276 807.626 375.987 808.92 375.698 810.086 375.553 811.122 375.553Z" fill-rule="evenodd"/><text fill="#000000" fill-opacity="0" font-family="Arial,Arial_MSFontService,sans-serif" font-size="23.396" x="802.793" y="396.025">2</text><path d="M790.781 489.7C789.951 490.319 789.328 490.974 788.913 491.666 788.498 492.357 788.291 493.143 788.291 494.022 788.291 495.487 788.872 496.565 790.036 497.257 791.2 497.948 792.978 498.294 795.371 498.294 796.836 498.294 798.093 498.099 799.143 497.708 800.192 497.318 800.994 496.756 801.547 496.024 802.101 495.291 802.378 494.437 802.378 493.46 802.378 493.004 802.321 492.561 802.207 492.13 802.093 491.698 801.877 491.312 801.56 490.97 801.242 490.628 800.791 490.356 800.205 490.152 799.619 489.949 798.854 489.847 797.91 489.847L794.272 489.847C792.954 489.847 791.79 489.798 790.781 489.7ZM794.931 467.41C793.385 467.41 792.205 467.923 791.391 468.948 790.577 469.974 790.17 471.455 790.17 473.392 790.17 475.426 790.586 476.997 791.416 478.104 792.246 479.211 793.442 479.764 795.004 479.764 795.835 479.764 796.543 479.605 797.128 479.288 797.714 478.97 798.19 478.535 798.557 477.982 798.923 477.428 799.191 476.789 799.362 476.065 799.533 475.341 799.619 474.58 799.619 473.782 799.619 472.35 799.415 471.154 799.008 470.194 798.601 469.233 798.048 468.529 797.348 468.082 796.648 467.634 795.843 467.41 794.931 467.41ZM794.98 465.555C796.152 465.555 797.316 465.693 798.471 465.97L807.114 465.97 807.114 468.436 802.597 468.265 802.378 468.533C802.882 469.038 803.281 469.726 803.574 470.596 803.867 471.467 804.013 472.407 804.013 473.416 804.013 476.069 803.195 478.116 801.56 479.556 799.924 480.997 797.6 481.717 794.589 481.717 793.239 481.717 792.075 481.546 791.098 481.204 789.861 482.148 789.243 483.076 789.243 483.988 789.243 484.59 789.361 485.045 789.597 485.355 789.833 485.664 790.223 485.884 790.769 486.014 791.314 486.144 792.14 486.209 793.247 486.209L799.106 486.209C800.831 486.209 802.239 486.478 803.33 487.015 804.42 487.552 805.197 488.272 805.661 489.176 806.125 490.079 806.357 491.133 806.357 492.337 806.357 493.867 805.918 495.23 805.039 496.426 804.16 497.623 802.89 498.555 801.23 499.222 799.57 499.889 797.633 500.223 795.419 500.223 793.776 500.223 792.274 500.125 790.915 499.93 789.556 499.735 788.392 499.405 787.424 498.941 786.455 498.477 785.707 497.867 785.178 497.11 784.649 496.353 784.384 495.405 784.384 494.266 784.384 493.24 784.726 492.309 785.41 491.47 786.093 490.632 787.062 489.896 788.315 489.261 787.55 488.952 786.948 488.496 786.508 487.894 786.069 487.292 785.849 486.584 785.849 485.77 785.849 484.842 786.11 483.992 786.63 483.218 787.151 482.445 788.071 481.562 789.389 480.57 788.217 479.886 787.326 478.958 786.716 477.786 786.106 476.614 785.8 475.28 785.8 473.782 785.8 472.383 786.032 471.166 786.496 470.133 786.96 469.099 787.603 468.245 788.425 467.569 789.247 466.894 790.219 466.389 791.342 466.055 792.465 465.722 793.678 465.555 794.98 465.555ZM768.884 455.594C771.912 455.594 774.198 456.257 775.745 457.584 777.291 458.91 778.064 460.835 778.064 463.358 778.064 464.22 777.979 465.014 777.808 465.738 777.637 466.462 777.368 467.178 777.002 467.886 776.636 468.594 776.143 469.355 775.525 470.169 774.906 470.983 774.223 471.809 773.474 472.647 772.725 473.485 771.432 474.881 769.592 476.834 766.5 480.106 764.229 482.962 762.781 485.404L771.985 485.404C772.782 485.404 773.425 485.355 773.914 485.257 774.402 485.159 774.793 484.997 775.086 484.769 775.378 484.541 775.61 484.244 775.781 483.878 775.952 483.511 776.168 482.946 776.428 482.181L778.503 482.181 778.088 489.31 757.996 489.31 757.996 488.138C758.696 486.429 759.64 484.679 760.828 482.889 762.016 481.099 763.7 478.991 765.881 476.566 767.769 474.482 769.128 472.904 769.959 471.829 770.87 470.657 771.55 469.644 771.997 468.79 772.445 467.935 772.766 467.13 772.961 466.373 773.157 465.616 773.254 464.855 773.254 464.09 773.254 462.869 773.059 461.791 772.669 460.855 772.278 459.919 771.68 459.183 770.874 458.646 770.068 458.109 769.055 457.84 767.835 457.84 764.791 457.84 762.74 459.533 761.682 462.918L758.728 462.918 758.728 458.231C760.698 457.303 762.541 456.632 764.258 456.217 765.975 455.801 767.517 455.594 768.884 455.594Z" fill-rule="evenodd"/><text fill="#000000" fill-opacity="0" font-family="Arial,Arial_MSFontService,sans-serif" font-size="44.6289" x="757.996" y="494.644">2g</text><path d="M738.782 439.585 823.782 439.585 823.782 442.585 738.782 442.585Z" fill-rule="evenodd"/><text font-family="Cambria Math,Cambria Math_MSFontService,sans-serif" font-weight="400" font-size="50" transform="translate(2138.84 1145)">z<tspan font-size="50" x="34.123" y="0">+</tspan><tspan font-size="50" x="83.1416" y="0">dz</tspan><tspan font-size="50" x="0.660156" y="-167">y</tspan><tspan font-size="50" x="37.0747" y="-167">+</tspan><tspan font-size="50" x="86.0935" y="-167">dy</tspan></text><path d="M2136.25 649.738C2134.52 649.738 2133.15 650.678 2132.12 652.558 2131.09 654.438 2130.58 656.94 2130.58 660.065 2130.58 666.071 2132.07 669.074 2135.05 669.074 2138.22 669.074 2140.5 665.973 2141.89 659.772 2141.45 656.11 2140.8 653.522 2139.95 652.009 2139.09 650.495 2137.86 649.738 2136.25 649.738ZM2136.05 647.809C2138.1 647.809 2139.71 648.298 2140.87 649.274 2142.04 650.251 2143.04 651.886 2143.89 654.181L2144.25 654.181 2145.96 648.224 2149.97 648.224 2149.97 649.421C2148.8 651.227 2147.23 654.572 2145.28 659.455 2145.62 662.743 2146.02 665.217 2146.48 666.877 2146.93 668.537 2147.66 669.367 2148.67 669.367 2149.34 669.367 2150.13 668.993 2151.04 668.244L2151.99 669.684C2150.25 671.198 2148.51 671.955 2146.77 671.955 2144.28 671.955 2142.78 669.676 2142.28 665.119L2142.01 665.119C2139.78 669.676 2137.04 671.955 2133.8 671.955 2131.38 671.955 2129.49 670.954 2128.14 668.952 2126.79 666.95 2126.11 664.094 2126.11 660.383 2126.11 656.558 2127.08 653.506 2129.02 651.227 2130.96 648.949 2133.3 647.809 2136.05 647.809Z" fill-rule="evenodd"/><text fill="#000000" fill-opacity="0" font-family="Arial,Arial_MSFontService,sans-serif" font-size="24.1455" x="2126.11" y="668.937">α</text><path d="M2153.33 638.239 2164.37 638.239 2164.37 639.435C2163.62 639.565 2163.05 639.728 2162.66 639.924 2162.27 640.119 2161.97 640.396 2161.78 640.754 2161.58 641.112 2161.49 641.592 2161.49 642.194 2161.49 642.747 2161.55 643.346 2161.68 643.989 2161.81 644.631 2162 645.352 2162.24 646.149L2167.96 666.071 2174.96 646.003C2175.06 645.693 2175.16 645.368 2175.26 645.026 2175.35 644.684 2175.44 644.351 2175.51 644.025 2175.58 643.7 2175.63 643.415 2175.66 643.171 2175.68 642.927 2175.69 642.699 2175.69 642.487 2175.69 641.51 2175.47 640.798 2175.02 640.351 2174.58 639.903 2173.81 639.598 2172.74 639.435L2172.74 638.239 2182.99 638.239 2182.99 639.435C2182.33 639.598 2181.79 639.834 2181.38 640.143 2180.98 640.453 2180.57 640.949 2180.17 641.633 2179.78 642.316 2179.29 643.407 2178.72 644.904L2168.59 671.955 2165.39 671.955 2157.16 644.733C2156.72 643.252 2156.34 642.198 2156.02 641.572 2155.69 640.945 2155.33 640.473 2154.94 640.156 2154.55 639.838 2154.01 639.598 2153.33 639.435Z" fill-rule="evenodd"/><text fill="#000000" fill-opacity="0" font-family="Arial,Arial_MSFontService,sans-serif" font-size="33.7158" x="2153.33" y="667.74">V</text><path d="M2195.92 629.697C2197.17 629.697 2198.24 629.839 2199.12 630.122 2200.01 630.405 2200.73 630.787 2201.28 631.269 2201.83 631.751 2202.24 632.329 2202.48 633.004 2202.73 633.678 2202.85 634.407 2202.85 635.19 2202.85 635.659 2202.82 636.096 2202.75 636.499 2202.69 636.903 2202.57 637.3 2202.41 637.692 2202.25 638.083 2202.03 638.478 2201.77 638.875 2201.5 639.273 2201.17 639.694 2200.77 640.14 2200.47 640.525 2200.08 640.971 2199.6 641.477 2199.12 641.983 2198.59 642.525 2198.02 643.103 2197.45 643.681 2196.85 644.283 2196.22 644.909 2195.6 645.536 2194.99 646.156 2194.4 646.77 2193.81 647.384 2193.27 647.981 2192.77 648.559 2192.28 649.137 2191.87 649.667 2191.56 650.149L2198.25 650.149C2198.81 650.149 2199.26 650.128 2199.6 650.085 2199.94 650.043 2200.22 649.95 2200.44 649.805 2200.66 649.661 2200.85 649.441 2201.01 649.146 2201.17 648.851 2201.35 648.444 2201.55 647.926L2203.23 647.926C2203.17 648.782 2203.11 649.643 2203.06 650.51 2203.01 651.377 2202.95 652.238 2202.89 653.093L2187.59 653.093 2187.59 652.154C2187.88 651.504 2188.21 650.862 2188.6 650.23 2188.98 649.598 2189.42 648.956 2189.9 648.306 2190.38 647.655 2190.93 646.984 2191.54 646.291 2192.16 645.599 2192.84 644.879 2193.58 644.132 2194.72 643 2195.64 642.034 2196.35 641.233 2197.06 640.432 2197.62 639.718 2198.03 639.092 2198.44 638.466 2198.72 637.888 2198.87 637.358 2199.02 636.828 2199.09 636.262 2199.09 635.659 2199.09 635.045 2199.01 634.479 2198.83 633.961 2198.66 633.443 2198.41 633.004 2198.08 632.642 2197.76 632.281 2197.35 631.998 2196.85 631.793 2196.35 631.588 2195.77 631.486 2195.12 631.486 2194 631.486 2193.06 631.79 2192.3 632.398 2191.54 633.007 2190.95 633.889 2190.53 635.045L2188.16 635.045 2188.16 631.522C2189.71 630.884 2191.12 630.42 2192.42 630.131 2193.71 629.842 2194.88 629.697 2195.92 629.697Z" fill-rule="evenodd"/><text fill="#000000" fill-opacity="0" font-family="Arial,Arial_MSFontService,sans-serif" font-size="23.396" x="2187.59" y="650.169">2</text><path d="M2175.57 743.844C2174.74 744.463 2174.12 745.118 2173.71 745.81 2173.29 746.501 2173.08 747.287 2173.08 748.166 2173.08 749.631 2173.67 750.709 2174.83 751.401 2175.99 752.092 2177.77 752.438 2180.16 752.438 2181.63 752.438 2182.89 752.243 2183.94 751.852 2184.99 751.462 2185.79 750.9 2186.34 750.168 2186.89 749.435 2187.17 748.581 2187.17 747.604 2187.17 747.148 2187.11 746.705 2187 746.274 2186.89 745.842 2186.67 745.456 2186.35 745.114 2186.04 744.772 2185.58 744.5 2185 744.296 2184.41 744.093 2183.65 743.991 2182.7 743.991L2179.07 743.991C2177.75 743.991 2176.58 743.942 2175.57 743.844ZM2179.72 721.554C2178.18 721.554 2177 722.067 2176.18 723.092 2175.37 724.118 2174.96 725.599 2174.96 727.536 2174.96 729.57 2175.38 731.141 2176.21 732.248 2177.04 733.354 2178.24 733.908 2179.8 733.908 2180.63 733.908 2181.34 733.749 2181.92 733.432 2182.51 733.114 2182.98 732.679 2183.35 732.126 2183.72 731.572 2183.99 730.933 2184.16 730.209 2184.33 729.485 2184.41 728.724 2184.41 727.926 2184.41 726.494 2184.21 725.298 2183.8 724.338 2183.4 723.377 2182.84 722.673 2182.14 722.226 2181.44 721.778 2180.64 721.554 2179.72 721.554ZM2179.77 719.699C2180.95 719.699 2182.11 719.837 2183.26 720.114L2191.91 720.114 2191.91 722.58 2187.39 722.409 2187.17 722.677C2187.68 723.182 2188.07 723.87 2188.37 724.74 2188.66 725.611 2188.81 726.551 2188.81 727.56 2188.81 730.213 2187.99 732.26 2186.35 733.7 2184.72 735.141 2182.39 735.861 2179.38 735.861 2178.03 735.861 2176.87 735.69 2175.89 735.348 2174.65 736.292 2174.04 737.22 2174.04 738.132 2174.04 738.734 2174.15 739.189 2174.39 739.499 2174.63 739.808 2175.02 740.028 2175.56 740.158 2176.11 740.288 2176.93 740.353 2178.04 740.353L2183.9 740.353C2185.62 740.353 2187.03 740.622 2188.12 741.159 2189.21 741.696 2189.99 742.416 2190.45 743.32 2190.92 744.223 2191.15 745.277 2191.15 746.481 2191.15 748.011 2190.71 749.374 2189.83 750.57 2188.95 751.767 2187.68 752.699 2186.02 753.366 2184.36 754.033 2182.43 754.367 2180.21 754.367 2178.57 754.367 2177.07 754.269 2175.71 754.074 2174.35 753.879 2173.19 753.549 2172.22 753.085 2171.25 752.621 2170.5 752.011 2169.97 751.254 2169.44 750.497 2169.18 749.549 2169.18 748.41 2169.18 747.384 2169.52 746.453 2170.2 745.614 2170.89 744.776 2171.86 744.04 2173.11 743.405 2172.34 743.096 2171.74 742.64 2171.3 742.038 2170.86 741.436 2170.64 740.728 2170.64 739.914 2170.64 738.986 2170.9 738.136 2171.42 737.362 2171.94 736.589 2172.86 735.706 2174.18 734.714 2173.01 734.03 2172.12 733.102 2171.51 731.93 2170.9 730.758 2170.59 729.424 2170.59 727.926 2170.59 726.527 2170.83 725.31 2171.29 724.277 2171.75 723.243 2172.4 722.389 2173.22 721.713 2174.04 721.038 2175.01 720.533 2176.14 720.199 2177.26 719.866 2178.47 719.699 2179.77 719.699ZM2153.68 709.738C2156.71 709.738 2158.99 710.401 2160.54 711.728 2162.08 713.054 2162.86 714.979 2162.86 717.502 2162.86 718.364 2162.77 719.158 2162.6 719.882 2162.43 720.606 2162.16 721.322 2161.8 722.03 2161.43 722.738 2160.94 723.499 2160.32 724.313 2159.7 725.127 2159.02 725.953 2158.27 726.791 2157.52 727.629 2156.23 729.025 2154.39 730.978 2151.29 734.25 2149.02 737.106 2147.57 739.548L2156.78 739.548C2157.58 739.548 2158.22 739.499 2158.71 739.401 2159.2 739.303 2159.59 739.141 2159.88 738.913 2160.17 738.685 2160.4 738.388 2160.57 738.022 2160.75 737.655 2160.96 737.09 2161.22 736.325L2163.3 736.325 2162.88 743.454 2142.79 743.454 2142.79 742.282C2143.49 740.573 2144.43 738.823 2145.62 737.033 2146.81 735.243 2148.49 733.135 2150.68 730.71 2152.56 728.626 2153.92 727.048 2154.75 725.973 2155.66 724.801 2156.34 723.788 2156.79 722.934 2157.24 722.079 2157.56 721.274 2157.76 720.517 2157.95 719.76 2158.05 718.999 2158.05 718.234 2158.05 717.013 2157.85 715.935 2157.46 714.999 2157.07 714.063 2156.47 713.327 2155.67 712.79 2154.86 712.253 2153.85 711.984 2152.63 711.984 2149.58 711.984 2147.53 713.677 2146.48 717.062L2143.52 717.062 2143.52 712.375C2145.49 711.447 2147.33 710.776 2149.05 710.361 2150.77 709.945 2152.31 709.738 2153.68 709.738Z" fill-rule="evenodd"/><text fill="#000000" fill-opacity="0" font-family="Arial,Arial_MSFontService,sans-serif" font-size="44.6289" x="2142.79" y="748.788">2g</text><path d="M2124.03 693.729 2209.03 693.729 2209.03 696.729 2124.03 696.729Z" fill-rule="evenodd"/><path d="M2236.56 679.74 2240.03 679.74 2240.03 693.802 2253.33 693.802 2253.33 697.05 2240.03 697.05 2240.03 711.112 2236.56 711.112 2236.56 697.05 2223.26 697.05 2223.26 693.802 2236.56 693.802Z" fill-rule="evenodd"/><text fill="#000000" fill-opacity="0" font-family="Arial,Arial_MSFontService,sans-serif" font-size="31.3721" x="2223.26" y="707.191">+</text><path d="M2282.19 687.919C2280.1 687.919 2278.52 688.753 2277.43 690.421 2276.34 692.089 2275.79 694.486 2275.79 697.611 2275.79 700.736 2276.24 703.112 2277.13 704.74 2278.03 706.368 2279.39 707.181 2281.21 707.181 2281.93 707.181 2282.52 707.12 2282.99 706.998 2283.47 706.876 2283.93 706.681 2284.39 706.412 2284.84 706.144 2285.3 705.773 2285.78 705.302 2286.25 704.83 2286.59 704.398 2286.81 704.008 2287.03 703.617 2287.2 703.169 2287.31 702.665 2287.43 702.16 2287.49 701.509 2287.49 700.712L2287.49 695.243C2287.49 693.973 2287.43 692.956 2287.31 692.191 2287.2 691.426 2287.01 690.783 2286.74 690.262 2286.47 689.742 2286.11 689.302 2285.65 688.944 2285.2 688.586 2284.7 688.326 2284.15 688.163 2283.61 688 2282.95 687.919 2282.19 687.919ZM2290.24 674.784 2291.68 674.784 2291.68 703.055C2291.68 704.325 2291.71 705.232 2291.76 705.778 2291.81 706.323 2291.91 706.758 2292.08 707.084 2292.24 707.409 2292.49 707.674 2292.84 707.877 2293.19 708.081 2293.81 708.272 2294.69 708.451L2294.69 709.72 2288.93 709.965 2287.46 709.965 2287.75 705.961 2287.39 705.863C2286.36 706.954 2285.47 707.771 2284.71 708.317 2283.96 708.862 2283.15 709.297 2282.3 709.623 2281.44 709.948 2280.53 710.111 2279.55 710.111 2276.88 710.111 2274.82 709.098 2273.37 707.072 2271.93 705.045 2271.2 702.12 2271.2 698.295 2271.2 695.625 2271.67 693.359 2272.62 691.495 2273.56 689.632 2274.83 688.244 2276.44 687.333 2278.04 686.421 2279.84 685.966 2281.85 685.966 2282.92 685.966 2283.9 686.051 2284.78 686.222 2285.65 686.393 2286.56 686.674 2287.49 687.064L2287.49 683.182C2287.49 681.62 2287.47 680.529 2287.45 679.911 2287.42 679.292 2287.36 678.768 2287.25 678.336 2287.15 677.905 2287 677.567 2286.81 677.323 2286.63 677.079 2286.37 676.884 2286.06 676.737 2285.74 676.591 2285.17 676.444 2284.34 676.298L2284.34 675.028Z" fill-rule="evenodd"/><text fill="#000000" fill-opacity="0" font-family="Arial,Arial_MSFontService,sans-serif" font-size="35.3271" x="2271.2" y="705.695">d</text><path d="M2421.64 631.692C2428.33 637.421 2433.64 645.966 2437.57 657.326 2441.5 668.687 2443.46 681.366 2443.46 695.364 2443.46 709.149 2441.5 721.808 2437.57 733.34 2433.64 744.871 2428.33 753.485 2421.64 759.182L2420.49 757.375C2426.27 751.5 2430.72 742.995 2433.85 731.863 2436.97 720.73 2438.53 708.572 2438.53 695.388 2438.53 681.895 2436.96 669.68 2433.82 658.742 2430.68 647.805 2426.24 639.398 2420.49 633.523ZM2331.05 631.692 2332.2 633.523C2326.43 639.398 2321.99 647.805 2318.85 658.742 2315.72 669.68 2314.15 681.895 2314.15 695.388 2314.15 708.572 2315.72 720.73 2318.84 731.863 2321.97 742.995 2326.42 751.5 2332.2 757.375L2331.05 759.182C2324.36 753.485 2319.05 744.871 2315.12 733.34 2311.19 721.808 2309.22 709.149 2309.22 695.364 2309.22 681.366 2311.19 668.687 2315.12 657.326 2319.05 645.966 2324.36 637.421 2331.05 631.692Z" fill-rule="evenodd"/><path d="M2346.71 649.738C2344.99 649.738 2343.61 650.678 2342.59 652.558 2341.56 654.438 2341.05 656.94 2341.05 660.065 2341.05 666.071 2342.54 669.074 2345.52 669.074 2348.69 669.074 2350.97 665.973 2352.35 659.772 2351.91 656.11 2351.27 653.522 2350.41 652.009 2349.56 650.495 2348.32 649.738 2346.71 649.738ZM2346.52 647.809C2348.57 647.809 2350.18 648.298 2351.34 649.274 2352.5 650.251 2353.51 651.886 2354.35 654.181L2354.72 654.181 2356.43 648.224 2360.43 648.224 2360.43 649.421C2359.26 651.227 2357.7 654.572 2355.75 659.455 2356.09 662.743 2356.49 665.217 2356.94 666.877 2357.4 668.537 2358.13 669.367 2359.14 669.367 2359.81 669.367 2360.6 668.993 2361.51 668.244L2362.46 669.684C2360.72 671.198 2358.98 671.955 2357.24 671.955 2354.75 671.955 2353.25 669.676 2352.74 665.119L2352.47 665.119C2350.24 669.676 2347.51 671.955 2344.27 671.955 2341.85 671.955 2339.96 670.954 2338.61 668.952 2337.26 666.95 2336.58 664.094 2336.58 660.383 2336.58 656.558 2337.55 653.506 2339.49 651.227 2341.42 648.949 2343.77 647.809 2346.52 647.809Z" fill-rule="evenodd"/><text fill="#000000" fill-opacity="0" font-family="Arial,Arial_MSFontService,sans-serif" font-size="24.1455" x="2336.58" y="668.937">α</text><path d="M2363.8 638.239 2374.83 638.239 2374.83 639.435C2374.08 639.565 2373.51 639.728 2373.12 639.924 2372.73 640.119 2372.44 640.396 2372.25 640.754 2372.05 641.112 2371.95 641.592 2371.95 642.194 2371.95 642.747 2372.02 643.346 2372.15 643.989 2372.28 644.631 2372.46 645.352 2372.71 646.149L2378.42 666.071 2385.43 646.003C2385.53 645.693 2385.62 645.368 2385.72 645.026 2385.82 644.684 2385.9 644.351 2385.98 644.025 2386.05 643.7 2386.1 643.415 2386.12 643.171 2386.15 642.927 2386.16 642.699 2386.16 642.487 2386.16 641.51 2385.94 640.798 2385.49 640.351 2385.04 639.903 2384.28 639.598 2383.21 639.435L2383.21 638.239 2393.46 638.239 2393.46 639.435C2392.79 639.598 2392.26 639.834 2391.85 640.143 2391.44 640.453 2391.04 640.949 2390.64 641.633 2390.24 642.316 2389.76 643.407 2389.19 644.904L2379.06 671.955 2375.86 671.955 2367.63 644.733C2367.19 643.252 2366.81 642.198 2366.48 641.572 2366.16 640.945 2365.8 640.473 2365.41 640.156 2365.02 639.838 2364.48 639.598 2363.8 639.435Z" fill-rule="evenodd"/><text fill="#000000" fill-opacity="0" font-family="Arial,Arial_MSFontService,sans-serif" font-size="33.7158" x="2363.8" y="667.74">V</text><path d="M2406.38 629.697C2407.63 629.697 2408.7 629.839 2409.59 630.122 2410.47 630.405 2411.19 630.787 2411.75 631.269 2412.3 631.751 2412.7 632.329 2412.95 633.004 2413.2 633.678 2413.32 634.407 2413.32 635.19 2413.32 635.659 2413.29 636.096 2413.22 636.499 2413.15 636.903 2413.04 637.3 2412.88 637.692 2412.71 638.083 2412.5 638.478 2412.24 638.875 2411.97 639.273 2411.64 639.694 2411.24 640.14 2410.94 640.525 2410.55 640.971 2410.07 641.477 2409.59 641.983 2409.06 642.525 2408.49 643.103 2407.91 643.681 2407.32 644.283 2406.69 644.909 2406.06 645.536 2405.45 646.156 2404.86 646.77 2404.27 647.384 2403.73 647.981 2403.24 648.559 2402.74 649.137 2402.34 649.667 2402.03 650.149L2408.71 650.149C2409.28 650.149 2409.73 650.128 2410.07 650.085 2410.4 650.043 2410.68 649.95 2410.91 649.805 2411.13 649.661 2411.32 649.441 2411.48 649.146 2411.63 648.851 2411.81 648.444 2412.02 647.926L2413.7 647.926C2413.64 648.782 2413.58 649.643 2413.53 650.51 2413.47 651.377 2413.42 652.238 2413.36 653.093L2398.05 653.093 2398.05 652.154C2398.34 651.504 2398.68 650.862 2399.06 650.23 2399.45 649.598 2399.88 648.956 2400.37 648.306 2400.85 647.655 2401.4 646.984 2402.01 646.291 2402.62 645.599 2403.3 644.879 2404.05 644.132 2405.18 643 2406.1 642.034 2406.82 641.233 2407.53 640.432 2408.09 639.718 2408.5 639.092 2408.91 638.466 2409.19 637.888 2409.34 637.358 2409.49 636.828 2409.56 636.262 2409.56 635.659 2409.56 635.045 2409.47 634.479 2409.3 633.961 2409.12 633.443 2408.88 633.004 2408.55 632.642 2408.22 632.281 2407.81 631.998 2407.31 631.793 2406.81 631.588 2406.24 631.486 2405.59 631.486 2404.47 631.486 2403.53 631.79 2402.77 632.398 2402.01 633.007 2401.42 633.889 2401 635.045L2398.63 635.045 2398.63 631.522C2400.17 630.884 2401.59 630.42 2402.89 630.131 2404.18 629.842 2405.35 629.697 2406.38 629.697Z" fill-rule="evenodd"/><text fill="#000000" fill-opacity="0" font-family="Arial,Arial_MSFontService,sans-serif" font-size="23.396" x="2398.05" y="650.169">2</text><path d="M2386.04 743.844C2385.21 744.463 2384.59 745.118 2384.17 745.81 2383.76 746.501 2383.55 747.287 2383.55 748.166 2383.55 749.631 2384.13 750.709 2385.3 751.401 2386.46 752.092 2388.24 752.438 2390.63 752.438 2392.1 752.438 2393.35 752.243 2394.4 751.852 2395.45 751.462 2396.25 750.9 2396.81 750.168 2397.36 749.435 2397.64 748.581 2397.64 747.604 2397.64 747.148 2397.58 746.705 2397.47 746.274 2397.35 745.842 2397.14 745.456 2396.82 745.114 2396.5 744.772 2396.05 744.5 2395.46 744.296 2394.88 744.093 2394.11 743.991 2393.17 743.991L2389.53 743.991C2388.21 743.991 2387.05 743.942 2386.04 743.844ZM2390.19 721.554C2388.65 721.554 2387.47 722.067 2386.65 723.092 2385.84 724.118 2385.43 725.599 2385.43 727.536 2385.43 729.57 2385.85 731.141 2386.68 732.248 2387.51 733.354 2388.7 733.908 2390.26 733.908 2391.09 733.908 2391.8 733.749 2392.39 733.432 2392.97 733.114 2393.45 732.679 2393.82 732.126 2394.18 731.572 2394.45 730.933 2394.62 730.209 2394.79 729.485 2394.88 728.724 2394.88 727.926 2394.88 726.494 2394.68 725.298 2394.27 724.338 2393.86 723.377 2393.31 722.673 2392.61 722.226 2391.91 721.778 2391.1 721.554 2390.19 721.554ZM2390.24 719.699C2391.41 719.699 2392.58 719.837 2393.73 720.114L2402.37 720.114 2402.37 722.58 2397.86 722.409 2397.64 722.677C2398.14 723.182 2398.54 723.87 2398.83 724.74 2399.13 725.611 2399.27 726.551 2399.27 727.56 2399.27 730.213 2398.46 732.26 2396.82 733.7 2395.18 735.141 2392.86 735.861 2389.85 735.861 2388.5 735.861 2387.33 735.69 2386.36 735.348 2385.12 736.292 2384.5 737.22 2384.5 738.132 2384.5 738.734 2384.62 739.189 2384.86 739.499 2385.09 739.808 2385.48 740.028 2386.03 740.158 2386.57 740.288 2387.4 740.353 2388.51 740.353L2394.37 740.353C2396.09 740.353 2397.5 740.622 2398.59 741.159 2399.68 741.696 2400.46 742.416 2400.92 743.32 2401.39 744.223 2401.62 745.277 2401.62 746.481 2401.62 748.011 2401.18 749.374 2400.3 750.57 2399.42 751.767 2398.15 752.699 2396.49 753.366 2394.83 754.033 2392.89 754.367 2390.68 754.367 2389.04 754.367 2387.53 754.269 2386.18 754.074 2384.82 753.879 2383.65 753.549 2382.68 753.085 2381.72 752.621 2380.97 752.011 2380.44 751.254 2379.91 750.497 2379.64 749.549 2379.64 748.41 2379.64 747.384 2379.99 746.453 2380.67 745.614 2381.35 744.776 2382.32 744.04 2383.58 743.405 2382.81 743.096 2382.21 742.64 2381.77 742.038 2381.33 741.436 2381.11 740.728 2381.11 739.914 2381.11 738.986 2381.37 738.136 2381.89 737.362 2382.41 736.589 2383.33 735.706 2384.65 734.714 2383.48 734.03 2382.59 733.102 2381.98 731.93 2381.37 730.758 2381.06 729.424 2381.06 727.926 2381.06 726.527 2381.29 725.31 2381.76 724.277 2382.22 723.243 2382.86 722.389 2383.69 721.713 2384.51 721.038 2385.48 720.533 2386.6 720.199 2387.73 719.866 2388.94 719.699 2390.24 719.699ZM2364.14 709.738C2367.17 709.738 2369.46 710.401 2371 711.728 2372.55 713.054 2373.32 714.979 2373.32 717.502 2373.32 718.364 2373.24 719.158 2373.07 719.882 2372.9 720.606 2372.63 721.322 2372.26 722.03 2371.9 722.738 2371.4 723.499 2370.79 724.313 2370.17 725.127 2369.48 725.953 2368.73 726.791 2367.99 727.629 2366.69 729.025 2364.85 730.978 2361.76 734.25 2359.49 737.106 2358.04 739.548L2367.25 739.548C2368.04 739.548 2368.69 739.499 2369.17 739.401 2369.66 739.303 2370.05 739.141 2370.35 738.913 2370.64 738.685 2370.87 738.388 2371.04 738.022 2371.21 737.655 2371.43 737.09 2371.69 736.325L2373.76 736.325 2373.35 743.454 2353.26 743.454 2353.26 742.282C2353.96 740.573 2354.9 738.823 2356.09 737.033 2357.28 735.243 2358.96 733.135 2361.14 730.71 2363.03 728.626 2364.39 727.048 2365.22 725.973 2366.13 724.801 2366.81 723.788 2367.26 722.934 2367.7 722.079 2368.03 721.274 2368.22 720.517 2368.42 719.76 2368.51 718.999 2368.51 718.234 2368.51 717.013 2368.32 715.935 2367.93 714.999 2367.54 714.063 2366.94 713.327 2366.13 712.79 2365.33 712.253 2364.32 711.984 2363.09 711.984 2360.05 711.984 2358 713.677 2356.94 717.062L2353.99 717.062 2353.99 712.375C2355.96 711.447 2357.8 710.776 2359.52 710.361 2361.24 709.945 2362.78 709.738 2364.14 709.738Z" fill-rule="evenodd"/><text fill="#000000" fill-opacity="0" font-family="Arial,Arial_MSFontService,sans-serif" font-size="44.6289" x="2353.26" y="748.788">2g</text><path d="M2334.03 693.729 2419.03 693.729 2419.03 696.729 2334.03 696.729Z" fill-rule="evenodd"/><text font-family="Cambria Math,Cambria Math_MSFontService,sans-serif" font-weight="400" font-size="50" transform="translate(2145.59 449)">h<tspan font-size="37" x="28.0728" y="10">f</tspan><tspan font-size="50" x="57.3374" y="0">=</tspan><tspan font-size="50" x="109.152" y="0">S</tspan><tspan font-size="37" x="134.36" y="10">f</tspan><tspan font-size="50" x="149.623" y="0"> </tspan><tspan font-size="50" x="160.508" y="0">dx</tspan><tspan font-size="50" x="213.217" y="0"> </tspan></text><text fill="#181717" font-family="Cambria Math,Cambria Math_MSFontService,sans-serif" font-weight="400" font-size="46" transform="matrix(0.988778 0.149392 -0.149392 0.988778 1187.77 910)">Fondo de canal. Pendiente, S<tspan font-size="31" x="554.624" y="10.2586">O</tspan></text><path d="M0 0 1160.9 0.000360892" stroke="#404040" stroke-width="3.4375" stroke-miterlimit="8" stroke-dasharray="13.75 10.3125" fill="#F2F2F2" fill-rule="evenodd" transform="matrix(-1 0 0 1 2134.4 1058.5)"/><path d="M0 0 288.578 0.000360892" stroke="#404040" stroke-width="3.4375" stroke-miterlimit="8" stroke-dasharray="13.75 10.3125" fill="#F2F2F2" fill-rule="evenodd" transform="matrix(-1 0 0 1 1025.08 912.5)"/><text font-family="Cambria Math,Cambria Math_MSFontService,sans-serif" font-weight="400" font-size="50" transform="translate(901.982 997)">S<tspan font-size="37" x="25.2084" y="10">0</tspan><tspan font-size="50" x="48.4917" y="0">dx</tspan></text><path d="M1021.15 934.917 1021.15 1027.68 1018.85 1027.68 1018.85 934.917ZM1006.25 939.5 1020 912 1033.75 939.5ZM1033.75 1023.1 1020 1050.6 1006.25 1023.1Z" fill="#3B3838"/><path d="M22.9167-1.14582 917.583-1.14548 917.583 1.14619 22.9167 1.14584ZM27.5 9.16668 0 0 27.5-9.16666ZM913-9.16632 940.5 0.000360892 913 9.16702Z" fill="#3B3838" transform="matrix(-1 0 0 1 1963.5 1157)"/><path d="M1476.44 1123.76C1474.15 1123.76 1472.4 1124.68 1471.21 1126.51 1470.01 1128.35 1469.41 1130.98 1469.41 1134.42 1469.41 1137.86 1469.9 1140.47 1470.88 1142.26 1471.87 1144.05 1473.36 1144.95 1475.37 1144.95 1476.16 1144.95 1476.81 1144.88 1477.33 1144.75 1477.85 1144.61 1478.36 1144.4 1478.86 1144.1 1479.36 1143.81 1479.87 1143.4 1480.39 1142.88 1480.91 1142.36 1481.29 1141.89 1481.53 1141.46 1481.77 1141.03 1481.96 1140.54 1482.08 1139.98 1482.21 1139.43 1482.27 1138.71 1482.27 1137.83L1482.27 1131.82C1482.27 1130.42 1482.21 1129.3 1482.08 1128.46 1481.96 1127.62 1481.75 1126.91 1481.45 1126.34 1481.16 1125.77 1480.76 1125.28 1480.26 1124.89 1479.75 1124.49 1479.2 1124.21 1478.6 1124.03 1478 1123.85 1477.28 1123.76 1476.44 1123.76ZM1492.67 1122.07 1503.19 1122.07 1503.19 1123.38C1501.78 1123.6 1501.07 1124.15 1501.07 1125.05 1501.07 1125.46 1501.17 1125.87 1501.35 1126.28 1501.54 1126.7 1501.83 1127.15 1502.23 1127.65L1505.5 1132.25 1508.99 1127.82C1509.37 1127.33 1509.67 1126.86 1509.91 1126.41 1510.14 1125.95 1510.26 1125.48 1510.26 1125 1510.26 1124.58 1510.1 1124.24 1509.8 1123.97 1509.49 1123.71 1509.02 1123.51 1508.38 1123.38L1508.38 1122.07 1517.16 1122.07 1517.16 1123.38C1516.48 1123.58 1515.78 1123.97 1515.08 1124.54 1514.37 1125.11 1513.51 1126.03 1512.48 1127.31L1506.93 1134.13 1513.05 1142.37C1513.93 1143.55 1514.71 1144.46 1515.41 1145.08 1516.11 1145.71 1516.81 1146.16 1517.51 1146.43L1517.51 1147.74 1506.71 1147.74 1506.71 1146.43C1508.2 1146.25 1508.94 1145.69 1508.94 1144.76 1508.94 1144.39 1508.88 1144.03 1508.75 1143.69 1508.63 1143.35 1508.39 1142.95 1508.05 1142.51L1504.16 1137.08 1500.02 1142.45C1499.72 1142.85 1499.48 1143.21 1499.31 1143.54 1499.14 1143.87 1499.06 1144.24 1499.06 1144.65 1499.06 1145.14 1499.22 1145.54 1499.55 1145.85 1499.88 1146.16 1500.41 1146.35 1501.12 1146.43L1501.12 1147.74 1492.16 1147.74 1492.16 1146.43C1492.75 1146.21 1493.28 1145.94 1493.75 1145.62 1494.23 1145.3 1494.71 1144.88 1495.2 1144.37 1495.7 1143.86 1496.34 1143.11 1497.15 1142.13L1502.74 1135.2 1497.02 1127.36C1496.23 1126.28 1495.6 1125.51 1495.14 1125.02 1494.67 1124.54 1494.24 1124.17 1493.85 1123.92 1493.45 1123.67 1493.06 1123.49 1492.67 1123.38ZM1485.3 1109.31 1486.89 1109.31 1486.89 1140.41C1486.89 1141.81 1486.92 1142.81 1486.97 1143.4 1487.02 1144 1487.14 1144.48 1487.32 1144.84 1487.5 1145.2 1487.78 1145.49 1488.16 1145.71 1488.55 1145.94 1489.23 1146.15 1490.19 1146.35L1490.19 1147.74 1483.85 1148.01 1482.24 1148.01 1482.57 1143.61 1482.16 1143.5C1481.03 1144.7 1480.05 1145.6 1479.22 1146.2 1478.39 1146.8 1477.5 1147.28 1476.56 1147.63 1475.62 1147.99 1474.62 1148.17 1473.54 1148.17 1470.61 1148.17 1468.34 1147.06 1466.75 1144.83 1465.15 1142.6 1464.36 1139.38 1464.36 1135.17 1464.36 1132.24 1464.88 1129.74 1465.91 1127.69 1466.95 1125.64 1468.35 1124.12 1470.12 1123.12 1471.88 1122.11 1473.86 1121.61 1476.07 1121.61 1477.25 1121.61 1478.32 1121.71 1479.29 1121.89 1480.26 1122.08 1481.25 1122.39 1482.27 1122.82L1482.27 1118.55C1482.27 1116.83 1482.26 1115.63 1482.23 1114.95 1482.2 1114.27 1482.13 1113.69 1482.01 1113.22 1481.9 1112.74 1481.74 1112.37 1481.53 1112.1 1481.33 1111.84 1481.05 1111.62 1480.7 1111.46 1480.35 1111.3 1479.72 1111.14 1478.81 1110.98L1478.81 1109.58Z" fill-rule="evenodd"/><text fill="#000000" fill-opacity="0" font-family="Arial,Arial_MSFontService,sans-serif" font-size="38.8599" x="1464.36" y="1143.31">dx</text><path d="M1018.5 1219 1018.5 212.5" stroke="#767171" stroke-width="3.4375" stroke-miterlimit="8" stroke-dasharray="13.75 10.3125 3.4375 10.3125" fill="#F2F2F2" fill-rule="evenodd"/><path d="M1971.02 1217.63 1961.5 213.5" stroke="#767171" stroke-width="3.4375" stroke-miterlimit="8" stroke-dasharray="13.75 10.3125 3.4375 10.3125" fill="#F2F2F2" fill-rule="evenodd"/><path d="M0 0 288.578 0.000360892" stroke="#404040" stroke-width="3.4375" stroke-miterlimit="8" stroke-dasharray="13.75 10.3125" fill="#F2F2F2" fill-rule="evenodd" transform="matrix(-1 0 0 1 1017.08 591.5)"/><path d="M838.194 301.746 839.161 577.846 836.869 577.854 835.902 301.754ZM827.898 306.365 837 288 846.231 306.301ZM847.165 573.235 838.063 591.6 828.832 573.299Z" fill="#3B3838"/><path d="M0 0 288.578 0.000360892" stroke="#404040" stroke-width="3.4375" stroke-miterlimit="8" stroke-dasharray="13.75 10.3125" fill="#F2F2F2" fill-rule="evenodd" transform="matrix(-1 0 0 1 1017.08 287.5)"/><path d="M2112.15 885.75 2112.15 1039.75 2109.85 1039.75 2109.85 885.75ZM2101.83 890.333 2111 872 2120.17 890.333ZM2120.17 1035.17 2111 1053.5 2101.83 1035.17Z" fill="#3B3838"/><path d="M0 0 165 0.000360892" stroke="#404040" stroke-width="3.4375" stroke-miterlimit="8" stroke-dasharray="13.75 10.3125" fill="#F2F2F2" fill-rule="evenodd" transform="matrix(-1 0 0 1 2128.5 873.5)"/><path d="M0 0 165 0.000360892" stroke="#404040" stroke-width="3.4375" stroke-miterlimit="8" stroke-dasharray="13.75 10.3125" fill="#F2F2F2" fill-rule="evenodd" transform="matrix(-1 0 0 1 2126.5 498.5)"/><path d="M1963.56 370.959 1017.5 289.5" stroke="#767171" stroke-width="3.4375" stroke-miterlimit="8" stroke-dasharray="27.5 10.3125 3.4375 10.3125 3.4375 10.3125" fill="#F2F2F2" fill-rule="evenodd"/><path d="M2112.15 382.75 2112.15 480.65 2109.85 480.65 2109.85 382.75ZM2101.83 387.333 2111 369 2120.17 387.333ZM2120.17 476.066 2111 494.4 2101.83 476.067Z" fill="#3B3838"/><path d="M2113.15 300.75 2113.15 355.75 2110.85 355.75 2110.85 300.75ZM2102.83 305.333 2112 287 2121.17 305.333ZM2121.17 351.167 2112 369.5 2102.83 351.167Z" fill="#3B3838"/><path d="M0 0 165 0.000360892" stroke="#404040" stroke-width="3.4375" stroke-miterlimit="8" stroke-dasharray="13.75 10.3125" fill="#F2F2F2" fill-rule="evenodd" transform="matrix(-1 0 0 1 2121.5 289.5)"/><path d="M0 0 165 0.000360892" stroke="#404040" stroke-width="3.4375" stroke-miterlimit="8" stroke-dasharray="13.75 10.3125" fill="#F2F2F2" fill-rule="evenodd" transform="matrix(-1 0 0 1 2121.5 370.5)"/><text font-family="Cambria Math,Cambria Math_MSFontService,sans-serif" font-weight="400" font-size="50" transform="translate(2140.44 343)">h<tspan font-size="37" x="28.0728" y="10">a</tspan><tspan font-size="50" x="64.2124" y="0">=</tspan><tspan font-size="50" x="116.027" y="0">S</tspan><tspan font-size="37" x="141.235" y="10">a</tspan><tspan font-size="50" x="163.373" y="0">dx</tspan><tspan font-size="50" x="216.081" y="0"> </tspan></text><text fill="#181717" font-family="Cambria Math,Cambria Math_MSFontService,sans-serif" font-weight="400" font-size="46" transform="matrix(1 0 0 1 1109.91 213)">Línea de aceleración. Pendiente, S<tspan font-size="31" x="658.854" y="10">a</tspan></text><path d="M1795.5 232.5 1856.74 362.355" stroke="#3B3838" stroke-width="1.375" stroke-miterlimit="8" fill="none" fill-rule="evenodd"/></g></svg>