<svg width="1280" height="720" xmlns="http://www.w3.org/2000/svg" xmlns:xlink="http://www.w3.org/1999/xlink" overflow="hidden"><defs><clipPath id="clip0"><rect x="0" y="0" width="1280" height="720"/></clipPath></defs><g clip-path="url(#clip0)"><rect x="0" y="0" width="1280" height="720" fill="#FFFFFF"/><path d="M274.939 312.227 300.924 312.227 298.936 321.071 296.171 321.071C296.094 319.592 295.974 318.426 295.811 317.571 295.647 316.716 295.417 316.102 295.119 315.727 294.821 315.353 294.461 315.098 294.039 314.964 293.616 314.829 292.983 314.762 292.137 314.762L283.264 314.762 279.836 330.434 285.223 330.434C286.068 330.434 286.769 330.319 287.326 330.088 287.883 329.858 288.402 329.44 288.882 328.835 289.362 328.23 289.958 327.198 290.668 325.738L293.29 325.738 290.495 337.895 287.96 337.895C287.96 335.956 287.898 334.741 287.773 334.251 287.648 333.761 287.408 333.425 287.053 333.243 286.697 333.06 285.992 332.969 284.935 332.969L279.289 332.969 277.013 343.167C276.61 344.973 276.408 346.471 276.408 347.662 276.408 348.257 276.504 348.723 276.696 349.059 276.888 349.395 277.176 349.64 277.56 349.793 277.944 349.947 278.607 350.062 279.548 350.139L279.231 351.551 267.391 351.551 267.708 350.139C268.438 350.024 268.985 349.837 269.35 349.577 269.715 349.318 270.022 348.958 270.272 348.497 270.521 348.036 270.752 347.474 270.963 346.812 271.174 346.149 271.491 344.867 271.914 342.966L276.811 320.783C277.234 318.863 277.445 317.345 277.445 316.231 277.445 315.29 277.224 314.637 276.783 314.272 276.341 313.908 275.621 313.696 274.622 313.639Z" fill-rule="evenodd"/><text fill="#000000" fill-opacity="0" font-family="Arial,Arial_MSFontService,sans-serif" font-size="39.3237" x="267.391" y="346.635">𝐹</text><path d="M305.071 344.166C304.302 344.166 303.542 344.355 302.793 344.733 302.044 345.111 301.338 345.646 300.673 346.339 300.008 347.032 299.402 347.872 298.857 348.858 298.311 349.845 297.856 350.947 297.492 352.165 299.269 352.151 300.799 352.011 302.079 351.745 303.36 351.479 304.41 351.115 305.229 350.654 306.048 350.192 306.65 349.646 307.035 349.016 307.419 348.386 307.612 347.693 307.612 346.937 307.612 346.069 307.395 345.39 306.961 344.901 306.527 344.411 305.897 344.166 305.071 344.166ZM305.974 342.087C307.766 342.087 309.127 342.479 310.058 343.263 310.989 344.047 311.454 345.16 311.454 346.601 311.454 351.668 306.66 354.202 297.072 354.202 297.002 354.566 296.946 354.961 296.904 355.388 296.862 355.815 296.841 356.28 296.841 356.784 296.841 358.31 297.152 359.423 297.775 360.123 298.398 360.823 299.367 361.173 300.683 361.173 301.369 361.173 302.02 361.099 302.636 360.952 303.252 360.805 303.857 360.578 304.452 360.27 305.047 359.962 305.645 359.566 306.247 359.083 306.849 358.601 307.479 358.023 308.137 357.351L309.712 359.052C308.088 360.662 306.468 361.872 304.851 362.684 303.234 363.496 301.495 363.902 299.633 363.902 298.542 363.902 297.572 363.738 296.725 363.409 295.879 363.08 295.165 362.6 294.584 361.97 294.003 361.341 293.562 360.574 293.261 359.671 292.96 358.768 292.81 357.75 292.81 356.616 292.81 355.819 292.88 354.989 293.02 354.128 293.16 353.268 293.377 352.407 293.671 351.546 293.964 350.685 294.328 349.845 294.762 349.026 295.196 348.207 295.707 347.441 296.295 346.727 297.471 345.272 298.888 344.134 300.547 343.315 302.205 342.497 304.015 342.087 305.974 342.087Z" fill-rule="evenodd"/><text fill="#000000" fill-opacity="0" font-family="Arial,Arial_MSFontService,sans-serif" font-size="21.8149" x="292.81" y="361.175">𝑒</text><path d="M337.601 338.76 373.093 338.76 373.093 342.591 337.601 342.591ZM337.601 326.804 373.093 326.804 373.093 330.636 337.601 330.636Z" fill-rule="evenodd"/><text fill="#000000" fill-opacity="0" font-family="Arial,Arial_MSFontService,sans-serif" font-size="15.7871" x="337.601" y="340.618">=</text><path d="M429.668 269.901C427.594 269.901 425.659 270.641 423.863 272.12 422.068 273.598 420.493 275.711 419.139 278.457 417.785 281.204 416.733 284.219 415.984 287.503 415.235 290.787 414.861 293.688 414.861 296.203 414.861 302.138 417.021 305.105 421.343 305.105 424.012 305.105 426.461 303.862 428.689 301.375 430.917 298.887 432.712 295.445 434.076 291.047 435.44 286.649 436.121 282.539 436.121 278.717 436.121 275.855 435.593 273.67 434.537 272.163 433.481 270.655 431.858 269.901 429.668 269.901ZM429.985 267.366C433.692 267.366 436.549 268.442 438.556 270.593 440.563 272.744 441.566 275.855 441.566 279.927 441.566 282.615 441.144 285.621 440.299 288.944 439.454 292.266 438.292 295.2 436.813 297.745 435.334 300.29 433.62 302.34 431.67 303.895 429.721 305.451 427.604 306.527 425.318 307.122 425.76 308.524 426.173 309.681 426.557 310.593 426.941 311.506 427.311 312.245 427.666 312.812 428.021 313.378 428.372 313.801 428.718 314.079 429.063 314.358 429.409 314.545 429.755 314.641 430.1 314.737 430.504 314.785 430.965 314.785 431.694 314.785 432.434 314.574 433.183 314.151 433.932 313.729 434.767 312.999 435.689 311.962L437.187 313.575C435.651 315.246 434.22 316.427 432.895 317.119 431.57 317.81 430.206 318.156 428.804 318.156 427.21 318.156 425.909 317.8 424.9 317.09 423.892 316.379 423.018 315.246 422.279 313.69 421.539 312.135 420.824 310.099 420.133 307.583 416.656 307.391 414.006 306.238 412.181 304.126 410.357 302.013 409.445 299.036 409.445 295.195 409.445 292.314 409.93 289.059 410.899 285.429 411.869 281.799 413.271 278.597 415.106 275.821 416.94 273.046 419.129 270.943 421.674 269.512 424.219 268.082 426.989 267.366 429.985 267.366Z" fill-rule="evenodd"/><text fill="#000000" fill-opacity="0" font-family="Arial,Arial_MSFontService,sans-serif" font-size="50.7896" x="409.445" y="311.807">𝑄</text><path d="M459.477 258.474C460.933 258.474 462.175 258.639 463.204 258.968 464.232 259.297 465.069 259.741 465.713 260.301 466.357 260.861 466.822 261.533 467.109 262.316 467.396 263.1 467.539 263.947 467.539 264.857 467.539 265.403 467.501 265.91 467.424 266.379 467.347 266.848 467.214 267.31 467.025 267.765 466.836 268.22 466.588 268.678 466.28 269.14 465.972 269.602 465.587 270.092 465.125 270.61 464.775 271.058 464.32 271.576 463.76 272.164 463.2 272.751 462.588 273.381 461.923 274.053 461.258 274.725 460.562 275.425 459.834 276.153 459.106 276.881 458.399 277.602 457.713 278.315 457.027 279.029 456.397 279.722 455.824 280.394 455.25 281.066 454.781 281.682 454.417 282.242L462.185 282.242C462.843 282.242 463.368 282.217 463.76 282.168 464.152 282.119 464.477 282.011 464.736 281.843 464.995 281.675 465.216 281.419 465.398 281.076 465.58 280.734 465.79 280.261 466.028 279.659L467.98 279.659C467.91 280.653 467.844 281.654 467.781 282.662 467.718 283.669 467.651 284.67 467.581 285.664L449.798 285.664 449.798 284.572C450.134 283.816 450.526 283.071 450.973 282.336 451.421 281.601 451.925 280.856 452.485 280.1 453.045 279.344 453.682 278.564 454.396 277.759 455.11 276.954 455.901 276.118 456.768 275.25 458.084 273.934 459.155 272.811 459.981 271.88 460.807 270.949 461.457 270.12 461.933 269.392 462.409 268.664 462.735 267.992 462.91 267.376 463.085 266.761 463.172 266.103 463.172 265.403 463.172 264.689 463.071 264.031 462.868 263.429 462.665 262.827 462.374 262.316 461.996 261.897 461.618 261.477 461.139 261.148 460.558 260.91 459.977 260.672 459.309 260.553 458.553 260.553 457.251 260.553 456.159 260.906 455.278 261.613 454.396 262.32 453.71 263.345 453.22 264.689L450.47 264.689 450.47 260.595C452.261 259.853 453.909 259.314 455.414 258.978 456.919 258.642 458.273 258.474 459.477 258.474Z" fill-rule="evenodd"/><text fill="#000000" fill-opacity="0" font-family="Arial,Arial_MSFontService,sans-serif" font-size="27.1899" x="449.798" y="282.265">2</text><path d="M417.548 357.091 407.292 375.241 418.557 375.241 418.067 365.964C418.009 364.697 417.961 363.112 417.923 361.211 417.884 359.31 417.865 357.936 417.865 357.091ZM417.721 351.013 422.071 351.013 424.145 383.134C424.241 384.652 424.414 385.838 424.664 386.692 424.914 387.547 425.255 388.181 425.687 388.594 426.119 389.007 426.748 389.271 427.574 389.386L427.257 390.797 415.272 390.797 415.589 389.386C416.722 389.29 417.567 388.848 418.124 388.061 418.681 387.273 418.96 385.89 418.96 383.912 418.96 383.163 418.931 382.347 418.873 381.463L418.672 377.747 405.996 377.747 404.412 380.57C403.663 381.896 403.115 383.034 402.769 383.984 402.424 384.935 402.251 385.775 402.251 386.505 402.251 388.118 403.221 389.079 405.161 389.386L404.844 390.797 393.061 390.797 393.378 389.386C393.973 389.309 394.535 389.074 395.063 388.68 395.591 388.286 396.153 387.691 396.748 386.894 397.344 386.097 398.179 384.776 399.255 382.933Z" fill-rule="evenodd"/><text fill="#000000" fill-opacity="0" font-family="Arial,Arial_MSFontService,sans-serif" font-size="39.7847" x="393.061" y="385.824">𝐴</text><path d="M440.68 381.544 441.709 381.544 438.602 395.527C438.406 396.353 438.269 397.011 438.192 397.501 438.115 397.991 438.077 398.432 438.077 398.823 438.077 399.355 438.185 399.74 438.402 399.978 438.619 400.216 438.945 400.335 439.379 400.335 439.63 400.335 439.882 400.286 440.134 400.188 440.386 400.09 440.656 399.936 440.943 399.726 441.23 399.516 441.545 399.247 441.888 398.918 442.23 398.589 442.612 398.194 443.032 397.732L444.46 399.117C443.732 399.859 443.07 400.486 442.475 400.997 441.881 401.507 441.317 401.924 440.785 402.246 440.253 402.568 439.732 402.799 439.221 402.939 438.71 403.079 438.168 403.149 437.594 403.149 437.062 403.149 436.583 403.051 436.156 402.855 435.729 402.659 435.361 402.389 435.053 402.046 434.745 401.703 434.507 401.294 434.339 400.818 434.171 400.342 434.087 399.817 434.087 399.243 434.087 398.781 434.143 398.208 434.255 397.522 434.367 396.836 434.511 396.09 434.686 395.286 434.861 394.481 435.053 393.637 435.263 392.756 435.473 391.874 435.68 390.999 435.883 390.131 436.086 389.263 436.268 388.427 436.429 387.622 436.59 386.817 436.705 386.086 436.775 385.428 436.803 385.316 436.817 385.208 436.817 385.103 436.817 384.998 436.817 384.903 436.817 384.819 436.789 384.273 436.597 383.874 436.24 383.622 435.883 383.37 435.249 383.23 434.339 383.202L434.591 381.775ZM439.462 373.082 443.662 373.082 442.633 377.596 438.476 377.596Z" fill-rule="evenodd"/><text fill="#000000" fill-opacity="0" font-family="Arial,Arial_MSFontService,sans-serif" font-size="30.0664" x="434.087" y="399.39">𝑖</text><path d="M471.534 365.043C469.575 365.043 467.818 365.835 466.262 367.419 464.706 369.004 463.482 371.14 462.589 373.829 461.696 376.518 461.249 379.197 461.249 381.867 461.249 383.864 461.537 385.357 462.114 386.346 462.69 387.336 463.592 387.83 464.822 387.83 465.801 387.83 466.776 387.494 467.746 386.822 468.716 386.15 469.753 385.084 470.857 383.624 471.961 382.164 472.821 380.772 473.435 379.447 474.05 378.122 474.573 376.47 475.005 374.492 475.438 372.514 475.654 370.795 475.654 369.335 475.654 367.837 475.337 366.747 474.703 366.065 474.069 365.383 473.013 365.043 471.534 365.043ZM471.073 362.767C472.283 362.767 473.426 362.911 474.501 363.199 475.577 363.487 476.662 363.977 477.757 364.668L480.407 362.767 482.251 363.228 479.284 376.652C479.072 377.593 478.592 379.965 477.843 383.768 477.056 387.801 476.417 390.653 475.927 392.324 475.438 393.995 474.828 395.517 474.098 396.89 473.368 398.264 472.427 399.459 471.275 400.477 470.122 401.495 468.725 402.282 467.083 402.839 465.441 403.396 463.496 403.675 461.249 403.675 453.99 403.675 450.36 401.562 450.36 397.337 450.36 396.261 450.686 395.282 451.339 394.398 451.992 393.515 453.039 392.584 454.479 391.604L456.554 393.275C456.189 393.717 455.881 394.154 455.632 394.586 455.382 395.018 455.204 395.436 455.099 395.839 454.993 396.242 454.94 396.722 454.94 397.279 454.94 398.72 455.459 399.771 456.496 400.434 457.533 401.096 459.098 401.428 461.192 401.428 463.554 401.428 465.451 400.895 466.881 399.829 468.312 398.763 469.537 397.049 470.555 394.687 471.572 392.324 472.562 388.752 473.522 383.97L473.119 383.883C471.256 386.438 469.527 388.301 467.933 389.472 466.339 390.644 464.62 391.23 462.776 391.23 460.683 391.23 459.055 390.442 457.893 388.867 456.731 387.292 456.15 385.045 456.15 382.126 456.15 378.842 456.794 375.687 458.08 372.662 459.367 369.638 461.153 367.232 463.439 365.446 465.724 363.66 468.269 362.767 471.073 362.767Z" fill-rule="evenodd"/><text fill="#000000" fill-opacity="0" font-family="Arial,Arial_MSFontService,sans-serif" font-size="40.9082" x="450.36" y="398.561">𝑔</text><path d="M393.089 332.551 486.089 332.551 486.089 336.551 393.089 336.551Z" fill-rule="evenodd"/><path d="M519.362 316.174 523.453 316.174 523.453 332.768 539.154 332.768 539.154 336.599 523.453 336.599 523.453 353.193 519.362 353.193 519.362 336.599 503.661 336.599 503.661 332.768 519.362 332.768Z" fill-rule="evenodd"/><text fill="#000000" fill-opacity="0" font-family="Arial,Arial_MSFontService,sans-serif" font-size="37.019" x="503.661" y="348.565">+</text><path d="M565.749 323.549C566.536 323.549 567.209 323.654 567.766 323.866 568.15 324.019 568.534 324.274 568.918 324.629 569.302 324.984 569.643 325.479 569.941 326.113 570.238 326.747 570.498 327.457 570.719 328.245 570.939 329.032 571.184 330.165 571.453 331.644 571.914 334.122 572.361 336.729 572.793 339.466 573.225 342.202 573.595 344.742 573.902 347.085 575.765 344.397 577.344 341.765 578.641 339.192 579.937 336.618 580.869 334.381 581.435 332.479 582.002 330.578 582.285 329.032 582.285 327.841 582.285 326.939 582.093 326.324 581.709 325.998 581.325 325.671 580.672 325.479 579.75 325.421L580.038 324.01 587.615 324.01 588.393 325.45C586.933 329.445 584.955 333.718 582.458 338.27 580 342.726 577.186 347.162 574.017 351.58 570.983 355.786 568.457 358.83 566.44 360.712 565.038 361.999 563.684 362.921 562.378 363.478 561.341 363.9 560.237 364.111 559.065 364.111 558.662 364.111 558.196 364.078 557.668 364.01 557.14 363.943 556.732 363.852 556.444 363.737L557.683 358.148 559.958 358.148C559.958 359.377 560.381 359.992 561.226 359.992 562.34 359.992 563.636 359.295 565.115 357.903 566.594 356.511 568.332 354.412 570.33 351.608 569.773 348.247 569.014 344.195 568.054 339.451 567.036 334.381 566.364 331.241 566.037 330.031 565.634 328.571 565.211 327.64 564.77 327.236 564.501 326.987 564.165 326.862 563.761 326.862 563.147 326.862 562.57 327.111 562.033 327.611 561.495 328.11 560.832 328.974 560.045 330.204L558.172 328.965C559.498 326.987 560.736 325.589 561.889 324.773 563.041 323.957 564.328 323.549 565.749 323.549Z" fill-rule="evenodd"/><text fill="#000000" fill-opacity="0" font-family="Arial,Arial_MSFontService,sans-serif" font-size="40.5625" x="556.444" y="359.041">𝑦</text><path d="M563.216 314.013 588.596 314.013 588.596 317.067 563.216 317.067Z" fill-rule="evenodd"/><text fill="#000000" fill-opacity="0" font-family="Arial,Arial_MSFontService,sans-serif" font-size="3.05371" x="563.216" y="316.685">ത</text><path d="M597.38 342.297 598.409 342.297 595.302 356.28C595.106 357.106 594.969 357.764 594.892 358.254 594.815 358.744 594.777 359.185 594.777 359.577 594.777 360.109 594.885 360.494 595.102 360.732 595.319 360.97 595.645 361.089 596.079 361.089 596.331 361.089 596.582 361.04 596.834 360.942 597.086 360.844 597.356 360.69 597.643 360.48 597.93 360.27 598.245 360 598.588 359.671 598.931 359.342 599.312 358.947 599.732 358.485L601.16 359.871C600.432 360.613 599.77 361.239 599.175 361.75 598.581 362.261 598.017 362.677 597.485 362.999 596.953 363.321 596.432 363.552 595.921 363.692 595.41 363.832 594.868 363.902 594.294 363.902 593.762 363.902 593.283 363.804 592.856 363.608 592.429 363.412 592.061 363.143 591.753 362.8 591.445 362.457 591.207 362.047 591.039 361.571 590.872 361.096 590.788 360.571 590.788 359.997 590.788 359.535 590.844 358.961 590.956 358.275 591.068 357.589 591.211 356.844 591.386 356.039 591.561 355.234 591.753 354.391 591.963 353.509 592.173 352.627 592.38 351.752 592.583 350.884 592.786 350.017 592.968 349.18 593.129 348.375 593.29 347.571 593.405 346.839 593.475 346.181 593.503 346.069 593.517 345.961 593.517 345.856 593.517 345.751 593.517 345.656 593.517 345.572 593.489 345.027 593.297 344.628 592.94 344.376 592.583 344.124 591.949 343.984 591.039 343.956L591.291 342.528ZM596.163 333.836 600.362 333.836 599.333 338.35 595.176 338.35Z" fill-rule="evenodd"/><text fill="#000000" fill-opacity="0" font-family="Arial,Arial_MSFontService,sans-serif" font-size="30.0664" x="590.788" y="360.144">𝑖</text><path d="M630.308 317.845 620.052 335.994 631.317 335.994 630.827 326.718C630.769 325.45 630.721 323.866 630.683 321.964 630.644 320.063 630.625 318.69 630.625 317.845ZM630.481 311.766 634.831 311.766 636.905 343.888C637.001 345.405 637.174 346.591 637.424 347.446 637.674 348.3 638.015 348.934 638.447 349.347 638.879 349.76 639.508 350.024 640.334 350.139L640.017 351.551 628.032 351.551 628.349 350.139C629.482 350.043 630.328 349.601 630.884 348.814 631.441 348.026 631.72 346.644 631.72 344.665 631.72 343.916 631.691 343.1 631.633 342.217L631.432 338.5 618.756 338.5 617.172 341.324C616.423 342.649 615.875 343.787 615.529 344.738 615.184 345.688 615.011 346.528 615.011 347.258 615.011 348.872 615.981 349.832 617.921 350.139L617.604 351.551 605.821 351.551 606.138 350.139C606.733 350.062 607.295 349.827 607.823 349.433 608.351 349.04 608.913 348.444 609.508 347.647 610.104 346.85 610.939 345.53 612.015 343.686Z" fill-rule="evenodd"/><text fill="#000000" fill-opacity="0" font-family="Arial,Arial_MSFontService,sans-serif" font-size="39.7847" x="605.821" y="346.578">𝐴</text><path d="M653.44 342.297 654.469 342.297 651.362 356.28C651.166 357.106 651.029 357.764 650.952 358.254 650.875 358.744 650.837 359.185 650.837 359.577 650.837 360.109 650.945 360.494 651.162 360.732 651.379 360.97 651.705 361.089 652.139 361.089 652.391 361.089 652.642 361.04 652.894 360.942 653.146 360.844 653.416 360.69 653.703 360.48 653.99 360.27 654.305 360 654.648 359.671 654.991 359.342 655.372 358.947 655.792 358.485L657.22 359.871C656.492 360.613 655.83 361.239 655.235 361.75 654.641 362.261 654.077 362.677 653.545 362.999 653.013 363.321 652.492 363.552 651.981 363.692 651.47 363.832 650.928 363.902 650.354 363.902 649.822 363.902 649.343 363.804 648.916 363.608 648.489 363.412 648.121 363.143 647.813 362.8 647.505 362.457 647.267 362.047 647.099 361.571 646.932 361.096 646.848 360.571 646.848 359.997 646.848 359.535 646.904 358.961 647.016 358.275 647.128 357.589 647.271 356.844 647.446 356.039 647.621 355.234 647.813 354.391 648.023 353.509 648.233 352.627 648.44 351.752 648.643 350.884 648.846 350.017 649.028 349.18 649.189 348.375 649.35 347.571 649.465 346.839 649.535 346.181 649.563 346.069 649.577 345.961 649.577 345.856 649.577 345.751 649.577 345.656 649.577 345.572 649.549 345.027 649.357 344.628 649 344.376 648.643 344.124 648.009 343.984 647.099 343.956L647.351 342.528ZM652.223 333.836 656.422 333.836 655.393 338.35 651.236 338.35Z" fill-rule="evenodd"/><text fill="#000000" fill-opacity="0" font-family="Arial,Arial_MSFontService,sans-serif" font-size="30.0664" x="646.848" y="360.144">𝑖</text></g></svg>