<svg width="1356" height="1406" xmlns="http://www.w3.org/2000/svg" xmlns:xlink="http://www.w3.org/1999/xlink" xml:space="preserve" overflow="hidden"><defs><clipPath id="clip0"><rect x="1000" y="418" width="1356" height="1406"/></clipPath></defs><g clip-path="url(#clip0)" transform="translate(-1000 -418)"><path d="M1155.98 502.701C1149.87 502.701 1144.2 505.118 1138.97 509.951 1133.74 514.784 1129.48 522.033 1126.2 531.699 1122.91 541.365 1121.26 550.933 1121.26 560.401 1121.26 566.319 1121.91 570.939 1123.19 574.259 1124.47 577.58 1126.16 579.865 1128.27 581.114 1130.37 582.364 1133 582.988 1136.16 582.988 1143.26 582.988 1149.33 580.144 1154.36 574.457 1159.39 568.769 1163.68 560.221 1167.23 548.812 1170.78 537.404 1172.55 528.412 1172.55 521.836 1172.55 515.129 1171.19 510.263 1168.46 507.238 1165.73 504.214 1161.57 502.701 1155.98 502.701ZM1287.51 461.67C1280.41 461.67 1273.79 464.202 1267.64 469.265 1261.49 474.328 1256.1 481.561 1251.46 490.964 1246.83 500.367 1243.23 510.691 1240.66 521.935 1238.1 533.179 1236.82 543.108 1236.82 551.722 1236.82 572.04 1244.21 582.199 1259.01 582.199 1268.15 582.199 1276.53 577.942 1284.16 569.426 1291.79 560.911 1297.93 549.124 1302.6 534.067 1307.27 519.009 1309.61 504.937 1309.61 491.852 1309.61 482.054 1307.8 474.575 1304.18 469.413 1300.56 464.251 1295.01 461.67 1287.51 461.67ZM1288.6 452.99C1301.29 452.99 1311.07 456.673 1317.94 464.037 1324.81 471.402 1328.25 482.054 1328.25 495.994 1328.25 505.2 1326.8 515.491 1323.91 526.866 1321.01 538.242 1317.04 548.286 1311.97 556.999 1306.91 565.711 1301.04 572.731 1294.37 578.057 1287.69 583.383 1280.44 587.065 1272.62 589.104 1274.13 593.904 1275.55 597.866 1276.86 600.989 1278.18 604.112 1279.44 606.644 1280.66 608.584 1281.87 610.523 1283.07 611.97 1284.26 612.923 1285.44 613.877 1286.62 614.518 1287.81 614.847 1288.99 615.176 1290.37 615.34 1291.95 615.34 1294.45 615.34 1296.98 614.617 1299.55 613.17 1302.11 611.723 1304.97 609.225 1308.13 605.674L1313.26 611.197C1308 616.918 1303.1 620.962 1298.56 623.329 1294.02 625.696 1289.35 626.88 1284.55 626.88 1279.1 626.88 1274.64 625.664 1271.19 623.231 1267.74 620.798 1264.74 616.918 1262.21 611.592 1259.68 606.266 1257.23 599.296 1254.87 590.682 1242.96 590.024 1233.89 586.079 1227.64 578.846 1221.4 571.613 1218.27 561.421 1218.27 548.27 1218.27 538.406 1219.93 527.261 1223.25 514.833 1226.57 502.405 1231.37 491.441 1237.65 481.939 1243.93 472.437 1251.43 465.237 1260.14 460.339 1268.85 455.44 1278.34 452.99 1288.6 452.99ZM1161.11 447.467C1172.09 447.467 1180.31 451.199 1185.77 458.662 1191.23 466.125 1193.96 477.418 1193.96 492.542 1193.96 498.526 1193.43 505.644 1192.38 513.896 1191.33 522.148 1189.55 530.746 1187.05 539.689 1184.55 548.631 1181.66 556.226 1178.37 562.473 1175.09 568.72 1171.44 573.881 1167.42 577.958 1163.41 582.035 1158.79 585.191 1153.57 587.427 1148.34 589.663 1142.44 590.78 1135.86 590.78 1126 590.78 1118.19 587.821 1112.44 581.903 1106.68 575.985 1103.81 567.306 1103.81 555.864 1103.81 545.541 1105.98 535.612 1110.32 526.077 1114.66 516.543 1120.61 508.964 1128.17 503.342 1135.73 497.72 1144.02 494.909 1153.02 494.909 1157.76 494.909 1161.9 495.452 1165.45 496.537 1169 497.622 1172.95 499.742 1177.29 502.899L1177.49 500.433C1177.68 497.276 1177.78 494.548 1177.78 492.246 1177.78 479.818 1176.14 470.794 1172.85 465.172 1169.56 459.549 1164.43 456.738 1157.46 456.738 1152.66 456.738 1148.21 457.873 1144.1 460.141 1139.99 462.41 1135.96 465.911 1132.02 470.646L1124.91 470.646 1124.91 462.459C1131.16 458.054 1136.01 454.914 1139.46 453.04 1142.91 451.166 1146.37 449.768 1149.82 448.848 1153.27 447.927 1157.04 447.467 1161.11 447.467Z" fill-rule="evenodd"/><text fill="#000000" fill-opacity="0" font-family="Arial,Arial_MSFontService,sans-serif" font-size="179.413" x="1103.81" y="604.453">𝜕𝑄</text><path d="M1170.49 790.237C1164.37 790.237 1158.7 792.653 1153.48 797.486 1148.25 802.319 1143.99 809.569 1140.7 819.235 1137.41 828.901 1135.77 838.468 1135.77 847.937 1135.77 853.855 1136.41 858.474 1137.69 861.795 1138.98 865.115 1140.67 867.4 1142.77 868.65 1144.88 869.899 1147.51 870.524 1150.66 870.524 1157.77 870.524 1163.83 867.68 1168.86 861.992 1173.89 856.304 1178.18 847.756 1181.73 836.348 1185.28 824.939 1187.06 815.947 1187.06 809.371 1187.06 802.664 1185.7 797.799 1182.97 794.774 1180.24 791.749 1176.08 790.237 1170.49 790.237ZM1258.42 780.768C1260.46 780.768 1262.25 780.998 1263.8 781.458 1265.34 781.919 1266.71 782.626 1267.89 783.579 1269.08 784.532 1270.13 785.765 1271.05 787.278 1271.97 788.79 1272.86 790.845 1273.71 793.442 1274.57 796.04 1275.37 799.262 1276.13 803.108 1276.88 806.955 1277.56 810.95 1278.15 815.092L1279.14 815.092C1285.45 806.215 1290.23 799.722 1293.49 795.612 1296.74 791.503 1299.49 788.445 1301.72 786.439 1303.96 784.434 1306.11 783.02 1308.18 782.198 1310.25 781.376 1313 780.965 1316.42 780.965 1319.51 780.965 1322.04 781.36 1324.01 782.149L1320.07 800.001 1313.16 800.001C1312.77 797.24 1311.62 795.859 1309.71 795.859 1309.12 795.859 1308.5 795.957 1307.84 796.155 1307.18 796.352 1306.38 796.779 1305.42 797.437 1304.47 798.094 1303.07 799.377 1301.23 801.284 1299.39 803.19 1297.32 805.525 1295.02 808.286 1292.71 811.048 1290.35 813.941 1287.91 816.966L1281.21 825.35C1282.39 831.662 1283.51 837.12 1284.56 841.723 1285.61 846.326 1286.55 850.156 1287.37 853.214 1288.19 856.271 1288.92 858.688 1289.54 860.463 1290.17 862.239 1290.84 863.57 1291.56 864.458 1292.29 865.346 1293.03 865.97 1293.78 866.332 1294.54 866.694 1295.41 866.874 1296.4 866.874 1298.17 866.874 1299.9 866.184 1301.57 864.803 1303.25 863.422 1305.67 860.299 1308.82 855.433L1315.24 859.674C1310.63 866.513 1306.47 871.329 1302.76 874.124 1299.04 876.919 1294.62 878.316 1289.49 878.316 1286.66 878.316 1284.26 877.806 1282.29 876.787 1280.32 875.768 1278.61 874.14 1277.16 871.905 1275.72 869.669 1274.43 866.184 1273.32 861.45 1271.28 853.033 1270.03 846.589 1269.57 842.118L1268.58 842.118C1261.61 851.915 1256.43 858.951 1253.05 863.225 1249.66 867.499 1246.87 870.655 1244.66 872.694 1242.46 874.732 1240.32 876.162 1238.25 876.984 1236.18 877.806 1233.44 878.217 1230.02 878.217 1226.93 878.217 1224.39 877.823 1222.42 877.034L1226.37 859.181 1233.27 859.181C1233.67 861.943 1234.82 863.324 1236.72 863.324 1237.64 863.324 1238.61 863.077 1239.63 862.584 1240.65 862.091 1242.12 860.907 1244.02 859.033 1245.93 857.159 1248.56 854.216 1251.91 850.205 1255.27 846.194 1260.13 840.178 1266.51 832.156 1265.52 826.961 1264.51 821.964 1263.45 817.163 1262.4 812.363 1261.32 807.892 1260.2 803.749 1259.08 799.607 1258.16 796.894 1257.44 795.612 1256.71 794.33 1255.94 793.442 1255.12 792.949 1254.3 792.456 1253.26 792.209 1252.01 792.209 1250.63 792.209 1249.38 792.522 1248.26 793.146 1247.15 793.771 1245.93 794.856 1244.61 796.401 1243.3 797.947 1241.56 800.363 1239.39 803.651L1232.98 799.41C1237.12 793.163 1241.1 788.494 1244.91 785.404 1248.72 782.313 1253.23 780.768 1258.42 780.768ZM1175.62 735.002C1186.6 735.002 1194.82 738.734 1200.28 746.197 1205.73 753.66 1208.46 764.954 1208.46 780.078 1208.46 786.061 1207.94 793.179 1206.89 801.432 1205.83 809.684 1204.06 818.281 1201.56 827.224 1199.06 836.167 1196.17 843.761 1192.88 850.008 1189.59 856.255 1185.94 861.417 1181.93 865.494 1177.92 869.57 1173.3 872.727 1168.07 874.962 1162.85 877.198 1156.94 878.316 1150.37 878.316 1140.51 878.316 1132.7 875.357 1126.94 869.439 1121.19 863.521 1118.31 854.841 1118.31 843.4 1118.31 833.076 1120.48 823.147 1124.82 813.613 1129.16 804.078 1135.11 796.5 1142.68 790.878 1150.24 785.256 1158.52 782.445 1167.53 782.445 1172.26 782.445 1176.41 782.987 1179.96 784.072 1183.51 785.157 1187.45 787.278 1191.79 790.434L1191.99 787.968C1192.19 784.812 1192.29 782.083 1192.29 779.782 1192.29 767.354 1190.64 758.329 1187.36 752.707 1184.07 747.085 1178.94 744.274 1171.97 744.274 1167.17 744.274 1162.71 745.408 1158.6 747.677 1154.49 749.945 1150.47 753.447 1146.52 758.181L1139.42 758.181 1139.42 749.995C1145.67 745.589 1150.52 742.449 1153.97 740.575 1157.42 738.701 1160.87 737.304 1164.32 736.383 1167.78 735.463 1171.54 735.002 1175.62 735.002Z" fill-rule="evenodd"/><text fill="#000000" fill-opacity="0" font-family="Arial,Arial_MSFontService,sans-serif" font-size="143.313" x="1118.31" y="860.402">𝜕𝑥</text><path d="M1093.21 677.831 1348.21 677.831 1348.21 690.831 1093.21 690.831Z" fill-rule="evenodd"/><path d="M1460.79 620.706 1474.8 620.706 1474.8 677.519 1528.55 677.519 1528.55 690.637 1474.8 690.637 1474.8 747.449 1460.79 747.449 1460.79 690.637 1407.04 690.637 1407.04 677.519 1460.79 677.519Z" fill-rule="evenodd"/><text fill="#000000" fill-opacity="0" font-family="Arial,Arial_MSFontService,sans-serif" font-size="126.743" x="1407.04" y="731.606">+</text><path d="M1650.87 502.701C1644.75 502.701 1639.08 505.118 1633.85 509.951 1628.63 514.784 1624.37 522.033 1621.08 531.699 1617.79 541.365 1616.15 550.933 1616.15 560.401 1616.15 566.319 1616.79 570.939 1618.07 574.259 1619.36 577.58 1621.05 579.865 1623.15 581.114 1625.26 582.364 1627.89 582.988 1631.04 582.988 1638.15 582.988 1644.21 580.144 1649.24 574.457 1654.27 568.769 1658.56 560.221 1662.11 548.812 1665.66 537.404 1667.44 528.412 1667.44 521.836 1667.44 515.129 1666.07 510.263 1663.35 507.238 1660.62 504.214 1656.46 502.701 1650.87 502.701ZM1656 447.467C1666.98 447.467 1675.2 451.199 1680.66 458.662 1686.11 466.125 1688.84 477.418 1688.84 492.542 1688.84 498.526 1688.32 505.644 1687.26 513.896 1686.21 522.148 1684.44 530.746 1681.94 539.689 1679.44 548.631 1676.55 556.226 1673.26 562.473 1669.97 568.72 1666.32 573.881 1662.31 577.958 1658.3 582.035 1653.68 585.191 1648.45 587.427 1643.22 589.663 1637.32 590.78 1630.75 590.78 1620.88 590.78 1613.08 587.821 1607.32 581.903 1601.57 575.985 1598.69 567.306 1598.69 555.864 1598.69 545.541 1600.86 535.612 1605.2 526.077 1609.54 516.543 1615.49 508.964 1623.05 503.342 1630.62 497.72 1638.9 494.909 1647.91 494.909 1652.64 494.909 1656.79 495.452 1660.34 496.537 1663.89 497.622 1667.83 499.742 1672.17 502.899L1672.37 500.433C1672.57 497.276 1672.67 494.548 1672.67 492.246 1672.67 479.818 1671.02 470.794 1667.73 465.172 1664.45 459.549 1659.32 456.738 1652.35 456.738 1647.55 456.738 1643.09 457.873 1638.98 460.141 1634.87 462.41 1630.85 465.911 1626.9 470.646L1619.8 470.646 1619.8 462.459C1626.05 458.054 1630.9 454.914 1634.35 453.04 1637.8 451.166 1641.25 449.768 1644.7 448.848 1648.16 447.927 1651.92 447.467 1656 447.467Z" fill-rule="evenodd"/><text fill="#000000" fill-opacity="0" font-family="Arial,Arial_MSFontService,sans-serif" font-size="143.313" x="1598.69" y="572.866">𝜕</text><path d="M1782.69 473.802 1747.58 535.941 1786.14 535.941 1784.47 504.181C1784.27 499.841 1784.1 494.416 1783.97 487.906 1783.84 481.397 1783.77 476.695 1783.77 473.802ZM1783.28 452.99 1798.18 452.99 1805.28 562.966C1805.61 568.161 1806.2 572.221 1807.05 575.147 1807.91 578.073 1809.07 580.243 1810.55 581.657 1812.03 583.071 1814.19 583.975 1817.01 584.369L1815.93 589.202 1774.9 589.202 1775.98 584.369C1779.86 584.04 1782.76 582.528 1784.66 579.832 1786.57 577.136 1787.52 572.402 1787.52 565.629 1787.52 563.065 1787.42 560.27 1787.23 557.245L1786.54 544.522 1743.14 544.522 1737.71 554.188C1735.15 558.725 1733.27 562.621 1732.09 565.876 1730.91 569.13 1730.32 572.007 1730.32 574.506 1730.32 580.029 1733.64 583.317 1740.28 584.369L1739.19 589.202 1698.85 589.202 1699.94 584.369C1701.98 584.106 1703.9 583.301 1705.71 581.953 1707.52 580.605 1709.44 578.566 1711.48 575.838 1713.52 573.109 1716.38 568.588 1720.06 562.276Z" fill-rule="evenodd"/><text fill="#000000" fill-opacity="0" font-family="Arial,Arial_MSFontService,sans-serif" font-size="136.212" x="1698.85" y="572.176">𝐴</text><path d="M1673.44 790.237C1667.33 790.237 1661.66 792.653 1656.43 797.486 1651.2 802.319 1646.94 809.569 1643.65 819.235 1640.37 828.901 1638.72 838.468 1638.72 847.937 1638.72 853.855 1639.36 858.474 1640.65 861.795 1641.93 865.115 1643.62 867.4 1645.73 868.65 1647.83 869.899 1650.46 870.524 1653.62 870.524 1660.72 870.524 1666.78 867.68 1671.81 861.992 1676.84 856.304 1681.14 847.756 1684.69 836.348 1688.24 824.939 1690.01 815.947 1690.01 809.371 1690.01 802.664 1688.65 797.799 1685.92 794.774 1683.19 791.749 1679.03 790.237 1673.44 790.237ZM1678.57 735.002C1689.55 735.002 1697.77 738.734 1703.23 746.197 1708.69 753.66 1711.42 764.954 1711.42 780.078 1711.42 786.061 1710.89 793.179 1709.84 801.432 1708.79 809.684 1707.01 818.281 1704.51 827.224 1702.01 836.167 1699.12 843.761 1695.83 850.008 1692.54 856.255 1688.89 861.417 1684.88 865.494 1680.87 869.57 1676.25 872.727 1671.03 874.962 1665.8 877.198 1659.9 878.316 1653.32 878.316 1643.46 878.316 1635.65 875.357 1629.9 869.439 1624.14 863.521 1621.26 854.841 1621.26 843.4 1621.26 833.076 1623.43 823.147 1627.77 813.613 1632.11 804.078 1638.07 796.5 1645.63 790.878 1653.19 785.256 1661.47 782.445 1670.48 782.445 1675.22 782.445 1679.36 782.987 1682.91 784.072 1686.46 785.157 1690.41 787.278 1694.75 790.434L1694.94 787.968C1695.14 784.812 1695.24 782.083 1695.24 779.782 1695.24 767.354 1693.6 758.329 1690.31 752.707 1687.02 747.085 1681.89 744.274 1674.92 744.274 1670.12 744.274 1665.67 745.408 1661.56 747.677 1657.45 749.945 1653.42 753.447 1649.47 758.181L1642.37 758.181 1642.37 749.995C1648.62 745.589 1653.47 742.449 1656.92 740.575 1660.37 738.701 1663.82 737.304 1667.28 736.383 1670.73 735.463 1674.49 735.002 1678.57 735.002Z" fill-rule="evenodd"/><text fill="#000000" fill-opacity="0" font-family="Arial,Arial_MSFontService,sans-serif" font-size="143.313" x="1621.26" y="860.402">𝜕</text><path d="M1761.27 758.082 1774.88 758.082 1769.46 782.445 1799.44 782.445 1797.27 792.407 1767.29 792.407 1758.51 830.676C1756.8 838.107 1755.72 843.449 1755.26 846.704 1754.8 849.959 1754.57 852.573 1754.57 854.545 1754.57 862.699 1757.95 866.776 1764.72 866.776 1767.62 866.776 1770.69 865.674 1773.95 863.472 1777.2 861.269 1781.06 857.504 1785.54 852.178L1791.26 858.096C1785.54 865 1780.03 870.096 1774.74 873.384 1769.44 876.672 1763.9 878.316 1758.12 878.316 1744.37 878.316 1737.5 871.379 1737.5 857.504 1737.5 853.099 1738.06 848.463 1739.18 843.597L1750.82 792.407 1734.25 792.407 1735.73 785.601C1739.61 785.535 1742.55 785.239 1744.55 784.713 1746.56 784.187 1748.24 783.464 1749.58 782.543 1750.93 781.623 1752.17 780.308 1753.28 778.598 1754.4 776.888 1755.49 774.702 1756.54 772.039 1757.59 769.376 1759.17 764.724 1761.27 758.082Z" fill-rule="evenodd"/><text fill="#000000" fill-opacity="0" font-family="Arial,Arial_MSFontService,sans-serif" font-size="120.233" x="1734.25" y="863.287">𝑡</text><path d="M1588.21 677.831 1830.21 677.831 1830.21 690.831 1588.21 690.831Z" fill-rule="evenodd"/><path d="M1900.57 698.034 2022.09 698.034 2022.09 711.152 1900.57 711.152ZM1900.57 657.102 2022.09 657.102 2022.09 670.22 1900.57 670.22Z" fill-rule="evenodd"/><text fill="#000000" fill-opacity="0" font-family="Arial,Arial_MSFontService,sans-serif" font-size="54.0508" x="1900.57" y="704.396">=</text><path d="M2155.59 653.65C2148.88 653.65 2142.86 656.362 2137.54 661.787 2132.21 667.212 2128.02 674.527 2124.96 683.733 2121.9 692.938 2120.37 702.111 2120.37 711.251 2120.37 718.09 2121.31 723.202 2123.18 726.589 2125.06 729.975 2128.2 731.668 2132.6 731.668 2134.64 731.668 2136.71 731.224 2138.82 730.337 2140.92 729.449 2143.11 728.019 2145.38 726.046 2147.65 724.073 2149.88 721.673 2152.08 718.846 2154.29 716.018 2156.31 713.174 2158.15 710.314 2159.99 707.454 2161.7 704.067 2163.28 700.155 2164.86 696.242 2166.2 691.525 2167.32 686.001L2168.21 681.76C2169.2 677.026 2169.69 672.554 2169.69 668.346 2169.69 663.217 2168.6 659.485 2166.44 657.151 2164.27 654.817 2160.65 653.65 2155.59 653.65ZM2153.81 645.858C2157.89 645.858 2161.77 646.334 2165.45 647.288 2169.13 648.241 2172.94 649.934 2176.89 652.367L2185.96 645.858 2192.28 647.436 2167.03 759.581C2165.91 764.579 2165.35 768.327 2165.35 770.825 2165.35 773.719 2166.09 775.773 2167.57 776.99 2169.05 778.206 2171.96 779.012 2176.3 779.406L2175.41 784.239 2144.64 784.239 2161.6 719.536 2160.22 718.944C2154.57 726.901 2148.8 732.95 2142.91 737.093 2137.03 741.235 2131.29 743.307 2125.7 743.307 2118.47 743.307 2112.86 740.578 2108.88 735.12 2104.9 729.663 2102.92 722.002 2102.92 712.139 2102.92 700.829 2105.13 689.963 2109.57 679.541 2114.01 669.118 2120.11 660.899 2127.87 654.882 2135.63 648.866 2144.28 645.858 2153.81 645.858Z" fill-rule="evenodd"/><text fill="#000000" fill-opacity="0" font-family="Arial,Arial_MSFontService,sans-serif" font-size="138.382" x="2102.92" y="766.942">𝑞</text><path d="M2235.73 685.01 2240.9 685.01C2237.93 698.36 2235.21 710.562 2232.75 721.616 2230.29 732.67 2227.59 744.872 2224.68 758.222 2224.01 761.094 2223.53 763.354 2223.24 765.005 2222.95 766.656 2222.81 768.152 2222.81 769.491 2222.81 771.31 2223.18 772.626 2223.92 773.439 2224.66 774.253 2225.8 774.659 2227.33 774.659 2228.19 774.659 2229.05 774.492 2229.91 774.157 2230.78 773.822 2231.69 773.296 2232.64 772.578 2233.6 771.86 2234.66 770.939 2235.84 769.814 2237.01 768.69 2238.34 767.338 2239.82 765.759L2244.49 770.496C2242.05 772.985 2239.83 775.102 2237.85 776.849 2235.86 778.595 2233.97 780.019 2232.18 781.119 2230.38 782.22 2228.61 783.021 2226.86 783.524 2225.12 784.026 2223.24 784.278 2221.23 784.278 2219.41 784.278 2217.77 783.943 2216.31 783.273 2214.85 782.603 2213.6 781.682 2212.54 780.509 2211.49 779.337 2210.68 777.937 2210.1 776.31 2209.53 774.683 2209.24 772.889 2209.24 770.927 2209.24 769.156 2209.42 766.967 2209.78 764.359 2210.14 761.751 2210.7 758.797 2211.47 755.495 2213.53 746.307 2215.57 737.144 2217.6 728.004 2219.64 718.865 2221.3 711.854 2222.59 706.973 2223.74 701.758 2224.32 698.193 2224.32 696.279 2224.32 695.274 2224.18 694.436 2223.92 693.766 2223.66 693.096 2223.18 692.546 2222.49 692.115 2221.79 691.685 2220.85 691.374 2219.65 691.182 2218.45 690.991 2216.9 690.847 2214.99 690.752L2215.99 685.871Z" fill-rule="evenodd"/><text fill="#000000" fill-opacity="0" font-family="Arial,Arial_MSFontService,sans-serif" font-size="99.2681" x="2209.24" y="771.869">𝑙</text><path d="M1176.36 1134.69C1170.24 1134.69 1164.57 1137.11 1159.34 1141.94 1154.11 1146.77 1149.86 1154.02 1146.57 1163.69 1143.28 1173.35 1141.64 1182.92 1141.64 1192.39 1141.64 1198.31 1142.28 1202.93 1143.56 1206.25 1144.84 1209.57 1146.54 1211.85 1148.64 1213.1 1150.74 1214.35 1153.37 1214.98 1156.53 1214.98 1163.63 1214.98 1169.7 1212.13 1174.73 1206.45 1179.76 1200.76 1184.05 1192.21 1187.6 1180.8 1191.15 1169.39 1192.93 1160.4 1192.93 1153.83 1192.93 1147.12 1191.56 1142.25 1188.83 1139.23 1186.1 1136.2 1181.95 1134.69 1176.36 1134.69ZM1181.49 1079.46C1192.47 1079.46 1200.69 1083.19 1206.14 1090.65 1211.6 1098.11 1214.33 1109.41 1214.33 1124.53 1214.33 1130.52 1213.8 1137.63 1212.75 1145.89 1211.7 1154.14 1209.92 1162.74 1207.43 1171.68 1204.93 1180.62 1202.03 1188.22 1198.75 1194.46 1195.46 1200.71 1191.81 1205.87 1187.8 1209.95 1183.79 1214.02 1179.17 1217.18 1173.94 1219.42 1168.71 1221.65 1162.81 1222.77 1156.24 1222.77 1146.37 1222.77 1138.56 1219.81 1132.81 1213.89 1127.06 1207.97 1124.18 1199.3 1124.18 1187.85 1124.18 1177.53 1126.35 1167.6 1130.69 1158.07 1135.03 1148.53 1140.98 1140.95 1148.54 1135.33 1156.1 1129.71 1164.39 1126.9 1173.4 1126.9 1178.13 1126.9 1182.27 1127.44 1185.82 1128.53 1189.38 1129.61 1193.32 1131.73 1197.66 1134.89L1197.86 1132.42C1198.06 1129.27 1198.15 1126.54 1198.15 1124.24 1198.15 1111.81 1196.51 1102.78 1193.22 1097.16 1189.93 1091.54 1184.81 1088.73 1177.84 1088.73 1173.04 1088.73 1168.58 1089.86 1164.47 1092.13 1160.36 1094.4 1156.33 1097.9 1152.39 1102.64L1145.29 1102.64 1145.29 1094.45C1151.53 1090.04 1156.38 1086.9 1159.84 1085.03 1163.29 1083.16 1166.74 1081.76 1170.19 1080.84 1173.64 1079.92 1177.41 1079.46 1181.49 1079.46Z" fill-rule="evenodd"/><text fill="#000000" fill-opacity="0" font-family="Arial,Arial_MSFontService,sans-serif" font-size="143.313" x="1124.18" y="1204.86">𝜕</text><path d="M1288.65 1133.01C1281.94 1133.01 1275.92 1135.73 1270.6 1141.15 1265.27 1146.58 1261.08 1153.89 1258.02 1163.1 1254.96 1172.3 1253.44 1181.48 1253.44 1190.62 1253.44 1197.45 1254.37 1202.57 1256.25 1205.95 1258.12 1209.34 1261.26 1211.03 1265.67 1211.03 1267.7 1211.03 1269.78 1210.59 1271.88 1209.7 1273.98 1208.81 1276.17 1207.38 1278.44 1205.41 1280.71 1203.44 1282.94 1201.04 1285.15 1198.21 1287.35 1195.38 1289.37 1192.54 1291.21 1189.68 1293.05 1186.82 1294.76 1183.43 1296.34 1179.52 1297.92 1175.61 1299.27 1170.89 1300.39 1165.37L1301.27 1161.12C1302.26 1156.39 1302.75 1151.92 1302.75 1147.71 1302.75 1142.58 1301.67 1138.85 1299.5 1136.52 1297.33 1134.18 1293.71 1133.01 1288.65 1133.01ZM1286.87 1125.22C1290.95 1125.22 1294.83 1125.7 1298.51 1126.65 1302.19 1127.61 1306.01 1129.3 1309.95 1131.73L1319.03 1125.22 1325.34 1126.8 1300.09 1238.95C1298.97 1243.94 1298.41 1247.69 1298.41 1250.19 1298.41 1253.08 1299.15 1255.14 1300.63 1256.35 1302.11 1257.57 1305.02 1258.38 1309.36 1258.77L1308.47 1263.6 1277.7 1263.6 1294.66 1198.9 1293.28 1198.31C1287.63 1206.27 1281.86 1212.31 1275.97 1216.46 1270.09 1220.6 1264.35 1222.67 1258.76 1222.67 1251.53 1222.67 1245.92 1219.94 1241.95 1214.48 1237.97 1209.03 1235.98 1201.37 1235.98 1191.5 1235.98 1180.19 1238.2 1169.33 1242.64 1158.91 1247.07 1148.48 1253.17 1140.26 1260.93 1134.25 1268.69 1128.23 1277.34 1125.22 1286.87 1125.22Z" fill-rule="evenodd"/><text fill="#000000" fill-opacity="0" font-family="Arial,Arial_MSFontService,sans-serif" font-size="138.382" x="1235.98" y="1246.31">𝑞</text><path d="M1177.2 1422.23C1171.09 1422.23 1165.42 1424.64 1160.19 1429.48 1154.96 1434.31 1150.7 1441.56 1147.42 1451.22 1144.13 1460.89 1142.49 1470.46 1142.49 1479.93 1142.49 1485.84 1143.13 1490.46 1144.41 1493.78 1145.69 1497.1 1147.38 1499.39 1149.49 1500.64 1151.59 1501.89 1154.22 1502.51 1157.38 1502.51 1164.48 1502.51 1170.55 1499.67 1175.58 1493.98 1180.61 1488.29 1184.9 1479.75 1188.45 1468.34 1192 1456.93 1193.77 1447.94 1193.77 1441.36 1193.77 1434.65 1192.41 1429.79 1189.68 1426.76 1186.95 1423.74 1182.79 1422.23 1177.2 1422.23ZM1265.14 1412.76C1267.18 1412.76 1268.97 1412.99 1270.51 1413.45 1272.06 1413.91 1273.42 1414.61 1274.61 1415.57 1275.79 1416.52 1276.84 1417.75 1277.76 1419.27 1278.68 1420.78 1279.57 1422.83 1280.43 1425.43 1281.28 1428.03 1282.09 1431.25 1282.84 1435.1 1283.6 1438.94 1284.27 1442.94 1284.86 1447.08L1285.85 1447.08C1292.16 1438.2 1296.95 1431.71 1300.2 1427.6 1303.46 1423.49 1306.2 1420.43 1308.44 1418.43 1310.67 1416.42 1312.83 1415.01 1314.9 1414.19 1316.97 1413.37 1319.71 1412.95 1323.13 1412.95 1326.22 1412.95 1328.76 1413.35 1330.73 1414.14L1326.78 1431.99 1319.88 1431.99C1319.48 1429.23 1318.33 1427.85 1316.43 1427.85 1315.83 1427.85 1315.21 1427.95 1314.55 1428.14 1313.9 1428.34 1313.09 1428.77 1312.14 1429.43 1311.18 1430.08 1309.79 1431.37 1307.94 1433.27 1306.1 1435.18 1304.03 1437.51 1301.73 1440.28 1299.43 1443.04 1297.06 1445.93 1294.63 1448.96L1287.92 1457.34C1289.11 1463.65 1290.22 1469.11 1291.28 1473.71 1292.33 1478.32 1293.26 1482.15 1294.09 1485.2 1294.91 1488.26 1295.63 1490.68 1296.26 1492.45 1296.88 1494.23 1297.55 1495.56 1298.28 1496.45 1299 1497.34 1299.74 1497.96 1300.5 1498.32 1301.25 1498.68 1302.12 1498.86 1303.11 1498.86 1304.89 1498.86 1306.61 1498.17 1308.29 1496.79 1309.97 1495.41 1312.38 1492.29 1315.54 1487.42L1321.95 1491.66C1317.35 1498.5 1313.19 1503.32 1309.47 1506.11 1305.76 1508.91 1301.34 1510.31 1296.21 1510.31 1293.38 1510.31 1290.98 1509.8 1289.01 1508.78 1287.03 1507.76 1285.32 1506.13 1283.88 1503.89 1282.43 1501.66 1281.15 1498.17 1280.03 1493.44 1277.99 1485.02 1276.74 1478.58 1276.28 1474.11L1275.3 1474.11C1268.33 1483.9 1263.15 1490.94 1259.76 1495.21 1256.38 1499.49 1253.58 1502.64 1251.38 1504.68 1249.18 1506.72 1247.04 1508.15 1244.97 1508.97 1242.9 1509.8 1240.15 1510.21 1236.73 1510.21 1233.64 1510.21 1231.11 1509.81 1229.14 1509.02L1233.08 1491.17 1239.99 1491.17C1240.38 1493.93 1241.53 1495.31 1243.44 1495.31 1244.36 1495.31 1245.33 1495.07 1246.35 1494.57 1247.37 1494.08 1248.83 1492.9 1250.74 1491.02 1252.64 1489.15 1255.27 1486.21 1258.63 1482.19 1261.98 1478.18 1266.85 1472.17 1273.23 1464.15 1272.24 1458.95 1271.22 1453.95 1270.17 1449.15 1269.12 1444.35 1268.03 1439.88 1266.91 1435.74 1265.8 1431.6 1264.87 1428.88 1264.15 1427.6 1263.43 1426.32 1262.66 1425.43 1261.83 1424.94 1261.01 1424.45 1259.98 1424.2 1258.73 1424.2 1257.35 1424.2 1256.1 1424.51 1254.98 1425.14 1253.86 1425.76 1252.64 1426.85 1251.33 1428.39 1250.01 1429.94 1248.27 1432.35 1246.1 1435.64L1239.69 1431.4C1243.83 1425.15 1247.81 1420.48 1251.62 1417.39 1255.44 1414.3 1259.94 1412.76 1265.14 1412.76ZM1182.33 1366.99C1193.31 1366.99 1201.53 1370.72 1206.99 1378.19 1212.45 1385.65 1215.18 1396.94 1215.18 1412.07 1215.18 1418.05 1214.65 1425.17 1213.6 1433.42 1212.55 1441.67 1210.77 1450.27 1208.27 1459.21 1205.77 1468.16 1202.88 1475.75 1199.59 1482 1196.31 1488.24 1192.66 1493.41 1188.65 1497.48 1184.63 1501.56 1180.02 1504.72 1174.79 1506.95 1169.56 1509.19 1163.66 1510.31 1157.08 1510.31 1147.22 1510.31 1139.41 1507.35 1133.66 1501.43 1127.9 1495.51 1125.03 1486.83 1125.03 1475.39 1125.03 1465.07 1127.2 1455.14 1131.54 1445.6 1135.88 1436.07 1141.83 1428.49 1149.39 1422.87 1156.95 1417.25 1165.24 1414.43 1174.25 1414.43 1178.98 1414.43 1183.12 1414.98 1186.67 1416.06 1190.22 1417.15 1194.17 1419.27 1198.51 1422.42L1198.71 1419.96C1198.9 1416.8 1199 1414.07 1199 1411.77 1199 1399.34 1197.36 1390.32 1194.07 1384.7 1190.78 1379.07 1185.65 1376.26 1178.68 1376.26 1173.88 1376.26 1169.43 1377.4 1165.32 1379.67 1161.21 1381.93 1157.18 1385.44 1153.24 1390.17L1146.13 1390.17 1146.13 1381.98C1152.38 1377.58 1157.23 1374.44 1160.68 1372.56 1164.14 1370.69 1167.59 1369.29 1171.04 1368.37 1174.49 1367.45 1178.26 1366.99 1182.33 1366.99Z" fill-rule="evenodd"/><text fill="#000000" fill-opacity="0" font-family="Arial,Arial_MSFontService,sans-serif" font-size="143.313" x="1125.03" y="1492.39">𝜕𝑥</text><path d="M1113.21 1309.83 1340.21 1309.83 1340.21 1322.83 1113.21 1322.83Z" fill-rule="evenodd"/><path d="M1453.85 1252.7 1467.85 1252.7 1467.85 1309.51 1521.61 1309.51 1521.61 1322.63 1467.85 1322.63 1467.85 1379.44 1453.85 1379.44 1453.85 1322.63 1400.09 1322.63 1400.09 1309.51 1453.85 1309.51Z" fill-rule="evenodd"/><text fill="#000000" fill-opacity="0" font-family="Arial,Arial_MSFontService,sans-serif" font-size="126.743" x="1400.09" y="1363.6">+</text><path d="M1643.92 1134.69C1637.81 1134.69 1632.14 1137.11 1626.91 1141.94 1621.68 1146.77 1617.43 1154.02 1614.14 1163.69 1610.85 1173.35 1609.21 1182.92 1609.21 1192.39 1609.21 1198.31 1609.85 1202.93 1611.13 1206.25 1612.41 1209.57 1614.1 1211.85 1616.21 1213.1 1618.31 1214.35 1620.94 1214.98 1624.1 1214.98 1631.2 1214.98 1637.27 1212.13 1642.3 1206.45 1647.33 1200.76 1651.62 1192.21 1655.17 1180.8 1658.72 1169.39 1660.5 1160.4 1660.5 1153.83 1660.5 1147.12 1659.13 1142.25 1656.4 1139.23 1653.67 1136.2 1649.51 1134.69 1643.92 1134.69ZM1649.05 1079.46C1660.03 1079.46 1668.25 1083.19 1673.71 1090.65 1679.17 1098.11 1681.9 1109.41 1681.9 1124.53 1681.9 1130.52 1681.37 1137.63 1680.32 1145.89 1679.27 1154.14 1677.49 1162.74 1674.99 1171.68 1672.5 1180.62 1669.6 1188.22 1666.31 1194.46 1663.03 1200.71 1659.38 1205.87 1655.37 1209.95 1651.36 1214.02 1646.74 1217.18 1641.51 1219.42 1636.28 1221.65 1630.38 1222.77 1623.8 1222.77 1613.94 1222.77 1606.13 1219.81 1600.38 1213.89 1594.62 1207.97 1591.75 1199.3 1591.75 1187.85 1591.75 1177.53 1593.92 1167.6 1598.26 1158.07 1602.6 1148.53 1608.55 1140.95 1616.11 1135.33 1623.67 1129.71 1631.96 1126.9 1640.97 1126.9 1645.7 1126.9 1649.84 1127.44 1653.39 1128.53 1656.94 1129.61 1660.89 1131.73 1665.23 1134.89L1665.43 1132.42C1665.62 1129.27 1665.72 1126.54 1665.72 1124.24 1665.72 1111.81 1664.08 1102.78 1660.79 1097.16 1657.5 1091.54 1652.37 1088.73 1645.4 1088.73 1640.6 1088.73 1636.15 1089.86 1632.04 1092.13 1627.93 1094.4 1623.9 1097.9 1619.96 1102.64L1612.86 1102.64 1612.86 1094.45C1619.1 1090.04 1623.95 1086.9 1627.4 1085.03 1630.86 1083.16 1634.31 1081.76 1637.76 1080.84 1641.21 1079.92 1644.98 1079.46 1649.05 1079.46Z" fill-rule="evenodd"/><text fill="#000000" fill-opacity="0" font-family="Arial,Arial_MSFontService,sans-serif" font-size="143.313" x="1591.75" y="1204.86">𝜕</text><path d="M1725.74 1125.32C1728.44 1125.32 1730.74 1125.68 1732.64 1126.41 1733.96 1126.93 1735.27 1127.8 1736.59 1129.02 1737.9 1130.24 1739.07 1131.93 1740.09 1134.1 1741.11 1136.27 1742 1138.7 1742.75 1141.4 1743.51 1144.09 1744.35 1147.97 1745.27 1153.04 1746.85 1161.52 1748.38 1170.45 1749.85 1179.82 1751.33 1189.19 1752.6 1197.88 1753.65 1205.9 1760.03 1196.7 1765.44 1187.69 1769.88 1178.88 1774.32 1170.07 1777.5 1162.41 1779.44 1155.9 1781.38 1149.39 1782.35 1144.09 1782.35 1140.02 1782.35 1136.93 1781.7 1134.82 1780.38 1133.7 1779.07 1132.59 1776.83 1131.93 1773.67 1131.73L1774.66 1126.9 1800.6 1126.9 1803.26 1131.83C1798.27 1145.51 1791.49 1160.14 1782.95 1175.72 1774.53 1190.98 1764.9 1206.17 1754.05 1221.29 1743.66 1235.69 1735.01 1246.11 1728.11 1252.56 1723.31 1256.96 1718.67 1260.12 1714.2 1262.03 1710.65 1263.47 1706.87 1264.2 1702.86 1264.2 1701.48 1264.2 1699.88 1264.08 1698.07 1263.85 1696.26 1263.62 1694.87 1263.31 1693.88 1262.91L1698.12 1243.78 1705.91 1243.78C1705.91 1247.99 1707.36 1250.09 1710.25 1250.09 1714.07 1250.09 1718.51 1247.71 1723.57 1242.94 1728.63 1238.17 1734.58 1230.99 1741.42 1221.39 1739.51 1209.88 1736.92 1196.01 1733.63 1179.77 1730.14 1162.41 1727.84 1151.66 1726.73 1147.51 1725.34 1142.52 1723.9 1139.33 1722.39 1137.95 1721.47 1137.09 1720.31 1136.66 1718.93 1136.66 1716.83 1136.66 1714.86 1137.52 1713.02 1139.23 1711.17 1140.94 1708.91 1143.9 1706.21 1148.1L1699.8 1143.86C1704.34 1137.09 1708.58 1132.31 1712.52 1129.51 1716.47 1126.72 1720.87 1125.32 1725.74 1125.32Z" fill-rule="evenodd"/><text fill="#000000" fill-opacity="0" font-family="Arial,Arial_MSFontService,sans-serif" font-size="138.875" x="1693.88" y="1246.84">𝑦</text><path d="M1659.78 1422.23C1653.67 1422.23 1648 1424.64 1642.77 1429.48 1637.54 1434.31 1633.28 1441.56 1630 1451.22 1626.71 1460.89 1625.06 1470.46 1625.06 1479.93 1625.06 1485.84 1625.71 1490.46 1626.99 1493.78 1628.27 1497.1 1629.96 1499.39 1632.07 1500.64 1634.17 1501.89 1636.8 1502.51 1639.96 1502.51 1647.06 1502.51 1653.13 1499.67 1658.16 1493.98 1663.19 1488.29 1667.48 1479.75 1671.03 1468.34 1674.58 1456.93 1676.35 1447.94 1676.35 1441.36 1676.35 1434.65 1674.99 1429.79 1672.26 1426.76 1669.53 1423.74 1665.37 1422.23 1659.78 1422.23ZM1664.91 1366.99C1675.89 1366.99 1684.11 1370.72 1689.57 1378.19 1695.03 1385.65 1697.76 1396.94 1697.76 1412.07 1697.76 1418.05 1697.23 1425.17 1696.18 1433.42 1695.13 1441.67 1693.35 1450.27 1690.85 1459.21 1688.35 1468.16 1685.46 1475.75 1682.17 1482 1678.89 1488.24 1675.24 1493.41 1671.22 1497.48 1667.21 1501.56 1662.59 1504.72 1657.37 1506.95 1652.14 1509.19 1646.24 1510.31 1639.66 1510.31 1629.8 1510.31 1621.99 1507.35 1616.24 1501.43 1610.48 1495.51 1607.61 1486.83 1607.61 1475.39 1607.61 1465.07 1609.78 1455.14 1614.12 1445.6 1618.46 1436.07 1624.41 1428.49 1631.97 1422.87 1639.53 1417.25 1647.82 1414.43 1656.82 1414.43 1661.56 1414.43 1665.7 1414.98 1669.25 1416.06 1672.8 1417.15 1676.75 1419.27 1681.09 1422.42L1681.29 1419.96C1681.48 1416.8 1681.58 1414.07 1681.58 1411.77 1681.58 1399.34 1679.94 1390.32 1676.65 1384.7 1673.36 1379.07 1668.23 1376.26 1661.26 1376.26 1656.46 1376.26 1652.01 1377.4 1647.9 1379.67 1643.79 1381.93 1639.76 1385.44 1635.82 1390.17L1628.71 1390.17 1628.71 1381.98C1634.96 1377.58 1639.81 1374.44 1643.26 1372.56 1646.71 1370.69 1650.17 1369.29 1653.62 1368.37 1657.07 1367.45 1660.84 1366.99 1664.91 1366.99Z" fill-rule="evenodd"/><text fill="#000000" fill-opacity="0" font-family="Arial,Arial_MSFontService,sans-serif" font-size="143.313" x="1607.61" y="1492.39">𝜕</text><path d="M1747.61 1390.07 1761.23 1390.07 1755.8 1414.43 1785.78 1414.43 1783.61 1424.4 1753.63 1424.4 1744.85 1462.67C1743.14 1470.1 1742.06 1475.44 1741.6 1478.69 1741.14 1481.95 1740.91 1484.56 1740.91 1486.53 1740.91 1494.69 1744.29 1498.77 1751.07 1498.77 1753.96 1498.77 1757.03 1497.66 1760.29 1495.46 1763.54 1493.26 1767.41 1489.49 1771.88 1484.17L1777.6 1490.09C1771.88 1496.99 1766.37 1502.09 1761.08 1505.37 1755.78 1508.66 1750.24 1510.31 1744.46 1510.31 1730.71 1510.31 1723.84 1503.37 1723.84 1489.49 1723.84 1485.09 1724.4 1480.45 1725.52 1475.59L1737.16 1424.4 1720.59 1424.4 1722.07 1417.59C1725.95 1417.52 1728.89 1417.23 1730.9 1416.7 1732.9 1416.18 1734.58 1415.45 1735.93 1414.53 1737.27 1413.61 1738.51 1412.3 1739.62 1410.59 1740.74 1408.88 1741.83 1406.69 1742.88 1404.03 1743.93 1401.37 1745.51 1396.71 1747.61 1390.07Z" fill-rule="evenodd"/><text fill="#000000" fill-opacity="0" font-family="Arial,Arial_MSFontService,sans-serif" font-size="120.233" x="1720.59" y="1495.28">𝑡</text><path d="M1581.21 1309.83 1810.21 1309.83 1810.21 1322.83 1581.21 1322.83Z" fill-rule="evenodd"/><path d="M1880.2 1330.02 2001.71 1330.02 2001.71 1343.14 1880.2 1343.14ZM1880.2 1289.09 2001.71 1289.09 2001.71 1302.21 1880.2 1302.21Z" fill-rule="evenodd"/><text fill="#000000" fill-opacity="0" font-family="Arial,Arial_MSFontService,sans-serif" font-size="54.0508" x="1880.2" y="1336.39">=</text><path d="M2135.21 1133.01C2128.51 1133.01 2122.49 1135.73 2117.16 1141.15 2111.84 1146.58 2107.64 1153.89 2104.59 1163.1 2101.53 1172.3 2100 1181.48 2100 1190.62 2100 1197.45 2100.94 1202.57 2102.81 1205.95 2104.69 1209.34 2107.83 1211.03 2112.23 1211.03 2114.27 1211.03 2116.34 1210.59 2118.44 1209.7 2120.55 1208.81 2122.74 1207.38 2125 1205.41 2127.27 1203.44 2129.51 1201.04 2131.71 1198.21 2133.91 1195.38 2135.94 1192.54 2137.78 1189.68 2139.62 1186.82 2141.33 1183.43 2142.91 1179.52 2144.48 1175.61 2145.83 1170.89 2146.95 1165.37L2147.84 1161.12C2148.82 1156.39 2149.32 1151.92 2149.32 1147.71 2149.32 1142.58 2148.23 1138.85 2146.06 1136.52 2143.89 1134.18 2140.28 1133.01 2135.21 1133.01ZM2133.44 1125.22C2137.51 1125.22 2141.39 1125.7 2145.08 1126.65 2148.76 1127.61 2152.57 1129.3 2156.52 1131.73L2165.59 1125.22 2171.9 1126.8 2146.65 1238.95C2145.54 1243.94 2144.98 1247.69 2144.98 1250.19 2144.98 1253.08 2145.72 1255.14 2147.2 1256.35 2148.68 1257.57 2151.59 1258.38 2155.93 1258.77L2155.04 1263.6 2124.26 1263.6 2141.23 1198.9 2139.85 1198.31C2134.19 1206.27 2128.42 1212.31 2122.54 1216.46 2116.65 1220.6 2110.92 1222.67 2105.33 1222.67 2098.09 1222.67 2092.49 1219.94 2088.51 1214.48 2084.53 1209.03 2082.54 1201.37 2082.54 1191.5 2082.54 1180.19 2084.76 1169.33 2089.2 1158.91 2093.64 1148.48 2099.74 1140.26 2107.5 1134.25 2115.26 1128.23 2123.9 1125.22 2133.44 1125.22Z" fill-rule="evenodd"/><text fill="#000000" fill-opacity="0" font-family="Arial,Arial_MSFontService,sans-serif" font-size="138.382" x="2082.54" y="1246.31">𝑞</text><path d="M2215.36 1164.37 2220.52 1164.37C2217.56 1177.72 2214.84 1189.93 2212.38 1200.98 2209.91 1212.03 2207.22 1224.24 2204.3 1237.59 2203.63 1240.46 2203.15 1242.72 2202.87 1244.37 2202.58 1246.02 2202.44 1247.52 2202.44 1248.86 2202.44 1250.67 2202.81 1251.99 2203.55 1252.8 2204.29 1253.62 2205.43 1254.02 2206.96 1254.02 2207.82 1254.02 2208.68 1253.86 2209.54 1253.52 2210.4 1253.19 2211.31 1252.66 2212.27 1251.94 2213.23 1251.22 2214.29 1250.3 2215.46 1249.18 2216.64 1248.05 2217.96 1246.7 2219.45 1245.12L2224.11 1249.86C2221.67 1252.35 2219.46 1254.47 2217.47 1256.21 2215.49 1257.96 2213.6 1259.38 2211.8 1260.48 2210.01 1261.58 2208.24 1262.39 2206.49 1262.89 2204.74 1263.39 2202.87 1263.64 2200.86 1263.64 2199.04 1263.64 2197.4 1263.31 2195.94 1262.64 2194.48 1261.97 2193.22 1261.05 2192.17 1259.87 2191.12 1258.7 2190.31 1257.3 2189.73 1255.67 2189.16 1254.05 2188.87 1252.25 2188.87 1250.29 2188.87 1248.52 2189.05 1246.33 2189.41 1243.72 2189.77 1241.12 2190.33 1238.16 2191.1 1234.86 2193.15 1225.67 2195.2 1216.51 2197.23 1207.37 2199.27 1198.23 2200.93 1191.22 2202.22 1186.34 2203.37 1181.12 2203.94 1177.56 2203.94 1175.64 2203.94 1174.64 2203.81 1173.8 2203.55 1173.13 2203.29 1172.46 2202.81 1171.91 2202.11 1171.48 2201.42 1171.05 2200.47 1170.74 2199.28 1170.55 2198.08 1170.36 2196.53 1170.21 2194.61 1170.12L2195.62 1165.24Z" fill-rule="evenodd"/><text fill="#000000" fill-opacity="0" font-family="Arial,Arial_MSFontService,sans-serif" font-size="99.2681" x="2188.87" y="1251.23">𝑙</text><path d="M2135.08 1443.14 2122.85 1499.65C2126.86 1499.92 2131.79 1500.05 2137.64 1500.05 2147.64 1500.05 2155.15 1498.91 2160.18 1496.64 2165.21 1494.38 2169.54 1490.35 2173.15 1484.56 2176.77 1478.78 2178.58 1471.64 2178.58 1463.16 2178.58 1456.52 2176.39 1451.52 2172.02 1448.17 2167.65 1444.81 2161.12 1443.14 2152.44 1443.14ZM2164.28 1382.77C2158.55 1382.77 2153.23 1382.87 2148.3 1383.07L2137.15 1434.46 2151.06 1434.46C2158.82 1434.46 2164.98 1433.83 2169.55 1432.58 2174.12 1431.33 2178.15 1429.1 2181.64 1425.88 2185.12 1422.65 2187.65 1419.12 2189.23 1415.27 2190.81 1411.43 2191.6 1406.97 2191.6 1401.91 2191.6 1399.08 2191.1 1396.43 2190.12 1393.97 2189.13 1391.5 2187.44 1389.4 2185.04 1387.66 2182.64 1385.91 2179.88 1384.66 2176.75 1383.91 2173.63 1383.15 2169.47 1382.77 2164.28 1382.77ZM2119.99 1374.09 2168.81 1374.09C2178.68 1374.09 2186.58 1375.13 2192.53 1377.2 2198.48 1379.27 2202.86 1382.31 2205.65 1386.32 2208.45 1390.33 2209.84 1395.37 2209.84 1401.41 2209.84 1410.03 2207.21 1417.54 2201.95 1423.95 2196.69 1430.36 2188.87 1435.28 2178.48 1438.7L2178.28 1439.78C2184.4 1442.22 2189.1 1445.68 2192.39 1450.19 2195.67 1454.69 2197.32 1459.81 2197.32 1465.53 2197.32 1474.27 2195.31 1481.75 2191.3 1487.96 2187.29 1494.18 2181.27 1499.19 2173.25 1503.01 2165.23 1506.82 2153.49 1508.73 2138.04 1508.73L2094.15 1508.73 2095.23 1503.89C2097.73 1503.5 2099.61 1502.86 2100.85 1501.97 2102.1 1501.08 2103.16 1499.85 2104.01 1498.27 2104.87 1496.69 2105.65 1494.77 2106.38 1492.5 2107.1 1490.23 2108.19 1485.84 2109.63 1479.33L2126.4 1403.39C2127.85 1396.81 2128.57 1391.62 2128.57 1387.8 2128.57 1384.58 2127.81 1382.35 2126.3 1381.1 2124.79 1379.85 2122.32 1379.12 2118.9 1378.93Z" fill-rule="evenodd"/><text fill="#000000" fill-opacity="0" font-family="Arial,Arial_MSFontService,sans-serif" font-size="134.634" x="2094.15" y="1491.9">𝐵</text><path d="M2072.21 1309.83 2242.21 1309.83 2242.21 1322.83 2072.21 1322.83Z" fill-rule="evenodd"/></g></svg>