<svg width="1228" height="464" xmlns="http://www.w3.org/2000/svg" xmlns:xlink="http://www.w3.org/1999/xlink" xml:space="preserve" overflow="hidden"><defs><clipPath id="clip0"><rect x="1000" y="418" width="1228" height="464"/></clipPath></defs><g clip-path="url(#clip0)" transform="translate(-1000 -418)"><path d="M1091.82 502.701C1085.7 502.701 1080.03 505.118 1074.8 509.951 1069.57 514.784 1065.32 522.033 1062.03 531.699 1058.74 541.365 1057.1 550.933 1057.1 560.401 1057.1 566.319 1057.74 570.939 1059.02 574.259 1060.3 577.58 1062 579.865 1064.1 581.114 1066.2 582.364 1068.84 582.988 1071.99 582.988 1079.09 582.988 1085.16 580.144 1090.19 574.457 1095.22 568.769 1099.51 560.221 1103.06 548.812 1106.61 537.404 1108.39 528.412 1108.39 521.836 1108.39 515.129 1107.02 510.263 1104.29 507.238 1101.56 504.214 1097.41 502.701 1091.82 502.701ZM1223.35 461.67C1216.24 461.67 1209.62 464.202 1203.47 469.265 1197.32 474.328 1191.93 481.561 1187.3 490.964 1182.66 500.367 1179.06 510.691 1176.5 521.935 1173.93 533.179 1172.65 543.108 1172.65 551.722 1172.65 572.04 1180.05 582.199 1194.84 582.199 1203.98 582.199 1212.36 577.942 1219.99 569.426 1227.62 560.911 1233.77 549.124 1238.44 534.067 1243.11 519.009 1245.44 504.937 1245.44 491.852 1245.44 482.054 1243.63 474.575 1240.01 469.413 1236.4 464.251 1230.84 461.67 1223.35 461.67ZM1224.43 452.99C1237.12 452.99 1246.9 456.673 1253.77 464.037 1260.65 471.402 1264.08 482.054 1264.08 495.994 1264.08 505.2 1262.63 515.491 1259.74 526.866 1256.85 538.242 1252.87 548.286 1247.81 556.999 1242.74 565.711 1236.88 572.731 1230.2 578.057 1223.53 583.383 1216.28 587.065 1208.45 589.104 1209.96 593.904 1211.38 597.866 1212.69 600.989 1214.01 604.112 1215.27 606.644 1216.49 608.584 1217.71 610.523 1218.91 611.97 1220.09 612.923 1221.27 613.877 1222.46 614.518 1223.64 614.847 1224.83 615.176 1226.21 615.34 1227.78 615.34 1230.28 615.34 1232.81 614.617 1235.38 613.17 1237.94 611.723 1240.8 609.225 1243.96 605.674L1249.09 611.197C1243.83 616.918 1238.93 620.962 1234.39 623.329 1229.86 625.696 1225.19 626.88 1220.39 626.88 1214.93 626.88 1210.47 625.664 1207.02 623.231 1203.57 620.798 1200.58 616.918 1198.05 611.592 1195.52 606.266 1193.07 599.296 1190.7 590.682 1178.8 590.024 1169.72 586.079 1163.48 578.846 1157.23 571.613 1154.11 561.421 1154.11 548.27 1154.11 538.406 1155.77 527.261 1159.09 514.833 1162.41 502.405 1167.21 491.441 1173.49 481.939 1179.77 472.437 1187.26 465.237 1195.98 460.339 1204.69 455.44 1214.17 452.99 1224.43 452.99ZM1096.95 447.467C1107.93 447.467 1116.15 451.199 1121.6 458.662 1127.06 466.125 1129.79 477.418 1129.79 492.542 1129.79 498.526 1129.26 505.644 1128.21 513.896 1127.16 522.148 1125.38 530.746 1122.89 539.689 1120.39 548.631 1117.49 556.226 1114.21 562.473 1110.92 568.72 1107.27 573.881 1103.26 577.958 1099.25 582.035 1094.63 585.191 1089.4 587.427 1084.17 589.663 1078.27 590.78 1071.7 590.78 1061.83 590.78 1054.02 587.821 1048.27 581.903 1042.52 575.985 1039.64 567.306 1039.64 555.864 1039.64 545.541 1041.81 535.612 1046.15 526.077 1050.49 516.543 1056.44 508.964 1064 503.342 1071.56 497.72 1079.85 494.909 1088.86 494.909 1093.59 494.909 1097.73 495.452 1101.29 496.537 1104.84 497.622 1108.78 499.742 1113.12 502.899L1113.32 500.433C1113.52 497.276 1113.61 494.548 1113.61 492.246 1113.61 479.818 1111.97 470.794 1108.68 465.172 1105.4 459.549 1100.27 456.738 1093.3 456.738 1088.5 456.738 1084.04 457.873 1079.93 460.141 1075.82 462.41 1071.79 465.911 1067.85 470.646L1060.75 470.646 1060.75 462.459C1066.99 458.054 1071.84 454.914 1075.3 453.04 1078.75 451.166 1082.2 449.768 1085.65 448.848 1089.1 447.927 1092.87 447.467 1096.95 447.467Z" fill-rule="evenodd"/><text fill="#000000" fill-opacity="0" font-family="Arial,Arial_MSFontService,sans-serif" font-size="179.413" x="1039.64" y="604.453">𝜕𝑄</text><path d="M1106.32 790.237C1100.21 790.237 1094.54 792.653 1089.31 797.486 1084.08 802.319 1079.82 809.569 1076.54 819.235 1073.25 828.901 1071.6 838.468 1071.6 847.937 1071.6 853.855 1072.25 858.474 1073.53 861.795 1074.81 865.115 1076.5 867.4 1078.61 868.65 1080.71 869.899 1083.34 870.524 1086.5 870.524 1093.6 870.524 1099.67 867.68 1104.7 861.992 1109.73 856.304 1114.02 847.756 1117.57 836.348 1121.12 824.939 1122.89 815.947 1122.89 809.371 1122.89 802.664 1121.53 797.799 1118.8 794.774 1116.07 791.749 1111.91 790.237 1106.32 790.237ZM1194.26 780.768C1196.29 780.768 1198.09 780.998 1199.63 781.458 1201.18 781.919 1202.54 782.626 1203.73 783.579 1204.91 784.532 1205.96 785.765 1206.88 787.278 1207.8 788.79 1208.69 790.845 1209.54 793.442 1210.4 796.04 1211.2 799.262 1211.96 803.108 1212.72 806.955 1213.39 810.95 1213.98 815.092L1214.97 815.092C1221.28 806.215 1226.07 799.722 1229.32 795.612 1232.58 791.503 1235.32 788.445 1237.56 786.439 1239.79 784.434 1241.95 783.02 1244.02 782.198 1246.09 781.376 1248.83 780.965 1252.25 780.965 1255.34 780.965 1257.87 781.36 1259.85 782.149L1255.9 800.001 1249 800.001C1248.6 797.24 1247.45 795.859 1245.55 795.859 1244.95 795.859 1244.33 795.957 1243.67 796.155 1243.01 796.352 1242.21 796.779 1241.26 797.437 1240.3 798.094 1238.9 799.377 1237.06 801.284 1235.22 803.19 1233.15 805.525 1230.85 808.286 1228.55 811.048 1226.18 813.941 1223.75 816.966L1217.04 825.35C1218.22 831.662 1219.34 837.12 1220.39 841.723 1221.45 846.326 1222.38 850.156 1223.21 853.214 1224.03 856.271 1224.75 858.688 1225.38 860.463 1226 862.239 1226.67 863.57 1227.4 864.458 1228.12 865.346 1228.86 865.97 1229.62 866.332 1230.37 866.694 1231.24 866.874 1232.23 866.874 1234.01 866.874 1235.73 866.184 1237.41 864.803 1239.09 863.422 1241.5 860.299 1244.66 855.433L1251.07 859.674C1246.47 866.513 1242.31 871.329 1238.59 874.124 1234.88 876.919 1230.45 878.316 1225.33 878.316 1222.5 878.316 1220.1 877.806 1218.13 876.787 1216.15 875.768 1214.44 874.14 1213 871.905 1211.55 869.669 1210.27 866.184 1209.15 861.45 1207.11 853.033 1205.86 846.589 1205.4 842.118L1204.42 842.118C1197.45 851.915 1192.27 858.951 1188.88 863.225 1185.49 867.499 1182.7 870.655 1180.5 872.694 1178.29 874.732 1176.16 876.162 1174.09 876.984 1172.01 877.806 1169.27 878.217 1165.85 878.217 1162.76 878.217 1160.23 877.823 1158.26 877.034L1162.2 859.181 1169.11 859.181C1169.5 861.943 1170.65 863.324 1172.56 863.324 1173.48 863.324 1174.45 863.077 1175.47 862.584 1176.49 862.091 1177.95 860.907 1179.86 859.033 1181.76 857.159 1184.39 854.216 1187.75 850.205 1191.1 846.194 1195.97 840.178 1202.34 832.156 1201.36 826.961 1200.34 821.964 1199.29 817.163 1198.23 812.363 1197.15 807.892 1196.03 803.749 1194.91 799.607 1193.99 796.894 1193.27 795.612 1192.55 794.33 1191.77 793.442 1190.95 792.949 1190.13 792.456 1189.09 792.209 1187.85 792.209 1186.46 792.209 1185.22 792.522 1184.1 793.146 1182.98 793.771 1181.76 794.856 1180.45 796.401 1179.13 797.947 1177.39 800.363 1175.22 803.651L1168.81 799.41C1172.95 793.163 1176.93 788.494 1180.74 785.404 1184.56 782.313 1189.06 780.768 1194.26 780.768ZM1111.45 735.002C1122.43 735.002 1130.65 738.734 1136.11 746.197 1141.57 753.66 1144.3 764.954 1144.3 780.078 1144.3 786.061 1143.77 793.179 1142.72 801.432 1141.67 809.684 1139.89 818.281 1137.39 827.224 1134.89 836.167 1132 843.761 1128.71 850.008 1125.42 856.255 1121.78 861.417 1117.76 865.494 1113.75 869.57 1109.13 872.727 1103.91 874.962 1098.68 877.198 1092.78 878.316 1086.2 878.316 1076.34 878.316 1068.53 875.357 1062.78 869.439 1057.02 863.521 1054.15 854.841 1054.15 843.4 1054.15 833.076 1056.32 823.147 1060.66 813.613 1065 804.078 1070.95 796.5 1078.51 790.878 1086.07 785.256 1094.36 782.445 1103.36 782.445 1108.1 782.445 1112.24 782.987 1115.79 784.072 1119.34 785.157 1123.29 787.278 1127.63 790.434L1127.82 787.968C1128.02 784.812 1128.12 782.083 1128.12 779.782 1128.12 767.354 1126.48 758.329 1123.19 752.707 1119.9 747.085 1114.77 744.274 1107.8 744.274 1103 744.274 1098.55 745.408 1094.44 747.677 1090.33 749.945 1086.3 753.447 1082.36 758.181L1075.25 758.181 1075.25 749.995C1081.5 745.589 1086.35 742.449 1089.8 740.575 1093.25 738.701 1096.71 737.304 1100.16 736.383 1103.61 735.463 1107.38 735.002 1111.45 735.002Z" fill-rule="evenodd"/><text fill="#000000" fill-opacity="0" font-family="Arial,Arial_MSFontService,sans-serif" font-size="143.313" x="1054.15" y="860.402">𝜕𝑥</text><path d="M1029.21 677.831 1284.21 677.831 1284.21 690.831 1029.21 690.831Z" fill-rule="evenodd"/><path d="M1396.62 620.706 1410.63 620.706 1410.63 677.519 1464.39 677.519 1464.39 690.637 1410.63 690.637 1410.63 747.449 1396.62 747.449 1396.62 690.637 1342.87 690.637 1342.87 677.519 1396.62 677.519Z" fill-rule="evenodd"/><text fill="#000000" fill-opacity="0" font-family="Arial,Arial_MSFontService,sans-serif" font-size="126.743" x="1342.87" y="731.606">+</text><path d="M1586.7 502.701C1580.59 502.701 1574.92 505.118 1569.69 509.951 1564.46 514.784 1560.2 522.033 1556.91 531.699 1553.63 541.365 1551.98 550.933 1551.98 560.401 1551.98 566.319 1552.62 570.939 1553.91 574.259 1555.19 577.58 1556.88 579.865 1558.99 581.114 1561.09 582.364 1563.72 582.988 1566.88 582.988 1573.98 582.988 1580.04 580.144 1585.07 574.457 1590.1 568.769 1594.4 560.221 1597.95 548.812 1601.5 537.404 1603.27 528.412 1603.27 521.836 1603.27 515.129 1601.91 510.263 1599.18 507.238 1596.45 504.214 1592.29 502.701 1586.7 502.701ZM1591.83 447.467C1602.81 447.467 1611.03 451.199 1616.49 458.662 1621.95 466.125 1624.68 477.418 1624.68 492.542 1624.68 498.526 1624.15 505.644 1623.1 513.896 1622.05 522.148 1620.27 530.746 1617.77 539.689 1615.27 548.631 1612.38 556.226 1609.09 562.473 1605.8 568.72 1602.15 573.881 1598.14 577.958 1594.13 582.035 1589.51 585.191 1584.29 587.427 1579.06 589.663 1573.16 590.78 1566.58 590.78 1556.72 590.78 1548.91 587.821 1543.16 581.903 1537.4 575.985 1534.53 567.306 1534.53 555.864 1534.53 545.541 1536.7 535.612 1541.04 526.077 1545.37 516.543 1551.33 508.964 1558.89 503.342 1566.45 497.72 1574.73 494.909 1583.74 494.909 1588.48 494.909 1592.62 495.452 1596.17 496.537 1599.72 497.622 1603.67 499.742 1608.01 502.899L1608.2 500.433C1608.4 497.276 1608.5 494.548 1608.5 492.246 1608.5 479.818 1606.86 470.794 1603.57 465.172 1600.28 459.549 1595.15 456.738 1588.18 456.738 1583.38 456.738 1578.93 457.873 1574.82 460.141 1570.71 462.41 1566.68 465.911 1562.73 470.646L1555.63 470.646 1555.63 462.459C1561.88 458.054 1566.73 454.914 1570.18 453.04 1573.63 451.166 1577.09 449.768 1580.54 448.848 1583.99 447.927 1587.75 447.467 1591.83 447.467Z" fill-rule="evenodd"/><text fill="#000000" fill-opacity="0" font-family="Arial,Arial_MSFontService,sans-serif" font-size="143.313" x="1534.53" y="572.866">𝜕</text><path d="M1718.52 473.802 1683.41 535.941 1721.98 535.941 1720.3 504.181C1720.1 499.841 1719.94 494.416 1719.81 487.906 1719.67 481.397 1719.61 476.695 1719.61 473.802ZM1719.11 452.99 1734.01 452.99 1741.11 562.966C1741.44 568.161 1742.03 572.221 1742.89 575.147 1743.74 578.073 1744.91 580.243 1746.39 581.657 1747.87 583.071 1750.02 583.975 1752.85 584.369L1751.76 589.202 1710.73 589.202 1711.82 584.369C1715.7 584.04 1718.59 582.528 1720.5 579.832 1722.4 577.136 1723.36 572.402 1723.36 565.629 1723.36 563.065 1723.26 560.27 1723.06 557.245L1722.37 544.522 1678.97 544.522 1673.55 554.188C1670.98 558.725 1669.11 562.621 1667.92 565.876 1666.74 569.13 1666.15 572.007 1666.15 574.506 1666.15 580.029 1669.47 583.317 1676.11 584.369L1675.03 589.202 1634.69 589.202 1635.77 584.369C1637.81 584.106 1639.73 583.301 1641.54 581.953 1643.35 580.605 1645.27 578.566 1647.31 575.838 1649.35 573.109 1652.21 568.588 1655.89 562.276Z" fill-rule="evenodd"/><text fill="#000000" fill-opacity="0" font-family="Arial,Arial_MSFontService,sans-serif" font-size="136.212" x="1634.69" y="572.176">𝐴</text><path d="M1609.28 790.237C1603.16 790.237 1597.49 792.653 1592.26 797.486 1587.03 802.319 1582.78 809.569 1579.49 819.235 1576.2 828.901 1574.56 838.468 1574.56 847.937 1574.56 853.855 1575.2 858.474 1576.48 861.795 1577.76 865.115 1579.46 867.4 1581.56 868.65 1583.66 869.899 1586.29 870.524 1589.45 870.524 1596.55 870.524 1602.62 867.68 1607.65 861.992 1612.68 856.304 1616.97 847.756 1620.52 836.348 1624.07 824.939 1625.85 815.947 1625.85 809.371 1625.85 802.664 1624.48 797.799 1621.75 794.774 1619.02 791.749 1614.86 790.237 1609.28 790.237ZM1614.4 735.002C1625.39 735.002 1633.6 738.734 1639.06 746.197 1644.52 753.66 1647.25 764.954 1647.25 780.078 1647.25 786.061 1646.72 793.179 1645.67 801.432 1644.62 809.684 1642.84 818.281 1640.34 827.224 1637.85 836.167 1634.95 843.761 1631.66 850.008 1628.38 856.255 1624.73 861.417 1620.72 865.494 1616.71 869.57 1612.09 872.727 1606.86 874.962 1601.63 877.198 1595.73 878.316 1589.15 878.316 1579.29 878.316 1571.48 875.357 1565.73 869.439 1559.98 863.521 1557.1 854.841 1557.1 843.4 1557.1 833.076 1559.27 823.147 1563.61 813.613 1567.95 804.078 1573.9 796.5 1581.46 790.878 1589.02 785.256 1597.31 782.445 1606.32 782.445 1611.05 782.445 1615.19 782.987 1618.74 784.072 1622.29 785.157 1626.24 787.278 1630.58 790.434L1630.78 787.968C1630.97 784.812 1631.07 782.083 1631.07 779.782 1631.07 767.354 1629.43 758.329 1626.14 752.707 1622.85 747.085 1617.72 744.274 1610.75 744.274 1605.95 744.274 1601.5 745.408 1597.39 747.677 1593.28 749.945 1589.25 753.447 1585.31 758.181L1578.21 758.181 1578.21 749.995C1584.45 745.589 1589.3 742.449 1592.75 740.575 1596.21 738.701 1599.66 737.304 1603.11 736.383 1606.56 735.463 1610.33 735.002 1614.4 735.002Z" fill-rule="evenodd"/><text fill="#000000" fill-opacity="0" font-family="Arial,Arial_MSFontService,sans-serif" font-size="143.313" x="1557.1" y="860.402">𝜕</text><path d="M1697.11 758.082 1710.72 758.082 1705.29 782.445 1735.28 782.445 1733.11 792.407 1703.12 792.407 1694.34 830.676C1692.63 838.107 1691.55 843.449 1691.09 846.704 1690.63 849.959 1690.4 852.573 1690.4 854.545 1690.4 862.699 1693.79 866.776 1700.56 866.776 1703.45 866.776 1706.53 865.674 1709.78 863.472 1713.03 861.269 1716.9 857.504 1721.37 852.178L1727.09 858.096C1721.37 865 1715.86 870.096 1710.57 873.384 1705.28 876.672 1699.74 878.316 1693.95 878.316 1680.21 878.316 1673.34 871.379 1673.34 857.504 1673.34 853.099 1673.89 848.463 1675.01 843.597L1686.65 792.407 1670.08 792.407 1671.56 785.601C1675.44 785.535 1678.38 785.239 1680.39 784.713 1682.39 784.187 1684.07 783.464 1685.42 782.543 1686.77 781.623 1688 780.308 1689.12 778.598 1690.23 776.888 1691.32 774.702 1692.37 772.039 1693.42 769.376 1695 764.724 1697.11 758.082Z" fill-rule="evenodd"/><text fill="#000000" fill-opacity="0" font-family="Arial,Arial_MSFontService,sans-serif" font-size="120.233" x="1670.08" y="863.287">𝑡</text><path d="M1523.21 677.831 1765.21 677.831 1765.21 690.831 1523.21 690.831Z" fill-rule="evenodd"/><path d="M1836.4 698.034 1957.92 698.034 1957.92 711.152 1836.4 711.152ZM1836.4 657.102 1957.92 657.102 1957.92 670.22 1836.4 670.22Z" fill-rule="evenodd"/><text fill="#000000" fill-opacity="0" font-family="Arial,Arial_MSFontService,sans-serif" font-size="54.0508" x="1836.4" y="704.396">=</text><path d="M2091.42 653.65C2084.71 653.65 2078.7 656.362 2073.37 661.787 2068.04 667.212 2063.85 674.527 2060.79 683.733 2057.74 692.938 2056.21 702.111 2056.21 711.251 2056.21 718.09 2057.14 723.202 2059.02 726.589 2060.89 729.975 2064.03 731.668 2068.44 731.668 2070.48 731.668 2072.55 731.224 2074.65 730.337 2076.76 729.449 2078.94 728.019 2081.21 726.046 2083.48 724.073 2085.71 721.673 2087.92 718.846 2090.12 716.018 2092.14 713.174 2093.98 710.314 2095.82 707.454 2097.53 704.067 2099.11 700.155 2100.69 696.242 2102.04 691.525 2103.16 686.001L2104.04 681.76C2105.03 677.026 2105.52 672.554 2105.52 668.346 2105.52 663.217 2104.44 659.485 2102.27 657.151 2100.1 654.817 2096.48 653.65 2091.42 653.65ZM2089.64 645.858C2093.72 645.858 2097.6 646.334 2101.28 647.288 2104.96 648.241 2108.78 649.934 2112.72 652.367L2121.8 645.858 2128.11 647.436 2102.86 759.581C2101.74 764.579 2101.18 768.327 2101.18 770.825 2101.18 773.719 2101.92 775.773 2103.4 776.99 2104.88 778.206 2107.79 779.012 2112.13 779.406L2111.24 784.239 2080.47 784.239 2097.44 719.536 2096.05 718.944C2090.4 726.901 2084.63 732.95 2078.74 737.093 2072.86 741.235 2067.12 743.307 2061.53 743.307 2054.3 743.307 2048.69 740.578 2044.72 735.12 2040.74 729.663 2038.75 722.002 2038.75 712.139 2038.75 700.829 2040.97 689.963 2045.41 679.541 2049.84 669.118 2055.94 660.899 2063.7 654.882 2071.46 648.866 2080.11 645.858 2089.64 645.858Z" fill-rule="evenodd"/><text fill="#000000" fill-opacity="0" font-family="Arial,Arial_MSFontService,sans-serif" font-size="138.382" x="2038.75" y="766.942">𝑞</text><path d="M2171.56 685.01 2176.73 685.01C2173.76 698.36 2171.05 710.562 2168.58 721.616 2166.12 732.67 2163.43 744.872 2160.51 758.222 2159.84 761.094 2159.36 763.354 2159.07 765.005 2158.79 766.656 2158.64 768.152 2158.64 769.491 2158.64 771.31 2159.01 772.626 2159.75 773.439 2160.5 774.253 2161.63 774.659 2163.16 774.659 2164.03 774.659 2164.89 774.492 2165.75 774.157 2166.61 773.822 2167.52 773.296 2168.48 772.578 2169.43 771.86 2170.5 770.939 2171.67 769.814 2172.84 768.69 2174.17 767.338 2175.65 765.759L2180.32 770.496C2177.88 772.985 2175.67 775.102 2173.68 776.849 2171.69 778.595 2169.8 780.019 2168.01 781.119 2166.21 782.22 2164.44 783.021 2162.7 783.524 2160.95 784.026 2159.07 784.278 2157.06 784.278 2155.24 784.278 2153.61 783.943 2152.15 783.273 2150.69 782.603 2149.43 781.682 2148.38 780.509 2147.33 779.337 2146.51 777.937 2145.94 776.31 2145.36 774.683 2145.08 772.889 2145.08 770.927 2145.08 769.156 2145.26 766.967 2145.61 764.359 2145.97 761.751 2146.54 758.797 2147.3 755.495 2149.36 746.307 2151.4 737.144 2153.44 728.004 2155.47 718.865 2157.14 711.854 2158.43 706.973 2159.58 701.758 2160.15 698.193 2160.15 696.279 2160.15 695.274 2160.02 694.436 2159.75 693.766 2159.49 693.096 2159.01 692.546 2158.32 692.115 2157.63 691.685 2156.68 691.374 2155.48 691.182 2154.29 690.991 2152.73 690.847 2150.82 690.752L2151.82 685.871Z" fill-rule="evenodd"/><text fill="#000000" fill-opacity="0" font-family="Arial,Arial_MSFontService,sans-serif" font-size="99.2681" x="2145.08" y="771.869">𝑙</text></g></svg>