<svg width="2635" height="1764" xmlns="http://www.w3.org/2000/svg" xmlns:xlink="http://www.w3.org/1999/xlink" xml:space="preserve" overflow="hidden"><defs><clipPath id="clip0"><rect x="937" y="261" width="2635" height="1764"/></clipPath></defs><g clip-path="url(#clip0)" transform="translate(-937 -261)"><path d="M1087.59 665.93 1091.54 665.93C1091.25 670.524 1091.11 676.888 1091.11 685.023L1091.11 746.321C1091.11 749.096 1091.26 751.19 1091.57 752.601 1091.88 754.013 1092.43 755.161 1093.22 756.047 1094.01 756.932 1095.15 757.626 1096.63 758.128 1098.12 758.631 1099.98 759.013 1102.23 759.277 1104.48 759.54 1107.45 759.719 1111.13 759.815L1111.13 765.055 1058.09 765.055 1058.09 759.815C1063.4 759.576 1067.19 759.253 1069.46 758.846 1071.74 758.439 1073.47 757.829 1074.67 757.016 1075.86 756.202 1076.74 755.054 1077.29 753.57 1077.84 752.087 1078.11 749.67 1078.11 746.321L1078.11 688.109C1078.11 686.195 1077.78 684.796 1077.11 683.91 1076.44 683.025 1075.46 682.582 1074.17 682.582 1072.63 682.582 1070.46 683.372 1067.63 684.951 1064.81 686.53 1061.32 688.707 1057.15 691.483L1054 685.956Z" fill-rule="evenodd"/><text fill="#000000" fill-opacity="0" font-family="Arial,Arial_MSFontService,sans-serif" font-size="99.1245" x="1054" y="752.664">1</text><path d="M1094.86 890.19 1069.31 935.409 1097.37 935.409 1096.15 912.297C1096.01 909.139 1095.89 905.191 1095.79 900.454 1095.7 895.717 1095.65 892.295 1095.65 890.19ZM1095.29 875.045 1106.13 875.045 1111.3 955.076C1111.53 958.857 1111.96 961.812 1112.59 963.941 1113.21 966.07 1114.06 967.649 1115.14 968.678 1116.21 969.707 1117.78 970.365 1119.84 970.652L1119.05 974.169 1089.19 974.169 1089.98 970.652C1092.8 970.413 1094.91 969.312 1096.29 967.35 1097.68 965.388 1098.38 961.943 1098.38 957.014 1098.38 955.148 1098.3 953.115 1098.16 950.913L1097.66 941.654 1066.08 941.654 1062.13 948.688C1060.26 951.99 1058.9 954.825 1058.04 957.194 1057.17 959.563 1056.74 961.656 1056.74 963.474 1056.74 967.494 1059.16 969.887 1063.99 970.652L1063.2 974.169 1033.85 974.169 1034.64 970.652C1036.12 970.461 1037.52 969.875 1038.84 968.894 1040.15 967.913 1041.55 966.429 1043.03 964.443 1044.52 962.458 1046.6 959.168 1049.28 954.574Z" fill-rule="evenodd"/><text fill="#000000" fill-opacity="0" font-family="Arial,Arial_MSFontService,sans-serif" font-size="99.1245" x="1033.85" y="961.779">𝐴</text><path d="M1034.41 829.055 1128.41 829.055 1128.41 839.055 1034.41 839.055Z" fill-rule="evenodd"/><path d="M1199.35 702.106C1194.9 702.106 1190.78 703.864 1186.97 707.382 1183.17 710.899 1180.07 716.174 1177.68 723.208 1175.29 730.243 1174.09 737.205 1174.09 744.096 1174.09 748.402 1174.56 751.764 1175.49 754.18 1176.42 756.597 1177.65 758.26 1179.18 759.169 1180.72 760.078 1182.63 760.533 1184.93 760.533 1190.1 760.533 1194.51 758.463 1198.17 754.324 1201.83 750.185 1204.95 743.964 1207.54 735.662 1210.12 727.36 1211.41 720.816 1211.41 716.031 1211.41 711.15 1210.42 707.609 1208.43 705.408 1206.45 703.206 1203.42 702.106 1199.35 702.106ZM1203.09 661.911C1211.08 661.911 1217.06 664.626 1221.03 670.057 1225 675.488 1226.99 683.707 1226.99 694.713 1226.99 699.067 1226.61 704.247 1225.84 710.253 1225.07 716.258 1223.78 722.515 1221.96 729.022 1220.15 735.53 1218.04 741.057 1215.65 745.603 1213.26 750.149 1210.6 753.905 1207.68 756.872 1204.76 759.839 1201.4 762.136 1197.6 763.763 1193.79 765.39 1189.5 766.203 1184.71 766.203 1177.53 766.203 1171.85 764.05 1167.66 759.743 1163.48 755.436 1161.38 749.12 1161.38 740.794 1161.38 733.281 1162.96 726.056 1166.12 719.117 1169.28 712.179 1173.61 706.664 1179.11 702.572 1184.62 698.481 1190.65 696.435 1197.2 696.435 1200.65 696.435 1203.66 696.83 1206.24 697.62 1208.83 698.409 1211.7 699.953 1214.86 702.249L1215 700.455C1215.15 698.158 1215.22 696.172 1215.22 694.497 1215.22 685.454 1214.02 678.886 1211.63 674.795 1209.24 670.703 1205.5 668.658 1200.43 668.658 1196.94 668.658 1193.7 669.483 1190.71 671.134 1187.71 672.785 1184.78 675.333 1181.91 678.778L1176.74 678.778 1176.74 672.821C1181.29 669.615 1184.82 667.33 1187.33 665.966 1189.84 664.602 1192.36 663.585 1194.87 662.915 1197.38 662.246 1200.12 661.911 1203.09 661.911Z" fill-rule="evenodd"/><text fill="#000000" fill-opacity="0" font-family="Arial,Arial_MSFontService,sans-serif" font-size="104.292" x="1161.38" y="753.167">𝜕</text><path d="M1294.92 672.247C1289.75 672.247 1284.93 674.089 1280.46 677.773 1275.98 681.458 1272.06 686.722 1268.69 693.564 1265.31 700.407 1262.69 707.92 1260.83 716.102 1258.96 724.285 1258.03 731.511 1258.03 737.779 1258.03 752.565 1263.41 759.958 1274.18 759.958 1280.83 759.958 1286.93 756.86 1292.48 750.663 1298.03 744.466 1302.51 735.889 1305.9 724.931 1309.3 713.973 1311 703.733 1311 694.21 1311 687.081 1309.68 681.637 1307.05 677.881 1304.42 674.125 1300.38 672.247 1294.92 672.247ZM1295.71 665.93C1304.95 665.93 1312.06 668.61 1317.06 673.969 1322.06 679.329 1324.56 687.081 1324.56 697.225 1324.56 703.924 1323.51 711.413 1321.41 719.691 1319.3 727.97 1316.41 735.279 1312.72 741.619 1309.04 747.96 1304.77 753.068 1299.91 756.944 1295.05 760.82 1289.78 763.499 1284.08 764.983 1285.18 768.476 1286.21 771.359 1287.17 773.632 1288.13 775.905 1289.05 777.747 1289.93 779.159 1290.82 780.57 1291.69 781.623 1292.55 782.317 1293.41 783.011 1294.27 783.477 1295.14 783.717 1296 783.956 1297 784.076 1298.15 784.076 1299.97 784.076 1301.81 783.549 1303.68 782.497 1305.54 781.444 1307.63 779.625 1309.92 777.041L1313.65 781.061C1309.83 785.224 1306.26 788.167 1302.96 789.89 1299.66 791.612 1296.26 792.474 1292.77 792.474 1288.8 792.474 1285.55 791.588 1283.04 789.818 1280.53 788.047 1278.35 785.224 1276.51 781.348 1274.67 777.472 1272.88 772.4 1271.16 766.131 1262.5 765.653 1255.9 762.782 1251.35 757.518 1246.81 752.254 1244.53 744.837 1244.53 735.267 1244.53 728.089 1245.74 719.978 1248.16 710.935 1250.57 701.891 1254.07 693.911 1258.64 686.997 1263.21 680.082 1268.66 674.842 1275 671.278 1281.34 667.713 1288.25 665.93 1295.71 665.93Z" fill-rule="evenodd"/><text fill="#000000" fill-opacity="0" font-family="Arial,Arial_MSFontService,sans-serif" font-size="126.543" x="1244.53" y="776.656">𝑄</text><path d="M1220.35 911.221C1215.9 911.221 1211.77 912.979 1207.96 916.496 1204.16 920.013 1201.06 925.289 1198.67 932.323 1196.28 939.357 1195.08 946.32 1195.08 953.21 1195.08 957.517 1195.55 960.878 1196.48 963.295 1197.41 965.711 1198.65 967.374 1200.18 968.284 1201.71 969.193 1203.62 969.647 1205.92 969.647 1211.09 969.647 1215.5 967.578 1219.16 963.439 1222.82 959.299 1225.94 953.079 1228.53 944.776 1231.11 936.474 1232.4 929.93 1232.4 925.145 1232.4 920.264 1231.41 916.723 1229.43 914.522 1227.44 912.321 1224.41 911.221 1220.35 911.221ZM1283.55 887.821 1293.45 887.821 1289.5 905.55 1311.32 905.55 1309.74 912.8 1287.92 912.8 1281.54 940.649C1280.29 946.056 1279.5 949.944 1279.17 952.313 1278.83 954.682 1278.66 956.584 1278.66 958.019 1278.66 963.953 1281.13 966.92 1286.06 966.92 1288.16 966.92 1290.4 966.118 1292.77 964.515 1295.14 962.912 1297.95 960.173 1301.2 956.297L1305.37 960.603C1301.2 965.628 1297.19 969.336 1293.34 971.729 1289.49 974.121 1285.46 975.318 1281.25 975.318 1271.25 975.318 1266.25 970.269 1266.25 960.173 1266.25 956.967 1266.65 953.593 1267.47 950.052L1275.94 912.8 1263.88 912.8 1264.95 907.847C1267.78 907.799 1269.92 907.584 1271.38 907.201 1272.84 906.818 1274.06 906.292 1275.04 905.622 1276.02 904.952 1276.92 903.995 1277.73 902.751 1278.54 901.507 1279.33 899.916 1280.1 897.978 1280.87 896.04 1282.01 892.654 1283.55 887.821ZM1224.08 871.025C1232.07 871.025 1238.05 873.741 1242.02 879.172 1245.99 884.603 1247.98 892.822 1247.98 903.827 1247.98 908.182 1247.6 913.362 1246.83 919.367 1246.07 925.373 1244.77 931.629 1242.96 938.137 1241.14 944.645 1239.03 950.172 1236.64 954.718 1234.25 959.263 1231.59 963.02 1228.67 965.987 1225.75 968.953 1222.39 971.25 1218.59 972.877 1214.78 974.504 1210.49 975.318 1205.7 975.318 1198.53 975.318 1192.84 973.164 1188.66 968.858 1184.47 964.551 1182.38 958.235 1182.38 949.909 1182.38 942.396 1183.95 935.17 1187.11 928.232 1190.27 921.293 1194.6 915.778 1200.1 911.687 1205.61 907.596 1211.64 905.55 1218.19 905.55 1221.64 905.55 1224.65 905.945 1227.24 906.734 1229.82 907.524 1232.69 909.067 1235.85 911.364L1235.99 909.57C1236.14 907.273 1236.21 905.287 1236.21 903.612 1236.21 894.568 1235.01 888.001 1232.62 883.909 1230.23 879.818 1226.49 877.772 1221.42 877.772 1217.93 877.772 1214.69 878.598 1211.7 880.249 1208.71 881.899 1205.78 884.448 1202.9 887.893L1197.74 887.893 1197.74 881.935C1202.28 878.729 1205.81 876.444 1208.32 875.081 1210.84 873.717 1213.35 872.7 1215.86 872.03 1218.37 871.36 1221.11 871.025 1224.08 871.025Z" fill-rule="evenodd"/><text fill="#000000" fill-opacity="0" font-family="Arial,Arial_MSFontService,sans-serif" font-size="104.292" x="1182.38" y="962.281">𝜕𝑡</text><path d="M1153.41 829.055 1338.41 829.055 1338.41 839.055 1153.41 839.055Z" fill-rule="evenodd"/><path d="M1420.67 787.92 1430.86 787.92 1430.86 829.264 1469.98 829.264 1469.98 838.811 1430.86 838.811 1430.86 880.154 1420.67 880.154 1420.67 838.811 1381.55 838.811 1381.55 829.264 1420.67 829.264Z" fill-rule="evenodd"/><text fill="#000000" fill-opacity="0" font-family="Arial,Arial_MSFontService,sans-serif" font-size="92.2339" x="1381.55" y="868.625">+</text><path d="M1565.68 665.93 1569.62 665.93C1569.34 670.524 1569.19 676.888 1569.19 685.023L1569.19 746.321C1569.19 749.096 1569.35 751.19 1569.66 752.601 1569.97 754.013 1570.52 755.161 1571.31 756.047 1572.1 756.932 1573.24 757.626 1574.72 758.128 1576.2 758.631 1578.07 759.013 1580.32 759.277 1582.57 759.54 1585.53 759.719 1589.22 759.815L1589.22 765.055 1536.18 765.055 1536.18 759.815C1541.49 759.576 1545.28 759.253 1547.55 758.846 1549.82 758.439 1551.56 757.829 1552.76 757.016 1553.95 756.202 1554.83 755.054 1555.38 753.57 1555.93 752.087 1556.2 749.67 1556.2 746.321L1556.2 688.109C1556.2 686.195 1555.87 684.796 1555.2 683.91 1554.53 683.025 1553.55 682.582 1552.25 682.582 1550.72 682.582 1548.54 683.372 1545.72 684.951 1542.9 686.53 1539.41 688.707 1535.24 691.483L1532.08 685.956Z" fill-rule="evenodd"/><text fill="#000000" fill-opacity="0" font-family="Arial,Arial_MSFontService,sans-serif" font-size="99.1245" x="1532.08" y="752.664">1</text><path d="M1572.95 890.19 1547.39 935.409 1575.46 935.409 1574.24 912.297C1574.09 909.139 1573.97 905.191 1573.88 900.454 1573.78 895.717 1573.73 892.295 1573.73 890.19ZM1573.38 875.045 1584.21 875.045 1589.38 955.076C1589.62 958.857 1590.05 961.812 1590.67 963.941 1591.3 966.07 1592.15 967.649 1593.22 968.678 1594.3 969.707 1595.87 970.365 1597.92 970.652L1597.13 974.169 1567.28 974.169 1568.06 970.652C1570.89 970.413 1572.99 969.312 1574.38 967.35 1575.77 965.388 1576.46 961.943 1576.46 957.014 1576.46 955.148 1576.39 953.115 1576.25 950.913L1575.74 941.654 1544.16 941.654 1540.21 948.688C1538.35 951.99 1536.98 954.825 1536.12 957.194 1535.26 959.563 1534.83 961.656 1534.83 963.474 1534.83 967.494 1537.25 969.887 1542.08 970.652L1541.29 974.169 1511.93 974.169 1512.72 970.652C1514.21 970.461 1515.61 969.875 1516.92 968.894 1518.24 967.913 1519.64 966.429 1521.12 964.443 1522.61 962.458 1524.69 959.168 1527.37 954.574Z" fill-rule="evenodd"/><text fill="#000000" fill-opacity="0" font-family="Arial,Arial_MSFontService,sans-serif" font-size="99.1245" x="1511.93" y="961.779">𝐴</text><path d="M1512.41 829.055 1606.41 829.055 1606.41 839.055 1512.41 839.055Z" fill-rule="evenodd"/><path d="M1716.74 702.106C1712.29 702.106 1708.17 703.864 1704.36 707.382 1700.56 710.899 1697.46 716.174 1695.07 723.208 1692.67 730.243 1691.48 737.205 1691.48 744.096 1691.48 748.402 1691.94 751.764 1692.88 754.18 1693.81 756.597 1695.04 758.26 1696.57 759.169 1698.11 760.078 1700.02 760.533 1702.32 760.533 1707.48 760.533 1711.9 758.463 1715.56 754.324 1719.22 750.185 1722.34 743.964 1724.93 735.662 1727.51 727.36 1728.8 720.816 1728.8 716.031 1728.8 711.15 1727.81 707.609 1725.82 705.408 1723.84 703.206 1720.81 702.106 1716.74 702.106ZM1720.48 661.911C1728.47 661.911 1734.45 664.626 1738.42 670.057 1742.39 675.488 1744.38 683.707 1744.38 694.713 1744.38 699.067 1744 704.247 1743.23 710.253 1742.46 716.258 1741.17 722.515 1739.35 729.022 1737.54 735.53 1735.43 741.057 1733.04 745.603 1730.64 750.149 1727.99 753.905 1725.07 756.872 1722.15 759.839 1718.79 762.136 1714.99 763.763 1711.18 765.39 1706.89 766.203 1702.1 766.203 1694.92 766.203 1689.24 764.05 1685.05 759.743 1680.87 755.436 1678.77 749.12 1678.77 740.794 1678.77 733.281 1680.35 726.056 1683.51 719.117 1686.67 712.179 1691 706.664 1696.5 702.572 1702.01 698.481 1708.04 696.435 1714.59 696.435 1718.04 696.435 1721.05 696.83 1723.63 697.62 1726.22 698.409 1729.09 699.953 1732.25 702.249L1732.39 700.455C1732.54 698.158 1732.61 696.172 1732.61 694.497 1732.61 685.454 1731.41 678.886 1729.02 674.795 1726.63 670.703 1722.89 668.658 1717.82 668.658 1714.33 668.658 1711.09 669.483 1708.09 671.134 1705.1 672.785 1702.17 675.333 1699.3 678.778L1694.13 678.778 1694.13 672.821C1698.68 669.615 1702.21 667.33 1704.72 665.966 1707.23 664.602 1709.75 663.585 1712.26 662.915 1714.77 662.246 1717.51 661.911 1720.48 661.911Z" fill-rule="evenodd"/><text fill="#000000" fill-opacity="0" font-family="Arial,Arial_MSFontService,sans-serif" font-size="104.292" x="1678.77" y="753.167">𝜕</text><path d="M1677.44 911.221C1672.99 911.221 1668.86 912.979 1665.06 916.496 1661.26 920.013 1658.16 925.289 1655.77 932.323 1653.37 939.357 1652.18 946.32 1652.18 953.21 1652.18 957.517 1652.64 960.878 1653.58 963.295 1654.51 965.711 1655.74 967.374 1657.27 968.284 1658.8 969.193 1660.72 969.647 1663.01 969.647 1668.18 969.647 1672.6 967.578 1676.26 963.439 1679.92 959.299 1683.04 953.079 1685.62 944.776 1688.21 936.474 1689.5 929.93 1689.5 925.145 1689.5 920.264 1688.51 916.723 1686.52 914.522 1684.54 912.321 1681.51 911.221 1677.44 911.221ZM1740.93 904.33C1742.41 904.33 1743.72 904.497 1744.84 904.832 1745.96 905.167 1746.96 905.682 1747.82 906.376 1748.68 907.069 1749.45 907.967 1750.12 909.067 1750.79 910.168 1751.43 911.663 1752.05 913.553 1752.68 915.443 1753.26 917.788 1753.81 920.587 1754.36 923.387 1754.85 926.294 1755.28 929.308L1756 929.308C1760.6 922.848 1764.08 918.123 1766.45 915.132 1768.81 912.142 1770.81 909.917 1772.44 908.457 1774.07 906.998 1775.63 905.969 1777.14 905.371 1778.65 904.773 1780.65 904.473 1783.13 904.473 1785.38 904.473 1787.22 904.761 1788.66 905.335L1785.79 918.326 1780.76 918.326C1780.48 916.317 1779.64 915.312 1778.25 915.312 1777.82 915.312 1777.37 915.384 1776.89 915.527 1776.41 915.671 1775.82 915.982 1775.13 916.46 1774.44 916.939 1773.42 917.872 1772.08 919.26 1770.74 920.647 1769.23 922.346 1767.56 924.356 1765.88 926.366 1764.16 928.471 1762.39 930.672L1757.51 936.773C1758.37 941.367 1759.18 945.339 1759.95 948.688 1760.71 952.038 1761.4 954.825 1761.99 957.05 1762.59 959.275 1763.12 961.034 1763.57 962.326 1764.03 963.618 1764.52 964.587 1765.05 965.233 1765.57 965.879 1766.11 966.334 1766.66 966.597 1767.21 966.86 1767.84 966.992 1768.56 966.992 1769.85 966.992 1771.11 966.489 1772.33 965.484 1773.55 964.479 1775.31 962.206 1777.61 958.665L1782.27 961.752C1778.92 966.728 1775.9 970.233 1773.19 972.267 1770.49 974.301 1767.27 975.318 1763.54 975.318 1761.48 975.318 1759.73 974.947 1758.3 974.205 1756.86 973.463 1755.62 972.279 1754.57 970.652 1753.51 969.025 1752.58 966.489 1751.77 963.044 1750.28 956.919 1749.37 952.229 1749.04 948.975L1748.32 948.975C1743.25 956.105 1739.48 961.225 1737.02 964.336 1734.55 967.446 1732.52 969.743 1730.92 971.226 1729.31 972.71 1727.76 973.751 1726.25 974.349 1724.74 974.947 1722.74 975.246 1720.26 975.246 1718.01 975.246 1716.17 974.959 1714.73 974.385L1717.6 961.393 1722.62 961.393C1722.91 963.403 1723.75 964.408 1725.14 964.408 1725.81 964.408 1726.51 964.228 1727.25 963.869 1728 963.51 1729.06 962.649 1730.45 961.285 1731.84 959.921 1733.75 957.78 1736.19 954.861 1738.63 951.942 1742.17 947.564 1746.81 941.726 1746.1 937.946 1745.35 934.309 1744.59 930.816 1743.82 927.323 1743.03 924.069 1742.22 921.054 1741.41 918.039 1740.74 916.065 1740.21 915.132 1739.68 914.199 1739.12 913.553 1738.52 913.194 1737.93 912.836 1737.17 912.656 1736.26 912.656 1735.26 912.656 1734.35 912.883 1733.54 913.338 1732.72 913.793 1731.84 914.582 1730.88 915.707 1729.92 916.831 1728.65 918.59 1727.08 920.982L1722.41 917.896C1725.42 913.35 1728.32 909.952 1731.09 907.703 1733.87 905.454 1737.15 904.33 1740.93 904.33ZM1681.17 871.025C1689.17 871.025 1695.15 873.741 1699.12 879.172 1703.09 884.603 1705.08 892.822 1705.08 903.827 1705.08 908.182 1704.69 913.362 1703.93 919.367 1703.16 925.373 1701.87 931.629 1700.05 938.137 1698.23 944.645 1696.13 950.172 1693.74 954.718 1691.34 959.263 1688.69 963.02 1685.77 965.987 1682.85 968.953 1679.49 971.25 1675.68 972.877 1671.88 974.504 1667.58 975.318 1662.8 975.318 1655.62 975.318 1649.94 973.164 1645.75 968.858 1641.57 964.551 1639.47 958.235 1639.47 949.909 1639.47 942.396 1641.05 935.17 1644.21 928.232 1647.37 921.293 1651.7 915.778 1657.2 911.687 1662.7 907.596 1668.73 905.55 1675.29 905.55 1678.73 905.55 1681.75 905.945 1684.33 906.734 1686.92 907.524 1689.79 909.067 1692.95 911.364L1693.09 909.57C1693.23 907.273 1693.3 905.287 1693.3 903.612 1693.3 894.568 1692.11 888.001 1689.72 883.909 1687.32 879.818 1683.59 877.772 1678.52 877.772 1675.03 877.772 1671.78 878.598 1668.79 880.249 1665.8 881.899 1662.87 884.448 1660 887.893L1654.83 887.893 1654.83 881.935C1659.38 878.729 1662.91 876.444 1665.42 875.081 1667.93 873.717 1670.44 872.7 1672.96 872.03 1675.47 871.36 1678.21 871.025 1681.17 871.025Z" fill-rule="evenodd"/><text fill="#000000" fill-opacity="0" font-family="Arial,Arial_MSFontService,sans-serif" font-size="104.292" x="1639.47" y="962.281">𝜕𝑥</text><path d="M1631.41 829.055 1795.41 829.055 1795.41 839.055 1631.41 839.055Z" fill-rule="evenodd"/><path d="M2083.4 646.682C2103.07 663.526 2118.68 688.648 2130.23 722.049 2141.79 755.449 2147.57 792.725 2147.57 833.878 2147.57 874.408 2141.79 911.625 2130.23 945.527 2118.68 979.43 2103.07 1004.76 2083.4 1021.5L2080.03 1016.19C2097.01 998.918 2110.1 973.915 2119.29 941.185 2128.48 908.454 2133.07 872.709 2133.07 833.95 2133.07 794.281 2128.45 758.368 2119.22 726.212 2109.98 694.056 2096.92 669.34 2080.03 652.066ZM1895.97 646.682 1899.35 652.066C1882.41 669.34 1869.33 694.056 1860.12 726.212 1850.91 758.368 1846.3 794.281 1846.3 833.95 1846.3 872.709 1850.9 908.454 1860.08 941.185 1869.27 973.915 1882.36 998.918 1899.35 1016.19L1895.97 1021.5C1876.31 1004.76 1860.69 979.43 1849.14 945.527 1837.58 911.625 1831.8 874.408 1831.8 833.878 1831.8 792.725 1837.58 755.449 1849.14 722.049 1860.69 688.648 1876.31 663.526 1895.97 646.682Z" fill-rule="evenodd"/><path d="M1963.97 672.247C1958.8 672.247 1953.98 674.089 1949.51 677.773 1945.04 681.458 1941.11 686.722 1937.74 693.564 1934.36 700.407 1931.74 707.92 1929.88 716.102 1928.01 724.285 1927.08 731.511 1927.08 737.779 1927.08 752.565 1932.46 759.958 1943.23 759.958 1949.88 759.958 1955.98 756.86 1961.53 750.663 1967.08 744.466 1971.56 735.889 1974.95 724.931 1978.35 713.973 1980.05 703.733 1980.05 694.21 1980.05 687.081 1978.73 681.637 1976.1 677.881 1973.47 674.125 1969.43 672.247 1963.97 672.247ZM1964.76 665.93C1974 665.93 1981.12 668.61 1986.12 673.969 1991.12 679.329 1993.62 687.081 1993.62 697.225 1993.62 703.924 1992.56 711.413 1990.46 719.691 1988.35 727.97 1985.46 735.279 1981.77 741.619 1978.09 747.96 1973.82 753.068 1968.96 756.944 1964.1 760.82 1958.83 763.499 1953.13 764.983 1954.23 768.476 1955.26 771.359 1956.22 773.632 1957.18 775.905 1958.1 777.747 1958.98 779.159 1959.87 780.57 1960.74 781.623 1961.6 782.317 1962.47 783.011 1963.33 783.477 1964.19 783.717 1965.05 783.956 1966.05 784.076 1967.2 784.076 1969.02 784.076 1970.86 783.549 1972.73 782.497 1974.6 781.444 1976.68 779.625 1978.97 777.041L1982.71 781.061C1978.88 785.224 1975.31 788.167 1972.01 789.89 1968.71 791.612 1965.31 792.474 1961.82 792.474 1957.85 792.474 1954.61 791.588 1952.09 789.818 1949.58 788.047 1947.4 785.224 1945.56 781.348 1943.72 777.472 1941.94 772.4 1940.21 766.131 1931.55 765.653 1924.95 762.782 1920.4 757.518 1915.86 752.254 1913.58 744.837 1913.58 735.267 1913.58 728.089 1914.79 719.978 1917.21 710.935 1919.63 701.891 1923.12 693.911 1927.69 686.997 1932.26 680.082 1937.71 674.842 1944.05 671.278 1950.39 667.713 1957.3 665.93 1964.76 665.93Z" fill-rule="evenodd"/><text fill="#000000" fill-opacity="0" font-family="Arial,Arial_MSFontService,sans-serif" font-size="126.543" x="1913.58" y="776.656">𝑄</text><path d="M2038.51 643.679C2042.13 643.679 2045.22 644.089 2047.78 644.907 2050.34 645.726 2052.42 646.832 2054.03 648.225 2055.63 649.618 2056.79 651.29 2057.5 653.24 2058.21 655.191 2058.57 657.298 2058.57 659.562 2058.57 660.921 2058.48 662.183 2058.28 663.35 2058.09 664.517 2057.76 665.666 2057.29 666.798 2056.82 667.93 2056.2 669.071 2055.44 670.22 2054.67 671.37 2053.71 672.589 2052.56 673.878 2051.69 674.992 2050.56 676.281 2049.17 677.744 2047.77 679.207 2046.25 680.774 2044.6 682.446 2042.94 684.118 2041.21 685.859 2039.4 687.671 2037.59 689.482 2035.83 691.276 2034.12 693.052 2032.41 694.828 2030.85 696.552 2029.42 698.224 2027.99 699.896 2026.82 701.429 2025.92 702.822L2045.25 702.822C2046.89 702.822 2048.19 702.761 2049.17 702.639 2050.14 702.517 2050.95 702.247 2051.6 701.829 2052.24 701.411 2052.79 700.776 2053.24 699.922 2053.7 699.069 2054.22 697.893 2054.81 696.396L2059.67 696.396C2059.49 698.869 2059.33 701.359 2059.17 703.867 2059.02 706.375 2058.85 708.865 2058.68 711.338L2014.42 711.338 2014.42 708.621C2015.26 706.74 2016.23 704.886 2017.35 703.057 2018.46 701.228 2019.72 699.374 2021.11 697.493 2022.5 695.612 2024.09 693.67 2025.87 691.667 2027.64 689.665 2029.61 687.583 2031.77 685.424 2035.04 682.15 2037.71 679.355 2039.76 677.038 2041.82 674.722 2043.44 672.659 2044.62 670.847 2045.81 669.036 2046.62 667.364 2047.05 665.832 2047.49 664.299 2047.7 662.662 2047.7 660.921 2047.7 659.144 2047.45 657.507 2046.95 656.009 2046.44 654.512 2045.72 653.24 2044.78 652.195 2043.84 651.151 2042.64 650.332 2041.2 649.74 2039.75 649.148 2038.09 648.852 2036.21 648.852 2032.97 648.852 2030.25 649.731 2028.06 651.49 2025.87 653.249 2024.16 655.8 2022.94 659.144L2016.1 659.144 2016.1 648.956C2020.55 647.11 2024.65 645.769 2028.4 644.933 2032.14 644.097 2035.51 643.679 2038.51 643.679Z" fill-rule="evenodd"/><text fill="#000000" fill-opacity="0" font-family="Arial,Arial_MSFontService,sans-serif" font-size="67.6587" x="2014.42" y="702.881">2</text><path d="M2002.54 890.19 1976.99 935.409 2005.05 935.409 2003.83 912.297C2003.69 909.139 2003.57 905.191 2003.47 900.454 2003.38 895.717 2003.33 892.295 2003.33 890.19ZM2002.97 875.045 2013.81 875.045 2018.98 955.076C2019.22 958.857 2019.65 961.812 2020.27 963.941 2020.89 966.07 2021.74 967.649 2022.82 968.678 2023.9 969.707 2025.46 970.365 2027.52 970.652L2026.73 974.169 1996.87 974.169 1997.66 970.652C2000.48 970.413 2002.59 969.312 2003.98 967.35 2005.36 965.388 2006.06 961.943 2006.06 957.014 2006.06 955.148 2005.99 953.115 2005.84 950.913L2005.34 941.654 1973.76 941.654 1969.81 948.688C1967.94 951.99 1966.58 954.825 1965.72 957.194 1964.86 959.563 1964.43 961.656 1964.43 963.474 1964.43 967.494 1966.84 969.887 1971.68 970.652L1970.89 974.169 1941.53 974.169 1942.32 970.652C1943.8 970.461 1945.2 969.875 1946.52 968.894 1947.83 967.913 1949.23 966.429 1950.72 964.443 1952.2 962.458 1954.28 959.168 1956.96 954.574Z" fill-rule="evenodd"/><text fill="#000000" fill-opacity="0" font-family="Arial,Arial_MSFontService,sans-serif" font-size="99.1245" x="1941.53" y="961.779">𝐴</text><path d="M1903.41 829.055 2074.41 829.055 2074.41 839.055 1903.41 839.055Z" fill-rule="evenodd"/><path d="M2238.8 811.894C2233.92 811.894 2229.54 813.868 2225.67 817.816 2221.79 821.763 2218.74 827.087 2216.51 833.786 2214.29 840.485 2213.18 847.161 2213.18 853.812 2213.18 858.789 2213.89 862.509 2215.33 864.973 2216.76 867.438 2219.01 868.67 2222.08 868.67 2224.52 868.67 2226.95 867.833 2229.36 866.158 2231.78 864.483 2234.36 861.827 2237.11 858.19 2239.87 854.554 2242.01 851.084 2243.54 847.783 2245.07 844.481 2246.37 840.366 2247.45 835.437 2248.53 830.508 2249.06 826.226 2249.06 822.589 2249.06 818.856 2248.28 816.141 2246.7 814.442 2245.12 812.743 2242.49 811.894 2238.8 811.894ZM2237.65 806.224C2240.67 806.224 2243.51 806.583 2246.19 807.3 2248.87 808.018 2251.58 809.238 2254.3 810.961L2260.91 806.224 2265.5 807.372 2258.11 840.82C2257.58 843.165 2256.39 849.075 2254.52 858.549 2252.56 868.598 2250.97 875.704 2249.75 879.867 2248.53 884.03 2247.01 887.823 2245.19 891.244 2243.37 894.665 2241.03 897.644 2238.15 900.18 2235.28 902.716 2231.8 904.678 2227.71 906.066 2223.62 907.454 2218.77 908.147 2213.18 908.147 2195.09 908.147 2186.04 902.884 2186.04 892.356 2186.04 889.677 2186.86 887.236 2188.48 885.035 2190.11 882.834 2192.72 880.513 2196.31 878.073L2201.48 882.236C2200.57 883.336 2199.8 884.425 2199.18 885.502 2198.56 886.578 2198.11 887.619 2197.85 888.624 2197.59 889.629 2197.46 890.825 2197.46 892.213 2197.46 895.802 2198.75 898.422 2201.33 900.073 2203.92 901.723 2207.82 902.549 2213.03 902.549 2218.92 902.549 2223.64 901.221 2227.21 898.565 2230.77 895.909 2233.82 891.639 2236.36 885.753 2238.9 879.867 2241.36 870.967 2243.75 859.052L2242.75 858.836C2238.11 865.201 2233.8 869.842 2229.83 872.761 2225.86 875.68 2221.57 877.14 2216.98 877.14 2211.76 877.14 2207.71 875.178 2204.81 871.254 2201.92 867.33 2200.47 861.731 2200.47 854.458 2200.47 846.275 2202.07 838.416 2205.28 830.879 2208.49 823.343 2212.94 817.349 2218.63 812.899 2224.33 808.449 2230.67 806.224 2237.65 806.224Z" fill-rule="evenodd"/><text fill="#000000" fill-opacity="0" font-family="Arial,Arial_MSFontService,sans-serif" font-size="101.924" x="2186.04" y="895.407">𝑔</text><path d="M2346.65 702.106C2342.2 702.106 2338.08 703.864 2334.27 707.382 2330.47 710.899 2327.37 716.174 2324.98 723.208 2322.58 730.243 2321.39 737.205 2321.39 744.096 2321.39 748.402 2321.86 751.764 2322.79 754.18 2323.72 756.597 2324.95 758.26 2326.48 759.169 2328.02 760.078 2329.93 760.533 2332.23 760.533 2337.4 760.533 2341.81 758.463 2345.47 754.324 2349.13 750.185 2352.25 743.964 2354.84 735.662 2357.42 727.36 2358.71 720.816 2358.71 716.031 2358.71 711.15 2357.72 707.609 2355.73 705.408 2353.75 703.206 2350.72 702.106 2346.65 702.106ZM2350.39 661.911C2358.38 661.911 2364.36 664.626 2368.33 670.057 2372.3 675.488 2374.29 683.707 2374.29 694.713 2374.29 699.067 2373.91 704.247 2373.14 710.253 2372.37 716.258 2371.08 722.515 2369.26 729.022 2367.45 735.53 2365.34 741.057 2362.95 745.603 2360.56 750.149 2357.9 753.905 2354.98 756.872 2352.06 759.839 2348.7 762.136 2344.9 763.763 2341.09 765.39 2336.8 766.203 2332.01 766.203 2324.83 766.203 2319.15 764.05 2314.96 759.743 2310.78 755.436 2308.68 749.12 2308.68 740.794 2308.68 733.281 2310.26 726.056 2313.42 719.117 2316.58 712.179 2320.91 706.664 2326.41 702.572 2331.92 698.481 2337.95 696.435 2344.5 696.435 2347.95 696.435 2350.96 696.83 2353.54 697.62 2356.13 698.409 2359 699.953 2362.16 702.249L2362.3 700.455C2362.45 698.158 2362.52 696.172 2362.52 694.497 2362.52 685.454 2361.32 678.886 2358.93 674.795 2356.54 670.703 2352.8 668.658 2347.73 668.658 2344.24 668.658 2341 669.483 2338.01 671.134 2335.01 672.785 2332.08 675.333 2329.21 678.778L2324.04 678.778 2324.04 672.821C2328.59 669.615 2332.12 667.33 2334.63 665.966 2337.14 664.602 2339.66 663.585 2342.17 662.915 2344.68 662.246 2347.42 661.911 2350.39 661.911Z" fill-rule="evenodd"/><text fill="#000000" fill-opacity="0" font-family="Arial,Arial_MSFontService,sans-serif" font-size="104.292" x="2308.68" y="753.167">𝜕</text><path d="M2405.83 695.287C2407.79 695.287 2409.47 695.55 2410.85 696.077 2411.81 696.459 2412.77 697.093 2413.72 697.979 2414.68 698.864 2415.53 700.096 2416.27 701.675 2417.01 703.254 2417.66 705.025 2418.21 706.987 2418.76 708.949 2419.37 711.772 2420.04 715.456 2421.19 721.629 2422.3 728.125 2423.38 734.944 2424.46 741.763 2425.38 748.091 2426.14 753.929 2430.78 747.23 2434.72 740.674 2437.95 734.262 2441.18 727.85 2443.5 722.275 2444.91 717.538 2446.32 712.801 2447.03 708.949 2447.03 705.982 2447.03 703.733 2446.55 702.202 2445.59 701.388 2444.64 700.575 2443.01 700.096 2440.71 699.953L2441.43 696.435 2460.31 696.435 2462.25 700.024C2458.61 709.977 2453.68 720.624 2447.46 731.965 2441.34 743.067 2434.32 754.121 2426.43 765.126 2418.87 775.606 2412.58 783.19 2407.55 787.88 2404.06 791.086 2400.69 793.383 2397.43 794.77 2394.85 795.823 2392.1 796.35 2389.18 796.35 2388.17 796.35 2387.01 796.266 2385.7 796.098 2384.38 795.931 2383.36 795.704 2382.65 795.416L2385.73 781.492 2391.4 781.492C2391.4 784.554 2392.45 786.085 2394.56 786.085 2397.34 786.085 2400.57 784.351 2404.25 780.882 2407.93 777.412 2412.27 772.185 2417.24 765.198 2415.85 756.824 2413.96 746.727 2411.57 734.908 2409.04 722.275 2407.36 714.452 2406.55 711.437 2405.54 707.8 2404.49 705.479 2403.39 704.475 2402.72 703.852 2401.88 703.541 2400.88 703.541 2399.35 703.541 2397.91 704.164 2396.57 705.408 2395.23 706.652 2393.58 708.805 2391.62 711.868L2386.95 708.781C2390.25 703.852 2393.34 700.371 2396.21 698.338 2399.08 696.304 2402.29 695.287 2405.83 695.287Z" fill-rule="evenodd"/><text fill="#000000" fill-opacity="0" font-family="Arial,Arial_MSFontService,sans-serif" font-size="101.062" x="2382.65" y="783.717">𝑦</text><path d="M2347.69 911.221C2343.24 911.221 2339.11 912.979 2335.3 916.496 2331.5 920.013 2328.4 925.289 2326.01 932.323 2323.62 939.357 2322.42 946.32 2322.42 953.21 2322.42 957.517 2322.89 960.878 2323.82 963.295 2324.75 965.711 2325.98 967.374 2327.52 968.284 2329.05 969.193 2330.96 969.647 2333.26 969.647 2338.43 969.647 2342.84 967.578 2346.5 963.439 2350.16 959.299 2353.28 953.079 2355.87 944.776 2358.45 936.474 2359.74 929.93 2359.74 925.145 2359.74 920.264 2358.75 916.723 2356.77 914.522 2354.78 912.321 2351.75 911.221 2347.69 911.221ZM2411.17 904.33C2412.66 904.33 2413.96 904.497 2415.08 904.832 2416.21 905.167 2417.2 905.682 2418.06 906.376 2418.92 907.069 2419.69 907.967 2420.36 909.067 2421.03 910.168 2421.68 911.663 2422.3 913.553 2422.92 915.443 2423.51 917.788 2424.06 920.587 2424.61 923.387 2425.1 926.294 2425.53 929.308L2426.25 929.308C2430.84 922.848 2434.32 918.123 2436.69 915.132 2439.06 912.142 2441.06 909.917 2442.68 908.457 2444.31 906.998 2445.88 905.969 2447.38 905.371 2448.89 904.773 2450.89 904.473 2453.38 904.473 2455.63 904.473 2457.47 904.761 2458.9 905.335L2456.03 918.326 2451.01 918.326C2450.72 916.317 2449.88 915.312 2448.5 915.312 2448.07 915.312 2447.61 915.384 2447.13 915.527 2446.65 915.671 2446.07 915.982 2445.37 916.46 2444.68 916.939 2443.66 917.872 2442.32 919.26 2440.98 920.647 2439.48 922.346 2437.8 924.356 2436.13 926.366 2434.4 928.471 2432.63 930.672L2427.75 936.773C2428.61 941.367 2429.43 945.339 2430.19 948.688 2430.96 952.038 2431.64 954.825 2432.24 957.05 2432.84 959.275 2433.36 961.034 2433.82 962.326 2434.27 963.618 2434.76 964.587 2435.29 965.233 2435.82 965.879 2436.35 966.334 2436.9 966.597 2437.45 966.86 2438.09 966.992 2438.81 966.992 2440.1 966.992 2441.35 966.489 2442.57 965.484 2443.79 964.479 2445.55 962.206 2447.85 958.665L2452.52 961.752C2449.17 966.728 2446.14 970.233 2443.44 972.267 2440.73 974.301 2437.51 975.318 2433.78 975.318 2431.72 975.318 2429.98 974.947 2428.54 974.205 2427.11 973.463 2425.86 972.279 2424.81 970.652 2423.76 969.025 2422.82 966.489 2422.01 963.044 2420.53 956.919 2419.62 952.229 2419.28 948.975L2418.56 948.975C2413.49 956.105 2409.72 961.225 2407.26 964.336 2404.8 967.446 2402.76 969.743 2401.16 971.226 2399.56 972.71 2398 973.751 2396.49 974.349 2394.99 974.947 2392.99 975.246 2390.5 975.246 2388.25 975.246 2386.41 974.959 2384.97 974.385L2387.84 961.393 2392.87 961.393C2393.16 963.403 2393.99 964.408 2395.38 964.408 2396.05 964.408 2396.76 964.228 2397.5 963.869 2398.24 963.51 2399.3 962.649 2400.69 961.285 2402.08 959.921 2403.99 957.78 2406.43 954.861 2408.88 951.942 2412.42 947.564 2417.06 941.726 2416.34 937.946 2415.6 934.309 2414.83 930.816 2414.07 927.323 2413.28 924.069 2412.46 921.054 2411.65 918.039 2410.98 916.065 2410.45 915.132 2409.93 914.199 2409.37 913.553 2408.77 913.194 2408.17 912.836 2407.42 912.656 2406.51 912.656 2405.5 912.656 2404.59 912.883 2403.78 913.338 2402.97 913.793 2402.08 914.582 2401.12 915.707 2400.17 916.831 2398.9 918.59 2397.32 920.982L2392.65 917.896C2395.67 913.35 2398.56 909.952 2401.34 907.703 2404.11 905.454 2407.39 904.33 2411.17 904.33ZM2351.42 871.025C2359.41 871.025 2365.39 873.741 2369.36 879.172 2373.33 884.603 2375.32 892.822 2375.32 903.827 2375.32 908.182 2374.94 913.362 2374.17 919.367 2373.41 925.373 2372.11 931.629 2370.3 938.137 2368.48 944.645 2366.37 950.172 2363.98 954.718 2361.59 959.263 2358.93 963.02 2356.01 965.987 2353.09 968.953 2349.73 971.25 2345.93 972.877 2342.12 974.504 2337.83 975.318 2333.04 975.318 2325.87 975.318 2320.18 973.164 2316 968.858 2311.81 964.551 2309.72 958.235 2309.72 949.909 2309.72 942.396 2311.29 935.17 2314.45 928.232 2317.61 921.293 2321.94 915.778 2327.44 911.687 2332.95 907.596 2338.98 905.55 2345.53 905.55 2348.98 905.55 2351.99 905.945 2354.58 906.734 2357.16 907.524 2360.03 909.067 2363.19 911.364L2363.33 909.57C2363.48 907.273 2363.55 905.287 2363.55 903.612 2363.55 894.568 2362.35 888.001 2359.96 883.909 2357.57 879.818 2353.83 877.772 2348.76 877.772 2345.27 877.772 2342.03 878.598 2339.04 880.249 2336.05 881.899 2333.11 884.448 2330.24 887.893L2325.08 887.893 2325.08 881.935C2329.62 878.729 2333.15 876.444 2335.66 875.081 2338.18 873.717 2340.69 872.7 2343.2 872.03 2345.71 871.36 2348.45 871.025 2351.42 871.025Z" fill-rule="evenodd"/><text fill="#000000" fill-opacity="0" font-family="Arial,Arial_MSFontService,sans-serif" font-size="104.292" x="2309.72" y="962.281">𝜕𝑥</text><path d="M2300.41 829.055 2466.41 829.055 2466.41 839.055 2300.41 839.055Z" fill-rule="evenodd"/><path d="M2548.97 787.92 2559.16 787.92 2559.16 829.264 2598.28 829.264 2598.28 838.811 2559.16 838.811 2559.16 880.154 2548.97 880.154 2548.97 838.811 2509.85 838.811 2509.85 829.264 2548.97 829.264Z" fill-rule="evenodd"/><text fill="#000000" fill-opacity="0" font-family="Arial,Arial_MSFontService,sans-serif" font-size="92.2339" x="2509.85" y="868.625">+</text><path d="M2619.28 844.194 2707.71 844.194 2707.71 853.74 2619.28 853.74ZM2619.28 814.406 2707.71 814.406 2707.71 823.953 2619.28 823.953Z" fill-rule="evenodd"/><text fill="#000000" fill-opacity="0" font-family="Arial,Arial_MSFontService,sans-serif" font-size="39.334" x="2619.28" y="848.823">=</text><path d="M2813.67 811.894C2808.78 811.894 2804.41 813.868 2800.53 817.816 2796.65 821.763 2793.6 827.087 2791.38 833.786 2789.15 840.485 2788.04 847.161 2788.04 853.812 2788.04 858.789 2788.76 862.509 2790.19 864.973 2791.63 867.438 2793.88 868.67 2796.94 868.67 2799.38 868.67 2801.81 867.833 2804.23 866.158 2806.64 864.483 2809.23 861.827 2811.98 858.19 2814.73 854.554 2816.87 851.084 2818.4 847.783 2819.93 844.481 2821.24 840.366 2822.31 835.437 2823.39 830.508 2823.93 826.226 2823.93 822.589 2823.93 818.856 2823.14 816.141 2821.56 814.442 2819.98 812.743 2817.35 811.894 2813.67 811.894ZM2812.52 806.224C2815.53 806.224 2818.38 806.583 2821.06 807.3 2823.74 808.018 2826.44 809.238 2829.17 810.961L2835.77 806.224 2840.37 807.372 2832.97 840.82C2832.45 843.165 2831.25 849.075 2829.38 858.549 2827.42 868.598 2825.83 875.704 2824.61 879.867 2823.39 884.03 2821.87 887.823 2820.05 891.244 2818.23 894.665 2815.89 897.644 2813.02 900.18 2810.15 902.716 2806.67 904.678 2802.58 906.066 2798.48 907.454 2793.64 908.147 2788.04 908.147 2769.95 908.147 2760.91 902.884 2760.91 892.356 2760.91 889.677 2761.72 887.236 2763.35 885.035 2764.98 882.834 2767.58 880.513 2771.17 878.073L2776.34 882.236C2775.43 883.336 2774.67 884.425 2774.04 885.502 2773.42 886.578 2772.98 887.619 2772.72 888.624 2772.45 889.629 2772.32 890.825 2772.32 892.213 2772.32 895.802 2773.61 898.422 2776.2 900.073 2778.78 901.723 2782.68 902.549 2787.9 902.549 2793.78 902.549 2798.51 901.221 2802.07 898.565 2805.64 895.909 2808.69 891.639 2811.22 885.753 2813.76 879.867 2816.23 870.967 2818.62 859.052L2817.61 858.836C2812.97 865.201 2808.66 869.842 2804.69 872.761 2800.72 875.68 2796.44 877.14 2791.84 877.14 2786.63 877.14 2782.57 875.178 2779.68 871.254 2776.78 867.33 2775.34 861.731 2775.34 854.458 2775.34 846.275 2776.94 838.416 2780.15 830.879 2783.35 823.343 2787.8 817.349 2793.5 812.899 2799.19 808.449 2805.53 806.224 2812.52 806.224Z" fill-rule="evenodd"/><text fill="#000000" fill-opacity="0" font-family="Arial,Arial_MSFontService,sans-serif" font-size="101.924" x="2760.91" y="895.407">𝑔</text><path d="M2907.55 772.345 2909.48 777.872C2898.29 781.556 2890 788.746 2884.61 799.441 2879.23 810.135 2876.54 823.57 2876.54 839.744 2876.54 856.492 2879.23 870.297 2884.61 881.159 2890 892.021 2898.22 899.295 2909.27 902.979L2907.55 908.506C2893.53 904.822 2882.78 896.89 2875.32 884.712 2867.85 872.534 2864.12 857.784 2864.12 840.461 2864.12 823.187 2867.87 808.437 2875.35 796.211 2882.84 783.985 2893.57 776.029 2907.55 772.345Z" fill-rule="evenodd"/><text fill="#000000" fill-opacity="0" font-family="Arial,Arial_MSFontService,sans-serif" font-size="136.162" x="2864.12" y="891.486">(</text><path d="M2962.89 776.938C2967.29 776.938 2971.37 777.238 2975.13 777.836 2978.89 778.434 2983.04 779.451 2987.58 780.886L2983.56 799.333 2976.67 799.333C2976.48 795.266 2975.86 792.072 2974.81 789.751 2973.75 787.43 2972.25 785.767 2970.29 784.762 2968.32 783.757 2965.72 783.255 2962.46 783.255 2958.49 783.255 2955 784.068 2951.98 785.695 2948.97 787.322 2946.67 789.535 2945.09 792.335 2943.51 795.134 2942.72 798.256 2942.72 801.702 2942.72 805.291 2943.67 808.437 2945.56 811.14 2947.45 813.844 2951.07 817.038 2956.43 820.723 2961.12 823.977 2964.7 826.884 2967.16 829.444 2969.63 832.004 2971.45 834.719 2972.62 837.59 2973.79 840.461 2974.38 843.787 2974.38 847.567 2974.38 853.405 2972.98 858.585 2970.18 863.107 2967.38 867.629 2963.43 871.122 2958.33 873.587 2953.24 876.051 2947.44 877.283 2940.93 877.283 2936.53 877.283 2931.78 876.924 2926.68 876.207 2921.58 875.489 2917.03 874.58 2913.01 873.479L2917.31 853.74 2924.2 853.74C2924.2 859.578 2925.56 863.921 2928.26 866.768 2930.96 869.615 2935.14 871.039 2940.78 871.039 2947.29 871.039 2952.41 869.268 2956.15 865.727 2959.88 862.186 2961.74 857.257 2961.74 850.941 2961.74 848.022 2961.23 845.45 2960.2 843.225 2959.17 841 2957.62 838.87 2955.54 836.837 2953.45 834.803 2950.45 832.47 2946.53 829.838 2942.99 827.446 2940.04 825.089 2937.7 822.768 2935.35 820.448 2933.49 817.852 2932.1 814.98 2930.71 812.109 2930.02 808.903 2930.02 805.362 2930.02 799.716 2931.38 794.739 2934.11 790.433 2936.84 786.126 2940.69 782.8 2945.67 780.456 2950.64 778.111 2956.38 776.938 2962.89 776.938Z" fill-rule="evenodd"/><text fill="#000000" fill-opacity="0" font-family="Arial,Arial_MSFontService,sans-serif" font-size="100.345" x="2913.01" y="864.74">𝑆</text><path d="M3019.82 857.821C3017.87 857.821 3016.04 858.257 3014.34 859.127 3012.63 859.998 3011.06 861.2 3009.64 862.732 3008.21 864.265 3006.93 866.076 3005.79 868.166 3004.66 870.256 3003.71 872.502 3002.92 874.906 3002.14 877.309 3001.54 879.817 3001.12 882.429 3000.7 885.041 3000.49 887.654 3000.49 890.266 3000.49 894.272 3001.32 897.224 3002.97 899.122 3004.63 901.02 3007.14 901.969 3010.52 901.969 3012.4 901.969 3014.18 901.508 3015.85 900.585 3017.52 899.662 3019.06 898.416 3020.45 896.849 3021.84 895.282 3023.09 893.444 3024.19 891.337 3025.28 889.23 3026.21 886.975 3026.98 884.571 3027.75 882.168 3028.33 879.686 3028.73 877.126 3029.13 874.566 3029.33 872.067 3029.33 869.629 3029.33 865.763 3028.57 862.828 3027.03 860.825 3025.5 858.823 3023.1 857.821 3019.82 857.821ZM3020.82 852.649C3023.95 852.649 3026.69 853.154 3029.04 854.164 3031.4 855.174 3033.35 856.541 3034.92 858.265 3036.49 859.989 3037.67 862.018 3038.45 864.352 3039.23 866.686 3039.62 869.176 3039.62 871.823 3039.62 877.117 3038.84 881.915 3037.27 886.217 3035.71 890.519 3033.54 894.211 3030.77 897.293 3028 900.376 3024.74 902.753 3021 904.425 3017.25 906.097 3013.19 906.933 3008.8 906.933 3005.91 906.933 3003.31 906.497 3001.01 905.626 2998.72 904.756 2996.77 903.502 2995.16 901.865 2993.56 900.228 2992.33 898.251 2991.48 895.935 2990.63 893.619 2990.2 890.997 2990.2 888.072 2990.2 883.126 2990.97 878.502 2992.52 874.2 2994.07 869.899 2996.22 866.154 2998.95 862.967 3001.68 859.78 3004.92 857.264 3008.64 855.418 3012.37 853.572 3016.43 852.649 3020.82 852.649Z" fill-rule="evenodd"/><text fill="#000000" fill-opacity="0" font-family="Arial,Arial_MSFontService,sans-serif" font-size="54.2837" x="2990.2" y="900.147">𝑜</text><path d="M3098.17 829.264 3186.6 829.264 3186.6 838.811 3098.17 838.811Z" fill-rule="evenodd"/><text fill="#000000" fill-opacity="0" font-family="Arial,Arial_MSFontService,sans-serif" font-size="9.54639" x="3098.17" y="837.617">−</text><path d="M3280.45 776.938C3284.85 776.938 3288.93 777.238 3292.69 777.836 3296.44 778.434 3300.59 779.451 3305.14 780.886L3301.12 799.333 3294.23 799.333C3294.04 795.266 3293.42 792.072 3292.36 789.751 3291.31 787.43 3289.8 785.767 3287.84 784.762 3285.88 783.757 3283.27 783.255 3280.02 783.255 3276.05 783.255 3272.55 784.068 3269.54 785.695 3266.52 787.322 3264.23 789.535 3262.65 792.335 3261.07 795.134 3260.28 798.256 3260.28 801.702 3260.28 805.291 3261.22 808.437 3263.11 811.14 3265 813.844 3268.63 817.038 3273.99 820.723 3278.68 823.977 3282.25 826.884 3284.72 829.444 3287.18 832.004 3289 834.719 3290.17 837.59 3291.35 840.461 3291.93 843.787 3291.93 847.567 3291.93 853.405 3290.53 858.585 3287.73 863.107 3284.93 867.629 3280.99 871.122 3275.89 873.587 3270.79 876.051 3264.99 877.283 3258.48 877.283 3254.08 877.283 3249.33 876.924 3244.24 876.207 3239.14 875.489 3234.58 874.58 3230.56 873.479L3234.87 853.74 3241.76 853.74C3241.76 859.578 3243.11 863.921 3245.82 866.768 3248.52 869.615 3252.69 871.039 3258.34 871.039 3264.85 871.039 3269.97 869.268 3273.7 865.727 3277.43 862.186 3279.3 857.257 3279.3 850.941 3279.3 848.022 3278.79 845.45 3277.76 843.225 3276.73 841 3275.17 838.87 3273.09 836.837 3271.01 834.803 3268.01 832.47 3264.08 829.838 3260.54 827.446 3257.6 825.089 3255.25 822.768 3252.91 820.448 3251.04 817.852 3249.66 814.98 3248.27 812.109 3247.57 808.903 3247.57 805.362 3247.57 799.716 3248.94 794.739 3251.67 790.433 3254.39 786.126 3258.25 782.8 3263.22 780.456 3268.2 778.111 3273.94 776.938 3280.45 776.938Z" fill-rule="evenodd"/><text fill="#000000" fill-opacity="0" font-family="Arial,Arial_MSFontService,sans-serif" font-size="100.345" x="3230.56" y="864.74">𝑆</text><path d="M3344.68 832.952C3346.6 832.952 3348.29 833.048 3349.75 833.239 3351.21 833.431 3352.63 833.666 3353.98 833.945L3351.84 843.663 3346.67 843.663C3346.43 841.677 3345.83 840.223 3344.89 839.3 3343.95 838.377 3342.7 837.915 3341.13 837.915 3339.32 837.915 3337.8 838.307 3336.56 839.091 3335.32 839.875 3334.24 841.059 3333.32 842.644 3332.4 844.229 3331.6 846.083 3330.94 848.208 3330.28 850.333 3329.83 852.179 3329.58 853.746L3344.06 853.746 3342.91 859.545 3328.38 859.545 3318.93 904.32C3317.29 911.948 3314.63 917.599 3310.96 921.274 3307.28 924.949 3302.38 926.786 3296.25 926.786 3294.65 926.786 3293.48 926.682 3292.75 926.473 3292.96 925.602 3293.15 924.705 3293.33 923.782 3293.5 922.859 3293.71 921.962 3293.95 921.091 3294.16 921.161 3294.46 921.196 3294.84 921.196 3295.22 921.196 3295.76 921.196 3296.46 921.196 3297.82 921.196 3299.06 920.978 3300.2 920.543 3301.33 920.107 3302.36 919.324 3303.3 918.192 3304.25 917.06 3305.11 915.51 3305.89 913.542 3306.67 911.574 3307.42 909.04 3308.11 905.94L3318.56 859.545 3309.57 859.545 3310.51 855.522C3312.43 855.418 3313.95 855.296 3315.09 855.157 3316.22 855.017 3317.18 854.713 3317.96 854.242 3318.74 853.772 3319.33 852.98 3319.71 851.865 3321.73 845.491 3324.77 840.745 3328.83 837.628 3332.89 834.511 3338.17 832.952 3344.68 832.952Z" fill-rule="evenodd"/><text fill="#000000" fill-opacity="0" font-family="Arial,Arial_MSFontService,sans-serif" font-size="93.834" x="3292.75" y="915.057">𝑓</text><path d="M3369.86 772.345C3383.84 776.029 3394.57 783.985 3402.06 796.211 3409.55 808.437 3413.29 823.187 3413.29 840.461 3413.29 857.784 3409.56 872.534 3402.09 884.712 3394.63 896.89 3383.89 904.822 3369.86 908.506L3368.14 902.979C3379.2 899.295 3387.41 892.021 3392.8 881.159 3398.18 870.297 3400.87 856.492 3400.87 839.744 3400.87 823.57 3398.19 810.135 3392.83 799.441 3387.47 788.746 3379.17 781.556 3367.93 777.872Z" fill-rule="evenodd"/><text fill="#000000" fill-opacity="0" font-family="Arial,Arial_MSFontService,sans-serif" font-size="136.162" x="3367.93" y="891.486">)</text><path d="M1043.24 1094.42 1048.66 1094.42C1048.27 1100.73 1048.07 1109.47 1048.07 1120.65L1048.07 1204.88C1048.07 1208.7 1048.28 1211.58 1048.71 1213.52 1049.14 1215.45 1049.89 1217.03 1050.98 1218.25 1052.06 1219.47 1053.62 1220.42 1055.66 1221.11 1057.7 1221.8 1060.27 1222.33 1063.36 1222.69 1066.45 1223.05 1070.52 1223.3 1075.59 1223.43L1075.59 1230.63 1002.7 1230.63 1002.7 1223.43C1010 1223.1 1015.21 1222.66 1018.33 1222.1 1021.45 1221.54 1023.84 1220.7 1025.48 1219.58 1027.13 1218.46 1028.33 1216.89 1029.08 1214.85 1029.84 1212.81 1030.22 1209.49 1030.22 1204.88L1030.22 1124.89C1030.22 1122.26 1029.76 1120.34 1028.83 1119.12 1027.91 1117.91 1026.57 1117.3 1024.79 1117.3 1022.69 1117.3 1019.7 1118.38 1015.82 1120.55 1011.94 1122.72 1007.14 1125.72 1001.42 1129.53L997.075 1121.93Z" fill-rule="evenodd"/><text fill="#000000" fill-opacity="0" font-family="Arial,Arial_MSFontService,sans-serif" font-size="136.212" x="997.075" y="1213.6">1</text><path d="M1047.52 1429.99C1040.82 1429.99 1034.8 1432.7 1029.47 1438.12 1024.15 1443.55 1019.96 1450.86 1016.9 1460.07 1013.84 1469.27 1012.31 1478.45 1012.31 1487.59 1012.31 1494.43 1013.3 1499.54 1015.27 1502.92 1017.24 1506.31 1020.33 1508 1024.54 1508 1027.9 1508 1031.23 1506.85 1034.55 1504.55 1037.88 1502.25 1041.43 1498.6 1045.21 1493.6 1048.99 1488.61 1051.93 1483.84 1054.03 1479.3 1056.14 1474.76 1057.93 1469.11 1059.41 1462.34 1060.89 1455.56 1061.63 1449.68 1061.63 1444.68 1061.63 1439.55 1060.54 1435.82 1058.37 1433.49 1056.2 1431.15 1052.59 1429.99 1047.52 1429.99ZM1045.95 1422.19C1050.09 1422.19 1054 1422.69 1057.68 1423.67 1061.37 1424.66 1065.08 1426.34 1068.83 1428.7L1077.9 1422.19 1084.22 1423.77 1074.06 1469.73C1073.33 1472.96 1071.69 1481.08 1069.13 1494.1 1066.43 1507.91 1064.24 1517.67 1062.57 1523.39 1060.89 1529.11 1058.8 1534.32 1056.3 1539.02 1053.8 1543.73 1050.58 1547.82 1046.64 1551.3 1042.69 1554.79 1037.91 1557.48 1032.29 1559.39 1026.66 1561.3 1020.01 1562.25 1012.31 1562.25 987.457 1562.25 975.03 1555.02 975.03 1540.55 975.03 1536.87 976.147 1533.52 978.383 1530.49 980.619 1527.47 984.202 1524.28 989.134 1520.92L996.236 1526.65C994.986 1528.16 993.934 1529.65 993.079 1531.13 992.225 1532.61 991.616 1534.04 991.255 1535.42 990.893 1536.8 990.712 1538.45 990.712 1540.36 990.712 1545.29 992.488 1548.89 996.038 1551.16 999.589 1553.42 1004.95 1554.56 1012.12 1554.56 1020.2 1554.56 1026.7 1552.73 1031.6 1549.08 1036.49 1545.44 1040.69 1539.57 1044.17 1531.48 1047.66 1523.39 1051.04 1511.16 1054.33 1494.79L1052.95 1494.49C1046.57 1503.24 1040.65 1509.61 1035.2 1513.63 1029.74 1517.64 1023.85 1519.64 1017.54 1519.64 1010.37 1519.64 1004.8 1516.95 1000.82 1511.55 996.844 1506.16 994.855 1498.47 994.855 1488.47 994.855 1477.23 997.058 1466.43 1001.46 1456.07 1005.87 1445.72 1011.98 1437.48 1019.81 1431.37 1027.63 1425.25 1036.35 1422.19 1045.95 1422.19Z" fill-rule="evenodd"/><text fill="#000000" fill-opacity="0" font-family="Arial,Arial_MSFontService,sans-serif" font-size="140.059" x="975.03" y="1544.74">𝑔</text><path d="M971.619 1319.25 1098.62 1319.25 1098.62 1332.25 971.619 1332.25Z" fill-rule="evenodd"/><path d="M1195.33 1144.13C1189.22 1144.13 1183.54 1146.54 1178.32 1151.38 1173.09 1156.21 1168.83 1163.46 1165.54 1173.12 1162.26 1182.79 1160.61 1192.36 1160.61 1201.83 1160.61 1207.74 1161.25 1212.36 1162.53 1215.68 1163.82 1219.01 1165.51 1221.29 1167.61 1222.54 1169.72 1223.79 1172.35 1224.41 1175.51 1224.41 1182.61 1224.41 1188.67 1221.57 1193.7 1215.88 1198.73 1210.19 1203.02 1201.65 1206.57 1190.24 1210.13 1178.83 1211.9 1169.84 1211.9 1163.26 1211.9 1156.55 1210.54 1151.69 1207.81 1148.66 1205.08 1145.64 1200.92 1144.13 1195.33 1144.13ZM1254.76 1095.99 1295.59 1095.99 1294.51 1100.83C1291.61 1101.16 1289.36 1102.01 1287.75 1103.39 1286.14 1104.77 1285.01 1106.7 1284.35 1109.16 1283.69 1111.63 1283.36 1114.93 1283.36 1119.07 1283.36 1120.06 1283.46 1123.02 1283.66 1127.95L1286.42 1200.15 1286.42 1208.04 1287.41 1208.04 1330.11 1131.01C1332.61 1126.47 1334.49 1122.58 1335.74 1119.32 1336.99 1116.07 1337.61 1113.19 1337.61 1110.69 1337.61 1105.17 1334.32 1101.88 1327.75 1100.83L1328.83 1095.99 1369.17 1095.99 1368.09 1100.83C1366.31 1101.09 1364.62 1101.76 1363.01 1102.85 1361.4 1103.93 1359.59 1105.74 1357.58 1108.27 1355.58 1110.81 1352.47 1115.69 1348.26 1122.92L1285.14 1232.21 1272.02 1232.21 1265.41 1122.23C1265.15 1117.96 1264.67 1114.29 1263.98 1111.23 1263.29 1108.18 1262.21 1105.79 1260.73 1104.08 1259.25 1102.37 1256.9 1101.29 1253.67 1100.83ZM1200.46 1088.89C1211.44 1088.89 1219.66 1092.62 1225.12 1100.09 1230.58 1107.55 1233.3 1118.84 1233.3 1133.97 1233.3 1139.95 1232.78 1147.07 1231.73 1155.32 1230.67 1163.57 1228.9 1172.17 1226.4 1181.11 1223.9 1190.06 1221.01 1197.65 1217.72 1203.9 1214.43 1210.15 1210.78 1215.31 1206.77 1219.38 1202.76 1223.46 1198.14 1226.62 1192.91 1228.85 1187.69 1231.09 1181.78 1232.21 1175.21 1232.21 1165.35 1232.21 1157.54 1229.25 1151.78 1223.33 1146.03 1217.41 1143.15 1208.73 1143.15 1197.29 1143.15 1186.97 1145.32 1177.04 1149.66 1167.5 1154 1157.97 1159.95 1150.39 1167.52 1144.77 1175.08 1139.15 1183.36 1136.33 1192.37 1136.33 1197.11 1136.33 1201.25 1136.88 1204.8 1137.96 1208.35 1139.05 1212.3 1141.17 1216.64 1144.32L1216.83 1141.86C1217.03 1138.7 1217.13 1135.97 1217.13 1133.67 1217.13 1121.24 1215.48 1112.22 1212.2 1106.6 1208.91 1100.97 1203.78 1098.16 1196.81 1098.16 1192.01 1098.16 1187.55 1099.3 1183.45 1101.57 1179.34 1103.84 1175.31 1107.34 1171.36 1112.07L1164.26 1112.07 1164.26 1103.88C1170.51 1099.48 1175.36 1096.34 1178.81 1094.47 1182.26 1092.59 1185.71 1091.19 1189.17 1090.27 1192.62 1089.35 1196.38 1088.89 1200.46 1088.89Z" fill-rule="evenodd"/><text fill="#000000" fill-opacity="0" font-family="Arial,Arial_MSFontService,sans-serif" font-size="143.313" x="1143.15" y="1214.29">𝜕𝑉</text><path d="M1219.26 1431.66C1213.14 1431.66 1207.47 1434.08 1202.24 1438.91 1197.01 1443.74 1192.76 1450.99 1189.47 1460.66 1186.18 1470.33 1184.54 1479.89 1184.54 1489.36 1184.54 1495.28 1185.18 1499.9 1186.46 1503.22 1187.74 1506.54 1189.44 1508.83 1191.54 1510.08 1193.64 1511.32 1196.27 1511.95 1199.43 1511.95 1206.53 1511.95 1212.6 1509.11 1217.63 1503.42 1222.66 1497.73 1226.95 1489.18 1230.5 1477.77 1234.05 1466.36 1235.83 1457.37 1235.83 1450.8 1235.83 1444.09 1234.46 1439.22 1231.73 1436.2 1229 1433.17 1224.84 1431.66 1219.26 1431.66ZM1306.79 1399.51 1320.41 1399.51 1314.98 1423.87 1344.97 1423.87 1342.8 1433.83 1312.81 1433.83 1304.03 1472.1C1302.32 1479.53 1301.24 1484.87 1300.78 1488.13 1300.32 1491.38 1300.09 1494 1300.09 1495.97 1300.09 1504.12 1303.47 1508.2 1310.25 1508.2 1313.14 1508.2 1316.21 1507.1 1319.47 1504.9 1322.72 1502.69 1326.59 1498.93 1331.06 1493.6L1336.78 1499.52C1331.06 1506.43 1325.55 1511.52 1320.26 1514.81 1314.96 1518.1 1309.42 1519.74 1303.64 1519.74 1289.9 1519.74 1283.02 1512.8 1283.02 1498.93 1283.02 1494.52 1283.58 1489.89 1284.7 1485.02L1296.34 1433.83 1279.77 1433.83 1281.25 1427.03C1285.13 1426.96 1288.07 1426.66 1290.08 1426.14 1292.08 1425.61 1293.76 1424.89 1295.11 1423.97 1296.45 1423.05 1297.69 1421.73 1298.81 1420.02 1299.92 1418.31 1301.01 1416.13 1302.06 1413.46 1303.11 1410.8 1304.69 1406.15 1306.79 1399.51ZM1224.38 1376.43C1235.37 1376.43 1243.58 1380.16 1249.04 1387.62 1254.5 1395.09 1257.23 1406.38 1257.23 1421.5 1257.23 1427.49 1256.7 1434.6 1255.65 1442.86 1254.6 1451.11 1252.82 1459.71 1250.32 1468.65 1247.83 1477.59 1244.93 1485.19 1241.65 1491.43 1238.36 1497.68 1234.71 1502.84 1230.7 1506.92 1226.69 1511 1222.07 1514.15 1216.84 1516.39 1211.61 1518.62 1205.71 1519.74 1199.13 1519.74 1189.27 1519.74 1181.46 1516.78 1175.71 1510.86 1169.96 1504.95 1167.08 1496.27 1167.08 1484.83 1167.08 1474.5 1169.25 1464.57 1173.59 1455.04 1177.93 1445.5 1183.88 1437.93 1191.44 1432.3 1199 1426.68 1207.29 1423.87 1216.3 1423.87 1221.03 1423.87 1225.17 1424.41 1228.72 1425.5 1232.27 1426.58 1236.22 1428.7 1240.56 1431.86L1240.76 1429.39C1240.95 1426.24 1241.05 1423.51 1241.05 1421.21 1241.05 1408.78 1239.41 1399.75 1236.12 1394.13 1232.83 1388.51 1227.7 1385.7 1220.73 1385.7 1215.93 1385.7 1211.48 1386.83 1207.37 1389.1 1203.26 1391.37 1199.23 1394.87 1195.29 1399.61L1188.19 1399.61 1188.19 1391.42C1194.43 1387.01 1199.28 1383.87 1202.73 1382 1206.19 1380.13 1209.64 1378.73 1213.09 1377.81 1216.54 1376.89 1220.31 1376.43 1224.38 1376.43Z" fill-rule="evenodd"/><text fill="#000000" fill-opacity="0" font-family="Arial,Arial_MSFontService,sans-serif" font-size="143.313" x="1167.08" y="1501.83">𝜕𝑡</text><path d="M1132.62 1319.25 1377.62 1319.25 1377.62 1332.25 1132.62 1332.25Z" fill-rule="evenodd"/><path d="M1490.31 1262.13 1504.31 1262.13 1504.31 1318.94 1558.07 1318.94 1558.07 1332.06 1504.31 1332.06 1504.31 1388.87 1490.31 1388.87 1490.31 1332.06 1436.55 1332.06 1436.55 1318.94 1490.31 1318.94Z" fill-rule="evenodd"/><text fill="#000000" fill-opacity="0" font-family="Arial,Arial_MSFontService,sans-serif" font-size="126.743" x="1436.55" y="1373.03">+</text><path d="M1679.2 1142.55C1673.15 1142.55 1667.53 1145.24 1662.33 1150.64 1657.14 1156.03 1652.98 1163.33 1649.86 1172.53 1646.73 1181.74 1645.17 1191.17 1645.17 1200.84 1645.17 1207.48 1646.16 1212.41 1648.13 1215.64 1650.1 1218.86 1653.06 1220.47 1657.01 1220.47 1662.66 1220.47 1668.48 1217.15 1674.47 1210.51 1680.45 1203.87 1686.01 1194.63 1691.14 1182.79 1692.25 1175.95 1692.81 1169.9 1692.81 1164.64 1692.81 1157.15 1691.71 1151.59 1689.51 1147.97 1687.31 1144.36 1683.87 1142.55 1679.2 1142.55ZM1679.89 1134.76C1687.26 1134.76 1693.03 1137.06 1697.2 1141.66 1701.38 1146.26 1703.69 1153 1704.16 1161.88L1705.04 1161.78 1717.96 1136.33 1735.03 1136.33 1734.04 1141.37C1725.89 1152.41 1716.29 1165.99 1705.24 1182.1 1703.6 1194.66 1702.77 1203.54 1702.77 1208.73 1702.77 1213.07 1703.27 1216.18 1704.25 1218.05 1705.24 1219.93 1706.88 1220.86 1709.19 1220.86 1711.03 1220.86 1713.11 1220.09 1715.45 1218.55 1717.78 1217 1720.3 1214.62 1722.99 1211.39L1728.71 1216.72C1723.19 1222.64 1718.39 1226.7 1714.31 1228.9 1710.24 1231.1 1706.03 1232.21 1701.69 1232.21 1692.94 1232.21 1688.57 1225.83 1688.57 1213.07 1688.57 1210.24 1688.77 1207.12 1689.16 1203.7L1688.18 1203.7C1681.4 1213.83 1674.99 1221.11 1668.94 1225.55 1662.89 1229.99 1656.42 1232.21 1649.51 1232.21 1644.71 1232.21 1640.67 1230.83 1637.38 1228.06 1634.09 1225.3 1631.66 1221.64 1630.08 1217.07 1628.5 1212.5 1627.71 1207.51 1627.71 1202.12 1627.71 1190.35 1629.95 1179.19 1634.42 1168.64 1638.89 1158.08 1645.11 1149.8 1653.06 1143.78 1661.02 1137.77 1669.96 1134.76 1679.89 1134.76ZM1748.81 1095.99 1789.65 1095.99 1788.56 1100.83C1785.67 1101.16 1783.42 1102.01 1781.81 1103.39 1780.19 1104.77 1779.06 1106.7 1778.4 1109.16 1777.75 1111.63 1777.42 1114.93 1777.42 1119.07 1777.42 1120.06 1777.52 1123.02 1777.71 1127.95L1780.47 1200.15 1780.47 1208.04 1781.46 1208.04 1824.17 1131.01C1826.67 1126.47 1828.54 1122.58 1829.79 1119.32 1831.04 1116.07 1831.66 1113.19 1831.66 1110.69 1831.66 1105.17 1828.38 1101.88 1821.8 1100.83L1822.89 1095.99 1863.23 1095.99 1862.14 1100.83C1860.37 1101.09 1858.67 1101.76 1857.06 1102.85 1855.45 1103.93 1853.64 1105.74 1851.64 1108.27 1849.63 1110.81 1846.53 1115.69 1842.32 1122.92L1779.19 1232.21 1766.07 1232.21 1759.47 1122.23C1759.2 1117.96 1758.73 1114.29 1758.04 1111.23 1757.34 1108.18 1756.26 1105.79 1754.78 1104.08 1753.3 1102.37 1750.95 1101.29 1747.73 1100.83Z" fill-rule="evenodd"/><text fill="#000000" fill-opacity="0" font-family="Arial,Arial_MSFontService,sans-serif" font-size="136.212" x="1627.71" y="1215.18">𝛼𝑉</text><path d="M1756.15 1429.99C1749.45 1429.99 1743.43 1432.7 1738.1 1438.12 1732.78 1443.55 1728.59 1450.86 1725.53 1460.07 1722.47 1469.27 1720.94 1478.45 1720.94 1487.59 1720.94 1494.43 1721.93 1499.54 1723.9 1502.92 1725.87 1506.31 1728.96 1508 1733.17 1508 1736.53 1508 1739.86 1506.85 1743.18 1504.55 1746.5 1502.25 1750.06 1498.6 1753.84 1493.6 1757.62 1488.61 1760.56 1483.84 1762.66 1479.3 1764.77 1474.76 1766.56 1469.11 1768.04 1462.34 1769.52 1455.56 1770.26 1449.68 1770.26 1444.68 1770.26 1439.55 1769.17 1435.82 1767 1433.49 1764.83 1431.15 1761.22 1429.99 1756.15 1429.99ZM1754.58 1422.19C1758.72 1422.19 1762.63 1422.69 1766.31 1423.67 1770 1424.66 1773.71 1426.34 1777.46 1428.7L1786.53 1422.19 1792.85 1423.77 1782.69 1469.73C1781.96 1472.96 1780.32 1481.08 1777.75 1494.1 1775.06 1507.91 1772.87 1517.67 1771.2 1523.39 1769.52 1529.11 1767.43 1534.32 1764.93 1539.02 1762.43 1543.73 1759.21 1547.82 1755.27 1551.3 1751.32 1554.79 1746.54 1557.48 1740.92 1559.39 1735.29 1561.3 1728.64 1562.25 1720.94 1562.25 1696.09 1562.25 1683.66 1555.02 1683.66 1540.55 1683.66 1536.87 1684.78 1533.52 1687.01 1530.49 1689.25 1527.47 1692.83 1524.28 1697.76 1520.92L1704.86 1526.65C1703.62 1528.16 1702.56 1529.65 1701.71 1531.13 1700.85 1532.61 1700.25 1534.04 1699.88 1535.42 1699.52 1536.8 1699.34 1538.45 1699.34 1540.36 1699.34 1545.29 1701.12 1548.89 1704.67 1551.16 1708.22 1553.42 1713.58 1554.56 1720.74 1554.56 1728.83 1554.56 1735.33 1552.73 1740.22 1549.08 1745.12 1545.44 1749.32 1539.57 1752.8 1531.48 1756.29 1523.39 1759.67 1511.16 1762.96 1494.79L1761.58 1494.49C1755.2 1503.24 1749.28 1509.61 1743.82 1513.63 1738.37 1517.64 1732.48 1519.64 1726.17 1519.64 1719 1519.64 1713.43 1516.95 1709.45 1511.55 1705.47 1506.16 1703.48 1498.47 1703.48 1488.47 1703.48 1477.23 1705.69 1466.43 1710.09 1456.07 1714.5 1445.72 1720.61 1437.48 1728.44 1431.37 1736.26 1425.25 1744.98 1422.19 1754.58 1422.19Z" fill-rule="evenodd"/><text fill="#000000" fill-opacity="0" font-family="Arial,Arial_MSFontService,sans-serif" font-size="140.059" x="1683.66" y="1544.74">𝑔</text><path d="M1617.62 1319.25 1870.62 1319.25 1870.62 1332.25 1617.62 1332.25Z" fill-rule="evenodd"/><path d="M1967.32 1144.13C1961.21 1144.13 1955.54 1146.54 1950.31 1151.38 1945.08 1156.21 1940.82 1163.46 1937.54 1173.12 1934.25 1182.79 1932.61 1192.36 1932.61 1201.83 1932.61 1207.74 1933.25 1212.36 1934.53 1215.68 1935.81 1219.01 1937.5 1221.29 1939.61 1222.54 1941.71 1223.79 1944.34 1224.41 1947.5 1224.41 1954.6 1224.41 1960.67 1221.57 1965.7 1215.88 1970.73 1210.19 1975.02 1201.65 1978.57 1190.24 1982.12 1178.83 1983.89 1169.84 1983.89 1163.26 1983.89 1156.55 1982.53 1151.69 1979.8 1148.66 1977.07 1145.64 1972.91 1144.13 1967.32 1144.13ZM1972.45 1088.89C1983.43 1088.89 1991.65 1092.62 1997.11 1100.09 2002.57 1107.55 2005.3 1118.84 2005.3 1133.97 2005.3 1139.95 2004.77 1147.07 2003.72 1155.32 2002.67 1163.57 2000.89 1172.17 1998.39 1181.11 1995.89 1190.06 1993 1197.65 1989.71 1203.9 1986.43 1210.15 1982.78 1215.31 1978.77 1219.38 1974.75 1223.46 1970.14 1226.62 1964.91 1228.85 1959.68 1231.09 1953.78 1232.21 1947.2 1232.21 1937.34 1232.21 1929.53 1229.25 1923.78 1223.33 1918.02 1217.41 1915.15 1208.73 1915.15 1197.29 1915.15 1186.97 1917.32 1177.04 1921.66 1167.5 1926 1157.97 1931.95 1150.39 1939.51 1144.77 1947.07 1139.15 1955.36 1136.33 1964.37 1136.33 1969.1 1136.33 1973.24 1136.88 1976.79 1137.96 1980.34 1139.05 1984.29 1141.17 1988.63 1144.32L1988.83 1141.86C1989.02 1138.7 1989.12 1135.97 1989.12 1133.67 1989.12 1121.24 1987.48 1112.22 1984.19 1106.6 1980.9 1100.97 1975.77 1098.16 1968.8 1098.16 1964 1098.16 1959.55 1099.3 1955.44 1101.57 1951.33 1103.84 1947.3 1107.34 1943.36 1112.07L1936.25 1112.07 1936.25 1103.88C1942.5 1099.48 1947.35 1096.34 1950.8 1094.47 1954.26 1092.59 1957.71 1091.19 1961.16 1090.27 1964.61 1089.35 1968.38 1088.89 1972.45 1088.89Z" fill-rule="evenodd"/><text fill="#000000" fill-opacity="0" font-family="Arial,Arial_MSFontService,sans-serif" font-size="143.313" x="1915.15" y="1214.29">𝜕</text><path d="M2027.04 1095.99 2067.88 1095.99 2066.79 1100.83C2063.9 1101.16 2061.65 1102.01 2060.04 1103.39 2058.43 1104.77 2057.29 1106.7 2056.63 1109.16 2055.98 1111.63 2055.65 1114.93 2055.65 1119.07 2055.65 1120.06 2055.75 1123.02 2055.94 1127.95L2058.71 1200.15 2058.71 1208.04 2059.69 1208.04 2102.4 1131.01C2104.9 1126.47 2106.77 1122.58 2108.02 1119.32 2109.27 1116.07 2109.9 1113.19 2109.9 1110.69 2109.9 1105.17 2106.61 1101.88 2100.03 1100.83L2101.12 1095.99 2141.46 1095.99 2140.37 1100.83C2138.6 1101.09 2136.91 1101.76 2135.29 1102.85 2133.68 1103.93 2131.87 1105.74 2129.87 1108.27 2127.86 1110.81 2124.76 1115.69 2120.55 1122.92L2057.42 1232.21 2044.31 1232.21 2037.7 1122.23C2037.43 1117.96 2036.96 1114.29 2036.27 1111.23 2035.58 1108.18 2034.49 1105.79 2033.01 1104.08 2031.53 1102.37 2029.18 1101.29 2025.96 1100.83Z" fill-rule="evenodd"/><text fill="#000000" fill-opacity="0" font-family="Arial,Arial_MSFontService,sans-serif" font-size="136.212" x="2025.96" y="1215.18">𝑉</text><path d="M1976.93 1431.66C1970.81 1431.66 1965.14 1434.08 1959.91 1438.91 1954.68 1443.74 1950.43 1450.99 1947.14 1460.66 1943.85 1470.33 1942.21 1479.89 1942.21 1489.36 1942.21 1495.28 1942.85 1499.9 1944.13 1503.22 1945.41 1506.54 1947.11 1508.83 1949.21 1510.08 1951.31 1511.32 1953.94 1511.95 1957.1 1511.95 1964.2 1511.95 1970.27 1509.11 1975.3 1503.42 1980.33 1497.73 1984.62 1489.18 1988.17 1477.77 1991.72 1466.36 1993.5 1457.37 1993.5 1450.8 1993.5 1444.09 1992.13 1439.22 1989.4 1436.2 1986.67 1433.17 1982.52 1431.66 1976.93 1431.66ZM2064.86 1422.19C2066.9 1422.19 2068.69 1422.42 2070.24 1422.88 2071.78 1423.34 2073.14 1424.05 2074.33 1425 2075.51 1425.96 2076.56 1427.19 2077.48 1428.7 2078.41 1430.22 2079.29 1432.27 2080.15 1434.87 2081 1437.47 2081.81 1440.69 2082.56 1444.53 2083.32 1448.38 2083.99 1452.38 2084.59 1456.52L2085.57 1456.52C2091.89 1447.64 2096.67 1441.15 2099.92 1437.04 2103.18 1432.93 2105.92 1429.87 2108.16 1427.86 2110.4 1425.86 2112.55 1424.45 2114.62 1423.62 2116.69 1422.8 2119.44 1422.39 2122.86 1422.39 2125.95 1422.39 2128.48 1422.79 2130.45 1423.57L2126.51 1441.43 2119.6 1441.43C2119.21 1438.67 2118.06 1437.28 2116.15 1437.28 2115.56 1437.28 2114.93 1437.38 2114.27 1437.58 2113.62 1437.78 2112.81 1438.2 2111.86 1438.86 2110.9 1439.52 2109.51 1440.8 2107.67 1442.71 2105.83 1444.62 2103.75 1446.95 2101.45 1449.71 2099.15 1452.47 2096.78 1455.37 2094.35 1458.39L2087.64 1466.78C2088.83 1473.09 2089.95 1478.55 2091 1483.15 2092.05 1487.75 2092.99 1491.58 2093.81 1494.64 2094.63 1497.7 2095.35 1500.11 2095.98 1501.89 2096.6 1503.66 2097.28 1505 2098 1505.88 2098.72 1506.77 2099.46 1507.4 2100.22 1507.76 2100.98 1508.12 2101.85 1508.3 2102.83 1508.3 2104.61 1508.3 2106.33 1507.61 2108.01 1506.23 2109.69 1504.85 2112.1 1501.72 2115.26 1496.86L2121.67 1501.1C2117.07 1507.94 2112.91 1512.75 2109.2 1515.55 2105.48 1518.34 2101.06 1519.74 2095.93 1519.74 2093.1 1519.74 2090.7 1519.23 2088.73 1518.21 2086.76 1517.19 2085.05 1515.57 2083.6 1513.33 2082.15 1511.09 2080.87 1507.61 2079.75 1502.88 2077.71 1494.46 2076.47 1488.01 2076.01 1483.54L2075.02 1483.54C2068.05 1493.34 2062.87 1500.38 2059.48 1504.65 2056.1 1508.92 2053.3 1512.08 2051.1 1514.12 2048.9 1516.16 2046.76 1517.59 2044.69 1518.41 2042.62 1519.23 2039.87 1519.64 2036.45 1519.64 2033.36 1519.64 2030.83 1519.25 2028.86 1518.46L2032.8 1500.61 2039.71 1500.61C2040.1 1503.37 2041.25 1504.75 2043.16 1504.75 2044.08 1504.75 2045.05 1504.5 2046.07 1504.01 2047.09 1503.52 2048.55 1502.33 2050.46 1500.46 2052.37 1498.58 2055 1495.64 2058.35 1491.63 2061.7 1487.62 2066.57 1481.6 2072.95 1473.58 2071.96 1468.39 2070.94 1463.39 2069.89 1458.59 2068.84 1453.79 2067.75 1449.32 2066.64 1445.17 2065.52 1441.03 2064.6 1438.32 2063.87 1437.04 2063.15 1435.76 2062.38 1434.87 2061.56 1434.37 2060.73 1433.88 2059.7 1433.63 2058.45 1433.63 2057.07 1433.63 2055.82 1433.95 2054.7 1434.57 2053.58 1435.2 2052.37 1436.28 2051.05 1437.83 2049.74 1439.37 2047.99 1441.79 2045.82 1445.08L2039.41 1440.84C2043.56 1434.59 2047.53 1429.92 2051.35 1426.83 2055.16 1423.74 2059.67 1422.19 2064.86 1422.19ZM1982.06 1376.43C1993.04 1376.43 2001.26 1380.16 2006.71 1387.62 2012.17 1395.09 2014.9 1406.38 2014.9 1421.5 2014.9 1427.49 2014.37 1434.6 2013.32 1442.86 2012.27 1451.11 2010.49 1459.71 2008 1468.65 2005.5 1477.59 2002.6 1485.19 1999.32 1491.43 1996.03 1497.68 1992.38 1502.84 1988.37 1506.92 1984.36 1511 1979.74 1514.15 1974.51 1516.39 1969.28 1518.62 1963.38 1519.74 1956.81 1519.74 1946.94 1519.74 1939.13 1516.78 1933.38 1510.86 1927.63 1504.95 1924.75 1496.27 1924.75 1484.83 1924.75 1474.5 1926.92 1464.57 1931.26 1455.04 1935.6 1445.5 1941.55 1437.93 1949.11 1432.3 1956.67 1426.68 1964.96 1423.87 1973.97 1423.87 1978.7 1423.87 1982.84 1424.41 1986.39 1425.5 1989.95 1426.58 1993.89 1428.7 1998.23 1431.86L1998.43 1429.39C1998.63 1426.24 1998.72 1423.51 1998.72 1421.21 1998.72 1408.78 1997.08 1399.75 1993.79 1394.13 1990.5 1388.51 1985.38 1385.7 1978.41 1385.7 1973.61 1385.7 1969.15 1386.83 1965.04 1389.1 1960.93 1391.37 1956.9 1394.87 1952.96 1399.61L1945.86 1399.61 1945.86 1391.42C1952.1 1387.01 1956.95 1383.87 1960.41 1382 1963.86 1380.13 1967.31 1378.73 1970.76 1377.81 1974.21 1376.89 1977.98 1376.43 1982.06 1376.43Z" fill-rule="evenodd"/><text fill="#000000" fill-opacity="0" font-family="Arial,Arial_MSFontService,sans-serif" font-size="143.313" x="1924.75" y="1501.83">𝜕𝑥</text><path d="M1904.62 1319.25 2149.62 1319.25 2149.62 1332.25 1904.62 1332.25Z" fill-rule="evenodd"/><path d="M2262.3 1262.13 2276.31 1262.13 2276.31 1318.94 2330.06 1318.94 2330.06 1332.06 2276.31 1332.06 2276.31 1388.87 2262.3 1388.87 2262.3 1332.06 2208.55 1332.06 2208.55 1318.94 2262.3 1318.94Z" fill-rule="evenodd"/><text fill="#000000" fill-opacity="0" font-family="Arial,Arial_MSFontService,sans-serif" font-size="126.743" x="2208.55" y="1373.03">+</text><path d="M2452.38 1144.13C2446.26 1144.13 2440.59 1146.54 2435.36 1151.38 2430.14 1156.21 2425.88 1163.46 2422.59 1173.12 2419.3 1182.79 2417.66 1192.36 2417.66 1201.83 2417.66 1207.74 2418.3 1212.36 2419.58 1215.68 2420.86 1219.01 2422.56 1221.29 2424.66 1222.54 2426.77 1223.79 2429.4 1224.41 2432.55 1224.41 2439.65 1224.41 2445.72 1221.57 2450.75 1215.88 2455.78 1210.19 2460.07 1201.65 2463.62 1190.24 2467.17 1178.83 2468.95 1169.84 2468.95 1163.26 2468.95 1156.55 2467.58 1151.69 2464.86 1148.66 2462.13 1145.64 2457.97 1144.13 2452.38 1144.13ZM2457.51 1088.89C2468.49 1088.89 2476.71 1092.62 2482.17 1100.09 2487.62 1107.55 2490.35 1118.84 2490.35 1133.97 2490.35 1139.95 2489.83 1147.07 2488.77 1155.32 2487.72 1163.57 2485.95 1172.17 2483.45 1181.11 2480.95 1190.06 2478.06 1197.65 2474.77 1203.9 2471.48 1210.15 2467.83 1215.31 2463.82 1219.38 2459.81 1223.46 2455.19 1226.62 2449.96 1228.85 2444.73 1231.09 2438.83 1232.21 2432.26 1232.21 2422.39 1232.21 2414.59 1229.25 2408.83 1223.33 2403.08 1217.41 2400.2 1208.73 2400.2 1197.29 2400.2 1186.97 2402.37 1177.04 2406.71 1167.5 2411.05 1157.97 2417 1150.39 2424.56 1144.77 2432.13 1139.15 2440.41 1136.33 2449.42 1136.33 2454.15 1136.33 2458.3 1136.88 2461.85 1137.96 2465.4 1139.05 2469.34 1141.17 2473.68 1144.32L2473.88 1141.86C2474.08 1138.7 2474.18 1135.97 2474.18 1133.67 2474.18 1121.24 2472.53 1112.22 2469.24 1106.6 2465.96 1100.97 2460.83 1098.16 2453.86 1098.16 2449.06 1098.16 2444.6 1099.3 2440.49 1101.57 2436.38 1103.84 2432.36 1107.34 2428.41 1112.07L2421.31 1112.07 2421.31 1103.88C2427.56 1099.48 2432.41 1096.34 2435.86 1094.47 2439.31 1092.59 2442.76 1091.19 2446.21 1090.27 2449.67 1089.35 2453.43 1088.89 2457.51 1088.89Z" fill-rule="evenodd"/><text fill="#000000" fill-opacity="0" font-family="Arial,Arial_MSFontService,sans-serif" font-size="143.313" x="2400.2" y="1214.29">𝜕</text><path d="M2534.19 1134.76C2536.89 1134.76 2539.19 1135.12 2541.1 1135.84 2542.41 1136.37 2543.73 1137.24 2545.04 1138.46 2546.36 1139.67 2547.52 1141.37 2548.54 1143.54 2549.56 1145.7 2550.45 1148.14 2551.21 1150.83 2551.96 1153.53 2552.8 1157.41 2553.72 1162.47 2555.3 1170.95 2556.83 1179.88 2558.31 1189.25 2559.79 1198.62 2561.05 1207.32 2562.11 1215.34 2568.48 1206.13 2573.89 1197.13 2578.33 1188.31 2582.77 1179.5 2585.96 1171.84 2587.9 1165.33 2589.84 1158.82 2590.81 1153.53 2590.81 1149.45 2590.81 1146.36 2590.15 1144.26 2588.83 1143.14 2587.52 1142.02 2585.28 1141.37 2582.13 1141.17L2583.11 1136.33 2609.05 1136.33 2611.72 1141.27C2606.72 1154.94 2599.95 1169.57 2591.4 1185.16 2582.98 1200.41 2573.35 1215.6 2562.5 1230.73 2552.11 1245.13 2543.46 1255.55 2536.56 1261.99 2531.76 1266.4 2527.12 1269.55 2522.65 1271.46 2519.1 1272.91 2515.32 1273.63 2511.31 1273.63 2509.93 1273.63 2508.33 1273.52 2506.53 1273.29 2504.72 1273.06 2503.32 1272.74 2502.33 1272.35L2506.58 1253.21 2514.37 1253.21C2514.37 1257.42 2515.81 1259.53 2518.71 1259.53 2522.52 1259.53 2526.96 1257.14 2532.02 1252.38 2537.09 1247.61 2543.04 1240.43 2549.88 1230.83 2547.97 1219.32 2545.37 1205.44 2542.08 1189.2 2538.6 1171.84 2536.3 1161.09 2535.18 1156.95 2533.8 1151.95 2532.35 1148.76 2530.84 1147.38 2529.92 1146.53 2528.77 1146.1 2527.39 1146.1 2525.28 1146.1 2523.31 1146.95 2521.47 1148.66 2519.63 1150.37 2517.36 1153.33 2514.66 1157.54L2508.25 1153.3C2512.79 1146.53 2517.03 1141.74 2520.98 1138.95 2524.92 1136.15 2529.33 1134.76 2534.19 1134.76Z" fill-rule="evenodd"/><text fill="#000000" fill-opacity="0" font-family="Arial,Arial_MSFontService,sans-serif" font-size="138.875" x="2502.33" y="1256.27">𝑦</text><path d="M2453.91 1431.66C2447.8 1431.66 2442.13 1434.08 2436.9 1438.91 2431.67 1443.74 2427.41 1450.99 2424.13 1460.66 2420.84 1470.33 2419.19 1479.89 2419.19 1489.36 2419.19 1495.28 2419.84 1499.9 2421.12 1503.22 2422.4 1506.54 2424.09 1508.83 2426.2 1510.08 2428.3 1511.32 2430.93 1511.95 2434.09 1511.95 2441.19 1511.95 2447.26 1509.11 2452.29 1503.42 2457.32 1497.73 2461.61 1489.18 2465.16 1477.77 2468.71 1466.36 2470.48 1457.37 2470.48 1450.8 2470.48 1444.09 2469.12 1439.22 2466.39 1436.2 2463.66 1433.17 2459.5 1431.66 2453.91 1431.66ZM2541.85 1422.19C2543.89 1422.19 2545.68 1422.42 2547.22 1422.88 2548.77 1423.34 2550.13 1424.05 2551.32 1425 2552.5 1425.96 2553.55 1427.19 2554.47 1428.7 2555.39 1430.22 2556.28 1432.27 2557.14 1434.87 2557.99 1437.47 2558.8 1440.69 2559.55 1444.53 2560.31 1448.38 2560.98 1452.38 2561.57 1456.52L2562.56 1456.52C2568.87 1447.64 2573.66 1441.15 2576.91 1437.04 2580.17 1432.93 2582.91 1429.87 2585.15 1427.86 2587.38 1425.86 2589.54 1424.45 2591.61 1423.62 2593.68 1422.8 2596.42 1422.39 2599.84 1422.39 2602.93 1422.39 2605.47 1422.79 2607.44 1423.57L2603.49 1441.43 2596.59 1441.43C2596.19 1438.67 2595.04 1437.28 2593.14 1437.28 2592.54 1437.28 2591.92 1437.38 2591.26 1437.58 2590.6 1437.78 2589.8 1438.2 2588.85 1438.86 2587.89 1439.52 2586.49 1440.8 2584.65 1442.71 2582.81 1444.62 2580.74 1446.95 2578.44 1449.71 2576.14 1452.47 2573.77 1455.37 2571.34 1458.39L2564.63 1466.78C2565.81 1473.09 2566.93 1478.55 2567.98 1483.15 2569.04 1487.75 2569.97 1491.58 2570.8 1494.64 2571.62 1497.7 2572.34 1500.11 2572.97 1501.89 2573.59 1503.66 2574.26 1505 2574.99 1505.88 2575.71 1506.77 2576.45 1507.4 2577.21 1507.76 2577.96 1508.12 2578.83 1508.3 2579.82 1508.3 2581.6 1508.3 2583.32 1507.61 2585 1506.23 2586.68 1504.85 2589.09 1501.72 2592.25 1496.86L2598.66 1501.1C2594.06 1507.94 2589.9 1512.75 2586.18 1515.55 2582.47 1518.34 2578.05 1519.74 2572.92 1519.74 2570.09 1519.74 2567.69 1519.23 2565.72 1518.21 2563.74 1517.19 2562.03 1515.57 2560.59 1513.33 2559.14 1511.09 2557.86 1507.61 2556.74 1502.88 2554.7 1494.46 2553.45 1488.01 2552.99 1483.54L2552.01 1483.54C2545.04 1493.34 2539.86 1500.38 2536.47 1504.65 2533.09 1508.92 2530.29 1512.08 2528.09 1514.12 2525.89 1516.16 2523.75 1517.59 2521.68 1518.41 2519.61 1519.23 2516.86 1519.64 2513.44 1519.64 2510.35 1519.64 2507.82 1519.25 2505.85 1518.46L2509.79 1500.61 2516.7 1500.61C2517.09 1503.37 2518.24 1504.75 2520.15 1504.75 2521.07 1504.75 2522.04 1504.5 2523.06 1504.01 2524.08 1503.52 2525.54 1502.33 2527.45 1500.46 2529.35 1498.58 2531.98 1495.64 2535.34 1491.63 2538.69 1487.62 2543.56 1481.6 2549.94 1473.58 2548.95 1468.39 2547.93 1463.39 2546.88 1458.59 2545.83 1453.79 2544.74 1449.32 2543.62 1445.17 2542.5 1441.03 2541.58 1438.32 2540.86 1437.04 2540.14 1435.76 2539.36 1434.87 2538.54 1434.37 2537.72 1433.88 2536.69 1433.63 2535.44 1433.63 2534.06 1433.63 2532.81 1433.95 2531.69 1434.57 2530.57 1435.2 2529.35 1436.28 2528.04 1437.83 2526.72 1439.37 2524.98 1441.79 2522.81 1445.08L2516.4 1440.84C2520.54 1434.59 2524.52 1429.92 2528.33 1426.83 2532.15 1423.74 2536.65 1422.19 2541.85 1422.19ZM2459.04 1376.43C2470.02 1376.43 2478.24 1380.16 2483.7 1387.62 2489.16 1395.09 2491.89 1406.38 2491.89 1421.5 2491.89 1427.49 2491.36 1434.6 2490.31 1442.86 2489.26 1451.11 2487.48 1459.71 2484.98 1468.65 2482.48 1477.59 2479.59 1485.19 2476.3 1491.43 2473.02 1497.68 2469.37 1502.84 2465.35 1506.92 2461.34 1511 2456.72 1514.15 2451.5 1516.39 2446.27 1518.62 2440.37 1519.74 2433.79 1519.74 2423.93 1519.74 2416.12 1516.78 2410.37 1510.86 2404.61 1504.95 2401.74 1496.27 2401.74 1484.83 2401.74 1474.5 2403.91 1464.57 2408.25 1455.04 2412.59 1445.5 2418.54 1437.93 2426.1 1432.3 2433.66 1426.68 2441.95 1423.87 2450.95 1423.87 2455.69 1423.87 2459.83 1424.41 2463.38 1425.5 2466.93 1426.58 2470.88 1428.7 2475.22 1431.86L2475.42 1429.39C2475.61 1426.24 2475.71 1423.51 2475.71 1421.21 2475.71 1408.78 2474.07 1399.75 2470.78 1394.13 2467.49 1388.51 2462.36 1385.7 2455.39 1385.7 2450.59 1385.7 2446.14 1386.83 2442.03 1389.1 2437.92 1391.37 2433.89 1394.87 2429.95 1399.61L2422.84 1399.61 2422.84 1391.42C2429.09 1387.01 2433.94 1383.87 2437.39 1382 2440.84 1380.13 2444.3 1378.73 2447.75 1377.81 2451.2 1376.89 2454.97 1376.43 2459.04 1376.43Z" fill-rule="evenodd"/><text fill="#000000" fill-opacity="0" font-family="Arial,Arial_MSFontService,sans-serif" font-size="143.313" x="2401.74" y="1501.83">𝜕𝑥</text><path d="M2389.62 1319.25 2618.62 1319.25 2618.62 1332.25 2389.62 1332.25Z" fill-rule="evenodd"/><path d="M2731.22 1262.13 2745.23 1262.13 2745.23 1318.94 2798.98 1318.94 2798.98 1332.06 2745.23 1332.06 2745.23 1388.87 2731.22 1388.87 2731.22 1332.06 2677.47 1332.06 2677.47 1318.94 2731.22 1318.94Z" fill-rule="evenodd"/><text fill="#000000" fill-opacity="0" font-family="Arial,Arial_MSFontService,sans-serif" font-size="126.743" x="2677.47" y="1373.03">+</text><path d="M2928.3 1247.04C2934.35 1247.04 2939.96 1247.45 2945.12 1248.27 2950.28 1249.1 2955.98 1250.49 2962.23 1252.47L2956.71 1277.81 2947.24 1277.81C2946.98 1272.23 2946.12 1267.84 2944.68 1264.65 2943.23 1261.46 2941.16 1259.17 2938.46 1257.79 2935.77 1256.41 2932.18 1255.72 2927.71 1255.72 2922.25 1255.72 2917.45 1256.84 2913.31 1259.07 2909.17 1261.31 2906.01 1264.35 2903.84 1268.2 2901.67 1272.04 2900.59 1276.33 2900.59 1281.07 2900.59 1286 2901.88 1290.32 2904.48 1294.04 2907.08 1297.75 2912.06 1302.14 2919.43 1307.21 2925.87 1311.68 2930.78 1315.67 2934.17 1319.19 2937.56 1322.71 2940.06 1326.44 2941.67 1330.39 2943.28 1334.33 2944.08 1338.9 2944.08 1344.1 2944.08 1352.12 2942.16 1359.24 2938.31 1365.45 2934.47 1371.66 2929.04 1376.46 2922.04 1379.85 2915.04 1383.24 2907.06 1384.93 2898.12 1384.93 2892.07 1384.93 2885.54 1384.44 2878.54 1383.45 2871.54 1382.46 2865.28 1381.21 2859.75 1379.7L2865.67 1352.58 2875.14 1352.58C2875.14 1360.6 2877 1366.57 2880.71 1370.48 2884.43 1374.39 2890.16 1376.35 2897.92 1376.35 2906.87 1376.35 2913.9 1373.92 2919.03 1369.05 2924.16 1364.18 2926.72 1357.41 2926.72 1348.73 2926.72 1344.72 2926.02 1341.19 2924.6 1338.13 2923.19 1335.07 2921.05 1332.14 2918.19 1329.35 2915.33 1326.56 2911.21 1323.35 2905.81 1319.73 2900.95 1316.45 2896.9 1313.21 2893.68 1310.02 2890.46 1306.83 2887.9 1303.26 2885.99 1299.32 2884.08 1295.37 2883.13 1290.97 2883.13 1286.1 2883.13 1278.34 2885 1271.5 2888.75 1265.58 2892.5 1259.67 2897.79 1255.1 2904.63 1251.87 2911.47 1248.65 2919.36 1247.04 2928.3 1247.04Z" fill-rule="evenodd"/><text fill="#000000" fill-opacity="0" font-family="Arial,Arial_MSFontService,sans-serif" font-size="137.889" x="2859.75" y="1367.69">𝑆</text><path d="M3016.03 1324.07C3018.66 1324.07 3020.98 1324.2 3022.99 1324.46 3025 1324.72 3026.94 1325.05 3028.81 1325.43L3025.86 1338.78 3018.76 1338.78C3018.42 1336.05 3017.61 1334.06 3016.32 1332.79 3015.03 1331.52 3013.3 1330.89 3011.15 1330.89 3008.66 1330.89 3006.57 1331.42 3004.87 1332.5 3003.17 1333.58 3001.69 1335.2 3000.42 1337.38 2999.15 1339.56 2998.06 1342.11 2997.15 1345.03 2996.24 1347.94 2995.62 1350.48 2995.29 1352.63L3015.17 1352.63 3013.59 1360.6 2993.64 1360.6 2980.65 1422.11C2978.4 1432.59 2974.75 1440.36 2969.7 1445.41 2964.65 1450.45 2957.92 1452.98 2949.49 1452.98 2947.29 1452.98 2945.69 1452.83 2944.68 1452.55 2944.97 1451.35 2945.24 1450.12 2945.47 1448.85 2945.71 1447.58 2946 1446.35 2946.34 1445.15 2946.62 1445.25 2947.03 1445.3 2947.56 1445.3 2948.08 1445.3 2948.82 1445.3 2949.78 1445.3 2951.65 1445.3 2953.36 1445 2954.91 1444.4 2956.47 1443.8 2957.89 1442.73 2959.18 1441.17 2960.48 1439.62 2961.66 1437.49 2962.74 1434.78 2963.81 1432.08 2964.83 1428.6 2965.79 1424.34L2980.14 1360.6 2967.8 1360.6 2969.09 1355.07C2971.72 1354.93 2973.81 1354.76 2975.37 1354.57 2976.92 1354.38 2978.24 1353.96 2979.32 1353.32 2980.39 1352.67 2981.2 1351.58 2981.72 1350.05 2984.5 1341.29 2988.67 1334.77 2994.25 1330.49 2999.82 1326.21 3007.08 1324.07 3016.03 1324.07Z" fill-rule="evenodd"/><text fill="#000000" fill-opacity="0" font-family="Arial,Arial_MSFontService,sans-serif" font-size="128.912" x="2944.68" y="1436.86">𝑓</text><path d="M3114.99 1339.46 3236.51 1339.46 3236.51 1352.58 3114.99 1352.58ZM3114.99 1298.53 3236.51 1298.53 3236.51 1311.65 3114.99 1311.65Z" fill-rule="evenodd"/><text fill="#000000" fill-opacity="0" font-family="Arial,Arial_MSFontService,sans-serif" font-size="54.0508" x="3114.99" y="1345.82">=</text><path d="M3377.01 1247.04C3383.06 1247.04 3388.67 1247.45 3393.83 1248.27 3398.99 1249.1 3404.69 1250.49 3410.94 1252.47L3405.42 1277.81 3395.95 1277.81C3395.68 1272.23 3394.83 1267.84 3393.38 1264.65 3391.94 1261.46 3389.87 1259.17 3387.17 1257.79 3384.47 1256.41 3380.89 1255.72 3376.42 1255.72 3370.96 1255.72 3366.16 1256.84 3362.02 1259.07 3357.88 1261.31 3354.72 1264.35 3352.55 1268.2 3350.38 1272.04 3349.29 1276.33 3349.29 1281.07 3349.29 1286 3350.59 1290.32 3353.19 1294.04 3355.79 1297.75 3360.77 1302.14 3368.13 1307.21 3374.58 1311.68 3379.49 1315.67 3382.88 1319.19 3386.27 1322.71 3388.76 1326.44 3390.38 1330.39 3391.99 1334.33 3392.79 1338.9 3392.79 1344.1 3392.79 1352.12 3390.87 1359.24 3387.02 1365.45 3383.17 1371.66 3377.75 1376.46 3370.75 1379.85 3363.74 1383.24 3355.77 1384.93 3346.83 1384.93 3340.78 1384.93 3334.25 1384.44 3327.25 1383.45 3320.25 1382.46 3313.98 1381.21 3308.46 1379.7L3314.38 1352.58 3323.85 1352.58C3323.85 1360.6 3325.7 1366.57 3329.42 1370.48 3333.14 1374.39 3338.87 1376.35 3346.63 1376.35 3355.57 1376.35 3362.61 1373.92 3367.74 1369.05 3372.87 1364.18 3375.43 1357.41 3375.43 1348.73 3375.43 1344.72 3374.73 1341.19 3373.31 1338.13 3371.9 1335.07 3369.76 1332.14 3366.9 1329.35 3364.04 1326.56 3359.91 1323.35 3354.52 1319.73 3349.66 1316.45 3345.61 1313.21 3342.39 1310.02 3339.17 1306.83 3336.6 1303.26 3334.7 1299.32 3332.79 1295.37 3331.84 1290.97 3331.84 1286.1 3331.84 1278.34 3333.71 1271.5 3337.46 1265.58 3341.21 1259.67 3346.5 1255.1 3353.34 1251.87 3360.18 1248.65 3368.07 1247.04 3377.01 1247.04Z" fill-rule="evenodd"/><text fill="#000000" fill-opacity="0" font-family="Arial,Arial_MSFontService,sans-serif" font-size="137.889" x="3308.46" y="1367.69">𝑆</text><path d="M3454.7 1358.23C3452.02 1358.23 3449.51 1358.83 3447.17 1360.03 3444.82 1361.22 3442.67 1362.87 3440.71 1364.98 3438.75 1367.08 3436.99 1369.57 3435.43 1372.44 3433.88 1375.32 3432.56 1378.4 3431.48 1381.7 3430.41 1385.01 3429.58 1388.45 3429.01 1392.04 3428.43 1395.63 3428.15 1399.22 3428.15 1402.81 3428.15 1408.31 3429.28 1412.36 3431.56 1414.97 3433.83 1417.58 3437.29 1418.88 3441.93 1418.88 3444.51 1418.88 3446.95 1418.25 3449.25 1416.98 3451.55 1415.71 3453.65 1414 3455.56 1411.85 3457.48 1409.7 3459.19 1407.17 3460.7 1404.28 3462.2 1401.38 3463.48 1398.28 3464.54 1394.98 3465.59 1391.68 3466.39 1388.27 3466.94 1384.75 3467.49 1381.24 3467.77 1377.8 3467.77 1374.45 3467.77 1369.14 3466.71 1365.11 3464.61 1362.36 3462.5 1359.61 3459.2 1358.23 3454.7 1358.23ZM3456.07 1351.13C3460.37 1351.13 3464.14 1351.82 3467.37 1353.21 3470.6 1354.6 3473.29 1356.47 3475.45 1358.84 3477.6 1361.21 3479.22 1364 3480.29 1367.2 3481.37 1370.41 3481.91 1373.83 3481.91 1377.47 3481.91 1384.74 3480.83 1391.33 3478.68 1397.24 3476.52 1403.15 3473.55 1408.23 3469.74 1412.46 3465.94 1416.7 3461.46 1419.96 3456.32 1422.26 3451.17 1424.55 3445.59 1425.7 3439.56 1425.7 3435.59 1425.7 3432.02 1425.1 3428.86 1423.91 3425.71 1422.71 3423.03 1420.99 3420.82 1418.74 3418.62 1416.49 3416.94 1413.78 3415.76 1410.59 3414.59 1407.41 3414.01 1403.81 3414.01 1399.79 3414.01 1393 3415.07 1386.64 3417.2 1380.73 3419.33 1374.82 3422.27 1369.68 3426.03 1365.3 3429.78 1360.92 3434.22 1357.47 3439.34 1354.93 3444.46 1352.39 3450.04 1351.13 3456.07 1351.13Z" fill-rule="evenodd"/><text fill="#000000" fill-opacity="0" font-family="Arial,Arial_MSFontService,sans-serif" font-size="74.5767" x="3414.01" y="1416.38">𝑜</text><path d="M3510 1427C3510 1457.1 3488.91 1481.5 3462.89 1481.5L3211.11 1481.5C3185.09 1481.5 3164 1505.9 3164 1536 3164 1505.9 3142.91 1481.5 3116.89 1481.5L2865.11 1481.5C2839.09 1481.5 2818 1457.1 2818 1427" stroke="#C00000" stroke-width="13.75" stroke-miterlimit="8" fill="none" fill-rule="evenodd"/><text font-family="Segoe UI Light,Segoe UI Light_MSFontService,sans-serif" font-weight="300" font-size="73" transform="matrix(1 0 0 1 2897.85 1597)">Flujo uniforme</text><path d="M3565 1737C3565 1780.08 3534.82 1815 3497.58 1815L2350.42 1815C2313.18 1815 2283 1849.92 2283 1893 2283 1849.92 2252.82 1815 2215.58 1815L1068.42 1815C1031.18 1815 1001 1780.08 1001 1737" stroke="#C00000" stroke-width="13.75" stroke-miterlimit="8" fill="none" fill-rule="evenodd"/><text font-family="Segoe UI Light,Segoe UI Light_MSFontService,sans-serif" font-weight="300" font-size="73" transform="matrix(1 0 0 1 1871.06 1768)">Flujo variado en condición permanente </text><path d="M3565 1553C3565 1596.08 3534.82 1631 3497.58 1631L2640.92 1631C2603.68 1631 2573.5 1665.92 2573.5 1709 2573.5 1665.92 2543.32 1631 2506.08 1631L1649.42 1631C1612.18 1631 1582 1596.08 1582 1553" stroke="#C00000" stroke-width="13.75" stroke-miterlimit="8" fill="none" fill-rule="evenodd"/><text font-family="Segoe UI Light,Segoe UI Light_MSFontService,sans-serif" font-weight="300" font-size="73" transform="matrix(1 0 0 1 1529.56 1963)">Flujo variado en condición no permanente </text><text font-family="Segoe UI Light,Segoe UI Light_MSFontService,sans-serif" font-weight="300" font-size="64" transform="matrix(1 0 0 1 1063.59 350)">Aceleración </text><text font-family="Segoe UI Light,Segoe UI Light_MSFontService,sans-serif" font-weight="300" font-size="64" transform="matrix(1 0 0 1 1158.42 427)">local</text><text font-family="Segoe UI Light,Segoe UI Light_MSFontService,sans-serif" font-weight="300" font-size="64" transform="matrix(1 0 0 1 1681.94 345)">Aceleración </text><text font-family="Segoe UI Light,Segoe UI Light_MSFontService,sans-serif" font-weight="300" font-size="64" transform="matrix(1 0 0 1 1696.83 422)">convectiva</text><text font-family="Segoe UI Light,Segoe UI Light_MSFontService,sans-serif" font-weight="300" font-size="64" transform="matrix(1 0 0 1 2255.14 345)">Fuerza de </text><text font-family="Segoe UI Light,Segoe UI Light_MSFontService,sans-serif" font-weight="300" font-size="64" transform="matrix(1 0 0 1 2288.94 422)">p</text><text font-family="Segoe UI Light,Segoe UI Light_MSFontService,sans-serif" font-weight="300" font-size="64" transform="matrix(1 0 0 1 2325.04 422)">resió</text><text font-family="Segoe UI Light,Segoe UI Light_MSFontService,sans-serif" font-weight="300" font-size="64" transform="matrix(1 0 0 1 2452.8 422)">n</text><text font-family="Segoe UI Light,Segoe UI Light_MSFontService,sans-serif" font-weight="300" font-size="64" transform="matrix(1 0 0 1 2861.63 342)">Fuerza </text><text font-family="Segoe UI Light,Segoe UI Light_MSFontService,sans-serif" font-weight="300" font-size="64" transform="matrix(1 0 0 1 2781.99 419)">gravitacional</text><text font-family="Segoe UI Light,Segoe UI Light_MSFontService,sans-serif" font-weight="300" font-size="64" transform="matrix(1 0 0 1 3219.63 344)">Fuerza </text><text font-family="Segoe UI Light,Segoe UI Light_MSFontService,sans-serif" font-weight="300" font-size="64" transform="matrix(1 0 0 1 3212.76 421)">fricción</text><path d="M1.14583-2.5062e-06 1.14614 142.083-1.14552 142.083-1.14583 2.5062e-06ZM13.7503 137.5 0.000360892 165-13.7497 137.5Z" fill="#C00000" transform="matrix(1 0 0 -1 1220 624)"/><path d="M1.14583-2.5062e-06 1.14614 142.083-1.14552 142.083-1.14583 2.5062e-06ZM13.7503 137.5 0.000360892 165-13.7497 137.5Z" fill="#C00000" transform="matrix(1 0 0 -1 1838 626)"/><path d="M1.14583-2.5062e-06 1.14614 142.083-1.14552 142.083-1.14583 2.5062e-06ZM13.7503 137.5 0.000360892 165-13.7497 137.5Z" fill="#C00000" transform="matrix(1 0 0 -1 2388 620)"/><path d="M1.14583-1.79014e-06 1.14616 208.083-1.14551 208.083-1.14583 1.79014e-06ZM13.7503 203.5 0.000360892 231-13.7497 203.5Z" fill="#C00000" transform="matrix(1 0 0 -1 3306 714)"/><path d="M1.14583-1.79014e-06 1.14616 208.083-1.14551 208.083-1.14583 1.79014e-06ZM13.7503 203.5 0.000360892 231-13.7497 203.5Z" fill="#C00000" transform="matrix(1 0 0 -1 2957 721)"/></g></svg>