<svg width="1167" height="1394" xmlns="http://www.w3.org/2000/svg" xmlns:xlink="http://www.w3.org/1999/xlink" xml:space="preserve" overflow="hidden"><defs><clipPath id="clip0"><rect x="1379" y="392" width="1167" height="1394"/></clipPath></defs><g clip-path="url(#clip0)" transform="translate(-1379 -392)"><path d="M1469.61 648.831C1463.5 648.831 1457.83 651.247 1452.6 656.08 1447.37 660.913 1443.11 668.163 1439.83 677.829 1436.54 687.495 1434.89 697.062 1434.89 706.531 1434.89 712.449 1435.54 717.068 1436.82 720.389 1438.1 723.71 1439.79 725.995 1441.9 727.244 1444 728.493 1446.63 729.118 1449.79 729.118 1456.89 729.118 1462.96 726.274 1467.99 720.586 1473.02 714.898 1477.31 706.35 1480.86 694.942 1484.41 683.533 1486.18 674.541 1486.18 667.966 1486.18 661.259 1484.82 656.393 1482.09 653.368 1479.36 650.343 1475.2 648.831 1469.61 648.831ZM1601.14 607.8C1594.04 607.8 1587.42 610.331 1581.27 615.394 1575.12 620.458 1569.73 627.691 1565.09 637.094 1560.46 646.497 1556.86 656.82 1554.29 668.064 1551.73 679.308 1550.44 689.237 1550.44 697.851 1550.44 718.17 1557.84 728.329 1572.64 728.329 1581.78 728.329 1590.16 724.071 1597.79 715.556 1605.42 707.041 1611.56 695.254 1616.23 680.196 1620.9 665.138 1623.24 651.067 1623.24 637.981 1623.24 628.184 1621.43 620.704 1617.81 615.542 1614.19 610.381 1608.64 607.8 1601.14 607.8ZM1602.23 599.12C1614.92 599.12 1624.7 602.802 1631.57 610.167 1638.44 617.531 1641.88 628.184 1641.88 642.124 1641.88 651.33 1640.43 661.62 1637.54 672.996 1634.64 684.372 1630.67 694.416 1625.6 703.128 1620.54 711.841 1614.67 718.86 1608 724.186 1601.32 729.513 1594.07 733.195 1586.25 735.233 1587.76 740.033 1589.17 743.995 1590.49 747.119 1591.8 750.242 1593.07 752.773 1594.29 754.713 1595.5 756.653 1596.7 758.1 1597.89 759.053 1599.07 760.007 1600.25 760.648 1601.44 760.976 1602.62 761.305 1604 761.47 1605.58 761.47 1608.08 761.47 1610.61 760.746 1613.18 759.3 1615.74 757.853 1618.6 755.354 1621.76 751.804L1626.89 757.327C1621.62 763.048 1616.73 767.092 1612.19 769.459 1607.65 771.826 1602.98 773.01 1598.18 773.01 1592.73 773.01 1588.27 771.793 1584.82 769.36 1581.37 766.927 1578.37 763.048 1575.84 757.722 1573.31 752.395 1570.86 745.425 1568.49 736.811 1556.59 736.154 1547.52 732.209 1541.27 724.975 1535.03 717.742 1531.9 707.55 1531.9 694.399 1531.9 684.536 1533.56 673.391 1536.88 660.963 1540.2 648.535 1545 637.57 1551.28 628.069 1557.56 618.567 1565.06 611.367 1573.77 606.468 1582.48 601.569 1591.97 599.12 1602.23 599.12ZM1474.74 593.597C1485.72 593.597 1493.94 597.328 1499.4 604.791 1504.86 612.255 1507.59 623.548 1507.59 638.672 1507.59 644.656 1507.06 651.773 1506.01 660.026 1504.96 668.278 1503.18 676.876 1500.68 685.818 1498.18 694.761 1495.29 702.356 1492 708.602 1488.71 714.849 1485.07 720.011 1481.05 724.088 1477.04 728.165 1472.42 731.321 1467.2 733.557 1461.97 735.792 1456.07 736.91 1449.49 736.91 1439.63 736.91 1431.82 733.951 1426.07 728.033 1420.31 722.115 1417.44 713.435 1417.44 701.994 1417.44 691.67 1419.61 681.741 1423.95 672.207 1428.29 662.672 1434.24 655.094 1441.8 649.472 1449.36 643.85 1457.65 641.039 1466.65 641.039 1471.39 641.039 1475.53 641.581 1479.08 642.666 1482.63 643.751 1486.58 645.872 1490.92 649.028L1491.11 646.562C1491.31 643.406 1491.41 640.677 1491.41 638.376 1491.41 625.948 1489.77 616.923 1486.48 611.301 1483.19 605.679 1478.06 602.868 1471.09 602.868 1466.29 602.868 1461.84 604.002 1457.73 606.271 1453.62 608.539 1449.59 612.041 1445.65 616.775L1438.54 616.775 1438.54 608.589C1444.79 604.183 1449.64 601.043 1453.09 599.169 1456.54 597.295 1460 595.898 1463.45 594.977 1466.9 594.057 1470.66 593.597 1474.74 593.597Z" fill-rule="evenodd"/><text fill="#000000" fill-opacity="0" font-family="Arial,Arial_MSFontService,sans-serif" font-size="179.413" x="1417.44" y="750.583">𝜕𝑄</text><path d="M1481.83 934.69C1475.12 934.69 1469.1 937.402 1463.78 942.827 1458.45 948.252 1454.26 955.567 1451.2 964.773 1448.14 973.978 1446.62 983.151 1446.62 992.291 1446.62 999.13 1447.55 1004.24 1449.43 1007.63 1451.3 1011.01 1454.44 1012.71 1458.85 1012.71 1460.88 1012.71 1462.96 1012.26 1465.06 1011.38 1467.16 1010.49 1469.35 1009.06 1471.62 1007.09 1473.89 1005.11 1476.12 1002.71 1478.33 999.886 1480.53 997.058 1482.55 994.214 1484.39 991.354 1486.23 988.494 1487.94 985.107 1489.52 981.195 1491.1 977.283 1492.45 972.565 1493.56 967.041L1494.45 962.8C1495.44 958.066 1495.93 953.594 1495.93 949.386 1495.93 944.257 1494.85 940.525 1492.68 938.191 1490.51 935.857 1486.89 934.69 1481.83 934.69ZM1574.76 926.898C1576.8 926.898 1578.59 927.128 1580.14 927.588 1581.68 928.048 1583.05 928.755 1584.23 929.709 1585.41 930.662 1586.47 931.895 1587.39 933.407 1588.31 934.92 1589.19 936.975 1590.05 939.572 1590.9 942.169 1591.71 945.391 1592.47 949.238 1593.22 953.085 1593.9 957.079 1594.49 961.222L1595.47 961.222C1601.79 952.345 1606.57 945.852 1609.82 941.742 1613.08 937.632 1615.83 934.575 1618.06 932.569 1620.3 930.563 1622.45 929.15 1624.52 928.328 1626.59 927.506 1629.34 927.095 1632.76 927.095 1635.85 927.095 1638.38 927.489 1640.35 928.278L1636.41 946.131 1629.5 946.131C1629.11 943.369 1627.96 941.988 1626.05 941.988 1625.46 941.988 1624.83 942.087 1624.18 942.284 1623.52 942.482 1622.71 942.909 1621.76 943.567 1620.81 944.224 1619.41 945.506 1617.57 947.413 1615.73 949.32 1613.66 951.654 1611.35 954.416 1609.05 957.178 1606.69 960.071 1604.25 963.096L1597.55 971.48C1598.73 977.792 1599.85 983.25 1600.9 987.853 1601.95 992.456 1602.89 996.286 1603.71 999.343 1604.53 1002.4 1605.26 1004.82 1605.88 1006.59 1606.5 1008.37 1607.18 1009.7 1607.9 1010.59 1608.62 1011.48 1609.36 1012.1 1610.12 1012.46 1610.88 1012.82 1611.75 1013 1612.73 1013 1614.51 1013 1616.24 1012.31 1617.91 1010.93 1619.59 1009.55 1622.01 1006.43 1625.16 1001.56L1631.57 1005.8C1626.97 1012.64 1622.81 1017.46 1619.1 1020.25 1615.38 1023.05 1610.96 1024.45 1605.83 1024.45 1603 1024.45 1600.6 1023.94 1598.63 1022.92 1596.66 1021.9 1594.95 1020.27 1593.5 1018.03 1592.05 1015.8 1590.77 1012.31 1589.65 1007.58 1587.62 999.163 1586.37 992.719 1585.91 988.247L1584.92 988.247C1577.95 998.045 1572.77 1005.08 1569.39 1009.35 1566 1013.63 1563.2 1016.78 1561 1018.82 1558.8 1020.86 1556.66 1022.29 1554.59 1023.11 1552.52 1023.94 1549.77 1024.35 1546.35 1024.35 1543.26 1024.35 1540.73 1023.95 1538.76 1023.16L1542.71 1005.31 1549.61 1005.31C1550 1008.07 1551.15 1009.45 1553.06 1009.45 1553.98 1009.45 1554.95 1009.21 1555.97 1008.71 1556.99 1008.22 1558.45 1007.04 1560.36 1005.16 1562.27 1003.29 1564.9 1000.35 1568.25 996.335 1571.6 992.324 1576.47 986.307 1582.85 978.285 1581.86 973.091 1580.84 968.093 1579.79 963.293 1578.74 958.493 1577.65 954.022 1576.54 949.879 1575.42 945.736 1574.5 943.024 1573.77 941.742 1573.05 940.46 1572.28 939.572 1571.46 939.079 1570.63 938.586 1569.6 938.339 1568.35 938.339 1566.97 938.339 1565.72 938.651 1564.6 939.276 1563.48 939.901 1562.27 940.986 1560.95 942.531 1559.64 944.076 1557.89 946.493 1555.72 949.78L1549.31 945.539C1553.46 939.292 1557.43 934.624 1561.25 931.533 1565.06 928.443 1569.57 926.898 1574.76 926.898ZM1523.15 881.822 1528.97 881.822 1504.41 991.009C1502.97 997.453 1502.24 1002.32 1502.24 1005.61 1502.24 1008.24 1502.67 1010.14 1503.53 1011.33 1504.38 1012.51 1505.73 1013.1 1507.57 1013.1 1509.54 1013.1 1511.65 1012.3 1513.88 1010.69 1516.12 1009.08 1519.28 1006 1523.35 1001.46L1528.97 1006.99C1522.92 1013.37 1517.83 1017.87 1513.69 1020.5 1509.54 1023.13 1505.07 1024.45 1500.27 1024.45 1496.19 1024.45 1492.94 1023.1 1490.51 1020.4 1488.07 1017.71 1486.86 1014.12 1486.86 1009.65 1486.86 1006.03 1487.61 1002.19 1489.13 998.11L1487.84 997.716C1481.53 1006.92 1475.55 1013.66 1469.89 1017.94 1464.24 1022.21 1458.25 1024.35 1451.94 1024.35 1444.71 1024.35 1439.1 1021.62 1435.12 1016.16 1431.15 1010.7 1429.16 1003.04 1429.16 993.179 1429.16 981.869 1431.38 971.003 1435.82 960.581 1440.25 950.159 1446.35 941.939 1454.11 935.922 1461.87 929.906 1470.52 926.898 1480.05 926.898 1484.06 926.898 1487.76 927.309 1491.15 928.13 1494.53 928.952 1498 930.383 1501.55 932.421L1506.68 909.637C1507.21 907.467 1507.67 905.067 1508.06 902.437 1508.46 899.806 1508.66 897.505 1508.66 895.532 1508.66 893.56 1508.29 892.064 1507.57 891.045 1506.85 890.025 1505.81 889.286 1504.46 888.825 1503.12 888.365 1500.7 888.036 1497.21 887.839L1498.4 882.71Z" fill-rule="evenodd"/><text fill="#000000" fill-opacity="0" font-family="Arial,Arial_MSFontService,sans-serif" font-size="142.623" x="1429.16" y="1006.62">𝑑𝑥</text><path d="M1406.74 823.949 1661.74 823.949 1661.74 836.949 1406.74 836.949Z" fill-rule="evenodd"/><path d="M1774.42 766.836 1788.43 766.836 1788.43 823.648 1842.18 823.648 1842.18 836.766 1788.43 836.766 1788.43 893.579 1774.42 893.579 1774.42 836.766 1720.67 836.766 1720.67 823.648 1774.42 823.648Z" fill-rule="evenodd"/><text fill="#000000" fill-opacity="0" font-family="Arial,Arial_MSFontService,sans-serif" font-size="126.743" x="1720.67" y="877.736">+</text><path d="M1964.5 648.831C1958.38 648.831 1952.71 651.247 1947.48 656.08 1942.26 660.913 1938 668.163 1934.71 677.829 1931.42 687.495 1929.78 697.062 1929.78 706.531 1929.78 712.449 1930.42 717.068 1931.7 720.389 1932.99 723.71 1934.68 725.995 1936.78 727.244 1938.89 728.493 1941.52 729.118 1944.67 729.118 1951.77 729.118 1957.84 726.274 1962.87 720.586 1967.9 714.898 1972.19 706.35 1975.74 694.942 1979.29 683.533 1981.07 674.541 1981.07 667.966 1981.07 661.259 1979.7 656.393 1976.98 653.368 1974.25 650.343 1970.09 648.831 1964.5 648.831ZM1969.63 593.597C1980.61 593.597 1988.83 597.328 1994.29 604.791 1999.74 612.255 2002.47 623.548 2002.47 638.672 2002.47 644.656 2001.95 651.773 2000.89 660.026 1999.84 668.278 1998.07 676.876 1995.57 685.818 1993.07 694.761 1990.18 702.356 1986.89 708.602 1983.6 714.849 1979.95 720.011 1975.94 724.088 1971.93 728.165 1967.31 731.321 1962.08 733.557 1956.85 735.792 1950.95 736.91 1944.38 736.91 1934.51 736.91 1926.71 733.951 1920.95 728.033 1915.2 722.115 1912.32 713.435 1912.32 701.994 1912.32 691.67 1914.49 681.741 1918.83 672.207 1923.17 662.672 1929.12 655.094 1936.68 649.472 1944.25 643.85 1952.53 641.039 1961.54 641.039 1966.27 641.039 1970.42 641.581 1973.97 642.666 1977.52 643.751 1981.46 645.872 1985.8 649.028L1986 646.562C1986.2 643.406 1986.3 640.677 1986.3 638.376 1986.3 625.948 1984.65 616.923 1981.36 611.301 1978.08 605.679 1972.95 602.868 1965.98 602.868 1961.18 602.868 1956.72 604.002 1952.61 606.271 1948.5 608.539 1944.48 612.041 1940.53 616.775L1933.43 616.775 1933.43 608.589C1939.68 604.183 1944.53 601.043 1947.98 599.169 1951.43 597.295 1954.88 595.898 1958.33 594.977 1961.79 594.057 1965.55 593.597 1969.63 593.597Z" fill-rule="evenodd"/><text fill="#000000" fill-opacity="0" font-family="Arial,Arial_MSFontService,sans-serif" font-size="143.313" x="1912.32" y="718.996">𝜕</text><path d="M2096.32 619.932 2061.21 682.07 2099.77 682.07 2098.09 650.31C2097.9 645.971 2097.73 640.546 2097.6 634.036 2097.47 627.526 2097.4 622.825 2097.4 619.932ZM2096.91 599.12 2111.8 599.12 2118.91 709.096C2119.23 714.29 2119.83 718.351 2120.68 721.277 2121.54 724.203 2122.7 726.373 2124.18 727.786 2125.66 729.2 2127.82 730.104 2130.64 730.499L2129.56 735.332 2088.53 735.332 2089.61 730.499C2093.49 730.17 2096.39 728.658 2098.29 725.962 2100.2 723.266 2101.15 718.531 2101.15 711.759 2101.15 709.194 2101.05 706.4 2100.86 703.375L2100.17 690.651 2056.77 690.651 2051.34 700.317C2048.78 704.854 2046.9 708.75 2045.72 712.005 2044.54 715.26 2043.95 718.137 2043.95 720.636 2043.95 726.159 2047.27 729.447 2053.91 730.499L2052.82 735.332 2012.48 735.332 2013.57 730.499C2015.6 730.236 2017.53 729.43 2019.34 728.082 2021.14 726.734 2023.07 724.696 2025.11 721.967 2027.14 719.238 2030.01 714.718 2033.69 708.405Z" fill-rule="evenodd"/><text fill="#000000" fill-opacity="0" font-family="Arial,Arial_MSFontService,sans-serif" font-size="136.212" x="2012.48" y="718.305">𝐴</text><path d="M1984.78 934.69C1978.07 934.69 1972.06 937.402 1966.73 942.827 1961.4 948.252 1957.21 955.567 1954.15 964.773 1951.1 973.978 1949.57 983.151 1949.57 992.291 1949.57 999.13 1950.5 1004.24 1952.38 1007.63 1954.25 1011.01 1957.39 1012.71 1961.8 1012.71 1963.84 1012.71 1965.91 1012.26 1968.01 1011.38 1970.12 1010.49 1972.3 1009.06 1974.57 1007.09 1976.84 1005.11 1979.08 1002.71 1981.28 999.886 1983.48 997.058 1985.5 994.214 1987.34 991.354 1989.19 988.494 1990.89 985.107 1992.47 981.195 1994.05 977.283 1995.4 972.565 1996.52 967.041L1997.4 962.8C1998.39 958.066 1998.88 953.594 1998.88 949.386 1998.88 944.257 1997.8 940.525 1995.63 938.191 1993.46 935.857 1989.84 934.69 1984.78 934.69ZM2077.32 904.212 2090.93 904.212 2085.51 928.574 2115.49 928.574 2113.32 938.536 2083.34 938.536 2074.56 976.806C2072.85 984.236 2071.76 989.579 2071.3 992.834 2070.84 996.089 2070.61 998.702 2070.61 1000.67 2070.61 1008.83 2074 1012.91 2080.77 1012.91 2083.66 1012.91 2086.74 1011.8 2089.99 1009.6 2093.25 1007.4 2097.11 1003.63 2101.58 998.308L2107.3 1004.23C2101.58 1011.13 2096.08 1016.23 2090.78 1019.51 2085.49 1022.8 2079.95 1024.45 2074.16 1024.45 2060.42 1024.45 2053.55 1017.51 2053.55 1003.63 2053.55 999.228 2054.11 994.593 2055.22 989.727L2066.86 938.536 2050.29 938.536 2051.77 931.731C2055.65 931.665 2058.59 931.369 2060.6 930.843 2062.61 930.317 2064.28 929.594 2065.63 928.673 2066.98 927.752 2068.21 926.437 2069.33 924.728 2070.45 923.018 2071.53 920.832 2072.58 918.169 2073.64 915.505 2075.21 910.853 2077.32 904.212ZM2026.11 881.822 2031.93 881.822 2007.37 991.009C2005.92 997.453 2005.2 1002.32 2005.2 1005.61 2005.2 1008.24 2005.62 1010.14 2006.48 1011.33 2007.33 1012.51 2008.68 1013.1 2010.52 1013.1 2012.5 1013.1 2014.6 1012.3 2016.84 1010.69 2019.07 1009.08 2022.23 1006 2026.3 1001.46L2031.93 1006.99C2025.88 1013.37 2020.78 1017.87 2016.64 1020.5 2012.5 1023.13 2008.02 1024.45 2003.22 1024.45 1999.15 1024.45 1995.89 1023.1 1993.46 1020.4 1991.03 1017.71 1989.81 1014.12 1989.81 1009.65 1989.81 1006.03 1990.57 1002.19 1992.08 998.11L1990.8 997.716C1984.48 1006.92 1978.5 1013.66 1972.84 1017.94 1967.19 1022.21 1961.21 1024.35 1954.89 1024.35 1947.66 1024.35 1942.06 1021.62 1938.08 1016.16 1934.1 1010.7 1932.11 1003.04 1932.11 993.179 1932.11 981.869 1934.33 971.003 1938.77 960.581 1943.21 950.159 1949.3 941.939 1957.06 935.922 1964.82 929.906 1973.47 926.898 1983 926.898 1987.02 926.898 1990.71 927.309 1994.1 928.13 1997.49 928.952 2000.96 930.383 2004.51 932.421L2009.64 909.637C2010.16 907.467 2010.62 905.067 2011.02 902.437 2011.41 899.806 2011.61 897.505 2011.61 895.532 2011.61 893.56 2011.25 892.064 2010.52 891.045 2009.8 890.025 2008.76 889.286 2007.42 888.825 2006.07 888.365 2003.65 888.036 2000.17 887.839L2001.35 882.71Z" fill-rule="evenodd"/><text fill="#000000" fill-opacity="0" font-family="Arial,Arial_MSFontService,sans-serif" font-size="142.623" x="1932.11" y="1006.62">𝑑𝑡</text><path d="M1901.74 823.949 2143.74 823.949 2143.74 836.949 1901.74 836.949Z" fill-rule="evenodd"/><path d="M2214.2 844.164 2335.72 844.164 2335.72 857.282 2214.2 857.282ZM2214.2 803.231 2335.72 803.231 2335.72 816.349 2214.2 816.349Z" fill-rule="evenodd"/><text fill="#000000" fill-opacity="0" font-family="Arial,Arial_MSFontService,sans-serif" font-size="54.0508" x="2214.2" y="850.526">=</text><path d="M2462.11 760.129C2457.58 760.129 2453.78 761.477 2450.72 764.173 2447.66 766.869 2445.2 770.748 2443.32 775.811 2441.45 780.875 2440.12 787.039 2439.33 794.305 2438.54 801.571 2438.15 809.774 2438.15 818.914 2438.15 840.35 2440.13 856.082 2444.11 866.11 2448.09 876.137 2454.26 881.151 2462.61 881.151 2470.56 881.151 2476.46 876.433 2480.31 866.997 2484.16 857.562 2486.08 842.947 2486.08 823.155 2486.08 808.031 2485.09 795.785 2483.12 786.414 2481.15 777.044 2478.4 770.321 2474.89 766.244 2471.37 762.167 2467.11 760.129 2462.11 760.129ZM2462.61 751.745C2477.01 751.745 2487.72 757.301 2494.76 768.414 2501.8 779.527 2505.31 796.327 2505.31 818.815 2505.31 842.093 2501.55 859.699 2494.02 871.633 2486.49 883.568 2475.49 889.535 2461.03 889.535 2446.83 889.535 2436.26 883.946 2429.32 872.767 2422.38 861.589 2418.91 844.624 2418.91 821.873 2418.91 809.774 2419.98 799.319 2422.12 790.508 2424.25 781.696 2427.25 774.414 2431.09 768.661 2434.94 762.907 2439.56 758.649 2444.95 755.888 2450.34 753.126 2456.23 751.745 2462.61 751.745Z" fill-rule="evenodd"/><text fill="#000000" fill-opacity="0" font-family="Arial,Arial_MSFontService,sans-serif" font-size="137.79" x="2418.91" y="872.311">0</text><path d="M1489.99 1338.83C1483.87 1338.83 1478.2 1341.25 1472.97 1346.08 1467.74 1350.91 1463.49 1358.16 1460.2 1367.83 1456.91 1377.49 1455.27 1387.06 1455.27 1396.53 1455.27 1402.45 1455.91 1407.07 1457.19 1410.39 1458.47 1413.71 1460.17 1415.99 1462.27 1417.24 1464.37 1418.49 1467 1419.12 1470.16 1419.12 1477.26 1419.12 1483.33 1416.27 1488.36 1410.59 1493.39 1404.9 1497.68 1396.35 1501.23 1384.94 1504.78 1373.53 1506.56 1364.54 1506.56 1357.97 1506.56 1351.26 1505.19 1346.39 1502.46 1343.37 1499.73 1340.34 1495.57 1338.83 1489.99 1338.83ZM1495.11 1283.6C1506.1 1283.6 1514.32 1287.33 1519.77 1294.79 1525.23 1302.25 1527.96 1313.55 1527.96 1328.67 1527.96 1334.66 1527.43 1341.77 1526.38 1350.03 1525.33 1358.28 1523.55 1366.88 1521.06 1375.82 1518.56 1384.76 1515.66 1392.36 1512.38 1398.6 1509.09 1404.85 1505.44 1410.01 1501.43 1414.09 1497.42 1418.16 1492.8 1421.32 1487.57 1423.56 1482.34 1425.79 1476.44 1426.91 1469.86 1426.91 1460 1426.91 1452.19 1423.95 1446.44 1418.03 1440.69 1412.12 1437.81 1403.44 1437.81 1391.99 1437.81 1381.67 1439.98 1371.74 1444.32 1362.21 1448.66 1352.67 1454.61 1345.09 1462.17 1339.47 1469.73 1333.85 1478.02 1331.04 1487.03 1331.04 1491.76 1331.04 1495.9 1331.58 1499.45 1332.67 1503.01 1333.75 1506.95 1335.87 1511.29 1339.03L1511.49 1336.56C1511.68 1333.41 1511.78 1330.68 1511.78 1328.38 1511.78 1315.95 1510.14 1306.92 1506.85 1301.3 1503.56 1295.68 1498.44 1292.87 1491.47 1292.87 1486.67 1292.87 1482.21 1294 1478.1 1296.27 1473.99 1298.54 1469.96 1302.04 1466.02 1306.78L1458.92 1306.78 1458.92 1298.59C1465.16 1294.18 1470.01 1291.04 1473.46 1289.17 1476.92 1287.3 1480.37 1285.9 1483.82 1284.98 1487.27 1284.06 1491.04 1283.6 1495.11 1283.6Z" fill-rule="evenodd"/><text fill="#000000" fill-opacity="0" font-family="Arial,Arial_MSFontService,sans-serif" font-size="143.313" x="1437.81" y="1409">𝜕</text><path d="M1602.28 1337.15C1595.57 1337.15 1589.55 1339.87 1584.23 1345.29 1578.9 1350.72 1574.71 1358.03 1571.65 1367.24 1568.59 1376.44 1567.07 1385.62 1567.07 1394.76 1567.07 1401.59 1568 1406.71 1569.88 1410.09 1571.75 1413.48 1574.89 1415.17 1579.3 1415.17 1581.33 1415.17 1583.41 1414.73 1585.51 1413.84 1587.61 1412.95 1589.8 1411.52 1592.07 1409.55 1594.34 1407.58 1596.57 1405.18 1598.78 1402.35 1600.98 1399.52 1603 1396.68 1604.84 1393.82 1606.68 1390.96 1608.39 1387.57 1609.97 1383.66 1611.55 1379.75 1612.9 1375.03 1614.01 1369.51L1614.9 1365.26C1615.89 1360.53 1616.38 1356.06 1616.38 1351.85 1616.38 1346.72 1615.3 1342.99 1613.13 1340.66 1610.96 1338.32 1607.34 1337.15 1602.28 1337.15ZM1600.5 1329.36C1604.58 1329.36 1608.46 1329.84 1612.14 1330.79 1615.82 1331.75 1619.64 1333.44 1623.58 1335.87L1632.66 1329.36 1638.97 1330.94 1613.72 1443.09C1612.6 1448.08 1612.04 1451.83 1612.04 1454.33 1612.04 1457.22 1612.78 1459.28 1614.26 1460.49 1615.74 1461.71 1618.65 1462.52 1622.99 1462.91L1622.1 1467.74 1591.33 1467.74 1608.29 1403.04 1606.91 1402.45C1601.26 1410.41 1595.49 1416.45 1589.6 1420.6 1583.72 1424.74 1577.98 1426.81 1572.39 1426.81 1565.16 1426.81 1559.55 1424.08 1555.57 1418.62 1551.6 1413.17 1549.61 1405.51 1549.61 1395.64 1549.61 1384.33 1551.83 1373.47 1556.27 1363.05 1560.7 1352.62 1566.8 1344.4 1574.56 1338.39 1582.32 1332.37 1590.97 1329.36 1600.5 1329.36Z" fill-rule="evenodd"/><text fill="#000000" fill-opacity="0" font-family="Arial,Arial_MSFontService,sans-serif" font-size="138.382" x="1549.61" y="1450.45">𝑞</text><path d="M1488.56 1624.69C1481.86 1624.69 1475.84 1627.4 1470.52 1632.83 1465.19 1638.25 1461 1645.57 1457.94 1654.77 1454.88 1663.98 1453.35 1673.15 1453.35 1682.29 1453.35 1689.13 1454.29 1694.24 1456.16 1697.63 1458.04 1701.01 1461.18 1702.71 1465.58 1702.71 1467.62 1702.71 1469.69 1702.26 1471.8 1701.38 1473.9 1700.49 1476.09 1699.06 1478.36 1697.09 1480.62 1695.11 1482.86 1692.71 1485.06 1689.89 1487.27 1687.06 1489.29 1684.21 1491.13 1681.35 1492.97 1678.49 1494.68 1675.11 1496.26 1671.19 1497.84 1667.28 1499.18 1662.56 1500.3 1657.04L1501.19 1652.8C1502.18 1648.07 1502.67 1643.59 1502.67 1639.39 1502.67 1634.26 1501.58 1630.53 1499.41 1628.19 1497.24 1625.86 1493.63 1624.69 1488.56 1624.69ZM1581.5 1616.9C1583.54 1616.9 1585.33 1617.13 1586.87 1617.59 1588.42 1618.05 1589.78 1618.76 1590.97 1619.71 1592.15 1620.66 1593.2 1621.9 1594.12 1623.41 1595.04 1624.92 1595.93 1626.97 1596.79 1629.57 1597.64 1632.17 1598.45 1635.39 1599.2 1639.24 1599.96 1643.08 1600.63 1647.08 1601.23 1651.22L1602.21 1651.22C1608.52 1642.34 1613.31 1635.85 1616.56 1631.74 1619.82 1627.63 1622.56 1624.57 1624.8 1622.57 1627.03 1620.56 1629.19 1619.15 1631.26 1618.33 1633.33 1617.51 1636.08 1617.09 1639.49 1617.09 1642.59 1617.09 1645.12 1617.49 1647.09 1618.28L1643.14 1636.13 1636.24 1636.13C1635.85 1633.37 1634.69 1631.99 1632.79 1631.99 1632.2 1631.99 1631.57 1632.09 1630.91 1632.28 1630.26 1632.48 1629.45 1632.91 1628.5 1633.57 1627.54 1634.22 1626.15 1635.51 1624.31 1637.41 1622.46 1639.32 1620.39 1641.65 1618.09 1644.42 1615.79 1647.18 1613.42 1650.07 1610.99 1653.1L1604.28 1661.48C1605.47 1667.79 1606.58 1673.25 1607.64 1677.85 1608.69 1682.46 1609.63 1686.29 1610.45 1689.34 1611.27 1692.4 1611.99 1694.82 1612.62 1696.59 1613.24 1698.37 1613.92 1699.7 1614.64 1700.59 1615.36 1701.48 1616.1 1702.1 1616.86 1702.46 1617.61 1702.82 1618.49 1703 1619.47 1703 1621.25 1703 1622.97 1702.31 1624.65 1700.93 1626.33 1699.55 1628.74 1696.43 1631.9 1691.56L1638.31 1695.8C1633.71 1702.64 1629.55 1707.46 1625.83 1710.25 1622.12 1713.05 1617.7 1714.45 1612.57 1714.45 1609.74 1714.45 1607.34 1713.94 1605.37 1712.92 1603.4 1711.9 1601.69 1710.27 1600.24 1708.03 1598.79 1705.8 1597.51 1702.31 1596.39 1697.58 1594.35 1689.16 1593.1 1682.72 1592.64 1678.25L1591.66 1678.25C1584.69 1688.04 1579.51 1695.08 1576.12 1699.35 1572.74 1703.63 1569.94 1706.78 1567.74 1708.82 1565.54 1710.86 1563.4 1712.29 1561.33 1713.11 1559.26 1713.94 1556.51 1714.35 1553.09 1714.35 1550 1714.35 1547.47 1713.95 1545.5 1713.16L1549.44 1695.31 1556.35 1695.31C1556.74 1698.07 1557.89 1699.45 1559.8 1699.45 1560.72 1699.45 1561.69 1699.21 1562.71 1698.71 1563.73 1698.22 1565.19 1697.04 1567.1 1695.16 1569.01 1693.29 1571.64 1690.35 1574.99 1686.34 1578.34 1682.32 1583.21 1676.31 1589.59 1668.29 1588.6 1663.09 1587.58 1658.09 1586.53 1653.29 1585.48 1648.49 1584.39 1644.02 1583.27 1639.88 1582.16 1635.74 1581.24 1633.02 1580.51 1631.74 1579.79 1630.46 1579.02 1629.57 1578.19 1629.08 1577.37 1628.59 1576.34 1628.34 1575.09 1628.34 1573.71 1628.34 1572.46 1628.65 1571.34 1629.28 1570.22 1629.9 1569.01 1630.99 1567.69 1632.53 1566.37 1634.08 1564.63 1636.49 1562.46 1639.78L1556.05 1635.54C1560.19 1629.29 1564.17 1624.62 1567.99 1621.53 1571.8 1618.44 1576.3 1616.9 1581.5 1616.9ZM1529.89 1571.82 1535.71 1571.82 1511.15 1681.01C1509.71 1687.45 1508.98 1692.32 1508.98 1695.61 1508.98 1698.24 1509.41 1700.14 1510.26 1701.33 1511.12 1702.51 1512.47 1703.1 1514.31 1703.1 1516.28 1703.1 1518.38 1702.3 1520.62 1700.69 1522.86 1699.08 1526.01 1696 1530.09 1691.46L1535.71 1696.99C1529.66 1703.37 1524.57 1707.87 1520.42 1710.5 1516.28 1713.13 1511.81 1714.45 1507.01 1714.45 1502.93 1714.45 1499.68 1713.1 1497.24 1710.4 1494.81 1707.71 1493.6 1704.12 1493.6 1699.65 1493.6 1696.03 1494.35 1692.19 1495.86 1688.11L1494.58 1687.72C1488.27 1696.92 1482.29 1703.66 1476.63 1707.94 1470.98 1712.21 1464.99 1714.35 1458.68 1714.35 1451.45 1714.35 1445.84 1711.62 1441.86 1706.16 1437.88 1700.7 1435.9 1693.04 1435.9 1683.18 1435.9 1671.87 1438.11 1661 1442.55 1650.58 1446.99 1640.16 1453.09 1631.94 1460.85 1625.92 1468.61 1619.91 1477.26 1616.9 1486.79 1616.9 1490.8 1616.9 1494.5 1617.31 1497.89 1618.13 1501.27 1618.95 1504.74 1620.38 1508.29 1622.42L1513.42 1599.64C1513.95 1597.47 1514.41 1595.07 1514.8 1592.44 1515.2 1589.81 1515.39 1587.51 1515.39 1585.53 1515.39 1583.56 1515.03 1582.06 1514.31 1581.04 1513.58 1580.03 1512.55 1579.29 1511.2 1578.83 1509.85 1578.36 1507.44 1578.04 1503.95 1577.84L1505.14 1572.71Z" fill-rule="evenodd"/><text fill="#000000" fill-opacity="0" font-family="Arial,Arial_MSFontService,sans-serif" font-size="142.623" x="1435.9" y="1696.62">𝑑𝑥</text><path d="M1425.74 1513.95 1655.74 1513.95 1655.74 1526.95 1425.74 1526.95Z" fill-rule="evenodd"/><path d="M1768.92 1456.84 1782.93 1456.84 1782.93 1513.65 1836.68 1513.65 1836.68 1526.77 1782.93 1526.77 1782.93 1583.58 1768.92 1583.58 1768.92 1526.77 1715.17 1526.77 1715.17 1513.65 1768.92 1513.65Z" fill-rule="evenodd"/><text fill="#000000" fill-opacity="0" font-family="Arial,Arial_MSFontService,sans-serif" font-size="126.743" x="1715.17" y="1567.74">+</text><path d="M1959 1338.83C1952.88 1338.83 1947.21 1341.25 1941.98 1346.08 1936.76 1350.91 1932.5 1358.16 1929.21 1367.83 1925.92 1377.49 1924.28 1387.06 1924.28 1396.53 1924.28 1402.45 1924.92 1407.07 1926.2 1410.39 1927.49 1413.71 1929.18 1415.99 1931.28 1417.24 1933.39 1418.49 1936.02 1419.12 1939.17 1419.12 1946.27 1419.12 1952.34 1416.27 1957.37 1410.59 1962.4 1404.9 1966.69 1396.35 1970.24 1384.94 1973.79 1373.53 1975.57 1364.54 1975.57 1357.97 1975.57 1351.26 1974.2 1346.39 1971.48 1343.37 1968.75 1340.34 1964.59 1338.83 1959 1338.83ZM1964.13 1283.6C1975.11 1283.6 1983.33 1287.33 1988.79 1294.79 1994.24 1302.25 1996.97 1313.55 1996.97 1328.67 1996.97 1334.66 1996.45 1341.77 1995.39 1350.03 1994.34 1358.28 1992.57 1366.88 1990.07 1375.82 1987.57 1384.76 1984.68 1392.36 1981.39 1398.6 1978.1 1404.85 1974.45 1410.01 1970.44 1414.09 1966.43 1418.16 1961.81 1421.32 1956.58 1423.56 1951.35 1425.79 1945.45 1426.91 1938.88 1426.91 1929.01 1426.91 1921.21 1423.95 1915.45 1418.03 1909.7 1412.12 1906.82 1403.44 1906.82 1391.99 1906.82 1381.67 1908.99 1371.74 1913.33 1362.21 1917.67 1352.67 1923.62 1345.09 1931.18 1339.47 1938.75 1333.85 1947.03 1331.04 1956.04 1331.04 1960.77 1331.04 1964.92 1331.58 1968.47 1332.67 1972.02 1333.75 1975.96 1335.87 1980.3 1339.03L1980.5 1336.56C1980.7 1333.41 1980.8 1330.68 1980.8 1328.38 1980.8 1315.95 1979.15 1306.92 1975.86 1301.3 1972.58 1295.68 1967.45 1292.87 1960.48 1292.87 1955.68 1292.87 1951.22 1294 1947.11 1296.27 1943 1298.54 1938.98 1302.04 1935.03 1306.78L1927.93 1306.78 1927.93 1298.59C1934.18 1294.18 1939.03 1291.04 1942.48 1289.17 1945.93 1287.3 1949.38 1285.9 1952.83 1284.98 1956.29 1284.06 1960.05 1283.6 1964.13 1283.6Z" fill-rule="evenodd"/><text fill="#000000" fill-opacity="0" font-family="Arial,Arial_MSFontService,sans-serif" font-size="143.313" x="1906.82" y="1409">𝜕</text><path d="M2040.81 1329.46C2043.51 1329.46 2045.81 1329.82 2047.72 1330.55 2049.03 1331.07 2050.35 1331.94 2051.66 1333.16 2052.98 1334.38 2054.14 1336.07 2055.16 1338.24 2056.18 1340.41 2057.07 1342.84 2057.83 1345.54 2058.58 1348.23 2059.42 1352.11 2060.34 1357.18 2061.92 1365.66 2063.45 1374.59 2064.93 1383.96 2066.41 1393.33 2067.67 1402.02 2068.73 1410.04 2075.1 1400.84 2080.51 1391.83 2084.95 1383.02 2089.39 1374.21 2092.58 1366.55 2094.52 1360.04 2096.46 1353.53 2097.43 1348.23 2097.43 1344.16 2097.43 1341.07 2096.77 1338.96 2095.45 1337.84 2094.14 1336.73 2091.9 1336.07 2088.75 1335.87L2089.73 1331.04 2115.67 1331.04 2118.34 1335.97C2113.34 1349.65 2106.57 1364.28 2098.02 1379.86 2089.6 1395.12 2079.97 1410.31 2069.12 1425.43 2058.73 1439.83 2050.08 1450.25 2043.18 1456.7 2038.38 1461.1 2033.74 1464.26 2029.27 1466.17 2025.72 1467.61 2021.94 1468.34 2017.93 1468.34 2016.55 1468.34 2014.95 1468.22 2013.15 1467.99 2011.34 1467.76 2009.94 1467.45 2008.95 1467.05L2013.2 1447.92 2020.99 1447.92C2020.99 1452.13 2022.43 1454.23 2025.33 1454.23 2029.14 1454.23 2033.58 1451.85 2038.64 1447.08 2043.71 1442.31 2049.66 1435.13 2056.5 1425.53 2054.59 1414.02 2051.99 1400.15 2048.7 1383.91 2045.22 1366.55 2042.92 1355.8 2041.8 1351.65 2040.42 1346.66 2038.97 1343.47 2037.46 1342.09 2036.54 1341.23 2035.39 1340.8 2034.01 1340.8 2031.9 1340.8 2029.93 1341.66 2028.09 1343.37 2026.25 1345.08 2023.98 1348.04 2021.28 1352.24L2014.87 1348C2019.41 1341.23 2023.65 1336.45 2027.6 1333.65 2031.54 1330.86 2035.95 1329.46 2040.81 1329.46Z" fill-rule="evenodd"/><text fill="#000000" fill-opacity="0" font-family="Arial,Arial_MSFontService,sans-serif" font-size="138.875" x="2008.95" y="1450.98">𝑦</text><path d="M1972.56 1624.69C1965.86 1624.69 1959.84 1627.4 1954.52 1632.83 1949.19 1638.25 1945 1645.57 1941.94 1654.77 1938.88 1663.98 1937.35 1673.15 1937.35 1682.29 1937.35 1689.13 1938.29 1694.24 1940.16 1697.63 1942.04 1701.01 1945.18 1702.71 1949.58 1702.71 1951.62 1702.71 1953.69 1702.26 1955.8 1701.38 1957.9 1700.49 1960.09 1699.06 1962.36 1697.09 1964.62 1695.11 1966.86 1692.71 1969.06 1689.89 1971.27 1687.06 1973.29 1684.21 1975.13 1681.35 1976.97 1678.49 1978.68 1675.11 1980.26 1671.19 1981.84 1667.28 1983.18 1662.56 1984.3 1657.04L1985.19 1652.8C1986.18 1648.07 1986.67 1643.59 1986.67 1639.39 1986.67 1634.26 1985.58 1630.53 1983.41 1628.19 1981.24 1625.86 1977.63 1624.69 1972.56 1624.69ZM2065.1 1594.21 2078.72 1594.21 2073.29 1618.57 2103.27 1618.57 2101.1 1628.54 2071.12 1628.54 2062.34 1666.81C2060.63 1674.24 2059.55 1679.58 2059.09 1682.83 2058.63 1686.09 2058.4 1688.7 2058.4 1690.67 2058.4 1698.83 2061.78 1702.91 2068.56 1702.91 2071.45 1702.91 2074.52 1701.8 2077.78 1699.6 2081.03 1697.4 2084.9 1693.63 2089.37 1688.31L2095.09 1694.23C2089.37 1701.13 2083.86 1706.23 2078.57 1709.51 2073.27 1712.8 2067.73 1714.45 2061.95 1714.45 2048.2 1714.45 2041.33 1707.51 2041.33 1693.63 2041.33 1689.23 2041.89 1684.59 2043.01 1679.73L2054.65 1628.54 2038.08 1628.54 2039.56 1621.73C2043.44 1621.66 2046.38 1621.37 2048.39 1620.84 2050.39 1620.32 2052.07 1619.59 2053.42 1618.67 2054.76 1617.75 2056 1616.44 2057.11 1614.73 2058.23 1613.02 2059.32 1610.83 2060.37 1608.17 2061.42 1605.51 2063 1600.85 2065.1 1594.21ZM2013.89 1571.82 2019.71 1571.82 1995.15 1681.01C1993.71 1687.45 1992.98 1692.32 1992.98 1695.61 1992.98 1698.24 1993.41 1700.14 1994.26 1701.33 1995.12 1702.51 1996.47 1703.1 1998.31 1703.1 2000.28 1703.1 2002.38 1702.3 2004.62 1700.69 2006.86 1699.08 2010.01 1696 2014.09 1691.46L2019.71 1696.99C2013.66 1703.37 2008.57 1707.87 2004.42 1710.5 2000.28 1713.13 1995.81 1714.45 1991.01 1714.45 1986.93 1714.45 1983.68 1713.1 1981.24 1710.4 1978.81 1707.71 1977.6 1704.12 1977.6 1699.65 1977.6 1696.03 1978.35 1692.19 1979.86 1688.11L1978.58 1687.72C1972.27 1696.92 1966.29 1703.66 1960.63 1707.94 1954.98 1712.21 1948.99 1714.35 1942.68 1714.35 1935.45 1714.35 1929.84 1711.62 1925.86 1706.16 1921.88 1700.7 1919.9 1693.04 1919.9 1683.18 1919.9 1671.87 1922.11 1661 1926.55 1650.58 1930.99 1640.16 1937.09 1631.94 1944.85 1625.92 1952.61 1619.91 1961.26 1616.9 1970.79 1616.9 1974.8 1616.9 1978.5 1617.31 1981.89 1618.13 1985.27 1618.95 1988.74 1620.38 1992.29 1622.42L1997.42 1599.64C1997.95 1597.47 1998.41 1595.07 1998.8 1592.44 1999.2 1589.81 1999.39 1587.51 1999.39 1585.53 1999.39 1583.56 1999.03 1582.06 1998.31 1581.04 1997.58 1580.03 1996.55 1579.29 1995.2 1578.83 1993.85 1578.36 1991.44 1578.04 1987.95 1577.84L1989.14 1572.71Z" fill-rule="evenodd"/><text fill="#000000" fill-opacity="0" font-family="Arial,Arial_MSFontService,sans-serif" font-size="142.623" x="1919.9" y="1696.62">𝑑𝑡</text><path d="M1895.74 1513.95 2124.74 1513.95 2124.74 1526.95 1895.74 1526.95Z" fill-rule="evenodd"/><path d="M2195.27 1534.16 2316.79 1534.16 2316.79 1547.28 2195.27 1547.28ZM2195.27 1493.23 2316.79 1493.23 2316.79 1506.35 2195.27 1506.35Z" fill-rule="evenodd"/><text fill="#000000" fill-opacity="0" font-family="Arial,Arial_MSFontService,sans-serif" font-size="54.0508" x="2195.27" y="1540.53">=</text><path d="M2443.18 1450.13C2438.65 1450.13 2434.85 1451.48 2431.79 1454.17 2428.73 1456.87 2426.27 1460.75 2424.39 1465.81 2422.52 1470.87 2421.19 1477.04 2420.4 1484.31 2419.61 1491.57 2419.22 1499.77 2419.22 1508.91 2419.22 1530.35 2421.21 1546.08 2425.18 1556.11 2429.16 1566.14 2435.33 1571.15 2443.68 1571.15 2451.63 1571.15 2457.54 1566.43 2461.38 1557 2465.23 1547.56 2467.15 1532.95 2467.15 1513.16 2467.15 1498.03 2466.17 1485.78 2464.19 1476.41 2462.22 1467.04 2459.47 1460.32 2455.96 1456.24 2452.44 1452.17 2448.18 1450.13 2443.18 1450.13ZM2443.68 1441.74C2458.08 1441.74 2468.8 1447.3 2475.83 1458.41 2482.87 1469.53 2486.39 1486.33 2486.39 1508.82 2486.39 1532.09 2482.62 1549.7 2475.09 1561.63 2467.56 1573.57 2456.57 1579.54 2442.1 1579.54 2427.9 1579.54 2417.33 1573.95 2410.39 1562.77 2403.45 1551.59 2399.98 1534.62 2399.98 1511.87 2399.98 1499.77 2401.05 1489.32 2403.19 1480.51 2405.33 1471.7 2408.32 1464.41 2412.16 1458.66 2416.01 1452.91 2420.63 1448.65 2426.02 1445.89 2431.41 1443.13 2437.3 1441.74 2443.68 1441.74Z" fill-rule="evenodd"/><text fill="#000000" fill-opacity="0" font-family="Arial,Arial_MSFontService,sans-serif" font-size="137.79" x="2399.98" y="1562.31">0</text></g></svg>