<svg width="2603" height="761" xmlns="http://www.w3.org/2000/svg" xmlns:xlink="http://www.w3.org/1999/xlink" xml:space="preserve" overflow="hidden"><defs><clipPath id="clip0"><rect x="1000" y="418" width="2603" height="761"/></clipPath></defs><g clip-path="url(#clip0)" transform="translate(-1000 -418)"><path d="M1099.26 690.71C1093.15 690.71 1087.48 693.126 1082.25 697.959 1077.02 702.792 1072.77 710.042 1069.48 719.708 1066.19 729.374 1064.55 738.941 1064.55 748.41 1064.55 754.328 1065.19 758.947 1066.47 762.268 1067.75 765.588 1069.44 767.873 1071.55 769.123 1073.65 770.372 1076.28 770.997 1079.44 770.997 1086.54 770.997 1092.61 768.153 1097.64 762.465 1102.67 756.777 1106.96 748.229 1110.51 736.82 1114.06 725.412 1115.83 716.42 1115.83 709.844 1115.83 703.137 1114.47 698.271 1111.74 695.247 1109.01 692.222 1104.85 690.71 1099.26 690.71ZM1180.79 681.339C1183.48 681.339 1185.78 681.701 1187.69 682.424 1189.01 682.951 1190.32 683.822 1191.64 685.038 1192.95 686.255 1194.12 687.948 1195.14 690.118 1196.16 692.288 1197.04 694.721 1197.8 697.417 1198.56 700.113 1199.4 703.992 1200.32 709.055 1201.89 717.538 1203.42 726.464 1204.9 735.834 1206.38 745.204 1207.65 753.9 1208.7 761.922 1215.08 752.717 1220.49 743.708 1224.93 734.897 1229.36 726.086 1232.55 718.425 1234.49 711.916 1236.43 705.406 1237.4 700.113 1237.4 696.036 1237.4 692.945 1236.74 690.841 1235.43 689.723 1234.11 688.605 1231.88 687.948 1228.72 687.751L1229.71 682.918 1255.65 682.918 1258.31 687.849C1253.31 701.526 1246.54 716.157 1237.99 731.741 1229.58 746.996 1219.94 762.185 1209.09 777.309 1198.71 791.71 1190.06 802.132 1183.15 808.576 1178.35 812.981 1173.72 816.138 1169.25 818.045 1165.7 819.491 1161.92 820.214 1157.9 820.214 1156.52 820.214 1154.93 820.099 1153.12 819.869 1151.31 819.639 1149.91 819.327 1148.93 818.932L1153.17 799.797 1160.96 799.797C1160.96 804.006 1162.41 806.11 1165.3 806.11 1169.12 806.11 1173.55 803.726 1178.62 798.959 1183.68 794.192 1189.63 787.008 1196.47 777.408 1194.56 765.901 1191.97 752.026 1188.68 735.785 1185.19 718.425 1182.89 707.674 1181.77 703.532 1180.39 698.534 1178.95 695.345 1177.43 693.964 1176.51 693.11 1175.36 692.682 1173.98 692.682 1171.88 692.682 1169.9 693.537 1168.06 695.247 1166.22 696.956 1163.95 699.915 1161.26 704.124L1154.85 699.882C1159.38 693.11 1163.62 688.326 1167.57 685.531 1171.52 682.737 1175.92 681.339 1180.79 681.339ZM1104.39 635.475C1115.37 635.475 1123.59 639.207 1129.05 646.67 1134.51 654.133 1137.24 665.427 1137.24 680.55 1137.24 686.534 1136.71 693.652 1135.66 701.904 1134.61 710.157 1132.83 718.754 1130.33 727.697 1127.84 736.64 1124.94 744.234 1121.65 750.481 1118.37 756.728 1114.72 761.89 1110.71 765.966 1106.69 770.043 1102.08 773.2 1096.85 775.435 1091.62 777.671 1085.72 778.789 1079.14 778.789 1069.28 778.789 1061.47 775.83 1055.72 769.912 1049.96 763.994 1047.09 755.314 1047.09 743.873 1047.09 733.549 1049.26 723.62 1053.6 714.086 1057.94 704.551 1063.89 696.973 1071.45 691.351 1079.01 685.729 1087.3 682.918 1096.31 682.918 1101.04 682.918 1105.18 683.46 1108.73 684.545 1112.28 685.63 1116.23 687.751 1120.57 690.907L1120.77 688.441C1120.96 685.285 1121.06 682.556 1121.06 680.255 1121.06 667.827 1119.42 658.802 1116.13 653.18 1112.84 647.558 1107.71 644.747 1100.74 644.747 1095.94 644.747 1091.49 645.881 1087.38 648.15 1083.27 650.418 1079.24 653.92 1075.3 658.654L1068.2 658.654 1068.2 650.467C1074.44 646.062 1079.29 642.922 1082.74 641.048 1086.2 639.174 1089.65 637.777 1093.1 636.856 1096.55 635.936 1100.32 635.475 1104.39 635.475Z" fill-rule="evenodd"/><text fill="#000000" fill-opacity="0" font-family="Arial,Arial_MSFontService,sans-serif" font-size="184.739" x="1047.09" y="797.122">π•π‘¦</text><path d="M1098.51 976.568C1091.8 976.568 1085.78 979.281 1080.46 984.705 1075.13 990.13 1070.94 997.446 1067.88 1006.65 1064.83 1015.86 1063.3 1025.03 1063.3 1034.17 1063.3 1041.01 1064.23 1046.12 1066.11 1049.51 1067.98 1052.89 1071.12 1054.59 1075.53 1054.59 1077.57 1054.59 1079.64 1054.14 1081.74 1053.26 1083.84 1052.37 1086.03 1050.94 1088.3 1048.96 1090.57 1046.99 1092.8 1044.59 1095.01 1041.76 1097.21 1038.94 1099.23 1036.09 1101.07 1033.23 1102.91 1030.37 1104.62 1026.99 1106.2 1023.07 1107.78 1019.16 1109.13 1014.44 1110.25 1008.92L1111.13 1004.68C1112.12 999.944 1112.61 995.473 1112.61 991.265 1112.61 986.136 1111.53 982.404 1109.36 980.07 1107.19 977.735 1103.57 976.568 1098.51 976.568ZM1191.44 968.776C1193.48 968.776 1195.27 969.006 1196.82 969.467 1198.36 969.927 1199.73 970.634 1200.91 971.587 1202.09 972.541 1203.15 973.774 1204.07 975.286 1204.99 976.798 1205.88 978.853 1206.73 981.451 1207.58 984.048 1208.39 987.27 1209.15 991.117 1209.9 994.963 1210.58 998.958 1211.17 1003.1L1212.15 1003.1C1218.47 994.224 1223.25 987.73 1226.51 983.62 1229.76 979.511 1232.51 976.453 1234.74 974.448 1236.98 972.442 1239.13 971.028 1241.2 970.206 1243.27 969.385 1246.02 968.974 1249.44 968.974 1252.53 968.974 1255.06 969.368 1257.03 970.157L1253.09 988.01 1246.18 988.01C1245.79 985.248 1244.64 983.867 1242.73 983.867 1242.14 983.867 1241.51 983.966 1240.86 984.163 1240.2 984.36 1239.39 984.788 1238.44 985.445 1237.49 986.103 1236.09 987.385 1234.25 989.292 1232.41 991.199 1230.34 993.533 1228.03 996.295 1225.73 999.057 1223.37 1001.95 1220.93 1004.97L1214.23 1013.36C1215.41 1019.67 1216.53 1025.13 1217.58 1029.73 1218.63 1034.33 1219.57 1038.16 1220.39 1041.22 1221.21 1044.28 1221.94 1046.7 1222.56 1048.47 1223.19 1050.25 1223.86 1051.58 1224.58 1052.47 1225.31 1053.35 1226.05 1053.98 1226.8 1054.34 1227.56 1054.7 1228.43 1054.88 1229.42 1054.88 1231.19 1054.88 1232.92 1054.19 1234.59 1052.81 1236.27 1051.43 1238.69 1048.31 1241.84 1043.44L1248.25 1047.68C1243.65 1054.52 1239.49 1059.34 1235.78 1062.13 1232.06 1064.93 1227.64 1066.32 1222.51 1066.32 1219.68 1066.32 1217.28 1065.81 1215.31 1064.8 1213.34 1063.78 1211.63 1062.15 1210.18 1059.91 1208.74 1057.68 1207.45 1054.19 1206.34 1049.46 1204.3 1041.04 1203.05 1034.6 1202.59 1030.13L1201.6 1030.13C1194.63 1039.92 1189.45 1046.96 1186.07 1051.23 1182.68 1055.51 1179.89 1058.66 1177.68 1060.7 1175.48 1062.74 1173.34 1064.17 1171.27 1064.99 1169.2 1065.81 1166.45 1066.23 1163.04 1066.23 1159.95 1066.23 1157.41 1065.83 1155.44 1065.04L1159.39 1047.19 1166.29 1047.19C1166.69 1049.95 1167.84 1051.33 1169.74 1051.33 1170.66 1051.33 1171.63 1051.09 1172.65 1050.59 1173.67 1050.1 1175.13 1048.92 1177.04 1047.04 1178.95 1045.17 1181.58 1042.22 1184.93 1038.21 1188.29 1034.2 1193.15 1028.19 1199.53 1020.16 1198.54 1014.97 1197.52 1009.97 1196.47 1005.17 1195.42 1000.37 1194.34 995.9 1193.22 991.758 1192.1 987.615 1191.18 984.903 1190.46 983.62 1189.73 982.338 1188.96 981.451 1188.14 980.957 1187.32 980.464 1186.28 980.218 1185.03 980.218 1183.65 980.218 1182.4 980.53 1181.28 981.155 1180.16 981.779 1178.95 982.864 1177.63 984.41 1176.32 985.955 1174.58 988.371 1172.41 991.659L1165.99 987.418C1170.14 981.171 1174.12 976.503 1177.93 973.412 1181.74 970.322 1186.25 968.776 1191.44 968.776ZM1139.84 923.701 1145.65 923.701 1121.1 1032.89C1119.65 1039.33 1118.93 1044.2 1118.93 1047.49 1118.93 1050.12 1119.35 1052.02 1120.21 1053.21 1121.06 1054.39 1122.41 1054.98 1124.25 1054.98 1126.22 1054.98 1128.33 1054.18 1130.56 1052.56 1132.8 1050.95 1135.96 1047.88 1140.03 1043.34L1145.65 1048.87C1139.61 1055.24 1134.51 1059.75 1130.37 1062.38 1126.22 1065.01 1121.75 1066.32 1116.95 1066.32 1112.88 1066.32 1109.62 1064.98 1107.19 1062.28 1104.76 1059.58 1103.54 1056 1103.54 1051.53 1103.54 1047.91 1104.29 1044.07 1105.81 1039.99L1104.52 1039.59C1098.21 1048.8 1092.23 1055.54 1086.57 1059.81 1080.92 1064.09 1074.94 1066.23 1068.62 1066.23 1061.39 1066.23 1055.78 1063.5 1051.81 1058.04 1047.83 1052.58 1045.84 1044.92 1045.84 1035.06 1045.84 1023.75 1048.06 1012.88 1052.5 1002.46 1056.93 992.037 1063.03 983.818 1070.79 977.801 1078.55 971.785 1087.2 968.776 1096.73 968.776 1100.74 968.776 1104.44 969.187 1107.83 970.009 1111.22 970.831 1114.68 972.261 1118.23 974.3L1123.36 951.516C1123.89 949.346 1124.35 946.945 1124.74 944.315 1125.14 941.685 1125.34 939.384 1125.34 937.411 1125.34 935.438 1124.97 933.942 1124.25 932.923 1123.53 931.904 1122.49 931.164 1121.14 930.704 1119.8 930.244 1117.38 929.915 1113.9 929.718L1115.08 924.589Z" fill-rule="evenodd"/><text fill="#000000" fill-opacity="0" font-family="Arial,Arial_MSFontService,sans-serif" font-size="142.623" x="1045.84" y="1048.5">π‘‘π‘¥</text><path d="M1035.21 865.831 1265.21 865.831 1265.21 878.831 1035.21 878.831Z" fill-rule="evenodd"/><path d="M1378.86 808.714 1392.87 808.714 1392.87 865.527 1446.63 865.527 1446.63 878.645 1392.87 878.645 1392.87 935.458 1378.86 935.458 1378.86 878.645 1325.11 878.645 1325.11 865.527 1378.86 865.527Z" fill-rule="evenodd"/><text fill="#000000" fill-opacity="0" font-family="Arial,Arial_MSFontService,sans-serif" font-size="126.743" x="1325.11" y="919.615">+</text><path d="M1567.76 689.131C1561.71 689.131 1556.09 691.827 1550.89 697.219 1545.7 702.611 1541.54 709.91 1538.41 719.116 1535.29 728.322 1533.73 737.757 1533.73 747.423 1533.73 754.065 1534.72 758.996 1536.69 762.218 1538.66 765.44 1541.62 767.051 1545.57 767.051 1551.22 767.051 1557.04 763.731 1563.02 757.089 1569.01 750.448 1574.56 741.21 1579.69 729.374 1580.81 722.535 1581.37 716.486 1581.37 711.225 1581.37 703.729 1580.27 698.173 1578.07 694.556 1575.86 690.94 1572.43 689.131 1567.76 689.131ZM1568.45 681.339C1575.81 681.339 1581.58 683.641 1585.76 688.244 1589.93 692.847 1592.25 699.587 1592.71 708.464L1593.6 708.365 1606.52 682.918 1623.58 682.918 1622.6 687.948C1614.44 698.995 1604.84 712.573 1593.8 728.683 1592.15 741.242 1591.33 750.119 1591.33 755.314 1591.33 759.654 1591.82 762.761 1592.81 764.635 1593.8 766.509 1595.44 767.446 1597.74 767.446 1599.58 767.446 1601.67 766.673 1604.01 765.128 1606.34 763.583 1608.86 761.199 1611.55 757.977L1617.27 763.303C1611.75 769.221 1606.95 773.282 1602.87 775.484 1598.79 777.687 1594.59 778.789 1590.25 778.789 1581.5 778.789 1577.13 772.41 1577.13 759.654 1577.13 756.826 1577.33 753.703 1577.72 750.284L1576.73 750.284C1569.96 760.41 1563.55 767.693 1557.5 772.131 1551.45 776.569 1544.97 778.789 1538.07 778.789 1533.27 778.789 1529.23 777.408 1525.94 774.646 1522.65 771.884 1520.22 768.219 1518.64 763.649 1517.06 759.079 1516.27 754.098 1516.27 748.706 1516.27 736.935 1518.51 725.774 1522.98 715.22 1527.45 704.666 1533.66 696.381 1541.62 690.364 1549.58 684.348 1558.52 681.339 1568.45 681.339ZM1637.37 642.577 1678.2 642.577 1677.12 647.41C1674.23 647.739 1671.97 648.593 1670.36 649.974 1668.75 651.355 1667.62 653.278 1666.96 655.744 1666.3 658.21 1665.97 661.514 1665.97 665.657 1665.97 666.643 1666.07 669.602 1666.27 674.534L1669.03 746.733 1669.03 754.624 1670.02 754.624 1712.73 677.591C1715.22 673.054 1717.1 669.158 1718.35 665.903 1719.6 662.649 1720.22 659.772 1720.22 657.273 1720.22 651.75 1716.93 648.462 1710.36 647.41L1711.44 642.577 1751.78 642.577 1750.7 647.41C1748.92 647.673 1747.23 648.347 1745.62 649.432 1744.01 650.517 1742.2 652.325 1740.2 654.857 1738.19 657.388 1735.08 662.27 1730.87 669.504L1667.75 778.789 1654.63 778.789 1648.02 668.813C1647.76 664.539 1647.28 660.873 1646.59 657.816 1645.9 654.758 1644.82 652.374 1643.34 650.665 1641.86 648.955 1639.51 647.87 1636.29 647.41Z" fill-rule="evenodd"/><text fill="#000000" fill-opacity="0" font-family="Arial,Arial_MSFontService,sans-serif" font-size="136.212" x="1516.27" y="761.762">π›Όπ‘‰</text><path d="M1644.71 976.568C1638 976.568 1631.99 979.281 1626.66 984.705 1621.34 990.13 1617.14 997.446 1614.09 1006.65 1611.03 1015.86 1609.5 1025.03 1609.5 1034.17 1609.5 1041.01 1610.49 1046.12 1612.46 1049.51 1614.43 1052.89 1617.52 1054.59 1621.73 1054.59 1625.08 1054.59 1628.42 1053.44 1631.74 1051.13 1635.06 1048.83 1638.61 1045.18 1642.39 1040.19 1646.17 1035.19 1649.12 1030.42 1651.22 1025.88 1653.32 1021.35 1655.12 1015.69 1656.6 1008.92 1658.08 1002.15 1658.82 996.262 1658.82 991.265 1658.82 986.136 1657.73 982.404 1655.56 980.07 1653.39 977.735 1649.77 976.568 1644.71 976.568ZM1643.13 968.776C1647.28 968.776 1651.19 969.269 1654.87 970.256 1658.55 971.242 1662.27 972.919 1666.02 975.286L1675.09 968.776 1681.4 970.354 1671.24 1016.32C1670.52 1019.54 1668.88 1027.66 1666.31 1040.68 1663.62 1054.49 1661.43 1064.25 1659.75 1069.97 1658.08 1075.69 1655.99 1080.91 1653.49 1085.61 1650.99 1090.31 1647.77 1094.4 1643.82 1097.89 1639.88 1101.37 1635.09 1104.07 1629.47 1105.97 1623.85 1107.88 1617.19 1108.83 1609.5 1108.83 1584.64 1108.83 1572.22 1101.6 1572.22 1087.14 1572.22 1083.45 1573.33 1080.1 1575.57 1077.08 1577.81 1074.05 1581.39 1070.86 1586.32 1067.51L1593.42 1073.23C1592.17 1074.74 1591.12 1076.24 1590.27 1077.72 1589.41 1079.2 1588.8 1080.63 1588.44 1082.01 1588.08 1083.39 1587.9 1085.03 1587.9 1086.94 1587.9 1091.87 1589.67 1095.47 1593.22 1097.74 1596.78 1100.01 1602.13 1101.14 1609.3 1101.14 1617.39 1101.14 1623.88 1099.32 1628.78 1095.67 1633.68 1092.02 1637.87 1086.15 1641.36 1078.06 1644.84 1069.97 1648.23 1057.74 1651.52 1041.37L1650.14 1041.07C1643.76 1049.82 1637.84 1056.2 1632.38 1060.21 1626.92 1064.22 1621.04 1066.23 1614.73 1066.23 1607.56 1066.23 1601.99 1063.53 1598.01 1058.14 1594.03 1052.75 1592.04 1045.05 1592.04 1035.06 1592.04 1023.81 1594.24 1013.01 1598.65 1002.66 1603.06 992.3 1609.17 984.064 1617 977.949 1624.82 971.834 1633.53 968.776 1643.13 968.776Z" fill-rule="evenodd"/><text fill="#000000" fill-opacity="0" font-family="Arial,Arial_MSFontService,sans-serif" font-size="140.059" x="1572.22" y="1091.33">π‘”</text><path d="M1506.21 865.831 1759.21 865.831 1759.21 878.831 1506.21 878.831Z" fill-rule="evenodd"/><path d="M1855.88 690.71C1849.77 690.71 1844.09 693.126 1838.87 697.959 1833.64 702.792 1829.38 710.042 1826.09 719.708 1822.81 729.374 1821.16 738.941 1821.16 748.41 1821.16 754.328 1821.8 758.947 1823.09 762.268 1824.37 765.588 1826.06 767.873 1828.17 769.123 1830.27 770.372 1832.9 770.997 1836.06 770.997 1843.16 770.997 1849.22 768.153 1854.25 762.465 1859.28 756.777 1863.57 748.229 1867.13 736.82 1870.68 725.412 1872.45 716.42 1872.45 709.844 1872.45 703.137 1871.09 698.271 1868.36 695.247 1865.63 692.222 1861.47 690.71 1855.88 690.71ZM1861.01 635.475C1871.99 635.475 1880.21 639.207 1885.67 646.67 1891.13 654.133 1893.85 665.427 1893.85 680.55 1893.85 686.534 1893.33 693.652 1892.28 701.904 1891.22 710.157 1889.45 718.754 1886.95 727.697 1884.45 736.64 1881.56 744.234 1878.27 750.481 1874.98 756.728 1871.33 761.89 1867.32 765.966 1863.31 770.043 1858.69 773.2 1853.46 775.435 1848.24 777.671 1842.34 778.789 1835.76 778.789 1825.9 778.789 1818.09 775.83 1812.33 769.912 1806.58 763.994 1803.7 755.314 1803.7 743.873 1803.7 733.549 1805.87 723.62 1810.21 714.086 1814.55 704.551 1820.5 696.973 1828.07 691.351 1835.63 685.729 1843.91 682.918 1852.92 682.918 1857.66 682.918 1861.8 683.46 1865.35 684.545 1868.9 685.63 1872.85 687.751 1877.19 690.907L1877.38 688.441C1877.58 685.285 1877.68 682.556 1877.68 680.255 1877.68 667.827 1876.04 658.802 1872.75 653.18 1869.46 647.558 1864.33 644.747 1857.36 644.747 1852.56 644.747 1848.11 645.881 1844 648.15 1839.89 650.418 1835.86 653.92 1831.91 658.654L1824.81 658.654 1824.81 650.467C1831.06 646.062 1835.91 642.922 1839.36 641.048 1842.81 639.174 1846.26 637.777 1849.72 636.856 1853.17 635.936 1856.93 635.475 1861.01 635.475Z" fill-rule="evenodd"/><text fill="#000000" fill-opacity="0" font-family="Arial,Arial_MSFontService,sans-serif" font-size="143.313" x="1803.7" y="760.875">π•</text><path d="M1915.6 642.577 1956.44 642.577 1955.35 647.41C1952.46 647.739 1950.21 648.593 1948.59 649.974 1946.98 651.355 1945.85 653.278 1945.19 655.744 1944.53 658.21 1944.21 661.514 1944.21 665.657 1944.21 666.643 1944.3 669.602 1944.5 674.534L1947.26 746.733 1947.26 754.624 1948.25 754.624 1990.96 677.591C1993.46 673.054 1995.33 669.158 1996.58 665.903 1997.83 662.649 1998.45 659.772 1998.45 657.273 1998.45 651.75 1995.17 648.462 1988.59 647.41L1989.67 642.577 2030.02 642.577 2028.93 647.41C2027.16 647.673 2025.46 648.347 2023.85 649.432 2022.24 650.517 2020.43 652.325 2018.43 654.857 2016.42 657.388 2013.31 662.27 2009.11 669.504L1945.98 778.789 1932.86 778.789 1926.25 668.813C1925.99 664.539 1925.51 660.873 1924.82 657.816 1924.13 654.758 1923.05 652.374 1921.57 650.665 1920.09 648.955 1917.74 647.87 1914.52 647.41Z" fill-rule="evenodd"/><text fill="#000000" fill-opacity="0" font-family="Arial,Arial_MSFontService,sans-serif" font-size="136.212" x="1914.52" y="761.762">π‘‰</text><path d="M1863.19 976.568C1856.48 976.568 1850.47 979.281 1845.14 984.705 1839.82 990.13 1835.62 997.446 1832.57 1006.65 1829.51 1015.86 1827.98 1025.03 1827.98 1034.17 1827.98 1041.01 1828.92 1046.12 1830.79 1049.51 1832.66 1052.89 1835.8 1054.59 1840.21 1054.59 1842.25 1054.59 1844.32 1054.14 1846.42 1053.26 1848.53 1052.37 1850.71 1050.94 1852.98 1048.96 1855.25 1046.99 1857.49 1044.59 1859.69 1041.76 1861.89 1038.94 1863.91 1036.09 1865.76 1033.23 1867.6 1030.37 1869.31 1026.99 1870.89 1023.07 1872.46 1019.16 1873.81 1014.44 1874.93 1008.92L1875.82 1004.68C1876.8 999.944 1877.3 995.473 1877.3 991.265 1877.3 986.136 1876.21 982.404 1874.04 980.07 1871.87 977.735 1868.25 976.568 1863.19 976.568ZM1956.13 968.776C1958.16 968.776 1959.96 969.006 1961.5 969.467 1963.05 969.927 1964.41 970.634 1965.59 971.587 1966.78 972.541 1967.83 973.774 1968.75 975.286 1969.67 976.798 1970.56 978.853 1971.41 981.451 1972.27 984.048 1973.07 987.27 1973.83 991.117 1974.59 994.963 1975.26 998.958 1975.85 1003.1L1976.84 1003.1C1983.15 994.224 1987.93 987.73 1991.19 983.62 1994.44 979.511 1997.19 976.453 1999.43 974.448 2001.66 972.442 2003.81 971.028 2005.89 970.206 2007.96 969.385 2010.7 968.974 2014.12 968.974 2017.21 968.974 2019.74 969.368 2021.72 970.157L2017.77 988.01 2010.87 988.01C2010.47 985.248 2009.32 983.867 2007.41 983.867 2006.82 983.867 2006.2 983.966 2005.54 984.163 2004.88 984.36 2004.08 984.788 2003.12 985.445 2002.17 986.103 2000.77 987.385 1998.93 989.292 1997.09 991.199 1995.02 993.533 1992.72 996.295 1990.42 999.057 1988.05 1001.95 1985.62 1004.97L1978.91 1013.36C1980.09 1019.67 1981.21 1025.13 1982.26 1029.73 1983.32 1034.33 1984.25 1038.16 1985.07 1041.22 1985.9 1044.28 1986.62 1046.7 1987.24 1048.47 1987.87 1050.25 1988.54 1051.58 1989.27 1052.47 1989.99 1053.35 1990.73 1053.98 1991.49 1054.34 1992.24 1054.7 1993.11 1054.88 1994.1 1054.88 1995.87 1054.88 1997.6 1054.19 1999.28 1052.81 2000.95 1051.43 2003.37 1048.31 2006.53 1043.44L2012.94 1047.68C2008.33 1054.52 2004.18 1059.34 2000.46 1062.13 1996.75 1064.93 1992.32 1066.32 1987.19 1066.32 1984.37 1066.32 1981.97 1065.81 1979.99 1064.8 1978.02 1063.78 1976.31 1062.15 1974.87 1059.91 1973.42 1057.68 1972.14 1054.19 1971.02 1049.46 1968.98 1041.04 1967.73 1034.6 1967.27 1030.13L1966.28 1030.13C1959.31 1039.92 1954.14 1046.96 1950.75 1051.23 1947.36 1055.51 1944.57 1058.66 1942.37 1060.7 1940.16 1062.74 1938.03 1064.17 1935.95 1064.99 1933.88 1065.81 1931.14 1066.23 1927.72 1066.23 1924.63 1066.23 1922.1 1065.83 1920.12 1065.04L1924.07 1047.19 1930.97 1047.19C1931.37 1049.95 1932.52 1051.33 1934.43 1051.33 1935.35 1051.33 1936.32 1051.09 1937.34 1050.59 1938.35 1050.1 1939.82 1048.92 1941.72 1047.04 1943.63 1045.17 1946.26 1042.22 1949.62 1038.21 1952.97 1034.2 1957.83 1028.19 1964.21 1020.16 1963.23 1014.97 1962.21 1009.97 1961.16 1005.17 1960.1 1000.37 1959.02 995.9 1957.9 991.758 1956.78 987.615 1955.86 984.903 1955.14 983.62 1954.42 982.338 1953.64 981.451 1952.82 980.957 1952 980.464 1950.96 980.218 1949.71 980.218 1948.33 980.218 1947.08 980.53 1945.97 981.155 1944.85 981.779 1943.63 982.864 1942.32 984.41 1941 985.955 1939.26 988.371 1937.09 991.659L1930.68 987.418C1934.82 981.171 1938.8 976.503 1942.61 973.412 1946.43 970.322 1950.93 968.776 1956.13 968.776ZM1904.52 923.701 1910.34 923.701 1885.78 1032.89C1884.33 1039.33 1883.61 1044.2 1883.61 1047.49 1883.61 1050.12 1884.04 1052.02 1884.89 1053.21 1885.75 1054.39 1887.09 1054.98 1888.93 1054.98 1890.91 1054.98 1893.01 1054.18 1895.25 1052.56 1897.48 1050.95 1900.64 1047.88 1904.72 1043.34L1910.34 1048.87C1904.29 1055.24 1899.19 1059.75 1895.05 1062.38 1890.91 1065.01 1886.44 1066.32 1881.64 1066.32 1877.56 1066.32 1874.3 1064.98 1871.87 1062.28 1869.44 1059.58 1868.22 1056 1868.22 1051.53 1868.22 1047.91 1868.98 1044.07 1870.49 1039.99L1869.21 1039.59C1862.9 1048.8 1856.91 1055.54 1851.26 1059.81 1845.6 1064.09 1839.62 1066.23 1833.31 1066.23 1826.07 1066.23 1820.47 1063.5 1816.49 1058.04 1812.51 1052.58 1810.52 1044.92 1810.52 1035.06 1810.52 1023.75 1812.74 1012.88 1817.18 1002.46 1821.62 992.037 1827.72 983.818 1835.48 977.801 1843.23 971.785 1851.88 968.776 1861.42 968.776 1865.43 968.776 1869.13 969.187 1872.51 970.009 1875.9 970.831 1879.37 972.261 1882.92 974.3L1888.05 951.516C1888.57 949.346 1889.03 946.945 1889.43 944.315 1889.82 941.685 1890.02 939.384 1890.02 937.411 1890.02 935.438 1889.66 933.942 1888.93 932.923 1888.21 931.904 1887.18 931.164 1885.83 930.704 1884.48 930.244 1882.06 929.915 1878.58 929.718L1879.76 924.589Z" fill-rule="evenodd"/><text fill="#000000" fill-opacity="0" font-family="Arial,Arial_MSFontService,sans-serif" font-size="142.623" x="1810.52" y="1048.5">π‘‘π‘¥</text><path d="M1793.21 865.831 2038.21 865.831 2038.21 878.831 1793.21 878.831Z" fill-rule="evenodd"/><path d="M2150.86 808.714 2164.86 808.714 2164.86 865.527 2218.62 865.527 2218.62 878.645 2164.86 878.645 2164.86 935.458 2150.86 935.458 2150.86 878.645 2097.1 878.645 2097.1 865.527 2150.86 865.527Z" fill-rule="evenodd"/><text fill="#000000" fill-opacity="0" font-family="Arial,Arial_MSFontService,sans-serif" font-size="126.743" x="2097.1" y="919.615">+</text><path d="M2349.07 640.999 2354.5 640.999C2354.1 647.311 2353.91 656.057 2353.91 667.235L2353.91 751.467C2353.91 755.281 2354.12 758.158 2354.55 760.098 2354.98 762.038 2355.73 763.616 2356.82 764.832 2357.9 766.049 2359.46 767.002 2361.5 767.693 2363.54 768.383 2366.1 768.909 2369.19 769.271 2372.29 769.632 2376.36 769.879 2381.43 770.01L2381.43 777.211 2308.54 777.211 2308.54 770.01C2315.83 769.682 2321.05 769.238 2324.17 768.679 2327.29 768.12 2329.68 767.282 2331.32 766.164 2332.96 765.046 2334.16 763.468 2334.92 761.429 2335.68 759.391 2336.05 756.07 2336.05 751.467L2336.05 671.476C2336.05 668.846 2335.59 666.923 2334.67 665.706 2333.75 664.49 2332.4 663.881 2330.63 663.881 2328.53 663.881 2325.53 664.966 2321.65 667.136 2317.77 669.306 2312.97 672.298 2307.25 676.112L2302.91 668.517Z" fill-rule="evenodd"/><text fill="#000000" fill-opacity="0" font-family="Arial,Arial_MSFontService,sans-serif" font-size="136.212" x="2302.91" y="760.184">1</text><path d="M2353.36 976.568C2346.66 976.568 2340.64 979.281 2335.31 984.705 2329.99 990.13 2325.8 997.446 2322.74 1006.65 2319.68 1015.86 2318.15 1025.03 2318.15 1034.17 2318.15 1041.01 2319.14 1046.12 2321.11 1049.51 2323.08 1052.89 2326.17 1054.59 2330.38 1054.59 2333.74 1054.59 2337.07 1053.44 2340.39 1051.13 2343.71 1048.83 2347.26 1045.18 2351.05 1040.19 2354.83 1035.19 2357.77 1030.42 2359.87 1025.88 2361.98 1021.35 2363.77 1015.69 2365.25 1008.92 2366.73 1002.15 2367.47 996.262 2367.47 991.265 2367.47 986.136 2366.38 982.404 2364.21 980.07 2362.04 977.735 2358.43 976.568 2353.36 976.568ZM2351.78 968.776C2355.93 968.776 2359.84 969.269 2363.52 970.256 2367.2 971.242 2370.92 972.919 2374.67 975.286L2383.74 968.776 2390.05 970.354 2379.9 1016.32C2379.17 1019.54 2377.53 1027.66 2374.96 1040.68 2372.27 1054.49 2370.08 1064.25 2368.4 1069.97 2366.73 1075.69 2364.64 1080.91 2362.14 1085.61 2359.64 1090.31 2356.42 1094.4 2352.48 1097.89 2348.53 1101.37 2343.75 1104.07 2338.12 1105.97 2332.5 1107.88 2325.84 1108.83 2318.15 1108.83 2293.3 1108.83 2280.87 1101.6 2280.87 1087.14 2280.87 1083.45 2281.99 1080.1 2284.22 1077.08 2286.46 1074.05 2290.04 1070.86 2294.97 1067.51L2302.07 1073.23C2300.82 1074.74 2299.77 1076.24 2298.92 1077.72 2298.06 1079.2 2297.45 1080.63 2297.09 1082.01 2296.73 1083.39 2296.55 1085.03 2296.55 1086.94 2296.55 1091.87 2298.33 1095.47 2301.88 1097.74 2305.43 1100.01 2310.79 1101.14 2317.95 1101.14 2326.04 1101.14 2332.54 1099.32 2337.43 1095.67 2342.33 1092.02 2346.52 1086.15 2350.01 1078.06 2353.49 1069.97 2356.88 1057.74 2360.17 1041.37L2358.79 1041.07C2352.41 1049.82 2346.49 1056.2 2341.03 1060.21 2335.58 1064.22 2329.69 1066.23 2323.38 1066.23 2316.21 1066.23 2310.64 1063.53 2306.66 1058.14 2302.68 1052.75 2300.69 1045.05 2300.69 1035.06 2300.69 1023.81 2302.9 1013.01 2307.3 1002.66 2311.71 992.3 2317.82 984.064 2325.65 977.949 2333.47 971.834 2342.18 968.776 2351.78 968.776Z" fill-rule="evenodd"/><text fill="#000000" fill-opacity="0" font-family="Arial,Arial_MSFontService,sans-serif" font-size="140.059" x="2280.87" y="1091.33">π‘”</text><path d="M2278.21 865.831 2405.21 865.831 2405.21 878.831 2278.21 878.831Z" fill-rule="evenodd"/><path d="M2501.17 690.71C2495.05 690.71 2489.38 693.126 2484.15 697.959 2478.93 702.792 2474.67 710.042 2471.38 719.708 2468.09 729.374 2466.45 738.941 2466.45 748.41 2466.45 754.328 2467.09 758.947 2468.37 762.268 2469.66 765.588 2471.35 767.873 2473.45 769.123 2475.56 770.372 2478.19 770.997 2481.34 770.997 2488.45 770.997 2494.51 768.153 2499.54 762.465 2504.57 756.777 2508.86 748.229 2512.41 736.82 2515.96 725.412 2517.74 716.42 2517.74 709.844 2517.74 703.137 2516.37 698.271 2513.65 695.247 2510.92 692.222 2506.76 690.71 2501.17 690.71ZM2506.3 635.475C2517.28 635.475 2525.5 639.207 2530.96 646.67 2536.41 654.133 2539.14 665.427 2539.14 680.55 2539.14 686.534 2538.62 693.652 2537.56 701.904 2536.51 710.157 2534.74 718.754 2532.24 727.697 2529.74 736.64 2526.85 744.234 2523.56 750.481 2520.27 756.728 2516.62 761.89 2512.61 765.966 2508.6 770.043 2503.98 773.2 2498.75 775.435 2493.52 777.671 2487.62 778.789 2481.05 778.789 2471.18 778.789 2463.38 775.83 2457.62 769.912 2451.87 763.994 2448.99 755.314 2448.99 743.873 2448.99 733.549 2451.16 723.62 2455.5 714.086 2459.84 704.551 2465.79 696.973 2473.35 691.351 2480.92 685.729 2489.2 682.918 2498.21 682.918 2502.94 682.918 2507.09 683.46 2510.64 684.545 2514.19 685.63 2518.13 687.751 2522.47 690.907L2522.67 688.441C2522.87 685.285 2522.97 682.556 2522.97 680.255 2522.97 667.827 2521.32 658.802 2518.03 653.18 2514.75 647.558 2509.62 644.747 2502.65 644.747 2497.85 644.747 2493.39 645.881 2489.28 648.15 2485.17 650.418 2481.15 653.92 2477.2 658.654L2470.1 658.654 2470.1 650.467C2476.35 646.062 2481.2 642.922 2484.65 641.048 2488.1 639.174 2491.55 637.777 2495 636.856 2498.46 635.936 2502.22 635.475 2506.3 635.475Z" fill-rule="evenodd"/><text fill="#000000" fill-opacity="0" font-family="Arial,Arial_MSFontService,sans-serif" font-size="143.313" x="2448.99" y="760.875">π•</text><path d="M2560.89 642.577 2601.72 642.577 2600.64 647.41C2597.74 647.739 2595.49 648.593 2593.88 649.974 2592.27 651.355 2591.14 653.278 2590.48 655.744 2589.82 658.21 2589.49 661.514 2589.49 665.657 2589.49 666.643 2589.59 669.602 2589.79 674.534L2592.55 746.733 2592.55 754.624 2593.54 754.624 2636.24 677.591C2638.74 673.054 2640.62 669.158 2641.87 665.903 2643.12 662.649 2643.74 659.772 2643.74 657.273 2643.74 651.75 2640.45 648.462 2633.88 647.41L2634.96 642.577 2675.3 642.577 2674.22 647.41C2672.44 647.673 2670.75 648.347 2669.14 649.432 2667.53 650.517 2665.72 652.325 2663.71 654.857 2661.71 657.388 2658.6 662.27 2654.39 669.504L2591.27 778.789 2578.15 778.789 2571.54 668.813C2571.28 664.539 2570.8 660.873 2570.11 657.816 2569.42 654.758 2568.34 652.374 2566.86 650.665 2565.38 648.955 2563.03 647.87 2559.8 647.41Z" fill-rule="evenodd"/><text fill="#000000" fill-opacity="0" font-family="Arial,Arial_MSFontService,sans-serif" font-size="136.212" x="2559.8" y="761.762">π‘‰</text><path d="M2522.8 976.568C2516.09 976.568 2510.08 979.281 2504.75 984.705 2499.43 990.13 2495.23 997.446 2492.18 1006.65 2489.12 1015.86 2487.59 1025.03 2487.59 1034.17 2487.59 1041.01 2488.53 1046.12 2490.4 1049.51 2492.28 1052.89 2495.42 1054.59 2499.82 1054.59 2501.86 1054.59 2503.93 1054.14 2506.03 1053.26 2508.14 1052.37 2510.32 1050.94 2512.59 1048.96 2514.86 1046.99 2517.1 1044.59 2519.3 1041.76 2521.5 1038.94 2523.53 1036.09 2525.37 1033.23 2527.21 1030.37 2528.92 1026.99 2530.5 1023.07 2532.07 1019.16 2533.42 1014.44 2534.54 1008.92L2535.43 1004.68C2536.41 999.944 2536.91 995.473 2536.91 991.265 2536.91 986.136 2535.82 982.404 2533.65 980.07 2531.48 977.735 2527.87 976.568 2522.8 976.568ZM2564.13 923.701 2569.95 923.701 2545.39 1032.89C2543.94 1039.33 2543.22 1044.2 2543.22 1047.49 2543.22 1050.12 2543.65 1052.02 2544.5 1053.21 2545.36 1054.39 2546.7 1054.98 2548.55 1054.98 2550.52 1054.98 2552.62 1054.18 2554.86 1052.56 2557.09 1050.95 2560.25 1047.88 2564.33 1043.34L2569.95 1048.87C2563.9 1055.24 2558.8 1059.75 2554.66 1062.38 2550.52 1065.01 2546.05 1066.32 2541.25 1066.32 2537.17 1066.32 2533.91 1064.98 2531.48 1062.28 2529.05 1059.58 2527.83 1056 2527.83 1051.53 2527.83 1047.91 2528.59 1044.07 2530.1 1039.99L2528.82 1039.59C2522.51 1048.8 2516.52 1055.54 2510.87 1059.81 2505.21 1064.09 2499.23 1066.23 2492.92 1066.23 2485.68 1066.23 2480.08 1063.5 2476.1 1058.04 2472.12 1052.58 2470.13 1044.92 2470.13 1035.06 2470.13 1023.75 2472.35 1012.88 2476.79 1002.46 2481.23 992.037 2487.33 983.818 2495.09 977.801 2502.85 971.785 2511.49 968.776 2521.03 968.776 2525.04 968.776 2528.74 969.187 2532.12 970.009 2535.51 970.831 2538.98 972.261 2542.53 974.3L2547.66 951.516C2548.18 949.346 2548.64 946.945 2549.04 944.315 2549.43 941.685 2549.63 939.384 2549.63 937.411 2549.63 935.438 2549.27 933.942 2548.55 932.923 2547.82 931.904 2546.79 931.164 2545.44 930.704 2544.09 930.244 2541.67 929.915 2538.19 929.718L2539.37 924.589Z" fill-rule="evenodd"/><text fill="#000000" fill-opacity="0" font-family="Arial,Arial_MSFontService,sans-serif" font-size="142.623" x="2470.13" y="1048.5">π‘‘</text><path d="M2615.22 946.091 2628.83 946.091 2623.4 970.453 2653.39 970.453 2651.22 980.415 2621.23 980.415 2612.45 1018.68C2610.74 1026.11 2609.66 1031.46 2609.2 1034.71 2608.74 1037.97 2608.51 1040.58 2608.51 1042.55 2608.51 1050.71 2611.9 1054.78 2618.67 1054.78 2621.56 1054.78 2624.64 1053.68 2627.89 1051.48 2631.15 1049.28 2635.01 1045.51 2639.48 1040.19L2645.2 1046.1C2639.48 1053.01 2633.97 1058.1 2628.68 1061.39 2623.39 1064.68 2617.85 1066.32 2612.06 1066.32 2598.32 1066.32 2591.45 1059.39 2591.45 1045.51 2591.45 1041.11 2592 1036.47 2593.12 1031.61L2604.76 980.415 2588.19 980.415 2589.67 973.609C2593.55 973.544 2596.49 973.248 2598.5 972.722 2600.5 972.196 2602.18 971.472 2603.53 970.552 2604.88 969.631 2606.11 968.316 2607.23 966.606 2608.34 964.897 2609.43 962.71 2610.48 960.047 2611.53 957.384 2613.11 952.732 2615.22 946.091Z" fill-rule="evenodd"/><text fill="#000000" fill-opacity="0" font-family="Arial,Arial_MSFontService,sans-serif" font-size="120.233" x="2588.19" y="1051.29">π‘΅</text><path d="M2438.21 865.831 2683.21 865.831 2683.21 878.831 2438.21 878.831Z" fill-rule="evenodd"/><path d="M2753.57 886.043 2875.09 886.043 2875.09 899.161 2753.57 899.161ZM2753.57 845.11 2875.09 845.11 2875.09 858.228 2753.57 858.228Z" fill-rule="evenodd"/><text fill="#000000" fill-opacity="0" font-family="Arial,Arial_MSFontService,sans-serif" font-size="54.0508" x="2753.57" y="892.404">=</text><path d="M3015.59 793.624C3021.64 793.624 3027.25 794.035 3032.41 794.857 3037.57 795.679 3043.28 797.076 3049.52 799.048L3044 824.397 3034.53 824.397C3034.27 818.808 3033.41 814.419 3031.97 811.23 3030.52 808.04 3028.45 805.755 3025.75 804.375 3023.06 802.994 3019.47 802.303 3015 802.303 3009.54 802.303 3004.74 803.421 3000.6 805.657 2996.46 807.893 2993.3 810.934 2991.13 814.78 2988.96 818.627 2987.88 822.918 2987.88 827.652 2987.88 832.584 2989.18 836.907 2991.77 840.622 2994.37 844.337 2999.35 848.727 3006.72 853.79 3013.16 858.261 3018.07 862.256 3021.46 865.774 3024.85 869.291 3027.35 873.023 3028.96 876.968 3030.57 880.914 3031.37 885.484 3031.37 890.678 3031.37 898.701 3029.45 905.818 3025.6 912.032 3021.76 918.246 3016.33 923.046 3009.33 926.433 3002.33 929.819 2994.35 931.512 2985.41 931.512 2979.36 931.512 2972.84 931.019 2965.83 930.033 2958.83 929.047 2952.57 927.797 2947.04 926.285L2952.96 899.161 2962.43 899.161C2962.43 907.183 2964.29 913.15 2968 917.063 2971.72 920.975 2977.45 922.931 2985.21 922.931 2994.16 922.931 3001.19 920.498 3006.32 915.632 3011.45 910.767 3014.01 903.994 3014.01 895.314 3014.01 891.303 3013.31 887.769 3011.89 884.711 3010.48 881.653 3008.34 878.727 3005.48 875.933 3002.62 873.138 2998.5 869.933 2993.1 866.316 2988.24 863.028 2984.19 859.79 2980.97 856.601 2977.75 853.412 2975.19 849.844 2973.28 845.899 2971.37 841.954 2970.42 837.548 2970.42 832.682 2970.42 824.923 2972.29 818.085 2976.04 812.167 2979.79 806.249 2985.08 801.679 2991.92 798.457 2998.76 795.235 3006.65 793.624 3015.59 793.624Z" fill-rule="evenodd"/><text fill="#000000" fill-opacity="0" font-family="Arial,Arial_MSFontService,sans-serif" font-size="137.889" x="2947.04" y="914.276">π‘†</text><path d="M3093.29 904.815C3090.61 904.815 3088.09 905.413 3085.75 906.61 3083.4 907.806 3081.25 909.457 3079.29 911.562 3077.33 913.668 3075.57 916.156 3074.01 919.027 3072.46 921.898 3071.14 924.985 3070.07 928.286 3068.99 931.588 3068.16 935.033 3067.59 938.622 3067.02 942.211 3066.73 945.8 3066.73 949.389 3066.73 954.892 3067.86 958.947 3070.14 961.555 3072.41 964.163 3075.87 965.467 3080.51 965.467 3083.09 965.467 3085.53 964.833 3087.83 963.565 3090.13 962.297 3092.23 960.586 3094.15 958.433 3096.06 956.28 3097.77 953.755 3099.28 950.86 3100.79 947.965 3102.07 944.867 3103.12 941.565 3104.17 938.263 3104.97 934.854 3105.52 931.337 3106.07 927.82 3106.35 924.386 3106.35 921.037 3106.35 915.725 3105.3 911.694 3103.19 908.942 3101.09 906.191 3097.78 904.815 3093.29 904.815ZM3094.65 897.709C3098.96 897.709 3102.72 898.403 3105.95 899.791 3109.18 901.178 3111.88 903.057 3114.03 905.425 3116.18 907.794 3117.8 910.581 3118.87 913.787 3119.95 916.993 3120.49 920.415 3120.49 924.052 3120.49 931.325 3119.41 937.917 3117.26 943.826 3115.11 949.736 3112.13 954.808 3108.32 959.043 3104.52 963.278 3100.04 966.544 3094.9 968.841 3089.76 971.137 3084.17 972.286 3078.14 972.286 3074.17 972.286 3070.6 971.688 3067.45 970.491 3064.29 969.295 3061.61 967.573 3059.41 965.323 3057.21 963.074 3055.52 960.359 3054.35 957.177 3053.17 953.995 3052.59 950.394 3052.59 946.374 3052.59 939.579 3053.65 933.227 3055.78 927.317 3057.91 921.408 3060.85 916.264 3064.61 911.885 3068.37 907.507 3072.81 904.05 3077.93 901.513 3083.05 898.977 3088.62 897.709 3094.65 897.709Z" fill-rule="evenodd"/><text fill="#000000" fill-opacity="0" font-family="Arial,Arial_MSFontService,sans-serif" font-size="74.5767" x="3052.59" y="962.964">π‘</text><path d="M3200.88 865.527 3322.4 865.527 3322.4 878.645 3200.88 878.645Z" fill-rule="evenodd"/><text fill="#000000" fill-opacity="0" font-family="Arial,Arial_MSFontService,sans-serif" font-size="13.1182" x="3200.88" y="877.005">β’</text><path d="M3451.72 793.624C3457.77 793.624 3463.37 794.035 3468.54 794.857 3473.7 795.679 3479.4 797.076 3485.65 799.048L3480.13 824.397 3470.66 824.397C3470.39 818.808 3469.54 814.419 3468.09 811.23 3466.65 808.04 3464.57 805.755 3461.88 804.375 3459.18 802.994 3455.6 802.303 3451.13 802.303 3445.67 802.303 3440.87 803.421 3436.73 805.657 3432.58 807.893 3429.43 810.934 3427.26 814.78 3425.09 818.627 3424 822.918 3424 827.652 3424 832.584 3425.3 836.907 3427.9 840.622 3430.5 844.337 3435.48 848.727 3442.84 853.79 3449.29 858.261 3454.2 862.256 3457.59 865.774 3460.97 869.291 3463.47 873.023 3465.08 876.968 3466.7 880.914 3467.5 885.484 3467.5 890.678 3467.5 898.701 3465.58 905.818 3461.73 912.032 3457.88 918.246 3452.46 923.046 3445.46 926.433 3438.45 929.819 3430.48 931.512 3421.54 931.512 3415.49 931.512 3408.96 931.019 3401.96 930.033 3394.96 929.047 3388.69 927.797 3383.17 926.285L3389.09 899.161 3398.56 899.161C3398.56 907.183 3400.41 913.15 3404.13 917.063 3407.84 920.975 3413.58 922.931 3421.34 922.931 3430.28 922.931 3437.32 920.498 3442.45 915.632 3447.58 910.767 3450.14 903.994 3450.14 895.314 3450.14 891.303 3449.43 887.769 3448.02 884.711 3446.61 881.653 3444.47 878.727 3441.61 875.933 3438.75 873.138 3434.62 869.933 3429.23 866.316 3424.37 863.028 3420.32 859.79 3417.1 856.601 3413.88 853.412 3411.31 849.844 3409.41 845.899 3407.5 841.954 3406.55 837.548 3406.55 832.682 3406.55 824.923 3408.42 818.085 3412.17 812.167 3415.92 806.249 3421.21 801.679 3428.05 798.457 3434.89 795.235 3442.78 793.624 3451.72 793.624Z" fill-rule="evenodd"/><text fill="#000000" fill-opacity="0" font-family="Arial,Arial_MSFontService,sans-serif" font-size="137.889" x="3383.17" y="914.276">π‘†</text><path d="M3539.45 870.649C3542.08 870.649 3544.4 870.781 3546.41 871.044 3548.42 871.307 3550.36 871.63 3552.23 872.013L3549.28 885.364 3542.18 885.364C3541.84 882.636 3541.03 880.638 3539.74 879.37 3538.44 878.102 3536.72 877.468 3534.57 877.468 3532.08 877.468 3529.99 878.006 3528.29 879.083 3526.59 880.16 3525.11 881.787 3523.84 883.964 3522.57 886.141 3521.48 888.689 3520.57 891.608 3519.66 894.527 3519.04 897.063 3518.71 899.217L3538.59 899.217 3537.01 907.184 3517.05 907.184 3504.06 968.697C3501.81 979.177 3498.17 986.94 3493.12 991.989 3488.07 997.037 3481.33 999.561 3472.91 999.561 3470.71 999.561 3469.11 999.418 3468.1 999.131 3468.39 997.934 3468.65 996.702 3468.89 995.434 3469.13 994.166 3469.42 992.934 3469.75 991.738 3470.04 991.833 3470.45 991.881 3470.97 991.881 3471.5 991.881 3472.24 991.881 3473.2 991.881 3475.06 991.881 3476.78 991.582 3478.33 990.984 3479.89 990.386 3481.31 989.309 3482.6 987.754 3483.89 986.199 3485.08 984.069 3486.15 981.366 3487.23 978.662 3488.25 975.181 3489.21 970.922L3503.56 907.184 3491.21 907.184 3492.51 901.657C3495.14 901.513 3497.23 901.346 3498.79 901.155 3500.34 900.963 3501.66 900.544 3502.74 899.898 3503.81 899.252 3504.61 898.164 3505.14 896.633 3507.92 887.876 3512.09 881.356 3517.66 877.073 3523.24 872.791 3530.5 870.649 3539.45 870.649Z" fill-rule="evenodd"/><text fill="#000000" fill-opacity="0" font-family="Arial,Arial_MSFontService,sans-serif" font-size="128.912" x="3468.1" y="983.447">π‘“</text></g></svg>