<svg width="2635" height="1764" xmlns="http://www.w3.org/2000/svg" xmlns:xlink="http://www.w3.org/1999/xlink" xml:space="preserve" overflow="hidden"><defs><clipPath id="clip0"><rect x="937" y="261" width="2635" height="1764"/></clipPath></defs><g clip-path="url(#clip0)" transform="translate(-937 -261)"><path d="M1063.14 665.93 1067.08 665.93C1066.8 670.524 1066.65 676.888 1066.65 685.023L1066.65 746.321C1066.65 749.096 1066.81 751.19 1067.12 752.601 1067.43 754.013 1067.98 755.161 1068.77 756.047 1069.56 756.932 1070.7 757.626 1072.18 758.128 1073.66 758.631 1075.53 759.013 1077.78 759.277 1080.03 759.54 1082.99 759.719 1086.68 759.815L1086.68 765.055 1033.64 765.055 1033.64 759.815C1038.95 759.576 1042.74 759.253 1045.01 758.846 1047.29 758.439 1049.02 757.829 1050.22 757.016 1051.41 756.202 1052.29 755.054 1052.84 753.57 1053.39 752.087 1053.66 749.67 1053.66 746.321L1053.66 688.109C1053.66 686.195 1053.33 684.796 1052.66 683.91 1051.99 683.025 1051.01 682.582 1049.71 682.582 1048.18 682.582 1046.01 683.372 1043.18 684.951 1040.36 686.53 1036.87 688.707 1032.7 691.483L1029.54 685.956Z" fill-rule="evenodd"/><text fill="#000000" fill-opacity="0" font-family="Arial,Arial_MSFontService,sans-serif" font-size="99.1245" x="1029.54" y="752.664">1</text><path d="M1070.41 890.19 1044.85 935.409 1072.92 935.409 1071.7 912.297C1071.55 909.139 1071.43 905.191 1071.34 900.454 1071.24 895.717 1071.2 892.295 1071.2 890.19ZM1070.84 875.045 1081.67 875.045 1086.84 955.076C1087.08 958.857 1087.51 961.812 1088.13 963.941 1088.76 966.07 1089.61 967.649 1090.68 968.678 1091.76 969.707 1093.33 970.365 1095.38 970.652L1094.59 974.169 1064.74 974.169 1065.53 970.652C1068.35 970.413 1070.45 969.312 1071.84 967.35 1073.23 965.388 1073.92 961.943 1073.92 957.014 1073.92 955.148 1073.85 953.115 1073.71 950.913L1073.21 941.654 1041.62 941.654 1037.68 948.688C1035.81 951.99 1034.45 954.825 1033.58 957.194 1032.72 959.563 1032.29 961.656 1032.29 963.474 1032.29 967.494 1034.71 969.887 1039.54 970.652L1038.75 974.169 1009.4 974.169 1010.18 970.652C1011.67 970.461 1013.07 969.875 1014.38 968.894 1015.7 967.913 1017.1 966.429 1018.58 964.443 1020.07 962.458 1022.15 959.168 1024.83 954.574Z" fill-rule="evenodd"/><text fill="#000000" fill-opacity="0" font-family="Arial,Arial_MSFontService,sans-serif" font-size="99.1245" x="1009.4" y="961.779">𝐴</text><path d="M1010.41 829.055 1104.41 829.055 1104.41 839.055 1010.41 839.055Z" fill-rule="evenodd"/><path d="M1174.9 702.106C1170.45 702.106 1166.32 703.864 1162.52 707.382 1158.72 710.899 1155.62 716.174 1153.23 723.208 1150.83 730.243 1149.64 737.205 1149.64 744.096 1149.64 748.402 1150.1 751.764 1151.04 754.18 1151.97 756.597 1153.2 758.26 1154.73 759.169 1156.26 760.078 1158.18 760.533 1160.48 760.533 1165.64 760.533 1170.06 758.463 1173.72 754.324 1177.38 750.185 1180.5 743.964 1183.08 735.662 1185.67 727.36 1186.96 720.816 1186.96 716.031 1186.96 711.15 1185.97 707.609 1183.98 705.408 1182 703.206 1178.97 702.106 1174.9 702.106ZM1178.63 661.911C1186.63 661.911 1192.61 664.626 1196.58 670.057 1200.55 675.488 1202.54 683.707 1202.54 694.713 1202.54 699.067 1202.15 704.247 1201.39 710.253 1200.62 716.258 1199.33 722.515 1197.51 729.022 1195.69 735.53 1193.59 741.057 1191.2 745.603 1188.8 750.149 1186.15 753.905 1183.23 756.872 1180.31 759.839 1176.95 762.136 1173.14 763.763 1169.34 765.39 1165.04 766.203 1160.26 766.203 1153.08 766.203 1147.4 764.05 1143.21 759.743 1139.03 755.436 1136.93 749.12 1136.93 740.794 1136.93 733.281 1138.51 726.056 1141.67 719.117 1144.83 712.179 1149.16 706.664 1154.66 702.572 1160.16 698.481 1166.19 696.435 1172.75 696.435 1176.19 696.435 1179.21 696.83 1181.79 697.62 1184.38 698.409 1187.25 699.953 1190.41 702.249L1190.55 700.455C1190.69 698.158 1190.77 696.172 1190.77 694.497 1190.77 685.454 1189.57 678.886 1187.18 674.795 1184.78 670.703 1181.05 668.658 1175.98 668.658 1172.49 668.658 1169.24 669.483 1166.25 671.134 1163.26 672.785 1160.33 675.333 1157.46 678.778L1152.29 678.778 1152.29 672.821C1156.84 669.615 1160.37 667.33 1162.88 665.966 1165.39 664.602 1167.9 663.585 1170.42 662.915 1172.93 662.246 1175.67 661.911 1178.63 661.911Z" fill-rule="evenodd"/><text fill="#000000" fill-opacity="0" font-family="Arial,Arial_MSFontService,sans-serif" font-size="104.292" x="1136.93" y="753.167">𝜕</text><path d="M1270.47 672.247C1265.3 672.247 1260.48 674.089 1256.01 677.773 1251.53 681.458 1247.61 686.722 1244.23 693.564 1240.86 700.407 1238.24 707.92 1236.37 716.102 1234.51 724.285 1233.57 731.511 1233.57 737.779 1233.57 752.565 1238.96 759.958 1249.72 759.958 1256.38 759.958 1262.48 756.86 1268.03 750.663 1273.58 744.466 1278.05 735.889 1281.45 724.931 1284.85 713.973 1286.55 703.733 1286.55 694.21 1286.55 687.081 1285.23 681.637 1282.6 677.881 1279.97 674.125 1275.92 672.247 1270.47 672.247ZM1271.26 665.93C1280.49 665.93 1287.61 668.61 1292.61 673.969 1297.61 679.329 1300.11 687.081 1300.11 697.225 1300.11 703.924 1299.06 711.413 1296.95 719.691 1294.85 727.97 1291.95 735.279 1288.27 741.619 1284.58 747.96 1280.31 753.068 1275.46 756.944 1270.6 760.82 1265.32 763.499 1259.63 764.983 1260.73 768.476 1261.76 771.359 1262.72 773.632 1263.67 775.905 1264.59 777.747 1265.48 779.159 1266.37 780.57 1267.24 781.623 1268.1 782.317 1268.96 783.011 1269.82 783.477 1270.68 783.717 1271.55 783.956 1272.55 784.076 1273.7 784.076 1275.52 784.076 1277.36 783.549 1279.23 782.497 1281.09 781.444 1283.17 779.625 1285.47 777.041L1289.2 781.061C1285.37 785.224 1281.81 788.167 1278.51 789.89 1275.21 791.612 1271.81 792.474 1268.32 792.474 1264.34 792.474 1261.1 791.588 1258.59 789.818 1256.08 788.047 1253.9 785.224 1252.06 781.348 1250.22 777.472 1248.43 772.4 1246.71 766.131 1238.05 765.653 1231.45 762.782 1226.9 757.518 1222.35 752.254 1220.08 744.837 1220.08 735.267 1220.08 728.089 1221.29 719.978 1223.71 710.935 1226.12 701.891 1229.62 693.911 1234.18 686.997 1238.75 680.082 1244.21 674.842 1250.55 671.278 1256.89 667.713 1263.79 665.93 1271.26 665.93Z" fill-rule="evenodd"/><text fill="#000000" fill-opacity="0" font-family="Arial,Arial_MSFontService,sans-serif" font-size="126.543" x="1220.08" y="776.656">𝑄</text><path d="M1195.89 911.221C1191.44 911.221 1187.32 912.979 1183.51 916.496 1179.71 920.013 1176.61 925.289 1174.22 932.323 1171.82 939.357 1170.63 946.32 1170.63 953.21 1170.63 957.517 1171.09 960.878 1172.03 963.295 1172.96 965.711 1174.19 967.374 1175.72 968.284 1177.26 969.193 1179.17 969.647 1181.47 969.647 1186.63 969.647 1191.05 967.578 1194.71 963.439 1198.37 959.299 1201.49 953.079 1204.08 944.776 1206.66 936.474 1207.95 929.93 1207.95 925.145 1207.95 920.264 1206.96 916.723 1204.97 914.522 1202.99 912.321 1199.96 911.221 1195.89 911.221ZM1259.09 887.821 1269 887.821 1265.05 905.55 1286.87 905.55 1285.29 912.8 1263.47 912.8 1257.08 940.649C1255.84 946.056 1255.05 949.944 1254.71 952.313 1254.38 954.682 1254.21 956.584 1254.21 958.019 1254.21 963.953 1256.68 966.92 1261.61 966.92 1263.71 966.92 1265.95 966.118 1268.32 964.515 1270.69 962.912 1273.5 960.173 1276.75 956.297L1280.91 960.603C1276.75 965.628 1272.74 969.336 1268.89 971.729 1265.04 974.121 1261.01 975.318 1256.8 975.318 1246.8 975.318 1241.79 970.269 1241.79 960.173 1241.79 956.967 1242.2 953.593 1243.02 950.052L1251.48 912.8 1239.43 912.8 1240.5 907.847C1243.33 907.799 1245.47 907.584 1246.93 907.201 1248.39 906.818 1249.61 906.292 1250.59 905.622 1251.57 904.952 1252.47 903.995 1253.28 902.751 1254.09 901.507 1254.88 899.916 1255.65 897.978 1256.41 896.04 1257.56 892.654 1259.09 887.821ZM1199.63 871.025C1207.62 871.025 1213.6 873.741 1217.57 879.172 1221.54 884.603 1223.53 892.822 1223.53 903.827 1223.53 908.182 1223.15 913.362 1222.38 919.367 1221.61 925.373 1220.32 931.629 1218.5 938.137 1216.69 944.645 1214.58 950.172 1212.19 954.718 1209.79 959.263 1207.14 963.02 1204.22 965.987 1201.3 968.953 1197.94 971.25 1194.14 972.877 1190.33 974.504 1186.04 975.318 1181.25 975.318 1174.07 975.318 1168.39 973.164 1164.2 968.858 1160.02 964.551 1157.92 958.235 1157.92 949.909 1157.92 942.396 1159.5 935.17 1162.66 928.232 1165.82 921.293 1170.15 915.778 1175.65 911.687 1181.16 907.596 1187.19 905.55 1193.74 905.55 1197.19 905.55 1200.2 905.945 1202.78 906.734 1205.37 907.524 1208.24 909.067 1211.4 911.364L1211.54 909.57C1211.69 907.273 1211.76 905.287 1211.76 903.612 1211.76 894.568 1210.56 888.001 1208.17 883.909 1205.78 879.818 1202.04 877.772 1196.97 877.772 1193.48 877.772 1190.24 878.598 1187.24 880.249 1184.25 881.899 1181.32 884.448 1178.45 887.893L1173.28 887.893 1173.28 881.935C1177.83 878.729 1181.36 876.444 1183.87 875.081 1186.38 873.717 1188.9 872.7 1191.41 872.03 1193.92 871.36 1196.66 871.025 1199.63 871.025Z" fill-rule="evenodd"/><text fill="#000000" fill-opacity="0" font-family="Arial,Arial_MSFontService,sans-serif" font-size="104.292" x="1157.92" y="962.281">𝜕𝑡</text><path d="M1129.41 829.055 1314.41 829.055 1314.41 839.055 1129.41 839.055Z" fill-rule="evenodd"/><path d="M1396.21 787.92 1406.41 787.92 1406.41 829.264 1445.53 829.264 1445.53 838.811 1406.41 838.811 1406.41 880.154 1396.21 880.154 1396.21 838.811 1357.1 838.811 1357.1 829.264 1396.21 829.264Z" fill-rule="evenodd"/><text fill="#000000" fill-opacity="0" font-family="Arial,Arial_MSFontService,sans-serif" font-size="92.2339" x="1357.1" y="868.625">+</text><path d="M1541.22 665.93 1545.17 665.93C1544.88 670.524 1544.74 676.888 1544.74 685.023L1544.74 746.321C1544.74 749.096 1544.9 751.19 1545.21 752.601 1545.52 754.013 1546.07 755.161 1546.86 756.047 1547.65 756.932 1548.78 757.626 1550.27 758.128 1551.75 758.631 1553.62 759.013 1555.87 759.277 1558.12 759.54 1561.08 759.719 1564.77 759.815L1564.77 765.055 1511.72 765.055 1511.72 759.815C1517.03 759.576 1520.83 759.253 1523.1 758.846 1525.37 758.439 1527.11 757.829 1528.3 757.016 1529.5 756.202 1530.37 755.054 1530.92 753.57 1531.47 752.087 1531.75 749.67 1531.75 746.321L1531.75 688.109C1531.75 686.195 1531.41 684.796 1530.74 683.91 1530.07 683.025 1529.09 682.582 1527.8 682.582 1526.27 682.582 1524.09 683.372 1521.27 684.951 1518.45 686.53 1514.95 688.707 1510.79 691.483L1507.63 685.956Z" fill-rule="evenodd"/><text fill="#000000" fill-opacity="0" font-family="Arial,Arial_MSFontService,sans-serif" font-size="99.1245" x="1507.63" y="752.664">1</text><path d="M1548.49 890.19 1522.94 935.409 1551.01 935.409 1549.79 912.297C1549.64 909.139 1549.52 905.191 1549.43 900.454 1549.33 895.717 1549.28 892.295 1549.28 890.19ZM1548.92 875.045 1559.76 875.045 1564.93 955.076C1565.17 958.857 1565.6 961.812 1566.22 963.941 1566.84 966.07 1567.69 967.649 1568.77 968.678 1569.85 969.707 1571.41 970.365 1573.47 970.652L1572.68 974.169 1542.82 974.169 1543.61 970.652C1546.44 970.413 1548.54 969.312 1549.93 967.35 1551.32 965.388 1552.01 961.943 1552.01 957.014 1552.01 955.148 1551.94 953.115 1551.8 950.913L1551.29 941.654 1519.71 941.654 1515.76 948.688C1513.9 951.99 1512.53 954.825 1511.67 957.194 1510.81 959.563 1510.38 961.656 1510.38 963.474 1510.38 967.494 1512.8 969.887 1517.63 970.652L1516.84 974.169 1487.48 974.169 1488.27 970.652C1489.76 970.461 1491.16 969.875 1492.47 968.894 1493.79 967.913 1495.19 966.429 1496.67 964.443 1498.15 962.458 1500.24 959.168 1502.91 954.574Z" fill-rule="evenodd"/><text fill="#000000" fill-opacity="0" font-family="Arial,Arial_MSFontService,sans-serif" font-size="99.1245" x="1487.48" y="961.779">𝐴</text><path d="M1488.41 829.055 1582.41 829.055 1582.41 839.055 1488.41 839.055Z" fill-rule="evenodd"/><path d="M1692.29 702.106C1687.84 702.106 1683.71 703.864 1679.91 707.382 1676.11 710.899 1673.01 716.174 1670.62 723.208 1668.22 730.243 1667.03 737.205 1667.03 744.096 1667.03 748.402 1667.49 751.764 1668.43 754.18 1669.36 756.597 1670.59 758.26 1672.12 759.169 1673.65 760.078 1675.57 760.533 1677.86 760.533 1683.03 760.533 1687.45 758.463 1691.11 754.324 1694.77 750.185 1697.89 743.964 1700.47 735.662 1703.06 727.36 1704.35 720.816 1704.35 716.031 1704.35 711.15 1703.36 707.609 1701.37 705.408 1699.39 703.206 1696.36 702.106 1692.29 702.106ZM1696.02 661.911C1704.02 661.911 1710 664.626 1713.97 670.057 1717.94 675.488 1719.93 683.707 1719.93 694.713 1719.93 699.067 1719.54 704.247 1718.78 710.253 1718.01 716.258 1716.72 722.515 1714.9 729.022 1713.08 735.53 1710.98 741.057 1708.59 745.603 1706.19 750.149 1703.54 753.905 1700.62 756.872 1697.7 759.839 1694.34 762.136 1690.53 763.763 1686.73 765.39 1682.43 766.203 1677.65 766.203 1670.47 766.203 1664.79 764.05 1660.6 759.743 1656.42 755.436 1654.32 749.12 1654.32 740.794 1654.32 733.281 1655.9 726.056 1659.06 719.117 1662.22 712.179 1666.55 706.664 1672.05 702.572 1677.55 698.481 1683.58 696.435 1690.14 696.435 1693.58 696.435 1696.6 696.83 1699.18 697.62 1701.77 698.409 1704.64 699.953 1707.8 702.249L1707.94 700.455C1708.08 698.158 1708.15 696.172 1708.15 694.497 1708.15 685.454 1706.96 678.886 1704.57 674.795 1702.17 670.703 1698.44 668.658 1693.37 668.658 1689.88 668.658 1686.63 669.483 1683.64 671.134 1680.65 672.785 1677.72 675.333 1674.85 678.778L1669.68 678.778 1669.68 672.821C1674.23 669.615 1677.76 667.33 1680.27 665.966 1682.78 664.602 1685.29 663.585 1687.81 662.915 1690.32 662.246 1693.06 661.911 1696.02 661.911Z" fill-rule="evenodd"/><text fill="#000000" fill-opacity="0" font-family="Arial,Arial_MSFontService,sans-serif" font-size="104.292" x="1654.32" y="753.167">𝜕</text><path d="M1652.99 911.221C1648.54 911.221 1644.41 912.979 1640.61 916.496 1636.8 920.013 1633.71 925.289 1631.31 932.323 1628.92 939.357 1627.72 946.32 1627.72 953.21 1627.72 957.517 1628.19 960.878 1629.12 963.295 1630.06 965.711 1631.29 967.374 1632.82 968.284 1634.35 969.193 1636.27 969.647 1638.56 969.647 1643.73 969.647 1648.14 967.578 1651.81 963.439 1655.47 959.299 1658.59 953.079 1661.17 944.776 1663.76 936.474 1665.05 929.93 1665.05 925.145 1665.05 920.264 1664.06 916.723 1662.07 914.522 1660.08 912.321 1657.06 911.221 1652.99 911.221ZM1716.48 904.33C1717.96 904.33 1719.26 904.497 1720.39 904.832 1721.51 905.167 1722.51 905.682 1723.37 906.376 1724.23 907.069 1724.99 907.967 1725.66 909.067 1726.33 910.168 1726.98 911.663 1727.6 913.553 1728.22 915.443 1728.81 917.788 1729.36 920.587 1729.91 923.387 1730.4 926.294 1730.83 929.308L1731.55 929.308C1736.14 922.848 1739.62 918.123 1741.99 915.132 1744.36 912.142 1746.36 909.917 1747.99 908.457 1749.61 906.998 1751.18 905.969 1752.69 905.371 1754.2 904.773 1756.19 904.473 1758.68 904.473 1760.93 904.473 1762.77 904.761 1764.21 905.335L1761.34 918.326 1756.31 918.326C1756.03 916.317 1755.19 915.312 1753.8 915.312 1753.37 915.312 1752.92 915.384 1752.44 915.527 1751.96 915.671 1751.37 915.982 1750.68 916.46 1749.98 916.939 1748.97 917.872 1747.63 919.26 1746.29 920.647 1744.78 922.346 1743.11 924.356 1741.43 926.366 1739.71 928.471 1737.94 930.672L1733.06 936.773C1733.92 941.367 1734.73 945.339 1735.5 948.688 1736.26 952.038 1736.94 954.825 1737.54 957.05 1738.14 959.275 1738.67 961.034 1739.12 962.326 1739.58 963.618 1740.07 964.587 1740.59 965.233 1741.12 965.879 1741.66 966.334 1742.21 966.597 1742.76 966.86 1743.39 966.992 1744.11 966.992 1745.4 966.992 1746.66 966.489 1747.88 965.484 1749.1 964.479 1750.86 962.206 1753.15 958.665L1757.82 961.752C1754.47 966.728 1751.44 970.233 1748.74 972.267 1746.04 974.301 1742.82 975.318 1739.09 975.318 1737.03 975.318 1735.28 974.947 1733.85 974.205 1732.41 973.463 1731.17 972.279 1730.11 970.652 1729.06 969.025 1728.13 966.489 1727.31 963.044 1725.83 956.919 1724.92 952.229 1724.59 948.975L1723.87 948.975C1718.8 956.105 1715.03 961.225 1712.56 964.336 1710.1 967.446 1708.07 969.743 1706.46 971.226 1704.86 972.71 1703.31 973.751 1701.8 974.349 1700.29 974.947 1698.29 975.246 1695.8 975.246 1693.56 975.246 1691.71 974.959 1690.28 974.385L1693.15 961.393 1698.17 961.393C1698.46 963.403 1699.3 964.408 1700.69 964.408 1701.36 964.408 1702.06 964.228 1702.8 963.869 1703.54 963.51 1704.61 962.649 1706 961.285 1707.38 959.921 1709.3 957.78 1711.74 954.861 1714.18 951.942 1717.72 947.564 1722.36 941.726 1721.64 937.946 1720.9 934.309 1720.14 930.816 1719.37 927.323 1718.58 924.069 1717.77 921.054 1716.95 918.039 1716.28 916.065 1715.76 915.132 1715.23 914.199 1714.67 913.553 1714.07 913.194 1713.47 912.836 1712.72 912.656 1711.81 912.656 1710.81 912.656 1709.9 912.883 1709.08 913.338 1708.27 913.793 1707.38 914.582 1706.43 915.707 1705.47 916.831 1704.2 918.59 1702.62 920.982L1697.96 917.896C1700.97 913.35 1703.87 909.952 1706.64 907.703 1709.42 905.454 1712.7 904.33 1716.48 904.33ZM1656.72 871.025C1664.71 871.025 1670.69 873.741 1674.67 879.172 1678.64 884.603 1680.62 892.822 1680.62 903.827 1680.62 908.182 1680.24 913.362 1679.48 919.367 1678.71 925.373 1677.42 931.629 1675.6 938.137 1673.78 944.645 1671.68 950.172 1669.28 954.718 1666.89 959.263 1664.23 963.02 1661.32 965.987 1658.4 968.953 1655.04 971.25 1651.23 972.877 1647.43 974.504 1643.13 975.318 1638.35 975.318 1631.17 975.318 1625.49 973.164 1621.3 968.858 1617.11 964.551 1615.02 958.235 1615.02 949.909 1615.02 942.396 1616.6 935.17 1619.76 928.232 1622.92 921.293 1627.25 915.778 1632.75 911.687 1638.25 907.596 1644.28 905.55 1650.84 905.55 1654.28 905.55 1657.3 905.945 1659.88 906.734 1662.46 907.524 1665.34 909.067 1668.49 911.364L1668.64 909.57C1668.78 907.273 1668.85 905.287 1668.85 903.612 1668.85 894.568 1667.66 888.001 1665.26 883.909 1662.87 879.818 1659.14 877.772 1654.07 877.772 1650.57 877.772 1647.33 878.598 1644.34 880.249 1641.35 881.899 1638.42 884.448 1635.55 887.893L1630.38 887.893 1630.38 881.935C1634.93 878.729 1638.45 876.444 1640.97 875.081 1643.48 873.717 1645.99 872.7 1648.5 872.03 1651.02 871.36 1653.76 871.025 1656.72 871.025Z" fill-rule="evenodd"/><text fill="#000000" fill-opacity="0" font-family="Arial,Arial_MSFontService,sans-serif" font-size="104.292" x="1615.02" y="962.281">𝜕𝑥</text><path d="M1607.41 829.055 1771.41 829.055 1771.41 839.055 1607.41 839.055Z" fill-rule="evenodd"/><path d="M2058.95 646.682C2078.61 663.526 2094.23 688.648 2105.78 722.049 2117.34 755.449 2123.12 792.725 2123.12 833.878 2123.12 874.408 2117.34 911.625 2105.78 945.527 2094.23 979.43 2078.61 1004.76 2058.95 1021.5L2055.57 1016.19C2072.56 998.918 2085.65 973.915 2094.84 941.185 2104.02 908.454 2108.62 872.709 2108.62 833.95 2108.62 794.281 2104 758.368 2094.76 726.212 2085.53 694.056 2072.47 669.34 2055.57 652.066ZM1871.52 646.682 1874.89 652.066C1857.95 669.34 1844.88 694.056 1835.67 726.212 1826.46 758.368 1821.85 794.281 1821.85 833.95 1821.85 872.709 1826.44 908.454 1835.63 941.185 1844.82 973.915 1857.91 998.918 1874.89 1016.19L1871.52 1021.5C1851.85 1004.76 1836.24 979.43 1824.69 945.527 1813.13 911.625 1807.35 874.408 1807.35 833.878 1807.35 792.725 1813.13 755.449 1824.69 722.049 1836.24 688.648 1851.85 663.526 1871.52 646.682Z" fill-rule="evenodd"/><path d="M1939.52 672.247C1934.35 672.247 1929.53 674.089 1925.06 677.773 1920.58 681.458 1916.66 686.722 1913.29 693.564 1909.91 700.407 1907.29 707.92 1905.43 716.102 1903.56 724.285 1902.63 731.511 1902.63 737.779 1902.63 752.565 1908.01 759.958 1918.78 759.958 1925.43 759.958 1931.53 756.86 1937.08 750.663 1942.63 744.466 1947.1 735.889 1950.5 724.931 1953.9 713.973 1955.6 703.733 1955.6 694.21 1955.6 687.081 1954.28 681.637 1951.65 677.881 1949.02 674.125 1944.98 672.247 1939.52 672.247ZM1940.31 665.93C1949.55 665.93 1956.66 668.61 1961.66 673.969 1966.66 679.329 1969.16 687.081 1969.16 697.225 1969.16 703.924 1968.11 711.413 1966.01 719.691 1963.9 727.97 1961.01 735.279 1957.32 741.619 1953.64 747.96 1949.37 753.068 1944.51 756.944 1939.65 760.82 1934.38 763.499 1928.68 764.983 1929.78 768.476 1930.81 771.359 1931.77 773.632 1932.73 775.905 1933.65 777.747 1934.53 779.159 1935.42 780.57 1936.29 781.623 1937.15 782.317 1938.01 783.011 1938.87 783.477 1939.74 783.717 1940.6 783.956 1941.6 784.076 1942.75 784.076 1944.57 784.076 1946.41 783.549 1948.28 782.497 1950.14 781.444 1952.23 779.625 1954.52 777.041L1958.25 781.061C1954.43 785.224 1950.86 788.167 1947.56 789.89 1944.26 791.612 1940.86 792.474 1937.37 792.474 1933.4 792.474 1930.15 791.588 1927.64 789.818 1925.13 788.047 1922.95 785.224 1921.11 781.348 1919.27 777.472 1917.48 772.4 1915.76 766.131 1907.1 765.653 1900.5 762.782 1895.95 757.518 1891.41 752.254 1889.13 744.837 1889.13 735.267 1889.13 728.089 1890.34 719.978 1892.76 710.935 1895.17 701.891 1898.67 693.911 1903.24 686.997 1907.81 680.082 1913.26 674.842 1919.6 671.278 1925.94 667.713 1932.85 665.93 1940.31 665.93Z" fill-rule="evenodd"/><text fill="#000000" fill-opacity="0" font-family="Arial,Arial_MSFontService,sans-serif" font-size="126.543" x="1889.13" y="776.656">𝑄</text><path d="M2014.06 643.679C2017.68 643.679 2020.77 644.089 2023.33 644.907 2025.89 645.726 2027.97 646.832 2029.57 648.225 2031.18 649.618 2032.33 651.29 2033.05 653.24 2033.76 655.191 2034.12 657.298 2034.12 659.562 2034.12 660.921 2034.02 662.183 2033.83 663.35 2033.64 664.517 2033.31 665.666 2032.84 666.798 2032.37 667.93 2031.75 669.071 2030.98 670.22 2030.22 671.37 2029.26 672.589 2028.11 673.878 2027.24 674.992 2026.11 676.281 2024.71 677.744 2023.32 679.207 2021.8 680.774 2020.14 682.446 2018.49 684.118 2016.76 685.859 2014.94 687.671 2013.13 689.482 2011.37 691.276 2009.67 693.052 2007.96 694.828 2006.39 696.552 2004.97 698.224 2003.54 699.896 2002.37 701.429 2001.47 702.822L2020.8 702.822C2022.43 702.822 2023.74 702.761 2024.71 702.639 2025.69 702.517 2026.5 702.247 2027.14 701.829 2027.79 701.411 2028.34 700.776 2028.79 699.922 2029.24 699.069 2029.77 697.893 2030.36 696.396L2035.22 696.396C2035.04 698.869 2034.88 701.359 2034.72 703.867 2034.56 706.375 2034.4 708.865 2034.22 711.338L1989.97 711.338 1989.97 708.621C1990.81 706.74 1991.78 704.886 1992.9 703.057 1994.01 701.228 1995.27 699.374 1996.66 697.493 1998.05 695.612 1999.64 693.67 2001.41 691.667 2003.19 689.665 2005.16 687.583 2007.32 685.424 2010.59 682.15 2013.26 679.355 2015.31 677.038 2017.37 674.722 2018.99 672.659 2020.17 670.847 2021.35 669.036 2022.16 667.364 2022.6 665.832 2023.03 664.299 2023.25 662.662 2023.25 660.921 2023.25 659.144 2023 657.507 2022.49 656.009 2021.99 654.512 2021.27 653.24 2020.33 652.195 2019.39 651.151 2018.19 650.332 2016.75 649.74 2015.3 649.148 2013.64 648.852 2011.76 648.852 2008.52 648.852 2005.8 649.731 2003.61 651.49 2001.41 653.249 1999.71 655.8 1998.49 659.144L1991.64 659.144 1991.64 648.956C1996.1 647.11 2000.2 645.769 2003.95 644.933 2007.69 644.097 2011.06 643.679 2014.06 643.679Z" fill-rule="evenodd"/><text fill="#000000" fill-opacity="0" font-family="Arial,Arial_MSFontService,sans-serif" font-size="67.6587" x="1989.97" y="702.881">2</text><path d="M1978.09 890.19 1952.54 935.409 1980.6 935.409 1979.38 912.297C1979.24 909.139 1979.12 905.191 1979.02 900.454 1978.93 895.717 1978.88 892.295 1978.88 890.19ZM1978.52 875.045 1989.36 875.045 1994.53 955.076C1994.77 958.857 1995.2 961.812 1995.82 963.941 1996.44 966.07 1997.29 967.649 1998.37 968.678 1999.44 969.707 2001.01 970.365 2003.07 970.652L2002.28 974.169 1972.42 974.169 1973.21 970.652C1976.03 970.413 1978.14 969.312 1979.52 967.35 1980.91 965.388 1981.61 961.943 1981.61 957.014 1981.61 955.148 1981.53 953.115 1981.39 950.913L1980.89 941.654 1949.31 941.654 1945.36 948.688C1943.49 951.99 1942.13 954.825 1941.27 957.194 1940.41 959.563 1939.98 961.656 1939.98 963.474 1939.98 967.494 1942.39 969.887 1947.22 970.652L1946.44 974.169 1917.08 974.169 1917.87 970.652C1919.35 970.461 1920.75 969.875 1922.07 968.894 1923.38 967.913 1924.78 966.429 1926.27 964.443 1927.75 962.458 1929.83 959.168 1932.51 954.574Z" fill-rule="evenodd"/><text fill="#000000" fill-opacity="0" font-family="Arial,Arial_MSFontService,sans-serif" font-size="99.1245" x="1917.08" y="961.779">𝐴</text><path d="M1879.41 829.055 2050.41 829.055 2050.41 839.055 1879.41 839.055Z" fill-rule="evenodd"/><path d="M2217.39 787.92 2227.58 787.92 2227.58 829.264 2266.7 829.264 2266.7 838.811 2227.58 838.811 2227.58 880.154 2217.39 880.154 2217.39 838.811 2178.27 838.811 2178.27 829.264 2217.39 829.264Z" fill-rule="evenodd"/><text fill="#000000" fill-opacity="0" font-family="Arial,Arial_MSFontService,sans-serif" font-size="92.2339" x="2178.27" y="868.625">+</text><path d="M2364.5 811.894C2359.62 811.894 2355.24 813.868 2351.36 817.816 2347.49 821.763 2344.44 827.087 2342.21 833.786 2339.99 840.485 2338.87 847.161 2338.87 853.812 2338.87 858.789 2339.59 862.509 2341.03 864.973 2342.46 867.438 2344.71 868.67 2347.77 868.67 2350.21 868.67 2352.64 867.833 2355.06 866.158 2357.48 864.483 2360.06 861.827 2362.81 858.19 2365.56 854.554 2367.7 851.084 2369.24 847.783 2370.77 844.481 2372.07 840.366 2373.15 835.437 2374.22 830.508 2374.76 826.226 2374.76 822.589 2374.76 818.856 2373.97 816.141 2372.39 814.442 2370.81 812.743 2368.18 811.894 2364.5 811.894ZM2363.35 806.224C2366.36 806.224 2369.21 806.583 2371.89 807.3 2374.57 808.018 2377.27 809.238 2380 810.961L2386.61 806.224 2391.2 807.372 2383.81 840.82C2383.28 843.165 2382.08 849.075 2380.22 858.549 2378.26 868.598 2376.66 875.704 2375.44 879.867 2374.22 884.03 2372.7 887.823 2370.89 891.244 2369.07 894.665 2366.72 897.644 2363.85 900.18 2360.98 902.716 2357.5 904.678 2353.41 906.066 2349.32 907.454 2344.47 908.147 2338.87 908.147 2320.79 908.147 2311.74 902.884 2311.74 892.356 2311.74 889.677 2312.56 887.236 2314.18 885.035 2315.81 882.834 2318.42 880.513 2322.01 878.073L2327.17 882.236C2326.26 883.336 2325.5 884.425 2324.88 885.502 2324.26 886.578 2323.81 887.619 2323.55 888.624 2323.29 889.629 2323.15 890.825 2323.15 892.213 2323.15 895.802 2324.45 898.422 2327.03 900.073 2329.61 901.723 2333.51 902.549 2338.73 902.549 2344.62 902.549 2349.34 901.221 2352.91 898.565 2356.47 895.909 2359.52 891.639 2362.06 885.753 2364.59 879.867 2367.06 870.967 2369.45 859.052L2368.45 858.836C2363.8 865.201 2359.5 869.842 2355.53 872.761 2351.55 875.68 2347.27 877.14 2342.68 877.14 2337.46 877.14 2333.41 875.178 2330.51 871.254 2327.62 867.33 2326.17 861.731 2326.17 854.458 2326.17 846.275 2327.77 838.416 2330.98 830.879 2334.18 823.343 2338.63 817.349 2344.33 812.899 2350.02 808.449 2356.36 806.224 2363.35 806.224Z" fill-rule="evenodd"/><text fill="#000000" fill-opacity="0" font-family="Arial,Arial_MSFontService,sans-serif" font-size="101.924" x="2311.74" y="895.407">𝑔</text><path d="M2472.35 702.106C2467.9 702.106 2463.77 703.864 2459.97 707.382 2456.17 710.899 2453.07 716.174 2450.68 723.208 2448.28 730.243 2447.09 737.205 2447.09 744.096 2447.09 748.402 2447.55 751.764 2448.49 754.18 2449.42 756.597 2450.65 758.26 2452.18 759.169 2453.71 760.078 2455.63 760.533 2457.93 760.533 2463.09 760.533 2467.51 758.463 2471.17 754.324 2474.83 750.185 2477.95 743.964 2480.53 735.662 2483.12 727.36 2484.41 720.816 2484.41 716.031 2484.41 711.15 2483.42 707.609 2481.43 705.408 2479.45 703.206 2476.42 702.106 2472.35 702.106ZM2476.08 661.911C2484.08 661.911 2490.06 664.626 2494.03 670.057 2498 675.488 2499.99 683.707 2499.99 694.713 2499.99 699.067 2499.6 704.247 2498.84 710.253 2498.07 716.258 2496.78 722.515 2494.96 729.022 2493.14 735.53 2491.04 741.057 2488.65 745.603 2486.25 750.149 2483.6 753.905 2480.68 756.872 2477.76 759.839 2474.4 762.136 2470.59 763.763 2466.79 765.39 2462.49 766.203 2457.71 766.203 2450.53 766.203 2444.85 764.05 2440.66 759.743 2436.48 755.436 2434.38 749.12 2434.38 740.794 2434.38 733.281 2435.96 726.056 2439.12 719.117 2442.28 712.179 2446.61 706.664 2452.11 702.572 2457.61 698.481 2463.64 696.435 2470.2 696.435 2473.64 696.435 2476.66 696.83 2479.24 697.62 2481.83 698.409 2484.7 699.953 2487.86 702.249L2488 700.455C2488.14 698.158 2488.22 696.172 2488.22 694.497 2488.22 685.454 2487.02 678.886 2484.63 674.795 2482.23 670.703 2478.5 668.658 2473.43 668.658 2469.94 668.658 2466.69 669.483 2463.7 671.134 2460.71 672.785 2457.78 675.333 2454.91 678.778L2449.74 678.778 2449.74 672.821C2454.29 669.615 2457.82 667.33 2460.33 665.966 2462.84 664.602 2465.35 663.585 2467.87 662.915 2470.38 662.246 2473.12 661.911 2476.08 661.911Z" fill-rule="evenodd"/><text fill="#000000" fill-opacity="0" font-family="Arial,Arial_MSFontService,sans-serif" font-size="104.292" x="2434.38" y="753.167">𝜕</text><path d="M2531.53 695.287C2533.49 695.287 2535.16 695.55 2536.55 696.077 2537.51 696.459 2538.47 697.093 2539.42 697.979 2540.38 698.864 2541.23 700.096 2541.97 701.675 2542.71 703.254 2543.36 705.025 2543.91 706.987 2544.46 708.949 2545.07 711.772 2545.74 715.456 2546.89 721.629 2548 728.125 2549.08 734.944 2550.15 741.763 2551.07 748.091 2551.84 753.929 2556.48 747.23 2560.42 740.674 2563.65 734.262 2566.88 727.85 2569.2 722.275 2570.61 717.538 2572.02 712.801 2572.73 708.949 2572.73 705.982 2572.73 703.733 2572.25 702.202 2571.29 701.388 2570.33 700.575 2568.71 700.096 2566.41 699.953L2567.13 696.435 2586.01 696.435 2587.94 700.024C2584.31 709.977 2579.38 720.624 2573.16 731.965 2567.03 743.067 2560.02 754.121 2552.13 765.126 2544.57 775.606 2538.27 783.19 2533.25 787.88 2529.76 791.086 2526.38 793.383 2523.13 794.77 2520.55 795.823 2517.79 796.35 2514.88 796.35 2513.87 796.35 2512.71 796.266 2511.39 796.098 2510.08 795.931 2509.06 795.704 2508.34 795.416L2511.43 781.492 2517.1 781.492C2517.1 784.554 2518.15 786.085 2520.26 786.085 2523.03 786.085 2526.26 784.351 2529.95 780.882 2533.63 777.412 2537.96 772.185 2542.94 765.198 2541.55 756.824 2539.66 746.727 2537.27 734.908 2534.73 722.275 2533.06 714.452 2532.25 711.437 2531.24 707.8 2530.19 705.479 2529.09 704.475 2528.42 703.852 2527.58 703.541 2526.57 703.541 2525.04 703.541 2523.61 704.164 2522.27 705.408 2520.93 706.652 2519.28 708.805 2517.32 711.868L2512.65 708.781C2515.95 703.852 2519.04 700.371 2521.91 698.338 2524.78 696.304 2527.99 695.287 2531.53 695.287Z" fill-rule="evenodd"/><text fill="#000000" fill-opacity="0" font-family="Arial,Arial_MSFontService,sans-serif" font-size="101.062" x="2508.34" y="783.717">𝑦</text><path d="M2473.38 911.221C2468.93 911.221 2464.81 912.979 2461 916.496 2457.2 920.013 2454.1 925.289 2451.71 932.323 2449.31 939.357 2448.12 946.32 2448.12 953.21 2448.12 957.517 2448.58 960.878 2449.52 963.295 2450.45 965.711 2451.68 967.374 2453.21 968.284 2454.75 969.193 2456.66 969.647 2458.96 969.647 2464.12 969.647 2468.54 967.578 2472.2 963.439 2475.86 959.299 2478.98 953.079 2481.57 944.776 2484.15 936.474 2485.44 929.93 2485.44 925.145 2485.44 920.264 2484.45 916.723 2482.46 914.522 2480.48 912.321 2477.45 911.221 2473.38 911.221ZM2536.87 904.33C2538.35 904.33 2539.66 904.497 2540.78 904.832 2541.91 905.167 2542.9 905.682 2543.76 906.376 2544.62 907.069 2545.39 907.967 2546.06 909.067 2546.73 910.168 2547.37 911.663 2548 913.553 2548.62 915.443 2549.2 917.788 2549.75 920.587 2550.3 923.387 2550.79 926.294 2551.23 929.308L2551.94 929.308C2556.54 922.848 2560.02 918.123 2562.39 915.132 2564.76 912.142 2566.75 909.917 2568.38 908.457 2570.01 906.998 2571.57 905.969 2573.08 905.371 2574.59 904.773 2576.59 904.473 2579.07 904.473 2581.32 904.473 2583.17 904.761 2584.6 905.335L2581.73 918.326 2576.71 918.326C2576.42 916.317 2575.58 915.312 2574.19 915.312 2573.76 915.312 2573.31 915.384 2572.83 915.527 2572.35 915.671 2571.77 915.982 2571.07 916.46 2570.38 916.939 2569.36 917.872 2568.02 919.26 2566.68 920.647 2565.17 922.346 2563.5 924.356 2561.82 926.366 2560.1 928.471 2558.33 930.672L2553.45 936.773C2554.31 941.367 2555.13 945.339 2555.89 948.688 2556.66 952.038 2557.34 954.825 2557.94 957.05 2558.53 959.275 2559.06 961.034 2559.52 962.326 2559.97 963.618 2560.46 964.587 2560.99 965.233 2561.51 965.879 2562.05 966.334 2562.6 966.597 2563.15 966.86 2563.79 966.992 2564.5 966.992 2565.8 966.992 2567.05 966.489 2568.27 965.484 2569.49 964.479 2571.25 962.206 2573.55 958.665L2578.21 961.752C2574.86 966.728 2571.84 970.233 2569.13 972.267 2566.43 974.301 2563.21 975.318 2559.48 975.318 2557.42 975.318 2555.68 974.947 2554.24 974.205 2552.8 973.463 2551.56 972.279 2550.51 970.652 2549.45 969.025 2548.52 966.489 2547.71 963.044 2546.22 956.919 2545.32 952.229 2544.98 948.975L2544.26 948.975C2539.19 956.105 2535.42 961.225 2532.96 964.336 2530.49 967.446 2528.46 969.743 2526.86 971.226 2525.25 972.71 2523.7 973.751 2522.19 974.349 2520.68 974.947 2518.69 975.246 2516.2 975.246 2513.95 975.246 2512.11 974.959 2510.67 974.385L2513.54 961.393 2518.57 961.393C2518.85 963.403 2519.69 964.408 2521.08 964.408 2521.75 964.408 2522.45 964.228 2523.2 963.869 2523.94 963.51 2525 962.649 2526.39 961.285 2527.78 959.921 2529.69 957.78 2532.13 954.861 2534.57 951.942 2538.11 947.564 2542.76 941.726 2542.04 937.946 2541.3 934.309 2540.53 930.816 2539.76 927.323 2538.98 924.069 2538.16 921.054 2537.35 918.039 2536.68 916.065 2536.15 915.132 2535.63 914.199 2535.06 913.553 2534.47 913.194 2533.87 912.836 2533.11 912.656 2532.2 912.656 2531.2 912.656 2530.29 912.883 2529.48 913.338 2528.66 913.793 2527.78 914.582 2526.82 915.707 2525.86 916.831 2524.6 918.59 2523.02 920.982L2518.35 917.896C2521.37 913.35 2524.26 909.952 2527.04 907.703 2529.81 905.454 2533.09 904.33 2536.87 904.33ZM2477.12 871.025C2485.11 871.025 2491.09 873.741 2495.06 879.172 2499.03 884.603 2501.02 892.822 2501.02 903.827 2501.02 908.182 2500.64 913.362 2499.87 919.367 2499.1 925.373 2497.81 931.629 2495.99 938.137 2494.18 944.645 2492.07 950.172 2489.68 954.718 2487.28 959.263 2484.63 963.02 2481.71 965.987 2478.79 968.953 2475.43 971.25 2471.62 972.877 2467.82 974.504 2463.53 975.318 2458.74 975.318 2451.56 975.318 2445.88 973.164 2441.69 968.858 2437.51 964.551 2435.41 958.235 2435.41 949.909 2435.41 942.396 2436.99 935.17 2440.15 928.232 2443.31 921.293 2447.64 915.778 2453.14 911.687 2458.65 907.596 2464.67 905.55 2471.23 905.55 2474.68 905.55 2477.69 905.945 2480.27 906.734 2482.86 907.524 2485.73 909.067 2488.89 911.364L2489.03 909.57C2489.17 907.273 2489.25 905.287 2489.25 903.612 2489.25 894.568 2488.05 888.001 2485.66 883.909 2483.26 879.818 2479.53 877.772 2474.46 877.772 2470.97 877.772 2467.73 878.598 2464.73 880.249 2461.74 881.899 2458.81 884.448 2455.94 887.893L2450.77 887.893 2450.77 881.935C2455.32 878.729 2458.85 876.444 2461.36 875.081 2463.87 873.717 2466.39 872.7 2468.9 872.03 2471.41 871.36 2474.15 871.025 2477.12 871.025Z" fill-rule="evenodd"/><text fill="#000000" fill-opacity="0" font-family="Arial,Arial_MSFontService,sans-serif" font-size="104.292" x="2435.41" y="962.281">𝜕𝑥</text><path d="M2426.41 829.055 2592.41 829.055 2592.41 839.055 2426.41 839.055Z" fill-rule="evenodd"/><path d="M2643.71 844.194 2732.14 844.194 2732.14 853.74 2643.71 853.74ZM2643.71 814.406 2732.14 814.406 2732.14 823.953 2643.71 823.953Z" fill-rule="evenodd"/><text fill="#000000" fill-opacity="0" font-family="Arial,Arial_MSFontService,sans-serif" font-size="39.334" x="2643.71" y="848.823">=</text><path d="M2838.09 811.894C2833.21 811.894 2828.83 813.868 2824.96 817.816 2821.08 821.763 2818.03 827.087 2815.81 833.786 2813.58 840.485 2812.47 847.161 2812.47 853.812 2812.47 858.789 2813.19 862.509 2814.62 864.973 2816.06 867.438 2818.31 868.67 2821.37 868.67 2823.81 868.67 2826.24 867.833 2828.66 866.158 2831.07 864.483 2833.66 861.827 2836.41 858.19 2839.16 854.554 2841.3 851.084 2842.83 847.783 2844.36 844.481 2845.67 840.366 2846.74 835.437 2847.82 830.508 2848.36 826.226 2848.36 822.589 2848.36 818.856 2847.57 816.141 2845.99 814.442 2844.41 812.743 2841.78 811.894 2838.09 811.894ZM2836.95 806.224C2839.96 806.224 2842.81 806.583 2845.49 807.3 2848.17 808.018 2850.87 809.238 2853.6 810.961L2860.2 806.224 2864.8 807.372 2857.4 840.82C2856.88 843.165 2855.68 849.075 2853.81 858.549 2851.85 868.598 2850.26 875.704 2849.04 879.867 2847.82 884.03 2846.3 887.823 2844.48 891.244 2842.66 894.665 2840.32 897.644 2837.45 900.18 2834.58 902.716 2831.1 904.678 2827 906.066 2822.91 907.454 2818.07 908.147 2812.47 908.147 2794.38 908.147 2785.34 902.884 2785.34 892.356 2785.34 889.677 2786.15 887.236 2787.78 885.035 2789.41 882.834 2792.01 880.513 2795.6 878.073L2800.77 882.236C2799.86 883.336 2799.1 884.425 2798.47 885.502 2797.85 886.578 2797.41 887.619 2797.15 888.624 2796.88 889.629 2796.75 890.825 2796.75 892.213 2796.75 895.802 2798.04 898.422 2800.63 900.073 2803.21 901.723 2807.11 902.549 2812.33 902.549 2818.21 902.549 2822.94 901.221 2826.5 898.565 2830.07 895.909 2833.12 891.639 2835.65 885.753 2838.19 879.867 2840.65 870.967 2843.05 859.052L2842.04 858.836C2837.4 865.201 2833.09 869.842 2829.12 872.761 2825.15 875.68 2820.87 877.14 2816.27 877.14 2811.06 877.14 2807 875.178 2804.11 871.254 2801.21 867.33 2799.77 861.731 2799.77 854.458 2799.77 846.275 2801.37 838.416 2804.57 830.879 2807.78 823.343 2812.23 817.349 2817.92 812.899 2823.62 808.449 2829.96 806.224 2836.95 806.224Z" fill-rule="evenodd"/><text fill="#000000" fill-opacity="0" font-family="Arial,Arial_MSFontService,sans-serif" font-size="101.924" x="2785.34" y="895.407">𝑔</text><path d="M2931.98 772.345 2933.91 777.872C2922.72 781.556 2914.43 788.746 2909.04 799.441 2903.66 810.135 2900.97 823.57 2900.97 839.744 2900.97 856.492 2903.66 870.297 2909.04 881.159 2914.43 892.021 2922.64 899.295 2933.7 902.979L2931.98 908.506C2917.96 904.822 2907.21 896.89 2899.75 884.712 2892.28 872.534 2888.55 857.784 2888.55 840.461 2888.55 823.187 2892.29 808.437 2899.78 796.211 2907.27 783.985 2918 776.029 2931.98 772.345Z" fill-rule="evenodd"/><text fill="#000000" fill-opacity="0" font-family="Arial,Arial_MSFontService,sans-serif" font-size="136.162" x="2888.55" y="891.486">(</text><path d="M2987.32 776.938C2991.72 776.938 2995.8 777.238 2999.56 777.836 3003.32 778.434 3007.47 779.451 3012.01 780.886L3007.99 799.333 3001.1 799.333C3000.91 795.266 3000.29 792.072 2999.24 789.751 2998.18 787.43 2996.68 785.767 2994.71 784.762 2992.75 783.757 2990.14 783.255 2986.89 783.255 2982.92 783.255 2979.43 784.068 2976.41 785.695 2973.4 787.322 2971.1 789.535 2969.52 792.335 2967.94 795.134 2967.15 798.256 2967.15 801.702 2967.15 805.291 2968.1 808.437 2969.99 811.14 2971.88 813.844 2975.5 817.038 2980.86 820.723 2985.55 823.977 2989.13 826.884 2991.59 829.444 2994.06 832.004 2995.87 834.719 2997.05 837.59 2998.22 840.461 2998.81 843.787 2998.81 847.567 2998.81 853.405 2997.41 858.585 2994.61 863.107 2991.81 867.629 2987.86 871.122 2982.76 873.587 2977.67 876.051 2971.87 877.283 2965.36 877.283 2960.96 877.283 2956.21 876.924 2951.11 876.207 2946.01 875.489 2941.46 874.58 2937.44 873.479L2941.74 853.74 2948.63 853.74C2948.63 859.578 2949.99 863.921 2952.69 866.768 2955.39 869.615 2959.57 871.039 2965.21 871.039 2971.72 871.039 2976.84 869.268 2980.57 865.727 2984.31 862.186 2986.17 857.257 2986.17 850.941 2986.17 848.022 2985.66 845.45 2984.63 843.225 2983.6 841 2982.05 838.87 2979.96 836.837 2977.88 834.803 2974.88 832.47 2970.96 829.838 2967.42 827.446 2964.47 825.089 2962.13 822.768 2959.78 820.448 2957.92 817.852 2956.53 814.98 2955.14 812.109 2954.45 808.903 2954.45 805.362 2954.45 799.716 2955.81 794.739 2958.54 790.433 2961.27 786.126 2965.12 782.8 2970.09 780.456 2975.07 778.111 2980.81 776.938 2987.32 776.938Z" fill-rule="evenodd"/><text fill="#000000" fill-opacity="0" font-family="Arial,Arial_MSFontService,sans-serif" font-size="100.345" x="2937.44" y="864.74">𝑆</text><path d="M3044.25 857.821C3042.3 857.821 3040.47 858.257 3038.77 859.127 3037.06 859.998 3035.49 861.2 3034.06 862.732 3032.64 864.265 3031.36 866.076 3030.22 868.166 3029.09 870.256 3028.13 872.502 3027.35 874.906 3026.57 877.309 3025.97 879.817 3025.55 882.429 3025.13 885.041 3024.92 887.654 3024.92 890.266 3024.92 894.272 3025.75 897.224 3027.4 899.122 3029.06 901.02 3031.57 901.969 3034.95 901.969 3036.83 901.969 3038.61 901.508 3040.28 900.585 3041.95 899.662 3043.49 898.416 3044.88 896.849 3046.27 895.282 3047.52 893.444 3048.61 891.337 3049.71 889.23 3050.64 886.975 3051.41 884.571 3052.18 882.168 3052.76 879.686 3053.16 877.126 3053.56 874.566 3053.76 872.067 3053.76 869.629 3053.76 865.763 3052.99 862.828 3051.46 860.825 3049.93 858.823 3047.53 857.821 3044.25 857.821ZM3045.24 852.649C3048.38 852.649 3051.12 853.154 3053.47 854.164 3055.82 855.174 3057.78 856.541 3059.35 858.265 3060.92 859.989 3062.09 862.018 3062.88 864.352 3063.66 866.686 3064.05 869.176 3064.05 871.823 3064.05 877.117 3063.27 881.915 3061.7 886.217 3060.14 890.519 3057.97 894.211 3055.2 897.293 3052.43 900.376 3049.17 902.753 3045.43 904.425 3041.68 906.097 3037.62 906.933 3033.23 906.933 3030.34 906.933 3027.74 906.497 3025.44 905.626 3023.14 904.756 3021.19 903.502 3019.59 901.865 3017.99 900.228 3016.76 898.251 3015.91 895.935 3015.06 893.619 3014.63 890.997 3014.63 888.072 3014.63 883.126 3015.4 878.502 3016.95 874.2 3018.5 869.899 3020.65 866.154 3023.38 862.967 3026.11 859.78 3029.34 857.264 3033.07 855.418 3036.8 853.572 3040.86 852.649 3045.24 852.649Z" fill-rule="evenodd"/><text fill="#000000" fill-opacity="0" font-family="Arial,Arial_MSFontService,sans-serif" font-size="54.2837" x="3014.63" y="900.147">𝑜</text><path d="M3122.6 829.264 3211.03 829.264 3211.03 838.811 3122.6 838.811Z" fill-rule="evenodd"/><text fill="#000000" fill-opacity="0" font-family="Arial,Arial_MSFontService,sans-serif" font-size="9.54639" x="3122.6" y="837.617">−</text><path d="M3304.88 776.938C3309.28 776.938 3313.36 777.238 3317.12 777.836 3320.87 778.434 3325.02 779.451 3329.57 780.886L3325.55 799.333 3318.66 799.333C3318.47 795.266 3317.85 792.072 3316.79 789.751 3315.74 787.43 3314.23 785.767 3312.27 784.762 3310.31 783.757 3307.7 783.255 3304.45 783.255 3300.48 783.255 3296.98 784.068 3293.97 785.695 3290.95 787.322 3288.66 789.535 3287.08 792.335 3285.5 795.134 3284.71 798.256 3284.71 801.702 3284.71 805.291 3285.65 808.437 3287.54 811.14 3289.43 813.844 3293.06 817.038 3298.42 820.723 3303.11 823.977 3306.68 826.884 3309.15 829.444 3311.61 832.004 3313.43 834.719 3314.6 837.59 3315.78 840.461 3316.36 843.787 3316.36 847.567 3316.36 853.405 3314.96 858.585 3312.16 863.107 3309.36 867.629 3305.42 871.122 3300.32 873.587 3295.22 876.051 3289.42 877.283 3282.91 877.283 3278.51 877.283 3273.76 876.924 3268.67 876.207 3263.57 875.489 3259.01 874.58 3254.99 873.479L3259.3 853.74 3266.19 853.74C3266.19 859.578 3267.54 863.921 3270.25 866.768 3272.95 869.615 3277.12 871.039 3282.77 871.039 3289.28 871.039 3294.4 869.268 3298.13 865.727 3301.86 862.186 3303.73 857.257 3303.73 850.941 3303.73 848.022 3303.21 845.45 3302.19 843.225 3301.16 841 3299.6 838.87 3297.52 836.837 3295.44 834.803 3292.44 832.47 3288.51 829.838 3284.97 827.446 3282.03 825.089 3279.68 822.768 3277.34 820.448 3275.47 817.852 3274.09 814.98 3272.7 812.109 3272 808.903 3272 805.362 3272 799.716 3273.37 794.739 3276.09 790.433 3278.82 786.126 3282.67 782.8 3287.65 780.456 3292.63 778.111 3298.37 776.938 3304.88 776.938Z" fill-rule="evenodd"/><text fill="#000000" fill-opacity="0" font-family="Arial,Arial_MSFontService,sans-serif" font-size="100.345" x="3254.99" y="864.74">𝑆</text><path d="M3369.11 832.952C3371.03 832.952 3372.72 833.048 3374.18 833.239 3375.64 833.431 3377.05 833.666 3378.41 833.945L3376.27 843.663 3371.1 843.663C3370.85 841.677 3370.26 840.223 3369.32 839.3 3368.38 838.377 3367.13 837.915 3365.56 837.915 3363.75 837.915 3362.23 838.307 3360.99 839.091 3359.75 839.875 3358.67 841.059 3357.75 842.644 3356.83 844.229 3356.03 846.083 3355.37 848.208 3354.71 850.333 3354.26 852.179 3354.01 853.746L3368.49 853.746 3367.34 859.545 3352.81 859.545 3343.36 904.32C3341.72 911.948 3339.06 917.599 3335.39 921.274 3331.71 924.949 3326.81 926.786 3320.68 926.786 3319.08 926.786 3317.91 926.682 3317.18 926.473 3317.39 925.602 3317.58 924.705 3317.76 923.782 3317.93 922.859 3318.14 921.962 3318.38 921.091 3318.59 921.161 3318.89 921.196 3319.27 921.196 3319.65 921.196 3320.19 921.196 3320.89 921.196 3322.25 921.196 3323.49 920.978 3324.63 920.543 3325.76 920.107 3326.79 919.324 3327.73 918.192 3328.67 917.06 3329.54 915.51 3330.32 913.542 3331.1 911.574 3331.84 909.04 3332.54 905.94L3342.99 859.545 3334 859.545 3334.94 855.522C3336.86 855.418 3338.38 855.296 3339.52 855.157 3340.65 855.017 3341.61 854.713 3342.39 854.242 3343.17 853.772 3343.76 852.98 3344.14 851.865 3346.16 845.491 3349.2 840.745 3353.26 837.628 3357.31 834.511 3362.6 832.952 3369.11 832.952Z" fill-rule="evenodd"/><text fill="#000000" fill-opacity="0" font-family="Arial,Arial_MSFontService,sans-serif" font-size="93.834" x="3317.18" y="915.057">𝑓</text><path d="M3394.29 772.345C3408.27 776.029 3419 783.985 3426.49 796.211 3433.97 808.437 3437.72 823.187 3437.72 840.461 3437.72 857.784 3433.99 872.534 3426.52 884.712 3419.06 896.89 3408.31 904.822 3394.29 908.506L3392.57 902.979C3403.62 899.295 3411.84 892.021 3417.23 881.159 3422.61 870.297 3425.3 856.492 3425.3 839.744 3425.3 823.57 3422.62 810.135 3417.26 799.441 3411.9 788.746 3403.6 781.556 3392.36 777.872Z" fill-rule="evenodd"/><text fill="#000000" fill-opacity="0" font-family="Arial,Arial_MSFontService,sans-serif" font-size="136.162" x="3392.36" y="891.486">)</text><path d="M1043.24 1094.42 1048.66 1094.42C1048.27 1100.73 1048.07 1109.47 1048.07 1120.65L1048.07 1204.88C1048.07 1208.7 1048.28 1211.58 1048.71 1213.52 1049.14 1215.45 1049.89 1217.03 1050.98 1218.25 1052.06 1219.47 1053.62 1220.42 1055.66 1221.11 1057.7 1221.8 1060.27 1222.33 1063.36 1222.69 1066.45 1223.05 1070.52 1223.3 1075.59 1223.43L1075.59 1230.63 1002.7 1230.63 1002.7 1223.43C1010 1223.1 1015.21 1222.66 1018.33 1222.1 1021.45 1221.54 1023.84 1220.7 1025.48 1219.58 1027.13 1218.46 1028.33 1216.89 1029.08 1214.85 1029.84 1212.81 1030.22 1209.49 1030.22 1204.88L1030.22 1124.89C1030.22 1122.26 1029.76 1120.34 1028.83 1119.12 1027.91 1117.91 1026.57 1117.3 1024.79 1117.3 1022.69 1117.3 1019.7 1118.38 1015.82 1120.55 1011.94 1122.72 1007.14 1125.72 1001.42 1129.53L997.075 1121.93Z" fill-rule="evenodd"/><text fill="#000000" fill-opacity="0" font-family="Arial,Arial_MSFontService,sans-serif" font-size="136.212" x="997.075" y="1213.6">1</text><path d="M1047.52 1429.99C1040.82 1429.99 1034.8 1432.7 1029.47 1438.12 1024.15 1443.55 1019.96 1450.86 1016.9 1460.07 1013.84 1469.27 1012.31 1478.45 1012.31 1487.59 1012.31 1494.43 1013.3 1499.54 1015.27 1502.92 1017.24 1506.31 1020.33 1508 1024.54 1508 1027.9 1508 1031.23 1506.85 1034.55 1504.55 1037.88 1502.25 1041.43 1498.6 1045.21 1493.6 1048.99 1488.61 1051.93 1483.84 1054.03 1479.3 1056.14 1474.76 1057.93 1469.11 1059.41 1462.34 1060.89 1455.56 1061.63 1449.68 1061.63 1444.68 1061.63 1439.55 1060.54 1435.82 1058.37 1433.49 1056.2 1431.15 1052.59 1429.99 1047.52 1429.99ZM1045.95 1422.19C1050.09 1422.19 1054 1422.69 1057.68 1423.67 1061.37 1424.66 1065.08 1426.34 1068.83 1428.7L1077.9 1422.19 1084.22 1423.77 1074.06 1469.73C1073.33 1472.96 1071.69 1481.08 1069.13 1494.1 1066.43 1507.91 1064.24 1517.67 1062.57 1523.39 1060.89 1529.11 1058.8 1534.32 1056.3 1539.02 1053.8 1543.73 1050.58 1547.82 1046.64 1551.3 1042.69 1554.79 1037.91 1557.48 1032.29 1559.39 1026.66 1561.3 1020.01 1562.25 1012.31 1562.25 987.457 1562.25 975.03 1555.02 975.03 1540.55 975.03 1536.87 976.147 1533.52 978.383 1530.49 980.619 1527.47 984.202 1524.28 989.134 1520.92L996.236 1526.65C994.986 1528.16 993.934 1529.65 993.079 1531.13 992.225 1532.61 991.616 1534.04 991.255 1535.42 990.893 1536.8 990.712 1538.45 990.712 1540.36 990.712 1545.29 992.488 1548.89 996.038 1551.16 999.589 1553.42 1004.95 1554.56 1012.12 1554.56 1020.2 1554.56 1026.7 1552.73 1031.6 1549.08 1036.49 1545.44 1040.69 1539.57 1044.17 1531.48 1047.66 1523.39 1051.04 1511.16 1054.33 1494.79L1052.95 1494.49C1046.57 1503.24 1040.65 1509.61 1035.2 1513.63 1029.74 1517.64 1023.85 1519.64 1017.54 1519.64 1010.37 1519.64 1004.8 1516.95 1000.82 1511.55 996.844 1506.16 994.855 1498.47 994.855 1488.47 994.855 1477.23 997.058 1466.43 1001.46 1456.07 1005.87 1445.72 1011.98 1437.48 1019.81 1431.37 1027.63 1425.25 1036.35 1422.19 1045.95 1422.19Z" fill-rule="evenodd"/><text fill="#000000" fill-opacity="0" font-family="Arial,Arial_MSFontService,sans-serif" font-size="140.059" x="975.03" y="1544.74">𝑔</text><path d="M971.619 1319.25 1098.62 1319.25 1098.62 1332.25 971.619 1332.25Z" fill-rule="evenodd"/><path d="M1195.33 1144.13C1189.22 1144.13 1183.54 1146.54 1178.32 1151.38 1173.09 1156.21 1168.83 1163.46 1165.54 1173.12 1162.26 1182.79 1160.61 1192.36 1160.61 1201.83 1160.61 1207.74 1161.25 1212.36 1162.53 1215.68 1163.82 1219.01 1165.51 1221.29 1167.61 1222.54 1169.72 1223.79 1172.35 1224.41 1175.51 1224.41 1182.61 1224.41 1188.67 1221.57 1193.7 1215.88 1198.73 1210.19 1203.02 1201.65 1206.57 1190.24 1210.13 1178.83 1211.9 1169.84 1211.9 1163.26 1211.9 1156.55 1210.54 1151.69 1207.81 1148.66 1205.08 1145.64 1200.92 1144.13 1195.33 1144.13ZM1254.76 1095.99 1295.59 1095.99 1294.51 1100.83C1291.61 1101.16 1289.36 1102.01 1287.75 1103.39 1286.14 1104.77 1285.01 1106.7 1284.35 1109.16 1283.69 1111.63 1283.36 1114.93 1283.36 1119.07 1283.36 1120.06 1283.46 1123.02 1283.66 1127.95L1286.42 1200.15 1286.42 1208.04 1287.41 1208.04 1330.11 1131.01C1332.61 1126.47 1334.49 1122.58 1335.74 1119.32 1336.99 1116.07 1337.61 1113.19 1337.61 1110.69 1337.61 1105.17 1334.32 1101.88 1327.75 1100.83L1328.83 1095.99 1369.17 1095.99 1368.09 1100.83C1366.31 1101.09 1364.62 1101.76 1363.01 1102.85 1361.4 1103.93 1359.59 1105.74 1357.58 1108.27 1355.58 1110.81 1352.47 1115.69 1348.26 1122.92L1285.14 1232.21 1272.02 1232.21 1265.41 1122.23C1265.15 1117.96 1264.67 1114.29 1263.98 1111.23 1263.29 1108.18 1262.21 1105.79 1260.73 1104.08 1259.25 1102.37 1256.9 1101.29 1253.67 1100.83ZM1200.46 1088.89C1211.44 1088.89 1219.66 1092.62 1225.12 1100.09 1230.58 1107.55 1233.3 1118.84 1233.3 1133.97 1233.3 1139.95 1232.78 1147.07 1231.73 1155.32 1230.67 1163.57 1228.9 1172.17 1226.4 1181.11 1223.9 1190.06 1221.01 1197.65 1217.72 1203.9 1214.43 1210.15 1210.78 1215.31 1206.77 1219.38 1202.76 1223.46 1198.14 1226.62 1192.91 1228.85 1187.69 1231.09 1181.78 1232.21 1175.21 1232.21 1165.35 1232.21 1157.54 1229.25 1151.78 1223.33 1146.03 1217.41 1143.15 1208.73 1143.15 1197.29 1143.15 1186.97 1145.32 1177.04 1149.66 1167.5 1154 1157.97 1159.95 1150.39 1167.52 1144.77 1175.08 1139.15 1183.36 1136.33 1192.37 1136.33 1197.11 1136.33 1201.25 1136.88 1204.8 1137.96 1208.35 1139.05 1212.3 1141.17 1216.64 1144.32L1216.83 1141.86C1217.03 1138.7 1217.13 1135.97 1217.13 1133.67 1217.13 1121.24 1215.48 1112.22 1212.2 1106.6 1208.91 1100.97 1203.78 1098.16 1196.81 1098.16 1192.01 1098.16 1187.55 1099.3 1183.45 1101.57 1179.34 1103.84 1175.31 1107.34 1171.36 1112.07L1164.26 1112.07 1164.26 1103.88C1170.51 1099.48 1175.36 1096.34 1178.81 1094.47 1182.26 1092.59 1185.71 1091.19 1189.17 1090.27 1192.62 1089.35 1196.38 1088.89 1200.46 1088.89Z" fill-rule="evenodd"/><text fill="#000000" fill-opacity="0" font-family="Arial,Arial_MSFontService,sans-serif" font-size="143.313" x="1143.15" y="1214.29">𝜕𝑉</text><path d="M1219.26 1431.66C1213.14 1431.66 1207.47 1434.08 1202.24 1438.91 1197.01 1443.74 1192.76 1450.99 1189.47 1460.66 1186.18 1470.33 1184.54 1479.89 1184.54 1489.36 1184.54 1495.28 1185.18 1499.9 1186.46 1503.22 1187.74 1506.54 1189.44 1508.83 1191.54 1510.08 1193.64 1511.32 1196.27 1511.95 1199.43 1511.95 1206.53 1511.95 1212.6 1509.11 1217.63 1503.42 1222.66 1497.73 1226.95 1489.18 1230.5 1477.77 1234.05 1466.36 1235.83 1457.37 1235.83 1450.8 1235.83 1444.09 1234.46 1439.22 1231.73 1436.2 1229 1433.17 1224.84 1431.66 1219.26 1431.66ZM1306.79 1399.51 1320.41 1399.51 1314.98 1423.87 1344.97 1423.87 1342.8 1433.83 1312.81 1433.83 1304.03 1472.1C1302.32 1479.53 1301.24 1484.87 1300.78 1488.13 1300.32 1491.38 1300.09 1494 1300.09 1495.97 1300.09 1504.12 1303.47 1508.2 1310.25 1508.2 1313.14 1508.2 1316.21 1507.1 1319.47 1504.9 1322.72 1502.69 1326.59 1498.93 1331.06 1493.6L1336.78 1499.52C1331.06 1506.43 1325.55 1511.52 1320.26 1514.81 1314.96 1518.1 1309.42 1519.74 1303.64 1519.74 1289.9 1519.74 1283.02 1512.8 1283.02 1498.93 1283.02 1494.52 1283.58 1489.89 1284.7 1485.02L1296.34 1433.83 1279.77 1433.83 1281.25 1427.03C1285.13 1426.96 1288.07 1426.66 1290.08 1426.14 1292.08 1425.61 1293.76 1424.89 1295.11 1423.97 1296.45 1423.05 1297.69 1421.73 1298.81 1420.02 1299.92 1418.31 1301.01 1416.13 1302.06 1413.46 1303.11 1410.8 1304.69 1406.15 1306.79 1399.51ZM1224.38 1376.43C1235.37 1376.43 1243.58 1380.16 1249.04 1387.62 1254.5 1395.09 1257.23 1406.38 1257.23 1421.5 1257.23 1427.49 1256.7 1434.6 1255.65 1442.86 1254.6 1451.11 1252.82 1459.71 1250.32 1468.65 1247.83 1477.59 1244.93 1485.19 1241.65 1491.43 1238.36 1497.68 1234.71 1502.84 1230.7 1506.92 1226.69 1511 1222.07 1514.15 1216.84 1516.39 1211.61 1518.62 1205.71 1519.74 1199.13 1519.74 1189.27 1519.74 1181.46 1516.78 1175.71 1510.86 1169.96 1504.95 1167.08 1496.27 1167.08 1484.83 1167.08 1474.5 1169.25 1464.57 1173.59 1455.04 1177.93 1445.5 1183.88 1437.93 1191.44 1432.3 1199 1426.68 1207.29 1423.87 1216.3 1423.87 1221.03 1423.87 1225.17 1424.41 1228.72 1425.5 1232.27 1426.58 1236.22 1428.7 1240.56 1431.86L1240.76 1429.39C1240.95 1426.24 1241.05 1423.51 1241.05 1421.21 1241.05 1408.78 1239.41 1399.75 1236.12 1394.13 1232.83 1388.51 1227.7 1385.7 1220.73 1385.7 1215.93 1385.7 1211.48 1386.83 1207.37 1389.1 1203.26 1391.37 1199.23 1394.87 1195.29 1399.61L1188.19 1399.61 1188.19 1391.42C1194.43 1387.01 1199.28 1383.87 1202.73 1382 1206.19 1380.13 1209.64 1378.73 1213.09 1377.81 1216.54 1376.89 1220.31 1376.43 1224.38 1376.43Z" fill-rule="evenodd"/><text fill="#000000" fill-opacity="0" font-family="Arial,Arial_MSFontService,sans-serif" font-size="143.313" x="1167.08" y="1501.83">𝜕𝑡</text><path d="M1132.62 1319.25 1377.62 1319.25 1377.62 1332.25 1132.62 1332.25Z" fill-rule="evenodd"/><path d="M1490.31 1262.13 1504.31 1262.13 1504.31 1318.94 1558.07 1318.94 1558.07 1332.06 1504.31 1332.06 1504.31 1388.87 1490.31 1388.87 1490.31 1332.06 1436.55 1332.06 1436.55 1318.94 1490.31 1318.94Z" fill-rule="evenodd"/><text fill="#000000" fill-opacity="0" font-family="Arial,Arial_MSFontService,sans-serif" font-size="126.743" x="1436.55" y="1373.03">+</text><path d="M1679.2 1142.55C1673.15 1142.55 1667.53 1145.24 1662.33 1150.64 1657.14 1156.03 1652.98 1163.33 1649.86 1172.53 1646.73 1181.74 1645.17 1191.17 1645.17 1200.84 1645.17 1207.48 1646.16 1212.41 1648.13 1215.64 1650.1 1218.86 1653.06 1220.47 1657.01 1220.47 1662.66 1220.47 1668.48 1217.15 1674.47 1210.51 1680.45 1203.87 1686.01 1194.63 1691.14 1182.79 1692.25 1175.95 1692.81 1169.9 1692.81 1164.64 1692.81 1157.15 1691.71 1151.59 1689.51 1147.97 1687.31 1144.36 1683.87 1142.55 1679.2 1142.55ZM1679.89 1134.76C1687.26 1134.76 1693.03 1137.06 1697.2 1141.66 1701.38 1146.26 1703.69 1153 1704.16 1161.88L1705.04 1161.78 1717.96 1136.33 1735.03 1136.33 1734.04 1141.37C1725.89 1152.41 1716.29 1165.99 1705.24 1182.1 1703.6 1194.66 1702.77 1203.54 1702.77 1208.73 1702.77 1213.07 1703.27 1216.18 1704.25 1218.05 1705.24 1219.93 1706.88 1220.86 1709.19 1220.86 1711.03 1220.86 1713.11 1220.09 1715.45 1218.55 1717.78 1217 1720.3 1214.62 1722.99 1211.39L1728.71 1216.72C1723.19 1222.64 1718.39 1226.7 1714.31 1228.9 1710.24 1231.1 1706.03 1232.21 1701.69 1232.21 1692.94 1232.21 1688.57 1225.83 1688.57 1213.07 1688.57 1210.24 1688.77 1207.12 1689.16 1203.7L1688.18 1203.7C1681.4 1213.83 1674.99 1221.11 1668.94 1225.55 1662.89 1229.99 1656.42 1232.21 1649.51 1232.21 1644.71 1232.21 1640.67 1230.83 1637.38 1228.06 1634.09 1225.3 1631.66 1221.64 1630.08 1217.07 1628.5 1212.5 1627.71 1207.51 1627.71 1202.12 1627.71 1190.35 1629.95 1179.19 1634.42 1168.64 1638.89 1158.08 1645.11 1149.8 1653.06 1143.78 1661.02 1137.77 1669.96 1134.76 1679.89 1134.76ZM1748.81 1095.99 1789.65 1095.99 1788.56 1100.83C1785.67 1101.16 1783.42 1102.01 1781.81 1103.39 1780.19 1104.77 1779.06 1106.7 1778.4 1109.16 1777.75 1111.63 1777.42 1114.93 1777.42 1119.07 1777.42 1120.06 1777.52 1123.02 1777.71 1127.95L1780.47 1200.15 1780.47 1208.04 1781.46 1208.04 1824.17 1131.01C1826.67 1126.47 1828.54 1122.58 1829.79 1119.32 1831.04 1116.07 1831.66 1113.19 1831.66 1110.69 1831.66 1105.17 1828.38 1101.88 1821.8 1100.83L1822.89 1095.99 1863.23 1095.99 1862.14 1100.83C1860.37 1101.09 1858.67 1101.76 1857.06 1102.85 1855.45 1103.93 1853.64 1105.74 1851.64 1108.27 1849.63 1110.81 1846.53 1115.69 1842.32 1122.92L1779.19 1232.21 1766.07 1232.21 1759.47 1122.23C1759.2 1117.96 1758.73 1114.29 1758.04 1111.23 1757.34 1108.18 1756.26 1105.79 1754.78 1104.08 1753.3 1102.37 1750.95 1101.29 1747.73 1100.83Z" fill-rule="evenodd"/><text fill="#000000" fill-opacity="0" font-family="Arial,Arial_MSFontService,sans-serif" font-size="136.212" x="1627.71" y="1215.18">𝛼𝑉</text><path d="M1756.15 1429.99C1749.45 1429.99 1743.43 1432.7 1738.1 1438.12 1732.78 1443.55 1728.59 1450.86 1725.53 1460.07 1722.47 1469.27 1720.94 1478.45 1720.94 1487.59 1720.94 1494.43 1721.93 1499.54 1723.9 1502.92 1725.87 1506.31 1728.96 1508 1733.17 1508 1736.53 1508 1739.86 1506.85 1743.18 1504.55 1746.5 1502.25 1750.06 1498.6 1753.84 1493.6 1757.62 1488.61 1760.56 1483.84 1762.66 1479.3 1764.77 1474.76 1766.56 1469.11 1768.04 1462.34 1769.52 1455.56 1770.26 1449.68 1770.26 1444.68 1770.26 1439.55 1769.17 1435.82 1767 1433.49 1764.83 1431.15 1761.22 1429.99 1756.15 1429.99ZM1754.58 1422.19C1758.72 1422.19 1762.63 1422.69 1766.31 1423.67 1770 1424.66 1773.71 1426.34 1777.46 1428.7L1786.53 1422.19 1792.85 1423.77 1782.69 1469.73C1781.96 1472.96 1780.32 1481.08 1777.75 1494.1 1775.06 1507.91 1772.87 1517.67 1771.2 1523.39 1769.52 1529.11 1767.43 1534.32 1764.93 1539.02 1762.43 1543.73 1759.21 1547.82 1755.27 1551.3 1751.32 1554.79 1746.54 1557.48 1740.92 1559.39 1735.29 1561.3 1728.64 1562.25 1720.94 1562.25 1696.09 1562.25 1683.66 1555.02 1683.66 1540.55 1683.66 1536.87 1684.78 1533.52 1687.01 1530.49 1689.25 1527.47 1692.83 1524.28 1697.76 1520.92L1704.86 1526.65C1703.62 1528.16 1702.56 1529.65 1701.71 1531.13 1700.85 1532.61 1700.25 1534.04 1699.88 1535.42 1699.52 1536.8 1699.34 1538.45 1699.34 1540.36 1699.34 1545.29 1701.12 1548.89 1704.67 1551.16 1708.22 1553.42 1713.58 1554.56 1720.74 1554.56 1728.83 1554.56 1735.33 1552.73 1740.22 1549.08 1745.12 1545.44 1749.32 1539.57 1752.8 1531.48 1756.29 1523.39 1759.67 1511.16 1762.96 1494.79L1761.58 1494.49C1755.2 1503.24 1749.28 1509.61 1743.82 1513.63 1738.37 1517.64 1732.48 1519.64 1726.17 1519.64 1719 1519.64 1713.43 1516.95 1709.45 1511.55 1705.47 1506.16 1703.48 1498.47 1703.48 1488.47 1703.48 1477.23 1705.69 1466.43 1710.09 1456.07 1714.5 1445.72 1720.61 1437.48 1728.44 1431.37 1736.26 1425.25 1744.98 1422.19 1754.58 1422.19Z" fill-rule="evenodd"/><text fill="#000000" fill-opacity="0" font-family="Arial,Arial_MSFontService,sans-serif" font-size="140.059" x="1683.66" y="1544.74">𝑔</text><path d="M1617.62 1319.25 1870.62 1319.25 1870.62 1332.25 1617.62 1332.25Z" fill-rule="evenodd"/><path d="M1967.32 1144.13C1961.21 1144.13 1955.54 1146.54 1950.31 1151.38 1945.08 1156.21 1940.82 1163.46 1937.54 1173.12 1934.25 1182.79 1932.61 1192.36 1932.61 1201.83 1932.61 1207.74 1933.25 1212.36 1934.53 1215.68 1935.81 1219.01 1937.5 1221.29 1939.61 1222.54 1941.71 1223.79 1944.34 1224.41 1947.5 1224.41 1954.6 1224.41 1960.67 1221.57 1965.7 1215.88 1970.73 1210.19 1975.02 1201.65 1978.57 1190.24 1982.12 1178.83 1983.89 1169.84 1983.89 1163.26 1983.89 1156.55 1982.53 1151.69 1979.8 1148.66 1977.07 1145.64 1972.91 1144.13 1967.32 1144.13ZM1972.45 1088.89C1983.43 1088.89 1991.65 1092.62 1997.11 1100.09 2002.57 1107.55 2005.3 1118.84 2005.3 1133.97 2005.3 1139.95 2004.77 1147.07 2003.72 1155.32 2002.67 1163.57 2000.89 1172.17 1998.39 1181.11 1995.89 1190.06 1993 1197.65 1989.71 1203.9 1986.43 1210.15 1982.78 1215.31 1978.77 1219.38 1974.75 1223.46 1970.14 1226.62 1964.91 1228.85 1959.68 1231.09 1953.78 1232.21 1947.2 1232.21 1937.34 1232.21 1929.53 1229.25 1923.78 1223.33 1918.02 1217.41 1915.15 1208.73 1915.15 1197.29 1915.15 1186.97 1917.32 1177.04 1921.66 1167.5 1926 1157.97 1931.95 1150.39 1939.51 1144.77 1947.07 1139.15 1955.36 1136.33 1964.37 1136.33 1969.1 1136.33 1973.24 1136.88 1976.79 1137.96 1980.34 1139.05 1984.29 1141.17 1988.63 1144.32L1988.83 1141.86C1989.02 1138.7 1989.12 1135.97 1989.12 1133.67 1989.12 1121.24 1987.48 1112.22 1984.19 1106.6 1980.9 1100.97 1975.77 1098.16 1968.8 1098.16 1964 1098.16 1959.55 1099.3 1955.44 1101.57 1951.33 1103.84 1947.3 1107.34 1943.36 1112.07L1936.25 1112.07 1936.25 1103.88C1942.5 1099.48 1947.35 1096.34 1950.8 1094.47 1954.26 1092.59 1957.71 1091.19 1961.16 1090.27 1964.61 1089.35 1968.38 1088.89 1972.45 1088.89Z" fill-rule="evenodd"/><text fill="#000000" fill-opacity="0" font-family="Arial,Arial_MSFontService,sans-serif" font-size="143.313" x="1915.15" y="1214.29">𝜕</text><path d="M2027.04 1095.99 2067.88 1095.99 2066.79 1100.83C2063.9 1101.16 2061.65 1102.01 2060.04 1103.39 2058.43 1104.77 2057.29 1106.7 2056.63 1109.16 2055.98 1111.63 2055.65 1114.93 2055.65 1119.07 2055.65 1120.06 2055.75 1123.02 2055.94 1127.95L2058.71 1200.15 2058.71 1208.04 2059.69 1208.04 2102.4 1131.01C2104.9 1126.47 2106.77 1122.58 2108.02 1119.32 2109.27 1116.07 2109.9 1113.19 2109.9 1110.69 2109.9 1105.17 2106.61 1101.88 2100.03 1100.83L2101.12 1095.99 2141.46 1095.99 2140.37 1100.83C2138.6 1101.09 2136.91 1101.76 2135.29 1102.85 2133.68 1103.93 2131.87 1105.74 2129.87 1108.27 2127.86 1110.81 2124.76 1115.69 2120.55 1122.92L2057.42 1232.21 2044.31 1232.21 2037.7 1122.23C2037.43 1117.96 2036.96 1114.29 2036.27 1111.23 2035.58 1108.18 2034.49 1105.79 2033.01 1104.08 2031.53 1102.37 2029.18 1101.29 2025.96 1100.83Z" fill-rule="evenodd"/><text fill="#000000" fill-opacity="0" font-family="Arial,Arial_MSFontService,sans-serif" font-size="136.212" x="2025.96" y="1215.18">𝑉</text><path d="M1976.93 1431.66C1970.81 1431.66 1965.14 1434.08 1959.91 1438.91 1954.68 1443.74 1950.43 1450.99 1947.14 1460.66 1943.85 1470.33 1942.21 1479.89 1942.21 1489.36 1942.21 1495.28 1942.85 1499.9 1944.13 1503.22 1945.41 1506.54 1947.11 1508.83 1949.21 1510.08 1951.31 1511.32 1953.94 1511.95 1957.1 1511.95 1964.2 1511.95 1970.27 1509.11 1975.3 1503.42 1980.33 1497.73 1984.62 1489.18 1988.17 1477.77 1991.72 1466.36 1993.5 1457.37 1993.5 1450.8 1993.5 1444.09 1992.13 1439.22 1989.4 1436.2 1986.67 1433.17 1982.52 1431.66 1976.93 1431.66ZM2064.86 1422.19C2066.9 1422.19 2068.69 1422.42 2070.24 1422.88 2071.78 1423.34 2073.14 1424.05 2074.33 1425 2075.51 1425.96 2076.56 1427.19 2077.48 1428.7 2078.41 1430.22 2079.29 1432.27 2080.15 1434.87 2081 1437.47 2081.81 1440.69 2082.56 1444.53 2083.32 1448.38 2083.99 1452.38 2084.59 1456.52L2085.57 1456.52C2091.89 1447.64 2096.67 1441.15 2099.92 1437.04 2103.18 1432.93 2105.92 1429.87 2108.16 1427.86 2110.4 1425.86 2112.55 1424.45 2114.62 1423.62 2116.69 1422.8 2119.44 1422.39 2122.86 1422.39 2125.95 1422.39 2128.48 1422.79 2130.45 1423.57L2126.51 1441.43 2119.6 1441.43C2119.21 1438.67 2118.06 1437.28 2116.15 1437.28 2115.56 1437.28 2114.93 1437.38 2114.27 1437.58 2113.62 1437.78 2112.81 1438.2 2111.86 1438.86 2110.9 1439.52 2109.51 1440.8 2107.67 1442.71 2105.83 1444.62 2103.75 1446.95 2101.45 1449.71 2099.15 1452.47 2096.78 1455.37 2094.35 1458.39L2087.64 1466.78C2088.83 1473.09 2089.95 1478.55 2091 1483.15 2092.05 1487.75 2092.99 1491.58 2093.81 1494.64 2094.63 1497.7 2095.35 1500.11 2095.98 1501.89 2096.6 1503.66 2097.28 1505 2098 1505.88 2098.72 1506.77 2099.46 1507.4 2100.22 1507.76 2100.98 1508.12 2101.85 1508.3 2102.83 1508.3 2104.61 1508.3 2106.33 1507.61 2108.01 1506.23 2109.69 1504.85 2112.1 1501.72 2115.26 1496.86L2121.67 1501.1C2117.07 1507.94 2112.91 1512.75 2109.2 1515.55 2105.48 1518.34 2101.06 1519.74 2095.93 1519.74 2093.1 1519.74 2090.7 1519.23 2088.73 1518.21 2086.76 1517.19 2085.05 1515.57 2083.6 1513.33 2082.15 1511.09 2080.87 1507.61 2079.75 1502.88 2077.71 1494.46 2076.47 1488.01 2076.01 1483.54L2075.02 1483.54C2068.05 1493.34 2062.87 1500.38 2059.48 1504.65 2056.1 1508.92 2053.3 1512.08 2051.1 1514.12 2048.9 1516.16 2046.76 1517.59 2044.69 1518.41 2042.62 1519.23 2039.87 1519.64 2036.45 1519.64 2033.36 1519.64 2030.83 1519.25 2028.86 1518.46L2032.8 1500.61 2039.71 1500.61C2040.1 1503.37 2041.25 1504.75 2043.16 1504.75 2044.08 1504.75 2045.05 1504.5 2046.07 1504.01 2047.09 1503.52 2048.55 1502.33 2050.46 1500.46 2052.37 1498.58 2055 1495.64 2058.35 1491.63 2061.7 1487.62 2066.57 1481.6 2072.95 1473.58 2071.96 1468.39 2070.94 1463.39 2069.89 1458.59 2068.84 1453.79 2067.75 1449.32 2066.64 1445.17 2065.52 1441.03 2064.6 1438.32 2063.87 1437.04 2063.15 1435.76 2062.38 1434.87 2061.56 1434.37 2060.73 1433.88 2059.7 1433.63 2058.45 1433.63 2057.07 1433.63 2055.82 1433.95 2054.7 1434.57 2053.58 1435.2 2052.37 1436.28 2051.05 1437.83 2049.74 1439.37 2047.99 1441.79 2045.82 1445.08L2039.41 1440.84C2043.56 1434.59 2047.53 1429.92 2051.35 1426.83 2055.16 1423.74 2059.67 1422.19 2064.86 1422.19ZM1982.06 1376.43C1993.04 1376.43 2001.26 1380.16 2006.71 1387.62 2012.17 1395.09 2014.9 1406.38 2014.9 1421.5 2014.9 1427.49 2014.37 1434.6 2013.32 1442.86 2012.27 1451.11 2010.49 1459.71 2008 1468.65 2005.5 1477.59 2002.6 1485.19 1999.32 1491.43 1996.03 1497.68 1992.38 1502.84 1988.37 1506.92 1984.36 1511 1979.74 1514.15 1974.51 1516.39 1969.28 1518.62 1963.38 1519.74 1956.81 1519.74 1946.94 1519.74 1939.13 1516.78 1933.38 1510.86 1927.63 1504.95 1924.75 1496.27 1924.75 1484.83 1924.75 1474.5 1926.92 1464.57 1931.26 1455.04 1935.6 1445.5 1941.55 1437.93 1949.11 1432.3 1956.67 1426.68 1964.96 1423.87 1973.97 1423.87 1978.7 1423.87 1982.84 1424.41 1986.39 1425.5 1989.95 1426.58 1993.89 1428.7 1998.23 1431.86L1998.43 1429.39C1998.63 1426.24 1998.72 1423.51 1998.72 1421.21 1998.72 1408.78 1997.08 1399.75 1993.79 1394.13 1990.5 1388.51 1985.38 1385.7 1978.41 1385.7 1973.61 1385.7 1969.15 1386.83 1965.04 1389.1 1960.93 1391.37 1956.9 1394.87 1952.96 1399.61L1945.86 1399.61 1945.86 1391.42C1952.1 1387.01 1956.95 1383.87 1960.41 1382 1963.86 1380.13 1967.31 1378.73 1970.76 1377.81 1974.21 1376.89 1977.98 1376.43 1982.06 1376.43Z" fill-rule="evenodd"/><text fill="#000000" fill-opacity="0" font-family="Arial,Arial_MSFontService,sans-serif" font-size="143.313" x="1924.75" y="1501.83">𝜕𝑥</text><path d="M1904.62 1319.25 2149.62 1319.25 2149.62 1332.25 1904.62 1332.25Z" fill-rule="evenodd"/><path d="M2262.3 1262.13 2276.31 1262.13 2276.31 1318.94 2330.06 1318.94 2330.06 1332.06 2276.31 1332.06 2276.31 1388.87 2262.3 1388.87 2262.3 1332.06 2208.55 1332.06 2208.55 1318.94 2262.3 1318.94Z" fill-rule="evenodd"/><text fill="#000000" fill-opacity="0" font-family="Arial,Arial_MSFontService,sans-serif" font-size="126.743" x="2208.55" y="1373.03">+</text><path d="M2452.38 1144.13C2446.26 1144.13 2440.59 1146.54 2435.36 1151.38 2430.14 1156.21 2425.88 1163.46 2422.59 1173.12 2419.3 1182.79 2417.66 1192.36 2417.66 1201.83 2417.66 1207.74 2418.3 1212.36 2419.58 1215.68 2420.86 1219.01 2422.56 1221.29 2424.66 1222.54 2426.77 1223.79 2429.4 1224.41 2432.55 1224.41 2439.65 1224.41 2445.72 1221.57 2450.75 1215.88 2455.78 1210.19 2460.07 1201.65 2463.62 1190.24 2467.17 1178.83 2468.95 1169.84 2468.95 1163.26 2468.95 1156.55 2467.58 1151.69 2464.86 1148.66 2462.13 1145.64 2457.97 1144.13 2452.38 1144.13ZM2457.51 1088.89C2468.49 1088.89 2476.71 1092.62 2482.17 1100.09 2487.62 1107.55 2490.35 1118.84 2490.35 1133.97 2490.35 1139.95 2489.83 1147.07 2488.77 1155.32 2487.72 1163.57 2485.95 1172.17 2483.45 1181.11 2480.95 1190.06 2478.06 1197.65 2474.77 1203.9 2471.48 1210.15 2467.83 1215.31 2463.82 1219.38 2459.81 1223.46 2455.19 1226.62 2449.96 1228.85 2444.73 1231.09 2438.83 1232.21 2432.26 1232.21 2422.39 1232.21 2414.59 1229.25 2408.83 1223.33 2403.08 1217.41 2400.2 1208.73 2400.2 1197.29 2400.2 1186.97 2402.37 1177.04 2406.71 1167.5 2411.05 1157.97 2417 1150.39 2424.56 1144.77 2432.13 1139.15 2440.41 1136.33 2449.42 1136.33 2454.15 1136.33 2458.3 1136.88 2461.85 1137.96 2465.4 1139.05 2469.34 1141.17 2473.68 1144.32L2473.88 1141.86C2474.08 1138.7 2474.18 1135.97 2474.18 1133.67 2474.18 1121.24 2472.53 1112.22 2469.24 1106.6 2465.96 1100.97 2460.83 1098.16 2453.86 1098.16 2449.06 1098.16 2444.6 1099.3 2440.49 1101.57 2436.38 1103.84 2432.36 1107.34 2428.41 1112.07L2421.31 1112.07 2421.31 1103.88C2427.56 1099.48 2432.41 1096.34 2435.86 1094.47 2439.31 1092.59 2442.76 1091.19 2446.21 1090.27 2449.67 1089.35 2453.43 1088.89 2457.51 1088.89Z" fill-rule="evenodd"/><text fill="#000000" fill-opacity="0" font-family="Arial,Arial_MSFontService,sans-serif" font-size="143.313" x="2400.2" y="1214.29">𝜕</text><path d="M2534.19 1134.76C2536.89 1134.76 2539.19 1135.12 2541.1 1135.84 2542.41 1136.37 2543.73 1137.24 2545.04 1138.46 2546.36 1139.67 2547.52 1141.37 2548.54 1143.54 2549.56 1145.7 2550.45 1148.14 2551.21 1150.83 2551.96 1153.53 2552.8 1157.41 2553.72 1162.47 2555.3 1170.95 2556.83 1179.88 2558.31 1189.25 2559.79 1198.62 2561.05 1207.32 2562.11 1215.34 2568.48 1206.13 2573.89 1197.13 2578.33 1188.31 2582.77 1179.5 2585.96 1171.84 2587.9 1165.33 2589.84 1158.82 2590.81 1153.53 2590.81 1149.45 2590.81 1146.36 2590.15 1144.26 2588.83 1143.14 2587.52 1142.02 2585.28 1141.37 2582.13 1141.17L2583.11 1136.33 2609.05 1136.33 2611.72 1141.27C2606.72 1154.94 2599.95 1169.57 2591.4 1185.16 2582.98 1200.41 2573.35 1215.6 2562.5 1230.73 2552.11 1245.13 2543.46 1255.55 2536.56 1261.99 2531.76 1266.4 2527.12 1269.55 2522.65 1271.46 2519.1 1272.91 2515.32 1273.63 2511.31 1273.63 2509.93 1273.63 2508.33 1273.52 2506.53 1273.29 2504.72 1273.06 2503.32 1272.74 2502.33 1272.35L2506.58 1253.21 2514.37 1253.21C2514.37 1257.42 2515.81 1259.53 2518.71 1259.53 2522.52 1259.53 2526.96 1257.14 2532.02 1252.38 2537.09 1247.61 2543.04 1240.43 2549.88 1230.83 2547.97 1219.32 2545.37 1205.44 2542.08 1189.2 2538.6 1171.84 2536.3 1161.09 2535.18 1156.95 2533.8 1151.95 2532.35 1148.76 2530.84 1147.38 2529.92 1146.53 2528.77 1146.1 2527.39 1146.1 2525.28 1146.1 2523.31 1146.95 2521.47 1148.66 2519.63 1150.37 2517.36 1153.33 2514.66 1157.54L2508.25 1153.3C2512.79 1146.53 2517.03 1141.74 2520.98 1138.95 2524.92 1136.15 2529.33 1134.76 2534.19 1134.76Z" fill-rule="evenodd"/><text fill="#000000" fill-opacity="0" font-family="Arial,Arial_MSFontService,sans-serif" font-size="138.875" x="2502.33" y="1256.27">𝑦</text><path d="M2453.91 1431.66C2447.8 1431.66 2442.13 1434.08 2436.9 1438.91 2431.67 1443.74 2427.41 1450.99 2424.13 1460.66 2420.84 1470.33 2419.19 1479.89 2419.19 1489.36 2419.19 1495.28 2419.84 1499.9 2421.12 1503.22 2422.4 1506.54 2424.09 1508.83 2426.2 1510.08 2428.3 1511.32 2430.93 1511.95 2434.09 1511.95 2441.19 1511.95 2447.26 1509.11 2452.29 1503.42 2457.32 1497.73 2461.61 1489.18 2465.16 1477.77 2468.71 1466.36 2470.48 1457.37 2470.48 1450.8 2470.48 1444.09 2469.12 1439.22 2466.39 1436.2 2463.66 1433.17 2459.5 1431.66 2453.91 1431.66ZM2541.85 1422.19C2543.89 1422.19 2545.68 1422.42 2547.22 1422.88 2548.77 1423.34 2550.13 1424.05 2551.32 1425 2552.5 1425.96 2553.55 1427.19 2554.47 1428.7 2555.39 1430.22 2556.28 1432.27 2557.14 1434.87 2557.99 1437.47 2558.8 1440.69 2559.55 1444.53 2560.31 1448.38 2560.98 1452.38 2561.57 1456.52L2562.56 1456.52C2568.87 1447.64 2573.66 1441.15 2576.91 1437.04 2580.17 1432.93 2582.91 1429.87 2585.15 1427.86 2587.38 1425.86 2589.54 1424.45 2591.61 1423.62 2593.68 1422.8 2596.42 1422.39 2599.84 1422.39 2602.93 1422.39 2605.47 1422.79 2607.44 1423.57L2603.49 1441.43 2596.59 1441.43C2596.19 1438.67 2595.04 1437.28 2593.14 1437.28 2592.54 1437.28 2591.92 1437.38 2591.26 1437.58 2590.6 1437.78 2589.8 1438.2 2588.85 1438.86 2587.89 1439.52 2586.49 1440.8 2584.65 1442.71 2582.81 1444.62 2580.74 1446.95 2578.44 1449.71 2576.14 1452.47 2573.77 1455.37 2571.34 1458.39L2564.63 1466.78C2565.81 1473.09 2566.93 1478.55 2567.98 1483.15 2569.04 1487.75 2569.97 1491.58 2570.8 1494.64 2571.62 1497.7 2572.34 1500.11 2572.97 1501.89 2573.59 1503.66 2574.26 1505 2574.99 1505.88 2575.71 1506.77 2576.45 1507.4 2577.21 1507.76 2577.96 1508.12 2578.83 1508.3 2579.82 1508.3 2581.6 1508.3 2583.32 1507.61 2585 1506.23 2586.68 1504.85 2589.09 1501.72 2592.25 1496.86L2598.66 1501.1C2594.06 1507.94 2589.9 1512.75 2586.18 1515.55 2582.47 1518.34 2578.05 1519.74 2572.92 1519.74 2570.09 1519.74 2567.69 1519.23 2565.72 1518.21 2563.74 1517.19 2562.03 1515.57 2560.59 1513.33 2559.14 1511.09 2557.86 1507.61 2556.74 1502.88 2554.7 1494.46 2553.45 1488.01 2552.99 1483.54L2552.01 1483.54C2545.04 1493.34 2539.86 1500.38 2536.47 1504.65 2533.09 1508.92 2530.29 1512.08 2528.09 1514.12 2525.89 1516.16 2523.75 1517.59 2521.68 1518.41 2519.61 1519.23 2516.86 1519.64 2513.44 1519.64 2510.35 1519.64 2507.82 1519.25 2505.85 1518.46L2509.79 1500.61 2516.7 1500.61C2517.09 1503.37 2518.24 1504.75 2520.15 1504.75 2521.07 1504.75 2522.04 1504.5 2523.06 1504.01 2524.08 1503.52 2525.54 1502.33 2527.45 1500.46 2529.35 1498.58 2531.98 1495.64 2535.34 1491.63 2538.69 1487.62 2543.56 1481.6 2549.94 1473.58 2548.95 1468.39 2547.93 1463.39 2546.88 1458.59 2545.83 1453.79 2544.74 1449.32 2543.62 1445.17 2542.5 1441.03 2541.58 1438.32 2540.86 1437.04 2540.14 1435.76 2539.36 1434.87 2538.54 1434.37 2537.72 1433.88 2536.69 1433.63 2535.44 1433.63 2534.06 1433.63 2532.81 1433.95 2531.69 1434.57 2530.57 1435.2 2529.35 1436.28 2528.04 1437.83 2526.72 1439.37 2524.98 1441.79 2522.81 1445.08L2516.4 1440.84C2520.54 1434.59 2524.52 1429.92 2528.33 1426.83 2532.15 1423.74 2536.65 1422.19 2541.85 1422.19ZM2459.04 1376.43C2470.02 1376.43 2478.24 1380.16 2483.7 1387.62 2489.16 1395.09 2491.89 1406.38 2491.89 1421.5 2491.89 1427.49 2491.36 1434.6 2490.31 1442.86 2489.26 1451.11 2487.48 1459.71 2484.98 1468.65 2482.48 1477.59 2479.59 1485.19 2476.3 1491.43 2473.02 1497.68 2469.37 1502.84 2465.35 1506.92 2461.34 1511 2456.72 1514.15 2451.5 1516.39 2446.27 1518.62 2440.37 1519.74 2433.79 1519.74 2423.93 1519.74 2416.12 1516.78 2410.37 1510.86 2404.61 1504.95 2401.74 1496.27 2401.74 1484.83 2401.74 1474.5 2403.91 1464.57 2408.25 1455.04 2412.59 1445.5 2418.54 1437.93 2426.1 1432.3 2433.66 1426.68 2441.95 1423.87 2450.95 1423.87 2455.69 1423.87 2459.83 1424.41 2463.38 1425.5 2466.93 1426.58 2470.88 1428.7 2475.22 1431.86L2475.42 1429.39C2475.61 1426.24 2475.71 1423.51 2475.71 1421.21 2475.71 1408.78 2474.07 1399.75 2470.78 1394.13 2467.49 1388.51 2462.36 1385.7 2455.39 1385.7 2450.59 1385.7 2446.14 1386.83 2442.03 1389.1 2437.92 1391.37 2433.89 1394.87 2429.95 1399.61L2422.84 1399.61 2422.84 1391.42C2429.09 1387.01 2433.94 1383.87 2437.39 1382 2440.84 1380.13 2444.3 1378.73 2447.75 1377.81 2451.2 1376.89 2454.97 1376.43 2459.04 1376.43Z" fill-rule="evenodd"/><text fill="#000000" fill-opacity="0" font-family="Arial,Arial_MSFontService,sans-serif" font-size="143.313" x="2401.74" y="1501.83">𝜕𝑥</text><path d="M2389.62 1319.25 2618.62 1319.25 2618.62 1332.25 2389.62 1332.25Z" fill-rule="evenodd"/><path d="M2731.22 1262.13 2745.23 1262.13 2745.23 1318.94 2798.98 1318.94 2798.98 1332.06 2745.23 1332.06 2745.23 1388.87 2731.22 1388.87 2731.22 1332.06 2677.47 1332.06 2677.47 1318.94 2731.22 1318.94Z" fill-rule="evenodd"/><text fill="#000000" fill-opacity="0" font-family="Arial,Arial_MSFontService,sans-serif" font-size="126.743" x="2677.47" y="1373.03">+</text><path d="M2928.3 1247.04C2934.35 1247.04 2939.96 1247.45 2945.12 1248.27 2950.28 1249.1 2955.98 1250.49 2962.23 1252.47L2956.71 1277.81 2947.24 1277.81C2946.98 1272.23 2946.12 1267.84 2944.68 1264.65 2943.23 1261.46 2941.16 1259.17 2938.46 1257.79 2935.77 1256.41 2932.18 1255.72 2927.71 1255.72 2922.25 1255.72 2917.45 1256.84 2913.31 1259.07 2909.17 1261.31 2906.01 1264.35 2903.84 1268.2 2901.67 1272.04 2900.59 1276.33 2900.59 1281.07 2900.59 1286 2901.88 1290.32 2904.48 1294.04 2907.08 1297.75 2912.06 1302.14 2919.43 1307.21 2925.87 1311.68 2930.78 1315.67 2934.17 1319.19 2937.56 1322.71 2940.06 1326.44 2941.67 1330.39 2943.28 1334.33 2944.08 1338.9 2944.08 1344.1 2944.08 1352.12 2942.16 1359.24 2938.31 1365.45 2934.47 1371.66 2929.04 1376.46 2922.04 1379.85 2915.04 1383.24 2907.06 1384.93 2898.12 1384.93 2892.07 1384.93 2885.54 1384.44 2878.54 1383.45 2871.54 1382.46 2865.28 1381.21 2859.75 1379.7L2865.67 1352.58 2875.14 1352.58C2875.14 1360.6 2877 1366.57 2880.71 1370.48 2884.43 1374.39 2890.16 1376.35 2897.92 1376.35 2906.87 1376.35 2913.9 1373.92 2919.03 1369.05 2924.16 1364.18 2926.72 1357.41 2926.72 1348.73 2926.72 1344.72 2926.02 1341.19 2924.6 1338.13 2923.19 1335.07 2921.05 1332.14 2918.19 1329.35 2915.33 1326.56 2911.21 1323.35 2905.81 1319.73 2900.95 1316.45 2896.9 1313.21 2893.68 1310.02 2890.46 1306.83 2887.9 1303.26 2885.99 1299.32 2884.08 1295.37 2883.13 1290.97 2883.13 1286.1 2883.13 1278.34 2885 1271.5 2888.75 1265.58 2892.5 1259.67 2897.79 1255.1 2904.63 1251.87 2911.47 1248.65 2919.36 1247.04 2928.3 1247.04Z" fill-rule="evenodd"/><text fill="#000000" fill-opacity="0" font-family="Arial,Arial_MSFontService,sans-serif" font-size="137.889" x="2859.75" y="1367.69">𝑆</text><path d="M3016.03 1324.07C3018.66 1324.07 3020.98 1324.2 3022.99 1324.46 3025 1324.72 3026.94 1325.05 3028.81 1325.43L3025.86 1338.78 3018.76 1338.78C3018.42 1336.05 3017.61 1334.06 3016.32 1332.79 3015.03 1331.52 3013.3 1330.89 3011.15 1330.89 3008.66 1330.89 3006.57 1331.42 3004.87 1332.5 3003.17 1333.58 3001.69 1335.2 3000.42 1337.38 2999.15 1339.56 2998.06 1342.11 2997.15 1345.03 2996.24 1347.94 2995.62 1350.48 2995.29 1352.63L3015.17 1352.63 3013.59 1360.6 2993.64 1360.6 2980.65 1422.11C2978.4 1432.59 2974.75 1440.36 2969.7 1445.41 2964.65 1450.45 2957.92 1452.98 2949.49 1452.98 2947.29 1452.98 2945.69 1452.83 2944.68 1452.55 2944.97 1451.35 2945.24 1450.12 2945.47 1448.85 2945.71 1447.58 2946 1446.35 2946.34 1445.15 2946.62 1445.25 2947.03 1445.3 2947.56 1445.3 2948.08 1445.3 2948.82 1445.3 2949.78 1445.3 2951.65 1445.3 2953.36 1445 2954.91 1444.4 2956.47 1443.8 2957.89 1442.73 2959.18 1441.17 2960.48 1439.62 2961.66 1437.49 2962.74 1434.78 2963.81 1432.08 2964.83 1428.6 2965.79 1424.34L2980.14 1360.6 2967.8 1360.6 2969.09 1355.07C2971.72 1354.93 2973.81 1354.76 2975.37 1354.57 2976.92 1354.38 2978.24 1353.96 2979.32 1353.32 2980.39 1352.67 2981.2 1351.58 2981.72 1350.05 2984.5 1341.29 2988.67 1334.77 2994.25 1330.49 2999.82 1326.21 3007.08 1324.07 3016.03 1324.07Z" fill-rule="evenodd"/><text fill="#000000" fill-opacity="0" font-family="Arial,Arial_MSFontService,sans-serif" font-size="128.912" x="2944.68" y="1436.86">𝑓</text><path d="M3114.99 1339.46 3236.51 1339.46 3236.51 1352.58 3114.99 1352.58ZM3114.99 1298.53 3236.51 1298.53 3236.51 1311.65 3114.99 1311.65Z" fill-rule="evenodd"/><text fill="#000000" fill-opacity="0" font-family="Arial,Arial_MSFontService,sans-serif" font-size="54.0508" x="3114.99" y="1345.82">=</text><path d="M3377.01 1247.04C3383.06 1247.04 3388.67 1247.45 3393.83 1248.27 3398.99 1249.1 3404.69 1250.49 3410.94 1252.47L3405.42 1277.81 3395.95 1277.81C3395.68 1272.23 3394.83 1267.84 3393.38 1264.65 3391.94 1261.46 3389.87 1259.17 3387.17 1257.79 3384.47 1256.41 3380.89 1255.72 3376.42 1255.72 3370.96 1255.72 3366.16 1256.84 3362.02 1259.07 3357.88 1261.31 3354.72 1264.35 3352.55 1268.2 3350.38 1272.04 3349.29 1276.33 3349.29 1281.07 3349.29 1286 3350.59 1290.32 3353.19 1294.04 3355.79 1297.75 3360.77 1302.14 3368.13 1307.21 3374.58 1311.68 3379.49 1315.67 3382.88 1319.19 3386.27 1322.71 3388.76 1326.44 3390.38 1330.39 3391.99 1334.33 3392.79 1338.9 3392.79 1344.1 3392.79 1352.12 3390.87 1359.24 3387.02 1365.45 3383.17 1371.66 3377.75 1376.46 3370.75 1379.85 3363.74 1383.24 3355.77 1384.93 3346.83 1384.93 3340.78 1384.93 3334.25 1384.44 3327.25 1383.45 3320.25 1382.46 3313.98 1381.21 3308.46 1379.7L3314.38 1352.58 3323.85 1352.58C3323.85 1360.6 3325.7 1366.57 3329.42 1370.48 3333.14 1374.39 3338.87 1376.35 3346.63 1376.35 3355.57 1376.35 3362.61 1373.92 3367.74 1369.05 3372.87 1364.18 3375.43 1357.41 3375.43 1348.73 3375.43 1344.72 3374.73 1341.19 3373.31 1338.13 3371.9 1335.07 3369.76 1332.14 3366.9 1329.35 3364.04 1326.56 3359.91 1323.35 3354.52 1319.73 3349.66 1316.45 3345.61 1313.21 3342.39 1310.02 3339.17 1306.83 3336.6 1303.26 3334.7 1299.32 3332.79 1295.37 3331.84 1290.97 3331.84 1286.1 3331.84 1278.34 3333.71 1271.5 3337.46 1265.58 3341.21 1259.67 3346.5 1255.1 3353.34 1251.87 3360.18 1248.65 3368.07 1247.04 3377.01 1247.04Z" fill-rule="evenodd"/><text fill="#000000" fill-opacity="0" font-family="Arial,Arial_MSFontService,sans-serif" font-size="137.889" x="3308.46" y="1367.69">𝑆</text><path d="M3454.7 1358.23C3452.02 1358.23 3449.51 1358.83 3447.17 1360.03 3444.82 1361.22 3442.67 1362.87 3440.71 1364.98 3438.75 1367.08 3436.99 1369.57 3435.43 1372.44 3433.88 1375.32 3432.56 1378.4 3431.48 1381.7 3430.41 1385.01 3429.58 1388.45 3429.01 1392.04 3428.43 1395.63 3428.15 1399.22 3428.15 1402.81 3428.15 1408.31 3429.28 1412.36 3431.56 1414.97 3433.83 1417.58 3437.29 1418.88 3441.93 1418.88 3444.51 1418.88 3446.95 1418.25 3449.25 1416.98 3451.55 1415.71 3453.65 1414 3455.56 1411.85 3457.48 1409.7 3459.19 1407.17 3460.7 1404.28 3462.2 1401.38 3463.48 1398.28 3464.54 1394.98 3465.59 1391.68 3466.39 1388.27 3466.94 1384.75 3467.49 1381.24 3467.77 1377.8 3467.77 1374.45 3467.77 1369.14 3466.71 1365.11 3464.61 1362.36 3462.5 1359.61 3459.2 1358.23 3454.7 1358.23ZM3456.07 1351.13C3460.37 1351.13 3464.14 1351.82 3467.37 1353.21 3470.6 1354.6 3473.29 1356.47 3475.45 1358.84 3477.6 1361.21 3479.22 1364 3480.29 1367.2 3481.37 1370.41 3481.91 1373.83 3481.91 1377.47 3481.91 1384.74 3480.83 1391.33 3478.68 1397.24 3476.52 1403.15 3473.55 1408.23 3469.74 1412.46 3465.94 1416.7 3461.46 1419.96 3456.32 1422.26 3451.17 1424.55 3445.59 1425.7 3439.56 1425.7 3435.59 1425.7 3432.02 1425.1 3428.86 1423.91 3425.71 1422.71 3423.03 1420.99 3420.82 1418.74 3418.62 1416.49 3416.94 1413.78 3415.76 1410.59 3414.59 1407.41 3414.01 1403.81 3414.01 1399.79 3414.01 1393 3415.07 1386.64 3417.2 1380.73 3419.33 1374.82 3422.27 1369.68 3426.03 1365.3 3429.78 1360.92 3434.22 1357.47 3439.34 1354.93 3444.46 1352.39 3450.04 1351.13 3456.07 1351.13Z" fill-rule="evenodd"/><text fill="#000000" fill-opacity="0" font-family="Arial,Arial_MSFontService,sans-serif" font-size="74.5767" x="3414.01" y="1416.38">𝑜</text><path d="M3510 1427C3510 1457.1 3488.91 1481.5 3462.89 1481.5L3211.11 1481.5C3185.09 1481.5 3164 1505.9 3164 1536 3164 1505.9 3142.91 1481.5 3116.89 1481.5L2865.11 1481.5C2839.09 1481.5 2818 1457.1 2818 1427" stroke="#C00000" stroke-width="13.75" stroke-miterlimit="8" fill="none" fill-rule="evenodd"/><text font-family="Segoe UI Light,Segoe UI Light_MSFontService,sans-serif" font-weight="300" font-size="73" transform="matrix(1 0 0 1 2897.85 1597)">Flujo uniforme</text><path d="M3565 1737C3565 1780.08 3534.82 1815 3497.58 1815L2350.42 1815C2313.18 1815 2283 1849.92 2283 1893 2283 1849.92 2252.82 1815 2215.58 1815L1068.42 1815C1031.18 1815 1001 1780.08 1001 1737" stroke="#C00000" stroke-width="13.75" stroke-miterlimit="8" fill="none" fill-rule="evenodd"/><text font-family="Segoe UI Light,Segoe UI Light_MSFontService,sans-serif" font-weight="300" font-size="73" transform="matrix(1 0 0 1 1871.06 1768)">Flujo variado en condición permanente </text><path d="M3565 1553C3565 1596.08 3534.82 1631 3497.58 1631L2640.92 1631C2603.68 1631 2573.5 1665.92 2573.5 1709 2573.5 1665.92 2543.32 1631 2506.08 1631L1649.42 1631C1612.18 1631 1582 1596.08 1582 1553" stroke="#C00000" stroke-width="13.75" stroke-miterlimit="8" fill="none" fill-rule="evenodd"/><text font-family="Segoe UI Light,Segoe UI Light_MSFontService,sans-serif" font-weight="300" font-size="73" transform="matrix(1 0 0 1 1529.56 1963)">Flujo variado en condición no permanente </text><text font-family="Segoe UI Light,Segoe UI Light_MSFontService,sans-serif" font-weight="300" font-size="64" transform="matrix(1 0 0 1 1063.59 350)">Aceleración </text><text font-family="Segoe UI Light,Segoe UI Light_MSFontService,sans-serif" font-weight="300" font-size="64" transform="matrix(1 0 0 1 1158.42 427)">local</text><text font-family="Segoe UI Light,Segoe UI Light_MSFontService,sans-serif" font-weight="300" font-size="64" transform="matrix(1 0 0 1 1681.94 345)">Aceleración </text><text font-family="Segoe UI Light,Segoe UI Light_MSFontService,sans-serif" font-weight="300" font-size="64" transform="matrix(1 0 0 1 1696.83 422)">convectiva</text><text font-family="Segoe UI Light,Segoe UI Light_MSFontService,sans-serif" font-weight="300" font-size="64" transform="matrix(1 0 0 1 2292.72 345)">Fuerza de </text><text font-family="Segoe UI Light,Segoe UI Light_MSFontService,sans-serif" font-weight="300" font-size="64" transform="matrix(1 0 0 1 2326.53 422)">presión</text><text font-family="Segoe UI Light,Segoe UI Light_MSFontService,sans-serif" font-weight="300" font-size="64" transform="matrix(1 0 0 1 2861.63 342)">Fuerza </text><text font-family="Segoe UI Light,Segoe UI Light_MSFontService,sans-serif" font-weight="300" font-size="64" transform="matrix(1 0 0 1 2781.99 419)">gravitacional</text><text font-family="Segoe UI Light,Segoe UI Light_MSFontService,sans-serif" font-weight="300" font-size="64" transform="matrix(1 0 0 1 3219.63 344)">Fuerza </text><text font-family="Segoe UI Light,Segoe UI Light_MSFontService,sans-serif" font-weight="300" font-size="64" transform="matrix(1 0 0 1 3212.76 421)">fricción</text><path d="M1.14583-2.5062e-06 1.14614 142.083-1.14552 142.083-1.14583 2.5062e-06ZM13.7503 137.5 0.000360892 165-13.7497 137.5Z" fill="#C00000" transform="matrix(1 0 0 -1 1220 624)"/><path d="M1.14583-2.5062e-06 1.14614 142.083-1.14552 142.083-1.14583 2.5062e-06ZM13.7503 137.5 0.000360892 165-13.7497 137.5Z" fill="#C00000" transform="matrix(1 0 0 -1 1838 626)"/><path d="M1.14583-2.5062e-06 1.14614 142.083-1.14552 142.083-1.14583 2.5062e-06ZM13.7503 137.5 0.000360892 165-13.7497 137.5Z" fill="#C00000" transform="matrix(1 0 0 -1 2426 620)"/><path d="M1.14583-1.79014e-06 1.14616 208.083-1.14551 208.083-1.14583 1.79014e-06ZM13.7503 203.5 0.000360892 231-13.7497 203.5Z" fill="#C00000" transform="matrix(1 0 0 -1 3306 714)"/><path d="M1.14583-1.79014e-06 1.14616 208.083-1.14551 208.083-1.14583 1.79014e-06ZM13.7503 203.5 0.000360892 231-13.7497 203.5Z" fill="#C00000" transform="matrix(1 0 0 -1 2957 721)"/></g></svg>