<svg width="4239" height="1663" xmlns="http://www.w3.org/2000/svg" xmlns:xlink="http://www.w3.org/1999/xlink" xml:space="preserve" overflow="hidden"><defs><clipPath id="clip0"><rect x="49" y="473" width="4239" height="1663"/></clipPath></defs><g clip-path="url(#clip0)" transform="translate(-49 -473)"><path d="M246 835 286.821 852C294.78 855.349 303.448 857.412 310.633 862.2L331.043 875.8C337.847 884.866 344.54 894.017 351.453 903 355.88 908.752 360.525 914.333 365.061 920L392.274 954C397.859 960.87 404.726 966.81 409.283 974.4 426.914 1003.77 414.813 986.727 450.104 1022 459.175 1031.07 469.62 1038.94 477.318 1049.2 480.719 1053.73 483.167 1059.17 487.523 1062.8 490.825 1065.55 514.187 1069.49 514.737 1069.6 526.076 1063.93 536.455 1055.67 548.754 1052.6 555.445 1050.93 563.514 1052.05 569.164 1056 575.863 1060.69 575.223 1073.26 582.771 1076.4L623.592 1093.4C630.396 1101.33 638.203 1108.51 644.003 1117.2 649.628 1125.63 652.125 1135.87 657.609 1144.4 662.398 1151.85 669.409 1157.64 674.618 1164.8 678.507 1170.14 680.856 1176.51 684.823 1181.8 687.709 1185.65 691.408 1188.83 695.028 1192 709.56 1204.71 725.597 1215.75 739.251 1229.4 746.054 1236.2 753.295 1242.59 759.661 1249.8 770.324 1261.88 779.254 1275.45 790.277 1287.2 796.334 1293.66 804.425 1297.94 810.687 1304.2 814.696 1308.21 817.263 1313.45 820.892 1317.8 834.277 1333.85 850.115 1348.01 861.713 1365.4 868.517 1375.6 875.668 1385.58 882.123 1396 890.415 1409.39 897.198 1423.7 905.936 1436.8 908.604 1440.8 912.945 1443.41 916.141 1447 922.025 1453.62 928.237 1460.03 933.149 1467.4 937.369 1473.73 939.271 1481.39 943.354 1487.8 947.252 1493.92 951.674 1499.83 956.962 1504.8 992.51 1538.24 989.324 1535.09 1018.19 1552.4 1034.07 1549 1050.49 1547.56 1065.82 1542.2 1073.53 1539.5 1079.03 1532.47 1086.23 1528.6 1132.12 1503.9 1088.07 1534.22 1133.85 1504.8 1142.06 1499.53 1149.36 1492.91 1157.66 1487.8 1173.32 1478.17 1191.19 1472.4 1208.69 1467.4 1230.11 1461.28 1251.27 1453.55 1273.32 1450.4L1320.95 1443.6C1421.09 1459 1380.82 1448.63 1443.41 1467.4 1449.08 1470.8 1454.81 1474.1 1460.42 1477.6 1501.38 1503.19 1446.24 1485.21 1572.67 1481 1597.84 1476.81 1646.35 1469.84 1667.92 1460.6L1691.73 1450.4C1694 1445.87 1695.24 1440.65 1698.54 1436.8 1711.33 1421.89 1732.13 1421.15 1749.56 1416.4 1773.38 1418.67 1797.29 1420.08 1821 1423.2 1840.41 1425.75 1878.83 1433.4 1878.83 1433.4 1890.17 1432.27 1901.62 1431.95 1912.85 1430 1927.75 1427.41 1941.96 1419.01 1957.07 1419.8 1965.24 1420.23 1970.68 1428.87 1977.48 1433.4 1983.15 1441.33 1989.21 1449 1994.49 1457.2 1999.43 1464.89 2002.02 1474.17 2008.1 1481 2011.46 1484.79 2017.17 1485.53 2021.7 1487.8 2029.64 1486.67 2037.74 1482.46 2045.51 1484.4 2048.99 1485.27 2047.31 1491.39 2048.92 1494.6 2054.14 1505.04 2060.7 1514.76 2065.93 1525.2 2070.92 1535.18 2074.75 1545.71 2079.53 1555.8 2084.96 1567.25 2090.38 1578.72 2096.54 1589.8 2103.71 1602.69 2121.02 1628.88 2130.56 1640.8 2138.09 1650.21 2147.05 1658.43 2154.37 1668 2159.13 1674.22 2179.25 1710.23 2191.79 1715.6 2201.23 1719.64 2212.2 1717.87 2222.41 1719 2237.15 1713.33 2252.01 1707.98 2266.63 1702 2276.96 1697.77 2286.18 1689.89 2297.24 1688.4 2328.73 1684.15 2360.74 1686.13 2392.49 1685 2461.08 1703.04 2438.59 1689.65 2467.33 1708.8 2484.4 1734.39 2462.25 1699.03 2484.34 1753 2490.18 1767.28 2508.41 1801.45 2518.36 1817.6 2522.64 1824.56 2527.82 1830.96 2531.96 1838 2536.52 1845.74 2571.76 1914.24 2579.59 1916.2L2606.8 1923C2629.48 1917.33 2652.75 1913.64 2674.84 1906 2682.56 1903.33 2688.23 1896.6 2695.25 1892.4 2699.59 1889.79 2704.17 1887.55 2708.85 1885.6 2737.93 1873.49 2735.17 1875.6 2766.68 1868.6 2775.75 1861.8 2784.46 1854.49 2793.9 1848.2 2821.01 1830.14 2827.47 1831.65 2848.32 1810.8 2853.58 1805.55 2879.47 1773.51 2889.14 1766.6 2898.64 1759.82 2909.55 1755.27 2919.76 1749.6 2926.56 1740.53 2931.7 1729.93 2940.17 1722.4 2952.39 1711.54 2967.91 1705.01 2980.99 1695.2 2990.63 1687.97 2999.13 1679.33 3008.2 1671.4 3021.7 1639.94 3018.42 1652.1 3025.21 1613.6 3027.87 1598.56 3027.49 1589.77 3032.02 1576.2 3033.95 1570.41 3035.01 1563.97 3038.82 1559.2 3054.76 1539.28 3067.59 1540.46 3089.85 1528.6 3097.06 1524.75 3102.6 1517.87 3110.26 1515 3121.08 1510.94 3133.09 1511.14 3144.27 1508.2 3203.26 1492.69 3146.42 1501.16 3205.5 1494.6 3213.44 1492.33 3221.28 1489.69 3229.32 1487.8 3240.57 1485.15 3252.03 1483.42 3263.33 1481 3267.91 1480.02 3272.41 1478.73 3276.94 1477.6 3306.08 1460.12 3282.9 1475.9 3310.96 1450.4 3327.81 1435.09 3371.29 1402.47 3382.4 1396 3409.61 1380.13 3437.82 1365.87 3464.04 1348.4 3474.24 1341.6 3484 1334.08 3494.65 1328 3499.95 1324.97 3506.2 1323.93 3511.66 1321.2 3517.57 1318.24 3522.76 1313.96 3528.67 1311 3538.66 1306.01 3549.19 1302.18 3559.29 1297.4 3574.62 1290.14 3605.29 1272.06 3623.92 1270.2 3670.23 1265.57 3716.9 1265.67 3763.39 1263.4 3791.79 1249.2 3761.95 1265.91 3790.6 1243 3796.99 1237.89 3804.36 1234.15 3811.01 1229.4 3820.24 1222.81 3829.16 1215.8 3838.23 1209 3850.91 1187.88 3860.39 1167.77 3879.05 1151.2 3941.19 1095.99 3902.14 1147.19 3940.28 1090 3943.68 1078.67 3948.81 1067.71 3950.48 1056 3956.77 1012.01 3953.53 966.561 3964.09 923.4 3966.57 913.25 3979.15 908.718 3987.9 903 4008.74 889.383 4030.27 876.727 4052.54 865.6 4057.07 863.333 4061.48 860.796 4066.14 858.8 4069.44 857.388 4072.95 856.533 4076.35 855.4 4087.5 847.971 4094 844.67 4094 837.184" stroke="#7F7F7F" stroke-width="27.5" stroke-miterlimit="8" fill="#F2F2F2" fill-rule="evenodd"/><path d="M0 0 3813.28 0.665125" stroke="#595959" stroke-width="4.58333" stroke-miterlimit="8" fill="none" fill-rule="evenodd" transform="matrix(1 0 0 -1 281.5 838.165)"/><path d="M0 0 330 0.665125" stroke="#595959" stroke-width="4.58333" stroke-miterlimit="8" fill="none" fill-rule="evenodd" transform="matrix(1 0 0 -1 1439.5 866.165)"/><path d="M0 0 198 0.665125" stroke="#595959" stroke-width="4.58333" stroke-miterlimit="8" fill="none" fill-rule="evenodd" transform="matrix(1 0 0 -1 1494.5 890.165)"/><path d="M0 82.9998 40 0 80.0001 82.9998Z" stroke="#595959" stroke-width="4.58333" stroke-miterlimit="8" fill="none" fill-rule="evenodd" transform="matrix(1 0 0 -1 1553.5 829.5)"/><path d="M3.4375-1.13918e-06 3.43785 1061.51-3.43715 1061.51-3.4375 1.13918e-06ZM0.000351779 1061.5 22.917 1043.17 0.000360892 1089-22.9163 1043.17Z" fill="#595959" transform="matrix(1 0 0 -1 2604.5 1926.5)"/><path d="M2667.15 1349.02C2668.62 1349.02 2669.87 1349.21 2670.91 1349.61 2671.63 1349.89 2672.34 1350.37 2673.06 1351.03 2673.77 1351.69 2674.41 1352.61 2674.97 1353.8 2675.52 1354.98 2676 1356.3 2676.42 1357.77 2676.83 1359.24 2677.28 1361.35 2677.79 1364.11 2678.64 1368.73 2679.48 1373.59 2680.28 1378.69 2681.09 1383.79 2681.78 1388.53 2682.35 1392.9 2685.82 1387.89 2688.77 1382.98 2691.19 1378.18 2693.6 1373.38 2695.34 1369.21 2696.4 1365.67 2697.45 1362.12 2697.98 1359.24 2697.98 1357.02 2697.98 1355.34 2697.62 1354.19 2696.91 1353.58 2696.19 1352.97 2694.97 1352.61 2693.25 1352.51L2693.79 1349.88 2707.92 1349.88 2709.37 1352.56C2706.65 1360.01 2702.96 1367.98 2698.3 1376.46 2693.72 1384.77 2688.47 1393.04 2682.57 1401.28 2676.91 1409.12 2672.2 1414.79 2668.44 1418.3 2665.83 1420.7 2663.3 1422.42 2660.87 1423.46 2658.93 1424.25 2656.87 1424.64 2654.69 1424.64 2653.94 1424.64 2653.07 1424.58 2652.08 1424.45 2651.1 1424.33 2650.34 1424.16 2649.8 1423.94L2652.11 1413.52 2656.35 1413.52C2656.35 1415.81 2657.14 1416.96 2658.72 1416.96 2660.79 1416.96 2663.21 1415.66 2665.97 1413.07 2668.73 1410.47 2671.97 1406.56 2675.69 1401.33 2674.65 1395.06 2673.24 1387.51 2671.45 1378.66 2669.55 1369.21 2668.3 1363.36 2667.69 1361.1 2666.94 1358.38 2666.15 1356.64 2665.32 1355.89 2664.82 1355.43 2664.2 1355.19 2663.44 1355.19 2662.3 1355.19 2661.22 1355.66 2660.22 1356.59 2659.22 1357.52 2657.98 1359.13 2656.52 1361.42L2653.02 1359.11C2655.5 1355.43 2657.8 1352.82 2659.95 1351.3 2662.1 1349.78 2664.5 1349.02 2667.15 1349.02Z" fill-rule="evenodd"/><text fill="#000000" fill-opacity="0" font-family="Arial,Arial_MSFontService,sans-serif" font-size="75.625" x="2649.8" y="1415.19">𝑦</text><path d="M189.686 950.649 215.619 961.909 215.516 961.866 221.828 964.366 221.78 964.348 228.288 966.812 234.803 969.613 240.975 973.224 262.945 988.449 284.603 1018.55 284.539 1018.47 298.789 1037.03 327.286 1074.03 327.208 1073.93 331.771 1079.43 331.703 1079.35 336.425 1084.7 341.138 1090.38 345.238 1096.57 348.418 1102.1 350.929 1106.49 352.935 1110.07 352.914 1110.03 354.539 1112.84 354.496 1112.77 355.871 1115.02 355.798 1114.91 357.048 1116.78 356.867 1116.53 359.429 1119.72 359.276 1119.54 360.776 1121.17 360.681 1121.07 362.556 1122.94 362.489 1122.88 364.87 1125.14 367.768 1127.91 371.357 1131.43 375.75 1135.83 381.08 1141.22 387.466 1147.79 387.42 1147.75 394.733 1155 394.669 1154.93 402.223 1162.05 409.565 1169.58 416.287 1177.79 421.395 1185.77 421.316 1185.65 423.941 1189.4 423.627 1189.02 426.689 1192.27 426.046 1191.73 426.921 1192.3 426.54 1192.08 427.853 1192.71 427.496 1192.56 431.121 1193.81 430.866 1193.74 435.428 1194.92 435.366 1194.91 440.304 1196.1 440.199 1196.07 445.012 1197.07 444.977 1197.06 449.102 1197.88 449.087 1197.87 450.712 1198.19 452.057 1198.44 452.97 1198.64 452.815 1198.61 453.19 1198.67 450.904 1199.09 459.654 1194.02 459.597 1194.06 468.349 1188.77 477.376 1183.84 482.245 1181.77 487.411 1180.14 493.484 1179.23 499.827 1179.66 505.992 1181.36 511.628 1184.46 514.585 1187.34 516.703 1190.82 519.494 1197.63 519.487 1197.62 520.862 1200.93 520.736 1200.66 522.299 1203.66 521.941 1203.11 523.878 1205.55 523.094 1204.83 525.719 1206.58 525.179 1206.28 568.58 1225.09 580.178 1238.39 585.658 1244.96 590.728 1252.04 594.846 1259.56 598.162 1267.34 601.408 1274.89 601.292 1274.65 605.105 1281.9 604.866 1281.51 608.991 1287.32 608.806 1287.09 613.431 1292.52 613.403 1292.49 618.154 1297.94 622.703 1303.79 625.67 1308.6 628.225 1313.39 630.729 1318.15 630.584 1317.9 633.459 1322.4 633.167 1322.01 638.229 1327.88 637.984 1327.62 643.547 1332.87 643.438 1332.78 655.126 1342.9 655.08 1342.86 666.907 1352.75 678.689 1362.83 689.851 1373.61 700.792 1384.62 711.416 1396.06 719.656 1406.33 727.442 1416.76 727.42 1416.73 735.295 1427.04 735.207 1426.93 743.457 1436.87 743.182 1436.57 748.307 1441.45 748.096 1441.26 753.596 1445.7 753.581 1445.69 759.235 1450.2 764.689 1455.19 767.803 1458.98 770.541 1462.89 773.076 1466.82 772.965 1466.66 775.653 1470.35 775.496 1470.15 786.371 1482.96 786.317 1482.9 797.535 1495.5 808.436 1508.42 813.603 1515.24 818.422 1522.28 829.27 1538.96 839.89 1555.8 846.201 1566.97 852.221 1578.26 852.203 1578.22 858.328 1589.41 858.268 1589.31 864.768 1600.24 864.508 1599.87 866.883 1602.87 866.59 1602.54 869.34 1605.23 869.255 1605.15 872.203 1607.84 875.042 1610.74 884.403 1621.75 888.935 1627.43 893.232 1633.49 896.345 1639.18 898.847 1645.02 901.285 1650.71 901.178 1650.48 903.991 1655.92 903.781 1655.57 910.406 1665.32 910.162 1665 917.787 1673.81 917.594 1673.61 924.094 1679.98 924.077 1679.97 929.769 1685.47 934.712 1690.29 934.689 1690.27 939.001 1694.39 938.972 1694.36 942.784 1697.93 942.747 1697.89 946.122 1700.95 946.054 1700.89 949.179 1703.58 949.099 1703.51 952.036 1705.89 951.947 1705.82 957.572 1710.07 957.394 1709.94 963.643 1714.07 963.622 1714.05 967.184 1716.37 967.114 1716.32 971.177 1718.82 975.749 1721.64 981.069 1724.96 978.595 1724.5 991.174 1722.06 1003.75 1719.74 1003.65 1719.76 1016.09 1717.08 1015.91 1717.12 1022.1 1715.43 1021.92 1715.49 1027.99 1713.49 1027.66 1713.61 1030.6 1712.3 1030.25 1712.48 1033 1710.85 1032.65 1711.09 1037.84 1707.09 1037.75 1707.16 1042.93 1702.88 1048.56 1699.01 1052.97 1696.55 1056.7 1694.53 1059.98 1692.82 1062.75 1691.38 1065.19 1690.16 1067.3 1689.17 1070.53 1687.82 1072.86 1687.12 1075.05 1686.86 1077.6 1687.82 1078.39 1689.4 1077.74 1688.51 1077.99 1688.76 1075.99 1687.78 1076.49 1687.84 1074.75 1688.07 1075.82 1687.63 1075.51 1687.78 1077.38 1686.78 1077.19 1686.89 1080.13 1685.07 1080.12 1685.08 1082.12 1683.83 1082.1 1683.84 1084.48 1682.34 1084.42 1682.38 1087.18 1680.56 1090.43 1678.44 1090.42 1678.44 1094.1 1676.01 1098.35 1673.2 1098.22 1673.29 1104.47 1668.72 1104.39 1668.78 1110.52 1664.03 1110.5 1664.05 1116.7 1659.17 1123.26 1654.61 1129.69 1650.75 1136.32 1647.27 1149.79 1641.37 1163.65 1636.37 1177.47 1632.03 1194.23 1626.78 1211.1 1621.58 1228.17 1616.85 1236.83 1614.94 1245.58 1613.42 1295.96 1605.9 1305.86 1607.48 1305.83 1607.48 1314.47 1608.79 1322.29 1610.04 1322.26 1610.04 1329.32 1611.1 1329.31 1611.1 1335.75 1612.04 1335.73 1612.03 1341.55 1612.85 1346.74 1613.6 1346.7 1613.59 1351.39 1614.22 1355.61 1614.78 1359.39 1615.35 1359.32 1615.34 1362.69 1615.78 1362.68 1615.78 1365.71 1616.16 1370.89 1616.91 1375.26 1617.61 1379.25 1618.32 1383.14 1619.23 1387.29 1620.31 1392.1 1621.7 1397.89 1623.47 1401.28 1624.53 1405.06 1625.73 1409.26 1627.11 1409.18 1627.08 1413.97 1628.53 1419.19 1630.23 1419.14 1630.22 1425.44 1632.16 1443.68 1643.55 1447.49 1646.09 1450.73 1648.31 1453.48 1650.3 1455.83 1652.08 1457.74 1653.54 1459.33 1654.82 1461.76 1656.75 1461.48 1656.55 1463.23 1657.67 1462.42 1657.29 1463.99 1657.79 1462.81 1657.63 1464.5 1657.56 1463.83 1657.65 1466.21 1657.09 1466.08 1657.13 1469.5 1656.18 1471.81 1655.6 1474.48 1654.96 1477.66 1654.26 1481.35 1653.5 1485.69 1652.73 1490.63 1651.97 1496.25 1651.21 1502.55 1650.46 1509.72 1649.7 1517.72 1648.95 1526.58 1648.32 1536.36 1647.69 1547.22 1647.13 1559.12 1646.69 1558.68 1646.74 1563.87 1645.86 1563.85 1645.86 1569.61 1644.86 1575.69 1643.86 1575.66 1643.86 1582.16 1642.74 1595.78 1640.36 1595.73 1640.37 1609.79 1637.69 1609.74 1637.7 1623.68 1634.82 1623.56 1634.85 1636.69 1631.66 1636.58 1631.69 1642.64 1630 1642.54 1630.03 1648.17 1628.28 1648.04 1628.32 1653.17 1626.51 1653.01 1626.57 1657.57 1624.7 1657.48 1624.73 1682.35 1613.67 1680.59 1615.46 1682.21 1611.65 1682.19 1611.71 1683.77 1607.78 1685.61 1603.7 1688.2 1599.82 1694.03 1593.92 1700.57 1589.4 1707.48 1586.01 1714.73 1583.47 1722.03 1581.48 1729.29 1579.78 1736.49 1578.15 1736.42 1578.16 1743.98 1576.27 1782.01 1579.7 1800.75 1581.52 1819.45 1583.78 1823.5 1584.35 1827.99 1585.04 1837.59 1586.68 1847.63 1588.5 1857.46 1590.37 1862.05 1591.25 1866.32 1592.13 1866.28 1592.12 1870.18 1592.88 1873.51 1593.57 1873.41 1593.55 1876.28 1594.06 1878.4 1594.51 1878.33 1594.5 1879.8 1594.78 1880.38 1594.94 1879.15 1594.82 1897.03 1593.32 1896.98 1593.33 1905.85 1592.45 1905.68 1592.47 1914.56 1591.16 1914.31 1591.21 1920.12 1589.9 1919.87 1589.96 1925.62 1588.21 1925.53 1588.24 1937.07 1584.35 1942.89 1582.56 1948.95 1581.06 1955.14 1580.13 1961.59 1579.99 1965.38 1580.69 1968.91 1582.22 1971.98 1584.3 1974.84 1586.61 1979.88 1591.46 1979.77 1591.35 1982.33 1593.6 1982.22 1593.51 1985.16 1595.88 1994.52 1609.18 2003.39 1622.42 2007.01 1629.21 2010.23 1636.03 2010.19 1635.94 2013.56 1642.56 2013.32 1642.16 2017.51 1648.16 2016.89 1647.49 2019.96 1650.05 2019.24 1649.59 2022.87 1651.34 2022.59 1651.22 2026.48 1652.69 2030.3 1654.35 2028.2 1654.14 2034.45 1652.77 2034.29 1652.81 2040.62 1651.1 2043.95 1650.36 2047.45 1649.87 2051.03 1649.87 2054.96 1650.52 2057.25 1651.79 2058.9 1653.99 2059.72 1657.93 2060.05 1661.56 2059.96 1661.06 2060.71 1664.12 2060.43 1663.36 2064.74 1671.74 2064.7 1671.66 2069.26 1679.97 2069.25 1679.94 2073.9 1688.25 2078.29 1696.76 2082.03 1705.14 2085.55 1713.55 2092.54 1730.23 2092.5 1730.12 2101.12 1748.81 2101.07 1748.71 2110.26 1767.09 2110.2 1766.96 2113.45 1772.84 2113.4 1772.76 2117.47 1779.7 2117.43 1779.63 2122.05 1787.13 2122.04 1787.11 2126.97 1794.99 2126.95 1794.94 2132.01 1802.76 2131.98 1802.71 2136.92 1810.09 2136.88 1810.03 2141.51 1816.66 2141.46 1816.6 2145.53 1822.16 2145.41 1822.01 2151.54 1829.51 2151.45 1829.4 2157.9 1836.67 2164.27 1844.05 2170.45 1851.76 2171.69 1853.55 2173.18 1855.95 2174.94 1858.84 2174.92 1858.81 2176.99 1862.13 2179.25 1865.83 2179.23 1865.8 2181.73 1869.8 2181.71 1869.78 2187.09 1878.22 2187.01 1878.1 2192.82 1886.48 2192.76 1886.38 2195.69 1890.32 2195.61 1890.21 2198.55 1893.84 2198.45 1893.72 2201.32 1896.97 2201.15 1896.79 2203.97 1899.54 2203.73 1899.33 2206.42 1901.52 2205.93 1901.19 2208.49 1902.63 2208 1902.4 2211.75 1903.77 2211.36 1903.66 2215.3 1904.59 2214.82 1904.51 2222.88 1905.26 2222.64 1905.25 2230.88 1905.44 2239.06 1905.88 2237.61 1906.11 2260.74 1896.99 2260.71 1897 2283.83 1887.63 2283.67 1887.7 2287.67 1885.82 2287.49 1885.91 2291.43 1883.79 2291.35 1883.83 2299.19 1879.32 2303.21 1877.11 2307.47 1875.18 2311.94 1873.62 2316.55 1872.61 2329.17 1871.14 2341.74 1870.19 2354.27 1869.69 2366.83 1869.44 2391.8 1869.31 2391.75 1869.31 2417.18 1868.87 2424.09 1870.75 2424.06 1870.74 2430 1872.3 2429.97 1872.29 2435.41 1873.67 2435.37 1873.66 2440.3 1874.84 2440.29 1874.84 2444.79 1875.9 2444.77 1875.9 2448.84 1876.84 2448.8 1876.83 2452.49 1877.64 2452.46 1877.64 2455.71 1878.32 2455.67 1878.32 2461.3 1879.44 2461.24 1879.43 2465.74 1880.24 2465.72 1880.24 2469.31 1880.87 2472.3 1881.45 2474.81 1882.06 2477.22 1882.84 2479.49 1883.84 2482 1885.16 2484.71 1886.95 2487.94 1889.1 2491.98 1891.94 2491.95 1891.92 2497.58 1895.81 2499.52 1898.84 2500.84 1900.9 2500.82 1900.88 2502.89 1904.08 2504.21 1906.15 2504.19 1906.13 2505.15 1907.59 2505.88 1909.19 2505.88 1911.61 2504.37 1913.12 2505.25 1911.59 2505.07 1912.28 2505.19 1911.37 2505.19 1912.62 2505.15 1912.12 2505.46 1914.25 2505.41 1913.96 2506.16 1917.15 2506.14 1917.06 2506.7 1919.18 2506.66 1919.05 2507.41 1921.49 2507.39 1921.41 2508.32 1924.23 2508.31 1924.19 2509.44 1927.44 2509.43 1927.41 2510.74 1931.1 2512.24 1935.28 2512.21 1935.2 2514.02 1939.89 2516.02 1945.15 2515.99 1945.07 2517.3 1948.25 2517.27 1948.18 2518.84 1951.74 2518.82 1951.71 2520.63 1955.71 2520.62 1955.68 2522.62 1959.99 2522.6 1959.95 2527.1 1969.32 2527.07 1969.27 2532.07 1979.28 2532.05 1979.23 2537.24 1989.23 2537.23 1989.2 2542.35 1998.89 2542.32 1998.84 2547.2 2007.65 2549.38 2011.58 2549.34 2011.5 2551.4 2015 2551.33 2014.89 2558.45 2025.95 2558.43 2025.92 2562.09 2031.47 2565.59 2037.2 2566.21 2038.3 2566.92 2039.65 2568.86 2043.35 2571.37 2048.18 2574.31 2053.94 2574.3 2053.92 2577.68 2060.42 2581.36 2067.47 2581.34 2067.44 2589.28 2082.25 2589.27 2082.23 2593.33 2089.66 2593.31 2089.63 2597.31 2096.75 2597.29 2096.71 2601.16 2103.4 2601.12 2103.32 2604.8 2109.32 2604.75 2109.24 2608.06 2114.31 2607.96 2114.15 2610.9 2118.15 2610.67 2117.88 2613.11 2120.57 2612.73 2120.21 2613.73 2121.02 2613.1 2120.61 2613.97 2121.05 2613.3 2120.8 2641.8 2128.17 2640.13 2128.16 2658.02 2123.84 2675.98 2119.71 2675.91 2119.73 2693.72 2115.23 2693.58 2115.27 2702.39 2112.64 2702.27 2112.68 2710.96 2109.74 2710.72 2109.84 2713.65 2108.59 2713.28 2108.77 2716.09 2107.15 2715.77 2107.36 2721.02 2103.48 2720.85 2103.62 2726.01 2099.28 2731.59 2095.28 2738.86 2091.2 2746.26 2087.68 2751.65 2085.34 2756.31 2083.39 2760.46 2081.69 2764.07 2080.23 2770.39 2077.87 2776 2076.13 2781.73 2074.67 2784.85 2073.9 2788.34 2073.14 2792.23 2072.32 2792.18 2072.33 2796.62 2071.33 2801.62 2070.21 2807.43 2068.9 2806.04 2069.57 2820.1 2058.32 2827.23 2052.64 2834.65 2047.25 2839.77 2043.77 2844.46 2040.67 2848.76 2038.01 2852.67 2035.61 2859.64 2031.53 2859.62 2031.55 2865.8 2027.86 2865.69 2027.93 2871.57 2024.12 2871.38 2024.25 2877.38 2019.75 2877.22 2019.87 2880.41 2017.18 2880.34 2017.24 2883.72 2014.24 2883.61 2014.34 2887.24 2010.84 2887.18 2010.9 2891.11 2006.9 2891.02 2007 2892.27 2005.62 2892.23 2005.67 2893.98 2003.67 2893.92 2003.74 2896.04 2001.18 2898.48 1998.24 2904.17 1991.36 2910.56 1983.72 2917.15 1975.94 2923.52 1968.74 2926.53 1965.54 2929.35 1962.72 2931.91 1960.29 2934.2 1958.42 2942.14 1953.13 2950.34 1948.49 2958.57 1944.09 2958.53 1944.11 2966.59 1939.68 2965.4 1940.77 2970.52 1933.14 2970.47 1933.23 2975.45 1925.34 2980.87 1917.6 2987.22 1910.6 2992.41 1906.13 2997.78 1902.12 3008.77 1894.92 3019.86 1887.96 3019.72 1888.06 3030.34 1880.62 3030.1 1880.8 3037.48 1874.62 3037.37 1874.71 3044.5 1868.21 3044.45 1868.25 3058.45 1855 3057.64 1856.18 3060.07 1850.31 3062.14 1845.35 3063.9 1841.22 3063.89 1841.24 3065.33 1837.79 3066.59 1834.84 3066.54 1834.96 3067.54 1832.34 3067.49 1832.46 3069.06 1827.84 3068.98 1828.08 3069.61 1825.65 3069.59 1825.7 3070.22 1823.08 3070.18 1823.24 3070.75 1820.24 3071.44 1816.61 3071.42 1816.7 3072.11 1812.44 3072.99 1807.3 3072.98 1807.32 3073.98 1801.25 3075.17 1794.01 3075.17 1794.02 3076.11 1788.15 3076.09 1788.25 3076.78 1782.93 3076.77 1782.96 3077.97 1773.07 3079.57 1763.45 3080.8 1758.24 3082.39 1752.84 3082.39 1752.85 3085.24 1743.02 3087.22 1737.98 3089.99 1733.33 3093.33 1729.26 3096.47 1725.79 3099.63 1722.76 3102.84 1720.02 3109.08 1715.69 3115.55 1712.22 3122.14 1709.28 3129.05 1706.39 3128.96 1706.43 3136.46 1703.05 3136.31 1703.13 3144.62 1698.88 3144.27 1699.09 3149.64 1695.46 3149.39 1695.65 3154.56 1691.42 3159.93 1687.35 3162.99 1685.47 3166.29 1683.93 3170.9 1682.39 3175.52 1681.2 3184.63 1679.61 3193.73 1678.23 3193.54 1678.26 3202.41 1676.39 3202.21 1676.44 3207.65 1674.94 3207.61 1674.95 3212.36 1673.57 3212.33 1673.58 3216.52 1672.33 3220.08 1671.27 3220 1671.29 3223.06 1670.29 3225.56 1669.48 3225.48 1669.51 3227.61 1668.76 3227.45 1668.82 3229.14 1668.13 3229.06 1668.16 3231.5 1667.1 3231.17 1667.27 3232.48 1666.52 3232.04 1666.82 3232.67 1666.32 3232.38 1666.57 3232.87 1666.08 3233.8 1665.38 3235.27 1664.94 3236.96 1664.71 3239.39 1664.46 3241.17 1664.27 3243.32 1664.08 3243.29 1664.08 3245.85 1663.83 3245.83 1663.83 3248.83 1663.52 3252.46 1663.14 3252.4 1663.15 3256.55 1662.65 3261.4 1662.14 3261.36 1662.15 3266.79 1661.52 3266.16 1661.66 3278.58 1657.77 3291.24 1654.16 3309.18 1650.38 3326.94 1646.76 3326.78 1646.79 3333.9 1644.98 3333.88 1644.99 3341 1643.11 3340.06 1643.52 3345.18 1640.33 3349.16 1637.87 3352.25 1636.04 3352.23 1636.05 3354.42 1634.74 3354.33 1634.79 3355.9 1633.79 3355.88 1633.8 3356.94 1633.11 3356.58 1633.39 3357.89 1632.26 3357.48 1632.67 3358.73 1631.17 3358.69 1631.23 3359.72 1629.94 3361.25 1628.14 3363.46 1625.8 3366.37 1622.83 3370.16 1619.04 3375.16 1614.3 3378.82 1610.95 3383.04 1607.17 3387.71 1603.13 3392.8 1598.85 3403.64 1589.96 3414.93 1580.86 3426.03 1572.28 3431.17 1568.33 3436.03 1564.67 3440.49 1561.46 3440.48 1561.47 3444.39 1558.63 3447.73 1556.32 3450.39 1554.63 3471.95 1541.85 3493.59 1529.34 3493.53 1529.37 3514.91 1516.43 3514.8 1516.5 3535.68 1502.81 3535.56 1502.89 3551.46 1491.5 3559.53 1485.89 3567.93 1480.5 3572.57 1478.22 3577.24 1476.47 3581.81 1474.78 3581.61 1474.86 3585.98 1472.92 3585.64 1473.09 3590.14 1470.47 3589.98 1470.57 3594.42 1467.63 3598.86 1464.71 3603.55 1461.91 3611.67 1457.95 3619.79 1454.3 3627.86 1450.73 3627.78 1450.77 3635.72 1447.02 3635.62 1447.07 3642.3 1443.63 3642.25 1443.66 3650.19 1439.41 3658.91 1434.76 3668.17 1430.04 3677.67 1425.54 3687.06 1421.65 3696 1418.75 3700.34 1417.69 3704.41 1417.08 3722.72 1415.45 3740.98 1414.13 3777.55 1412.44 3814.07 1411.19 3814.05 1411.19 3850.55 1409.69 3849.12 1410.07 3854 1407.56 3857.72 1405.67 3860.31 1404.41 3860.23 1404.45 3861.98 1403.54 3862.98 1403.07 3862.44 1403.39 3862.88 1403.08 3861.44 1405.87 3861.44 1405.56 3861.45 1405.85 3861.3 1404.08 3862.37 1402.1 3863.63 1400.52 3865.47 1398.48 3868.23 1395.85 3871.99 1392.47 3877.04 1388.19 3882.37 1384.14 3887.86 1380.44 3893.33 1376.92 3893.2 1377 3898.52 1373.25 3898.41 1373.34 3912.72 1362.34 3912.68 1362.36 3926.87 1351.18 3926 1352.2 3935.51 1335.17 3945.08 1318.75 3950.3 1310.79 3955.92 1303.06 3962.28 1295.55 3969.31 1288.46 3975.19 1283.08 3980.4 1278.37 3985.07 1274.27 3989.24 1270.73 3992.96 1267.7 3996.2 1265.1 3999.07 1262.93 4001.52 1261.13 4005.51 1258.44 4008.41 1256.82 4010.39 1255.87 4011.77 1255.28 4011.3 1255.52 4012.3 1254.9 4011.69 1255.38 4012.63 1254.44 4012.25 1254.9 4013.44 1253.21 4013.37 1253.31 4015.12 1250.62 4015.1 1250.66 4016.28 1248.79 4016.25 1248.83 4017.64 1246.56 4019.34 1243.86 4019.31 1243.9 4021.26 1240.69 4023.59 1236.99 4023.58 1237.01 4026.21 1232.74 4029.29 1227.89 4032.86 1222.38 4032.48 1223.2 4035.42 1213.99 4038.49 1204.84 4038.46 1204.96 4041.21 1195.71 4041.13 1196 4043.07 1186.56 4043.02 1186.86 4045.08 1168.8 4045.07 1168.93 4046.45 1150.8 4046.44 1150.87 4048.44 1114.48 4049.64 1096.23 4051.27 1078.05 4053.73 1060 4057.31 1041.88 4058.98 1037.36 4061.63 1033.39 4064.94 1030.01 4068.63 1027.07 4076.37 1022.21 4083.75 1017.64 4083.67 1017.69 4100.2 1006.8 4117.03 996.245 4134.19 986.253 4151.55 976.852 4158.59 973.018 4166.01 969.277 4171.57 967.25 4176.57 965.62 4178.7 972.157 4173.75 973.768 4173.87 973.729 4168.55 975.667 4168.92 975.507 4161.74 979.132 4161.83 979.081 4154.82 982.898 4137.51 992.273 4137.61 992.22 4120.54 1002.16 4120.64 1002.1 4103.89 1012.6 4103.95 1012.56 4087.41 1023.46 4080 1028.05 4080.02 1028.04 4072.45 1032.79 4072.77 1032.56 4069.39 1035.25 4069.71 1034.97 4066.77 1037.97 4067.17 1037.47 4064.92 1040.84 4065.29 1040.13 4063.85 1044.01 4064 1043.48 4060.5 1061.23 4060.53 1061.03 4058.09 1078.9 4058.11 1078.75 4056.49 1096.81 4056.49 1096.72 4055.31 1114.91 4055.31 1114.88 4053.31 1151.29 4051.92 1169.51 4049.84 1187.79 4047.84 1197.52 4045.03 1206.97 4041.95 1216.16 4041.96 1216.11 4038.88 1225.73 4035.07 1231.62 4035.09 1231.6 4032.03 1236.41 4032.05 1236.37 4029.42 1240.63 4027.1 1244.33 4027.12 1244.29 4025.17 1247.49 4023.47 1250.2 4023.5 1250.17 4022.11 1252.44 4020.89 1254.36 4019.1 1257.11 4017.7 1259.1 4016.28 1260.52 4014.72 1261.49 4013.17 1262.16 4013.31 1262.1 4011.49 1262.97 4011.68 1262.88 4008.99 1264.38 4009.23 1264.23 4005.42 1266.79 4005.54 1266.7 4003.16 1268.45 4003.2 1268.43 4000.38 1270.56 4000.47 1270.49 3997.28 1273.05 3997.29 1273.04 3993.61 1276.04 3993.66 1276 3989.54 1279.5 3989.58 1279.46 3984.96 1283.52 3984.99 1283.49 3979.8 1288.18 3979.82 1288.16 3974.01 1293.47 3974.13 1293.36 3967.25 1300.29 3967.44 1300.1 3961.25 1307.41 3961.4 1307.21 3955.9 1314.77 3956 1314.64 3950.87 1322.45 3950.97 1322.29 3941.47 1338.6 3941.5 1338.55 3931.67 1356.15 3916.92 1367.77 3902.54 1378.83 3897.11 1382.66 3891.61 1386.2 3891.67 1386.16 3886.3 1389.79 3886.45 1389.68 3881.27 1393.61 3881.41 1393.5 3876.47 1397.68 3876.55 1397.62 3872.86 1400.93 3872.93 1400.86 3870.31 1403.36 3870.49 1403.17 3868.8 1405.05 3868.93 1404.9 3867.93 1406.15 3868.28 1405.63 3867.84 1406.44 3868.24 1404.53 3868.31 1405.42 3868.31 1407.64 3866.18 1409.17 3864.95 1409.74 3865.08 1409.68 3863.36 1410.57 3860.76 1411.84 3860.81 1411.81 3857.12 1413.69 3857.13 1413.68 3851.58 1416.53 3814.32 1418.06 3777.81 1419.31 3777.85 1419.31 3741.35 1421 3741.43 1420.99 3723.25 1422.3 3723.31 1422.3 3705.12 1423.92 3705.31 1423.9 3701.5 1424.46 3701.82 1424.4 3697.76 1425.4 3698 1425.33 3689.31 1428.15 3689.57 1428.05 3680.38 1431.86 3680.53 1431.79 3671.16 1436.23 3671.25 1436.19 3662.06 1440.87 3662.12 1440.85 3653.43 1445.47 3645.47 1449.73 3638.71 1453.21 3630.68 1457 3622.58 1460.58 3622.6 1460.57 3614.53 1464.2 3614.63 1464.15 3606.7 1468.03 3606.95 1467.89 3602.45 1470.58 3602.58 1470.5 3598.2 1473.37 3598.21 1473.37 3593.69 1476.36 3588.94 1479.13 3584.29 1481.19 3579.63 1482.91 3579.64 1482.91 3575.14 1484.59 3575.46 1484.46 3571.14 1486.58 3571.48 1486.39 3563.29 1491.64 3563.4 1491.57 3555.4 1497.13 3555.44 1497.11 3539.51 1508.52 3518.52 1522.28 3497.06 1535.27 3475.41 1547.79 3475.44 1547.77 3453.94 1560.52 3454.03 1560.47 3451.47 1562.09 3451.58 1562.01 3448.33 1564.26 3448.39 1564.22 3444.51 1567.04 3440.07 1570.23 3440.13 1570.18 3435.32 1573.81 3435.34 1573.79 3430.22 1577.73 3430.23 1577.72 3419.17 1586.28 3419.22 1586.24 3407.97 1595.3 3407.99 1595.28 3397.18 1604.16 3397.21 1604.13 3392.15 1608.38 3392.19 1608.35 3387.56 1612.35 3387.61 1612.31 3383.42 1616.06 3383.44 1616.04 3379.82 1619.35 3379.87 1619.31 3374.93 1623.99 3374.99 1623.93 3371.24 1627.68 3371.27 1627.65 3368.39 1630.59 3368.44 1630.55 3366.31 1632.8 3366.43 1632.67 3364.99 1634.35 3365.06 1634.27 3364.04 1635.55 3362.58 1637.3 3360.87 1638.76 3359.61 1639.58 3358 1640.61 3355.76 1641.95 3352.69 1643.77 3352.75 1643.74 3348.82 1646.17 3343.25 1649.63 3335.61 1651.64 3328.39 1653.48 3310.56 1657.12 3310.58 1657.11 3292.77 1660.86 3293 1660.81 3280.5 1664.37 3280.59 1664.34 3267.9 1668.32 3262.12 1668.98 3257.29 1669.48 3257.35 1669.47 3253.2 1669.98 3249.54 1670.36 3246.53 1670.67 3243.94 1670.92 3241.8 1671.11 3241.87 1671.11 3240.11 1671.29 3237.73 1671.54 3237.84 1671.53 3236.46 1671.72 3236.99 1671.6 3236.36 1671.79 3237.44 1671.25 3237.19 1671.44 3237.56 1671.12 3237.11 1671.57 3236.13 1672.35 3234.42 1673.33 3231.77 1674.48 3229.97 1675.21 3227.73 1676.01 3225.19 1676.83 3222.09 1677.84 3218.48 1678.92 3214.28 1680.17 3209.5 1681.56 3203.94 1683.09 3194.86 1685.01 3185.7 1686.4 3185.78 1686.39 3176.84 1687.95 3177.11 1687.89 3172.73 1689.02 3172.96 1688.95 3168.65 1690.39 3169.02 1690.24 3166.08 1691.61 3166.42 1691.43 3163.67 1693.12 3163.95 1692.93 3158.77 1696.86 3158.86 1696.79 3153.62 1701.07 3147.94 1704.9 3139.36 1709.29 3131.74 1712.72 3124.83 1715.61 3124.9 1715.58 3118.46 1718.45 3118.68 1718.34 3112.5 1721.66 3112.84 1721.45 3106.9 1725.57 3107.17 1725.36 3104.17 1727.93 3104.32 1727.79 3101.32 1730.67 3101.49 1730.49 3098.49 1733.81 3098.6 1733.68 3095.47 1737.49 3095.76 1737.07 3093.26 1741.26 3093.51 1740.75 3091.7 1745.38 3091.8 1745.08 3088.99 1754.78 3087.42 1760.09 3087.47 1759.92 3086.28 1764.92 3086.33 1764.69 3084.77 1774.12 3084.79 1773.98 3083.6 1783.8 3082.9 1789.18 3081.96 1795.11 3080.77 1802.37 3079.77 1808.44 3078.89 1813.58 3078.89 1813.55 3078.2 1817.84 3077.5 1821.51 3076.93 1824.59 3076.27 1827.32 3075.61 1829.92 3073.99 1834.72 3072.94 1837.47 3071.66 1840.47 3071.67 1840.45 3070.23 1843.9 3068.48 1848.03 3068.48 1848.01 3066.43 1852.94 3063.71 1859.49 3049.15 1873.27 3041.95 1879.84 3034.41 1886.17 3023.59 1893.74 3012.45 1900.72 3012.51 1900.69 3001.63 1907.81 3001.81 1907.69 2996.62 1911.57 2996.81 1911.42 2991.87 1915.67 2992.17 1915.37 2986.11 1922.06 2986.38 1921.72 2981.13 1929.22 2981.22 1929.09 2976.25 1936.94 2970.64 1945.3 2961.83 1950.15 2953.62 1954.53 2953.69 1954.49 2945.63 1959.05 2945.84 1958.92 2938.16 1964.05 2938.43 1963.85 2936.36 1965.54 2936.55 1965.37 2934.12 1967.68 2934.18 1967.62 2931.43 1970.37 2931.5 1970.29 2928.57 1973.42 2928.64 1973.34 2922.32 1980.47 2922.37 1980.41 2915.81 1988.16 2915.82 1988.14 2909.45 1995.77 2909.46 1995.75 2903.77 2002.63 2901.33 2005.57 2899.18 2008.17 2897.38 2010.23 2896.06 2011.68 2892.04 2015.75 2888.34 2019.33 2884.88 2022.41 2881.58 2025.19 2875.41 2029.82 2869.38 2033.73 2863.12 2037.46 2856.17 2041.53 2856.23 2041.49 2852.36 2043.87 2852.37 2043.86 2848.12 2046.49 2848.21 2046.43 2843.59 2049.49 2843.62 2049.47 2838.56 2052.91 2838.65 2052.84 2831.33 2058.16 2831.45 2058.06 2824.4 2063.68 2809.72 2075.43 2803.13 2076.92 2798.13 2078.04 2793.67 2079.05 2789.77 2079.86 2789.8 2079.86 2786.36 2080.61 2786.44 2080.59 2783.38 2081.34 2783.41 2081.33 2777.79 2082.77 2777.96 2082.72 2772.52 2084.41 2772.7 2084.34 2766.52 2086.66 2766.6 2086.62 2763.04 2088.06 2763.05 2088.06 2758.93 2089.74 2758.95 2089.73 2754.33 2091.67 2754.37 2091.65 2749.06 2093.96 2749.16 2093.92 2741.91 2097.36 2742.12 2097.25 2735.12 2101.18 2735.44 2100.98 2730.13 2104.79 2730.34 2104.63 2725.19 2108.95 2719.7 2113 2716.54 2114.83 2713.29 2116.21 2704.42 2119.21 2695.47 2121.88 2677.56 2126.4 2659.58 2130.54 2659.62 2130.53 2640.91 2135.04 2611.22 2127.36 2609.69 2126.59 2608.19 2125.38 2605.46 2122.36 2602.36 2118.15 2598.97 2112.97 2595.24 2106.89 2591.33 2100.14 2587.31 2092.98 2583.23 2085.51 2575.27 2070.67 2571.57 2063.58 2568.19 2057.07 2565.25 2051.31 2565.26 2051.33 2562.76 2046.52 2562.77 2046.54 2560.83 2042.84 2560.14 2041.53 2560.19 2041.62 2559.63 2040.62 2559.69 2040.73 2556.25 2035.1 2556.32 2035.2 2552.68 2029.69 2545.51 2018.55 2543.39 2014.96 2541.18 2010.98 2536.29 2002.14 2531.14 1992.41 2525.94 1982.37 2520.91 1972.32 2516.39 1962.9 2514.38 1958.56 2512.55 1954.52 2510.96 1950.91 2509.62 1947.64 2507.6 1942.35 2507.61 1942.36 2505.78 1937.64 2504.26 1933.4 2502.94 1929.7 2501.81 1926.42 2500.85 1923.55 2500.07 1921.01 2499.48 1918.77 2498.68 1915.39 2498.31 1912.88 2498.31 1910.91 2498.86 1908.9 2500.01 1907.76 2499 1910.19 2499 1909.94 2499.31 1911.36 2499 1910.67 2499.24 1911.12 2498.42 1909.86 2497.1 1907.78 2497.11 1907.8 2495.04 1904.61 2493.72 1902.53 2493.73 1902.54 2492.17 1900.1 2493.11 1901.08 2488.03 1897.57 2484.02 1894.75 2484.09 1894.8 2480.91 1892.67 2480.92 1892.68 2478.36 1891 2478.65 1891.16 2476.4 1889.98 2476.62 1890.09 2474.62 1889.21 2474.94 1889.33 2472.82 1888.65 2473.06 1888.71 2470.75 1888.15 2470.9 1888.19 2468.03 1887.62 2468.09 1887.64 2464.52 1887.01 2459.98 1886.19 2454.31 1885.05 2451.02 1884.36 2447.31 1883.54 2443.22 1882.6 2438.7 1881.53 2433.74 1880.34 2428.27 1878.95 2422.3 1877.38 2415.85 1875.63 2416.81 1875.75 2391.85 1876.19 2366.89 1876.31 2366.94 1876.31 2354.44 1876.56 2354.51 1876.56 2342.08 1877.06 2342.2 1877.05 2329.76 1877.99 2329.9 1877.98 2317.52 1879.41 2317.87 1879.36 2313.62 1880.29 2314.01 1880.18 2309.88 1881.62 2310.17 1881.51 2306.17 1883.32 2306.4 1883.2 2302.53 1885.33 2302.59 1885.29 2294.74 1889.81 2290.67 1892.01 2286.5 1893.96 2263.28 1903.38 2239.44 1912.79 2230.57 1912.31 2230.67 1912.31 2222.36 1912.12 2213.94 1911.34 2209.57 1910.3 2205.37 1908.76 2202.31 1907.04 2199.27 1904.57 2196.26 1901.62 2193.25 1898.22 2190.22 1894.49 2187.21 1890.45 2181.32 1881.97 2175.91 1873.46 2173.39 1869.43 2171.13 1865.73 2171.14 1865.75 2169.07 1862.43 2167.31 1859.54 2167.33 1859.56 2165.89 1857.25 2165.99 1857.39 2164.86 1855.77 2165.01 1855.96 2158.94 1848.4 2159.02 1848.5 2152.71 1841.18 2152.74 1841.22 2146.26 1833.92 2140.03 1826.29 2135.89 1820.62 2131.22 1813.94 2126.25 1806.52 2121.16 1798.66 2116.21 1790.75 2111.55 1783.21 2107.45 1776.2 2104.15 1770.23 2094.9 1751.74 2086.23 1732.95 2079.2 1716.2 2075.7 1707.83 2075.74 1707.9 2072.05 1699.65 2072.13 1699.82 2067.82 1691.45 2067.88 1691.56 2063.24 1683.29 2058.65 1674.93 2054.13 1666.15 2053.22 1662.44 2052.89 1658.75 2052.95 1659.14 2052.32 1656.14 2052.94 1657.5 2052.19 1656.5 2053.27 1657.44 2052.14 1656.82 2053.26 1657.2 2050.2 1656.7 2050.75 1656.75 2047.69 1656.75 2048.16 1656.72 2045.04 1657.15 2045.3 1657.11 2042.18 1657.79 2042.33 1657.76 2036.01 1659.46 2028.59 1661.1 2023.82 1659.03 2023.97 1659.09 2020.02 1657.6 2015.87 1655.6 2012.13 1652.47 2007.54 1645.9 2004.04 1639.01 2000.83 1632.22 2000.9 1632.37 1997.4 1625.8 1997.58 1626.1 1988.83 1613.04 1988.88 1613.1 1979.81 1600.23 1980.47 1600.93 1977.85 1598.82 1975.17 1596.47 1970.18 1591.66 1970.4 1591.86 1967.77 1589.73 1968.02 1589.91 1965.33 1588.1 1965.88 1588.4 1963 1587.15 1963.75 1587.38 1960.69 1586.82 1961.39 1586.87 1955.51 1587 1955.95 1586.96 1950.14 1587.84 1950.45 1587.77 1944.64 1589.21 1944.82 1589.16 1939.14 1590.91 1939.22 1590.88 1927.67 1594.77 1921.76 1596.58 1915.69 1597.94 1906.61 1599.29 1897.62 1600.17 1879.1 1601.73 1878.06 1601.43 1878.36 1601.5 1877.01 1601.24 1874.91 1600.8 1875.02 1600.82 1872.16 1600.31 1868.8 1599.62 1868.85 1599.62 1864.95 1598.87 1860.68 1597.99 1860.73 1598 1856.17 1597.13 1846.35 1595.25 1846.39 1595.26 1836.39 1593.44 1836.42 1593.45 1826.86 1591.83 1826.91 1591.83 1822.47 1591.15 1822.52 1591.15 1818.52 1590.59 1818.59 1590.6 1799.96 1588.35 1800.04 1588.36 1781.36 1586.55 1781.38 1586.55 1743.94 1583.17 1745.08 1583.08 1738.05 1584.84 1730.82 1586.48 1730.85 1586.47 1723.66 1588.16 1723.78 1588.13 1716.65 1590.07 1716.89 1589.99 1709.95 1592.43 1710.33 1592.27 1703.83 1595.46 1704.27 1595.2 1698.2 1599.39 1698.69 1598.98 1693.32 1604.42 1693.74 1603.91 1691.49 1607.28 1691.76 1606.79 1690.07 1610.54 1690.13 1610.41 1688.55 1614.32 1686.38 1619.4 1660.23 1631.04 1655.54 1632.96 1650.27 1634.82 1644.53 1636.61 1638.37 1638.33 1625.13 1641.54 1611.11 1644.43 1596.99 1647.13 1583.34 1649.51 1576.82 1650.64 1570.75 1651.64 1570.78 1651.64 1565.02 1652.64 1559.6 1653.55 1547.5 1654 1547.55 1654 1536.74 1654.56 1536.78 1654.56 1527.03 1655.18 1527.06 1655.18 1518.24 1655.8 1518.32 1655.8 1510.39 1656.55 1510.42 1656.54 1503.3 1657.29 1503.35 1657.29 1497.1 1658.04 1497.15 1658.03 1491.58 1658.78 1491.65 1658.77 1486.77 1659.52 1486.85 1659.51 1482.6 1660.26 1482.7 1660.24 1479.07 1660.99 1479.11 1660.98 1475.99 1661.67 1476.05 1661.66 1473.42 1662.28 1473.46 1662.27 1471.21 1662.83 1471.3 1662.81 1467.86 1663.77 1465.09 1664.42 1462.46 1664.52 1459.9 1663.7 1457.62 1662.24 1455.04 1660.18 1453.48 1658.93 1453.53 1658.98 1451.66 1657.54 1451.68 1657.55 1449.36 1655.8 1449.43 1655.85 1446.74 1653.91 1446.8 1653.96 1443.62 1651.77 1443.66 1651.8 1439.91 1649.3 1439.99 1649.35 1422.18 1638.23 1422.99 1638.6 1417.09 1636.78 1411.87 1635.08 1411.94 1635.1 1407.15 1633.65 1402.93 1632.27 1402.96 1632.28 1399.22 1631.09 1395.84 1630.03 1395.87 1630.04 1390.12 1628.29 1390.17 1628.3 1385.42 1626.93 1385.51 1626.95 1381.44 1625.89 1381.53 1625.91 1377.78 1625.03 1377.96 1625.07 1374.09 1624.38 1374.15 1624.39 1369.83 1623.71 1369.88 1623.71 1364.75 1622.96 1364.82 1622.97 1361.82 1622.6 1358.4 1622.15 1354.61 1621.59 1354.67 1621.59 1350.48 1621.03 1345.78 1620.4 1340.57 1619.65 1340.59 1619.65 1334.76 1618.84 1328.31 1617.9 1321.22 1616.83 1313.39 1615.58 1313.42 1615.59 1304.78 1614.27 1295.39 1612.77 1296.45 1612.77 1246.63 1620.21 1246.71 1620.2 1238.09 1621.7 1238.24 1621.67 1229.74 1623.54 1229.92 1623.5 1212.98 1628.19 1213.08 1628.16 1196.26 1633.35 1196.28 1633.34 1179.53 1638.59 1165.78 1642.9 1165.92 1642.86 1152.23 1647.8 1152.44 1647.71 1139.19 1653.52 1139.41 1653.42 1132.97 1656.79 1133.14 1656.7 1126.89 1660.45 1127.09 1660.32 1120.71 1664.76 1120.87 1664.64 1114.74 1669.46 1108.57 1674.25 1102.21 1678.89 1097.9 1681.74 1094.2 1684.18 1090.94 1686.31 1090.95 1686.31 1088.18 1688.14 1085.77 1689.66 1083.75 1690.92 1080.71 1692.79 1078.59 1693.93 1076.53 1694.77 1073.97 1694.45 1072.49 1692.97 1072.05 1692.1 1073.92 1693.78 1073.42 1693.59 1075.03 1693.79 1073.96 1693.91 1074.55 1693.79 1072.68 1694.35 1073.01 1694.24 1070.01 1695.49 1070.15 1695.42 1068.15 1696.36 1068.22 1696.32 1065.85 1697.51 1065.9 1697.48 1063.15 1698.93 1059.9 1700.61 1059.95 1700.58 1056.26 1702.58 1056.3 1702.56 1052.05 1704.94 1052.32 1704.77 1046.94 1708.46 1047.19 1708.27 1042.08 1712.5 1036.68 1716.66 1033.58 1718.5 1030.31 1719.96 1023.99 1722.04 1017.63 1723.78 1005.05 1726.5 992.435 1728.82 992.467 1728.81 978.578 1731.51 972.119 1727.48 972.134 1727.49 967.573 1724.68 963.476 1722.16 959.867 1719.81 953.515 1715.62 947.758 1711.27 944.736 1708.83 941.536 1706.08 938.109 1702.97 934.263 1699.37 929.925 1695.22 924.976 1690.4 924.985 1690.41 919.289 1684.9 912.68 1678.42 904.832 1669.35 897.979 1659.26 895.015 1653.53 892.528 1647.73 890.09 1642.04 890.234 1642.34 887.296 1636.96 887.509 1637.3 883.384 1631.49 883.5 1631.64 879.063 1626.08 879.132 1626.16 869.882 1615.29 870.042 1615.46 867.354 1612.71 867.495 1612.85 864.577 1610.19 861.628 1607.31 858.975 1603.95 852.326 1592.77 846.163 1581.51 840.154 1570.24 840.195 1570.32 833.945 1559.25 834.03 1559.4 823.467 1542.65 823.493 1542.69 812.681 1526.06 812.726 1526.13 807.976 1519.19 808.072 1519.32 803.009 1512.64 803.123 1512.78 792.31 1499.97 792.37 1500.04 781.156 1487.44 770.172 1474.5 767.352 1470.63 764.799 1466.68 764.871 1466.78 762.246 1463.03 762.406 1463.24 759.531 1459.74 759.866 1460.1 754.679 1455.35 754.856 1455.5 749.286 1451.06 743.67 1446.52 738.297 1441.41 729.873 1431.27 721.944 1420.88 714.184 1410.49 714.256 1410.59 706.131 1400.46 706.293 1400.65 695.793 1389.34 695.875 1389.42 685 1378.49 685.049 1378.53 673.987 1367.85 674.14 1367.99 662.453 1357.99 662.483 1358.01 650.647 1348.12 638.881 1337.92 633.137 1332.5 627.798 1326.31 624.713 1321.48 622.146 1316.6 622.154 1316.62 619.654 1311.93 619.761 1312.12 616.949 1307.55 617.162 1307.86 612.787 1302.24 612.909 1302.38 608.208 1296.99 603.471 1291.42 599.127 1285.3 595.145 1277.73 591.838 1270.04 588.588 1262.41 588.735 1262.71 584.798 1255.53 585.017 1255.88 580.142 1249.06 580.299 1249.27 574.924 1242.83 574.972 1242.88 563.909 1230.2 565.133 1231.09 522.162 1212.47 518.832 1210.25 516.354 1207.13 514.57 1203.71 513.135 1200.25 510.444 1193.68 510.689 1194.16 508.939 1191.29 509.478 1191.96 507.165 1189.71 507.903 1190.26 503.028 1187.57 503.773 1187.88 498.336 1186.38 499.021 1186.49 493.396 1186.12 494.133 1186.09 488.696 1186.9 489.223 1186.78 484.473 1188.28 484.781 1188.16 480.219 1190.1 480.523 1189.95 471.71 1194.77 471.84 1194.69 463.125 1199.96 453.278 1205.66 451.607 1205.38 450.655 1205.17 450.732 1205.19 449.413 1204.94 447.781 1204.62 443.631 1203.81 438.748 1202.79 433.728 1201.58 429.005 1200.36 425.072 1199 423.387 1198.2 421.974 1197.29 418.452 1193.55 415.643 1189.54 410.605 1181.67 410.84 1181.99 404.34 1174.05 404.538 1174.27 397.351 1166.9 397.456 1167 389.924 1159.91 382.557 1152.61 376.159 1146.02 376.18 1146.04 370.868 1140.67 370.882 1140.68 366.507 1136.31 366.528 1136.33 362.966 1132.83 362.999 1132.86 360.124 1130.11 360.136 1130.12 357.727 1127.84 355.771 1125.88 354.145 1124.12 351.412 1120.72 350.04 1118.66 348.607 1116.32 346.951 1113.45 344.94 1109.87 344.953 1109.89 342.457 1105.53 339.332 1100.09 339.448 1100.27 335.51 1094.34 335.729 1094.63 331.167 1089.13 331.235 1089.21 326.513 1083.86 321.877 1078.27 293.336 1041.22 279.053 1022.61 257.71 992.945 258.542 993.763 237.167 978.95 237.389 979.092 231.514 975.654 231.892 975.845 225.642 973.158 225.783 973.215 219.321 970.768 212.932 968.238 186.947 956.955ZM188.316 953.802 187.597 978.473 171.5 946.5 205.852 936.432ZM4177.64 968.889 4148.39 966.509 4196.5 948.878 4181.74 997.948Z" fill="#595959"/><path d="M3208.99 1752.08C3205.45 1752.08 3202.78 1752.15 3200.99 1752.3L3200.99 1784.79 3207.22 1784.79C3211.26 1784.79 3214.6 1784.26 3217.24 1783.21 3219.87 1782.15 3221.88 1780.4 3223.28 1777.94 3224.67 1775.49 3225.37 1772.24 3225.37 1768.19 3225.37 1765.11 3224.96 1762.55 3224.14 1760.49 3223.31 1758.43 3222.18 1756.77 3220.73 1755.52 3219.28 1754.26 3217.55 1753.38 3215.54 1752.86 3213.54 1752.34 3211.35 1752.08 3208.99 1752.08ZM3184.66 1747.35 3211.3 1747.35C3219.68 1747.35 3225.92 1748.96 3230.02 1752.16 3234.12 1755.37 3236.17 1760.24 3236.17 1766.8 3236.17 1770.52 3235.52 1773.87 3234.23 1776.84 3232.95 1779.81 3231.12 1782.25 3228.76 1784.15 3226.39 1786.04 3223.6 1787.4 3220.38 1788.23 3217.15 1789.05 3213.77 1789.46 3210.23 1789.46 3206.25 1789.46 3203.17 1789.39 3200.99 1789.25L3200.99 1807.08C3200.99 1809.19 3201.1 1810.88 3201.34 1812.13 3201.57 1813.38 3201.93 1814.38 3202.41 1815.11 3202.89 1815.84 3203.55 1816.42 3204.37 1816.83 3205.19 1817.24 3206.48 1817.64 3208.24 1818.04L3208.24 1820.67 3184.66 1820.67 3184.66 1818.04C3186.88 1817.46 3188.37 1816.83 3189.12 1816.13 3189.87 1815.43 3190.36 1814.44 3190.59 1813.15 3190.83 1811.86 3190.94 1809.89 3190.94 1807.24L3190.94 1760.78C3190.94 1758.31 3190.85 1756.51 3190.68 1755.38 3190.5 1754.26 3190.2 1753.38 3189.79 1752.75 3189.38 1752.13 3188.83 1751.62 3188.15 1751.25 3187.47 1750.87 3186.31 1750.45 3184.66 1749.99Z" fill-rule="evenodd"/><text fill="#000000" fill-opacity="0" font-family="Arial,Arial_MSFontService,sans-serif" font-size="73.3154" x="3184.66" y="1811.5">P</text><path d="M298.844 671.062 4057.94 671.063 4057.94 677.938 298.844 677.937ZM298.833 674.5 308 697.417 280.5 674.5 308 651.583ZM4057.93 674.5 4039.6 651.584 4085.43 674.5 4039.6 697.417Z" fill="#595959"/><path d="M2164.5 552.805 2220.58 552.805 2216.39 571.711 2211.23 571.711C2211.23 568.238 2211.14 565.633 2210.96 563.896 2210.79 562.16 2210.45 560.835 2209.94 559.922 2209.44 559.008 2208.83 558.382 2208.09 558.042 2207.36 557.702 2206.06 557.531 2204.2 557.531L2196.25 557.531 2184.59 610.49C2184.27 611.887 2184.05 612.997 2183.92 613.82 2183.8 614.644 2183.69 615.512 2183.6 616.425 2183.51 617.339 2183.46 618.153 2183.46 618.869 2183.46 619.979 2183.64 620.848 2184 621.474 2184.36 622.101 2184.9 622.557 2185.61 622.844 2186.33 623.13 2187.56 623.345 2189.32 623.488L2188.73 626.12 2166.12 626.12 2166.71 623.488C2168.14 623.274 2169.2 622.987 2169.88 622.629 2170.56 622.271 2171.16 621.716 2171.68 620.964 2172.19 620.212 2172.71 619.03 2173.23 617.419 2173.75 615.808 2174.37 613.373 2175.09 610.114L2186.58 557.531 2179.76 557.531C2177.54 557.531 2175.77 557.854 2174.44 558.498 2173.12 559.143 2171.79 560.342 2170.47 562.097 2169.14 563.851 2167.53 566.788 2165.63 570.905L2160.48 570.905Z" fill-rule="evenodd"/><text fill="#000000" fill-opacity="0" font-family="Arial,Arial_MSFontService,sans-serif" font-size="73.3154" x="2160.48" y="616.956">𝑇</text><path d="M4093 839C4095.29 829.847 4102.01 818.692 4105.87 813.258 4109.73 807.824 4113.1 809.153 4116.16 806.393 4136.15 788.4 4141.08 783.148 4153.91 761.774 4161.22 749.575 4169.63 734.602 4174.49 724.019 4179.35 713.436 4179.93 704.713 4183.07 698.278 4186.22 691.842 4189.5 689.411 4193.36 685.407 4197.22 681.402 4199.66 679.829 4206.23 674.251 4212.81 668.674 4226.1 658.52 4232.82 651.942 4239.54 645.364 4241.73 640.294 4246.55 634.781 4249.75 631.128 4253.41 627.916 4256.84 624.484L4270.57 583.297 4274 573" stroke="#7F7F7F" stroke-width="27.5" stroke-miterlimit="8" fill="#F2F2F2" fill-rule="evenodd"/><path d="M248 836C245.125 835.427 241.997 835.587 239.375 834.281 237.102 833.148 234.033 831.5 231.613 830.842 229.925 830.384 228.138 830.39 226.438 829.983 220.945 828.669 210.05 825.685 210.05 825.685 208.038 824.252 206.1 822.71 204.013 821.386 202.928 820.698 201.609 820.412 200.563 819.667 199.571 818.961 199.066 817.632 197.975 817.089 196.104 816.156 193.936 815.991 191.938 815.37 184.904 813.179 185.461 813.303 179.863 811.071 178.713 809.352 177.13 807.853 176.413 805.914 175.087 802.327 174.756 798.448 173.826 794.739 173.031 791.569 172.101 788.435 171.239 785.283 170.09 761.254 172.675 773.961 168.651 762.933 168.03 761.23 167.797 759.367 166.926 757.776 165.527 755.22 158.858 748.657 157.439 747.461 155.856 746.126 153.9 745.291 152.264 744.022 149.676 742.016 146.99 740.131 144.502 738.005 140.774 734.821 137.058 730.337 135.014 725.971 133.002 721.673 130.549 717.553 128.977 713.076 126.511 706.055 122.939 691.586 122.939 691.586 124.494 687.454 129.116 675.729 128.977 672.675 128.577 663.918 125.645 655.458 123.802 646.887 123.151 643.861 119.987 631.364 118.627 627.975 114.87 618.615 102.735 600.937 99.6523 596.17 96.3454 591.056 81.585 569.612 78.9526 564.365L71.1903 548.892C70.0403 543.161 69.1265 537.378 67.7404 531.7 66.5364 526.766 63.9152 522.141 63.4277 517.086 62.4646 507.104 63.4277 497.029 63.4277 487" stroke="#7F7F7F" stroke-width="27.5" stroke-miterlimit="8" fill="none" fill-rule="evenodd"/><path d="M0 0 0.000360892 261.96" stroke="#595959" stroke-width="6.875" stroke-miterlimit="8" stroke-dasharray="27.5 20.625" fill="none" fill-rule="evenodd" transform="matrix(1 0 0 -1 4084.5 834.459)"/><path d="M0 0 0.000360892 261.96" stroke="#595959" stroke-width="6.875" stroke-miterlimit="8" stroke-dasharray="27.5 20.625" fill="none" fill-rule="evenodd" transform="matrix(1 0 0 -1 282.5 842.46)"/><path d="M0 0 131.53 134.877" stroke="#595959" stroke-width="6.875" stroke-miterlimit="8" stroke-dasharray="27.5 20.625" fill="none" fill-rule="evenodd" transform="matrix(-1 0 0 1 286.03 839.5)"/><path d="M4219.83 976.427 4093.5 839.5" stroke="#595959" stroke-width="6.875" stroke-miterlimit="8" stroke-dasharray="27.5 20.625" fill="none" fill-rule="evenodd"/></g></svg>